<svg xmlns="http://www.w3.org/2000/svg" xmlns:xlink="http://www.w3.org/1999/xlink" width="150" zoomAndPan="magnify" viewBox="0 0 112.5 112.499997" height="150" preserveAspectRatio="xMidYMid meet" version="1.0"><defs><clipPath id="b093d1511f"><path d="M 19.734375 26 L 93.347656 26 L 93.347656 86 L 19.734375 86 Z M 19.734375 26 " clip-rule="nonzero"/></clipPath></defs><g clip-path="url(#b093d1511f)"><path fill="#5f6738" d="M 43.875 35.867188 C 43.878906 34.902344 43.648438 33.929688 44.898438 33.664062 C 48.714844 32.84375 52.414062 32.144531 56 31.566406 C 56.820312 31.433594 57.59375 31.664062 58.324219 32.257812 C 58.390625 32.3125 58.480469 32.316406 58.550781 32.269531 C 59.164062 31.875 59.84375 31.683594 60.585938 31.699219 C 60.726562 31.699219 60.835938 31.816406 60.835938 31.953125 C 60.835938 32.007812 60.8125 32.058594 60.78125 32.105469 L 60.671875 32.242188 C 60.539062 32.417969 60.339844 32.53125 60.125 32.558594 L 59.332031 32.664062 C 59.277344 32.671875 59.242188 32.722656 59.25 32.777344 C 59.25 32.800781 59.265625 32.824219 59.285156 32.839844 L 60.964844 34.148438 C 61 34.175781 61.050781 34.167969 61.078125 34.132812 C 61.089844 34.117188 61.097656 34.097656 61.09375 34.082031 L 61.023438 31.851562 C 61.023438 31.84375 61.023438 31.832031 61.023438 31.820312 C 60.777344 30.195312 60.683594 28.800781 62.402344 28.1875 C 63.929688 27.648438 65.394531 27.613281 67.234375 27.394531 C 68.59375 27.230469 70.320312 27.253906 71.355469 27.300781 C 72.234375 27.34375 72.582031 27.902344 73.125 28.261719 C 73.175781 28.296875 73.242188 28.300781 73.300781 28.277344 C 74.1875 27.921875 74.808594 27.714844 75.160156 27.664062 C 75.757812 27.574219 76.171875 27.425781 76.636719 27.316406 C 78.054688 26.988281 80.101562 26.59375 82.777344 26.132812 C 83.367188 26.035156 83.964844 26.003906 84.566406 26.050781 C 85.925781 26.152344 87.269531 27.230469 88.195312 28.214844 C 89.253906 29.328125 90.261719 30.261719 91.339844 31.363281 C 92.335938 32.382812 92.554688 33.277344 92.972656 34.933594 C 92.996094 35.039062 93.007812 35.144531 93.007812 35.253906 C 93.007812 36.765625 93.019531 37.613281 93.042969 37.792969 C 93.164062 38.683594 93.195312 39.863281 93.132812 41.328125 C 93.09375 42.257812 93.074219 42.851562 93.074219 43.113281 C 93.066406 45.183594 93.132812 46.320312 93 47.851562 C 92.980469 48.105469 92.917969 49.140625 92.816406 50.957031 C 92.742188 52.300781 92.808594 53.683594 92.609375 55.066406 C 92.53125 55.605469 92.496094 56.234375 92.496094 56.945312 C 92.5 58.484375 92.5 60.03125 92.496094 61.585938 C 92.492188 61.980469 92.390625 62.425781 92.390625 62.808594 C 92.386719 65.160156 92.578125 66.433594 91.898438 68.136719 C 91.382812 69.433594 90.804688 70.507812 90.167969 71.359375 C 89.707031 71.976562 89.042969 72.410156 88.179688 72.660156 C 86.683594 73.09375 85.324219 72.949219 84.101562 72.230469 C 83.988281 72.164062 83.855469 72.136719 83.726562 72.15625 L 82.292969 72.347656 C 82.195312 72.359375 82.109375 72.417969 82.066406 72.503906 C 80.929688 74.679688 79.503906 76.839844 77.632812 78.671875 C 75.4375 80.824219 72.371094 82.324219 69.417969 83.621094 C 67.964844 84.261719 66.964844 84.707031 65.753906 84.828125 C 63.9375 85.011719 62.257812 84.835938 60.222656 84.585938 C 57.921875 84.304688 55.328125 83.566406 53.484375 82.777344 C 52.792969 82.480469 51.917969 81.953125 50.859375 81.199219 C 50.820312 81.171875 50.769531 81.179688 50.742188 81.214844 C 50.597656 81.414062 50.460938 81.535156 50.328125 81.578125 C 47.792969 82.382812 45.308594 83.25 42.882812 84.183594 C 41.957031 84.539062 41.097656 84.800781 40.296875 84.964844 C 38.125 85.417969 36.738281 85.683594 36.140625 85.761719 C 34.929688 85.917969 34.011719 85.984375 33.390625 85.96875 C 33.289062 85.96875 32.800781 85.929688 31.925781 85.863281 C 30.605469 85.757812 29.484375 85.269531 28.398438 84.519531 C 27.207031 83.703125 26.230469 82.25 25.199219 81.246094 C 23.820312 79.90625 23.179688 78.554688 22.777344 76.675781 C 22.523438 75.488281 22.820312 73.863281 22.6875 72.714844 C 22.507812 71.136719 22.660156 69.582031 22.523438 68.09375 C 22.375 66.488281 22.457031 65.433594 22.425781 63.832031 C 22.417969 63.390625 22.300781 62.90625 22.300781 62.546875 C 22.296875 59.914062 22.296875 56.941406 22.304688 53.625 C 22.304688 53.386719 22.269531 52.859375 22.199219 52.035156 C 22.191406 51.941406 22.140625 51.855469 22.0625 51.804688 C 21.34375 51.332031 20.578125 50.785156 20.144531 49.925781 C 19.378906 48.421875 20.714844 47.925781 21.828125 47.632812 C 21.90625 47.613281 21.957031 47.546875 21.953125 47.46875 C 21.914062 46.421875 21.914062 45.582031 21.953125 44.949219 C 22.042969 43.382812 22.101562 42.550781 22.125 42.449219 C 22.421875 41.214844 23.464844 40.421875 24.71875 40.222656 C 26.214844 39.984375 27.71875 39.335938 29.050781 39.035156 C 29.882812 38.847656 31.449219 38.574219 33.757812 38.214844 C 34.574219 38.085938 35.714844 37.710938 36.695312 37.523438 C 38.945312 37.089844 41.101562 36.59375 43.164062 36.027344 C 43.269531 35.996094 43.382812 35.984375 43.492188 35.988281 L 43.742188 35.996094 C 43.8125 36 43.871094 35.945312 43.875 35.875 C 43.875 35.871094 43.875 35.871094 43.875 35.867188 Z M 45.03125 66.875 C 45.265625 66 45.679688 64.488281 46.183594 63.355469 C 46.574219 62.484375 46.902344 61.703125 47.179688 61.007812 C 47.78125 59.480469 48.21875 58.847656 49.132812 57.21875 C 50.035156 55.609375 51.214844 54.125 52.667969 52.757812 C 53.796875 51.695312 54.933594 50.699219 56.082031 49.769531 C 56.707031 49.261719 57.234375 48.902344 57.660156 48.695312 C 59.105469 47.992188 60.757812 47.34375 62.621094 46.753906 C 63.046875 46.621094 63.492188 46.574219 63.953125 46.496094 C 64.199219 46.453125 65.453125 46.320312 67.710938 46.09375 C 68.054688 46.058594 69.367188 46.074219 71.648438 46.132812 C 72.492188 46.15625 73.144531 46.253906 73.601562 46.425781 C 74.6875 46.832031 75.863281 47.742188 76.738281 48.617188 C 77.519531 49.394531 78.132812 50.019531 78.585938 50.496094 C 81.015625 53.050781 82.578125 56.621094 83.648438 60.03125 C 84.085938 61.417969 84.246094 62.855469 84.132812 64.339844 C 84.019531 65.871094 83.765625 67.605469 83.375 69.546875 C 83.335938 69.742188 83.164062 70.230469 82.867188 71.003906 C 82.851562 71.042969 82.871094 71.082031 82.910156 71.097656 C 82.921875 71.101562 82.933594 71.101562 82.949219 71.101562 C 83.515625 70.980469 83.914062 70.945312 84.140625 71.003906 C 84.683594 71.140625 85.21875 71.566406 85.761719 71.691406 C 86.410156 71.84375 87.078125 71.84375 87.761719 71.695312 C 88.671875 71.5 89.367188 70.976562 89.84375 70.125 C 90.441406 69.0625 90.863281 68.160156 91.109375 67.421875 C 91.300781 66.851562 91.386719 66.292969 91.363281 65.75 C 91.332031 64.859375 91.335938 63.929688 91.378906 62.972656 C 91.460938 60.933594 91.421875 59.160156 91.421875 57 C 91.421875 56.324219 91.472656 55.570312 91.574219 54.738281 C 91.648438 54.117188 91.691406 53.273438 91.699219 52.207031 C 91.703125 51.464844 91.78125 50.066406 91.933594 48.015625 C 92.019531 46.859375 92.058594 45.960938 92.050781 45.320312 C 92.042969 44.769531 92.042969 43.867188 92.050781 42.613281 C 92.054688 41.75 92.195312 40.765625 92.15625 39.804688 C 92.089844 38.160156 92.046875 37.152344 92.03125 36.78125 C 92.027344 36.753906 92.003906 36.730469 91.972656 36.734375 C 91.957031 36.734375 91.945312 36.738281 91.9375 36.75 C 91 37.90625 89.886719 38.679688 88.597656 39.0625 C 88.574219 39.070312 88.546875 39.078125 88.519531 39.078125 L 86.21875 39.316406 C 86.148438 39.320312 86.097656 39.378906 86.09375 39.445312 C 86.054688 40.785156 86.1875 42.269531 86.097656 43.605469 C 86.035156 44.515625 86.003906 45.183594 86.003906 45.617188 C 86.011719 47.242188 86.011719 49.984375 86.011719 53.835938 C 86.011719 54.574219 86.027344 55.347656 86.066406 56.15625 C 86.113281 57.222656 86.113281 57.996094 86.066406 58.476562 C 85.953125 59.628906 85.929688 61.136719 85.992188 63.003906 C 86.023438 63.875 86.019531 66.289062 85.984375 70.253906 C 85.984375 70.511719 85.769531 70.722656 85.507812 70.71875 C 85.503906 70.71875 85.5 70.71875 85.496094 70.71875 L 85.476562 70.71875 C 85.210938 70.710938 85 70.492188 84.996094 70.226562 C 84.964844 66.839844 84.976562 63.589844 85.03125 60.480469 C 85.039062 59.917969 85.066406 59.222656 85.105469 58.394531 C 85.148438 57.453125 85.113281 56.492188 85.003906 55.507812 C 84.960938 55.140625 84.9375 54.359375 84.933594 53.167969 C 84.933594 52.496094 84.941406 50.5 84.96875 47.175781 C 84.976562 46.210938 85.007812 44.929688 85.058594 43.328125 C 85.128906 41.320312 85.140625 40.039062 85.101562 39.484375 C 85.050781 38.832031 85.347656 38.472656 85.996094 38.40625 C 86.972656 38.308594 87.5 38.257812 87.585938 38.253906 C 88.820312 38.195312 89.648438 37.746094 90.53125 36.992188 C 91.019531 36.570312 91.507812 36.058594 91.988281 35.453125 C 92.023438 35.40625 92.039062 35.347656 92.03125 35.292969 C 91.980469 34.984375 91.832031 34.449219 91.585938 33.6875 C 91.371094 33.011719 90.996094 32.417969 90.460938 31.910156 C 89.464844 30.972656 88.355469 29.882812 87.136719 28.648438 C 86.824219 28.328125 86.410156 27.984375 85.890625 27.613281 C 85.105469 27.054688 84.230469 26.859375 83.277344 27.042969 C 81.523438 27.375 79.769531 27.707031 78.011719 28.042969 C 77.632812 28.113281 77.152344 28.242188 76.5625 28.421875 C 76.507812 28.441406 76.449219 28.453125 76.394531 28.457031 C 75.5 28.554688 74.605469 28.765625 73.714844 29.082031 C 73.601562 29.121094 73.527344 29.234375 73.53125 29.351562 C 73.558594 30.480469 73.769531 31.773438 74.152344 33.242188 C 74.285156 33.746094 74.136719 34.121094 73.699219 34.367188 C 72.332031 35.128906 71.109375 35.417969 69.25 35.839844 C 67.410156 36.261719 65.421875 35.96875 63.617188 35.519531 C 63.441406 35.476562 63.273438 35.410156 63.117188 35.320312 L 61.820312 34.5625 C 61.777344 34.539062 61.71875 34.554688 61.695312 34.601562 C 61.679688 34.632812 61.679688 34.667969 61.699219 34.699219 C 61.75 34.765625 61.855469 34.886719 62.027344 35.058594 C 62.394531 35.433594 62.5625 35.910156 62.472656 36.488281 C 62.421875 36.828125 62.371094 37.464844 62.320312 38.386719 C 62.308594 38.578125 62.199219 38.75 62.03125 38.839844 C 61.257812 39.253906 60.457031 39.582031 59.632812 39.824219 C 57.355469 40.496094 56.136719 40.972656 54.246094 41.300781 C 53.757812 41.382812 52.683594 41.597656 51.023438 41.941406 C 50.992188 41.945312 50.960938 41.957031 50.9375 41.976562 C 50.710938 42.148438 50.46875 42.15625 50.207031 41.996094 C 49.601562 41.625 49.191406 41.382812 48.980469 41.273438 C 48.910156 41.238281 48.84375 41.210938 48.773438 41.183594 C 47.960938 40.890625 47.351562 40.527344 46.945312 40.09375 C 46.246094 39.347656 45.632812 38.773438 45.097656 38.359375 C 44.558594 37.945312 44.15625 37.488281 43.882812 36.980469 C 43.832031 36.882812 43.71875 36.839844 43.613281 36.875 C 42.628906 37.207031 41.640625 37.480469 40.648438 37.6875 C 40.089844 37.804688 39.179688 38.011719 37.910156 38.308594 C 36.203125 38.710938 34.585938 39.167969 32.902344 39.441406 C 31.734375 39.628906 30.691406 39.808594 29.78125 39.976562 C 28.574219 40.199219 27.960938 40.410156 26.566406 40.84375 C 24.835938 41.378906 23.117188 41.082031 23.136719 43.484375 C 23.140625 43.8125 23.101562 44.183594 23.019531 44.585938 C 23.011719 44.613281 23.011719 44.636719 23.007812 44.660156 L 22.996094 47.582031 C 22.996094 47.640625 23.03125 47.699219 23.085938 47.726562 C 25.03125 48.636719 26.683594 49.660156 27.589844 51.679688 C 27.632812 51.773438 27.652344 51.878906 27.644531 51.980469 C 27.621094 52.289062 27.484375 52.609375 27.242188 52.941406 C 27.199219 53 27.144531 53.042969 27.082031 53.066406 C 26.144531 53.417969 25.589844 53.609375 25.414062 53.640625 C 24.621094 53.785156 24.140625 53.269531 23.332031 52.710938 C 23.296875 52.6875 23.25 52.699219 23.226562 52.730469 C 23.214844 52.746094 23.214844 52.765625 23.214844 52.785156 C 23.332031 53.777344 23.367188 54.855469 23.320312 56.015625 C 23.316406 56.132812 23.367188 56.242188 23.460938 56.3125 C 24.253906 56.894531 24.957031 57.445312 25.578125 57.960938 C 25.835938 58.171875 25.964844 58.4375 25.96875 58.757812 C 25.972656 59.460938 25.972656 61.414062 25.960938 64.621094 C 25.960938 64.929688 25.976562 65.292969 26.011719 65.703125 C 26.113281 66.921875 26.09375 68.023438 26.082031 69.777344 C 26.078125 70.53125 26.105469 71.539062 26.160156 72.792969 C 26.21875 74.082031 26.230469 75.289062 26.195312 76.40625 C 26.1875 76.648438 26.058594 76.78125 25.808594 76.8125 C 25.277344 76.878906 24.097656 75.851562 23.71875 75.480469 C 23.695312 75.457031 23.65625 75.457031 23.636719 75.480469 C 23.625 75.492188 23.617188 75.507812 23.617188 75.523438 C 23.691406 76.925781 24.085938 78.191406 24.8125 79.324219 C 25.410156 80.257812 26.554688 81.175781 27.359375 82.144531 C 28.339844 83.324219 29.375 84.125 30.726562 84.585938 C 31.644531 84.894531 32.109375 85.03125 33.070312 85 C 35.625 84.921875 38.066406 84.371094 40.375 83.90625 C 41.246094 83.730469 42.015625 83.382812 42.863281 83.085938 C 46.15625 81.933594 48.539062 81.117188 50.011719 80.632812 C 50.050781 80.621094 50.070312 80.578125 50.058594 80.539062 C 50.054688 80.527344 50.046875 80.515625 50.039062 80.507812 C 49.082031 79.730469 48.289062 78.890625 47.664062 77.988281 C 47.601562 77.894531 47.507812 77.828125 47.398438 77.789062 C 46.828125 77.597656 46.234375 77.183594 45.628906 76.550781 C 44.761719 75.652344 43.90625 74.726562 43.050781 73.78125 C 41.78125 72.371094 40.835938 70.351562 41.304688 68.453125 C 41.367188 68.199219 41.394531 68 41.386719 67.859375 C 41.386719 67.832031 41.363281 67.8125 41.339844 67.8125 C 41.324219 67.8125 41.3125 67.820312 41.300781 67.832031 C 40.710938 68.636719 39.515625 69.800781 38.460938 69.804688 C 37.40625 69.808594 36.40625 69.71875 35.457031 69.535156 C 33.316406 69.113281 33.445312 67.507812 33.542969 65.765625 C 33.632812 64.15625 33.617188 62.972656 34.960938 61.957031 C 35.894531 61.253906 37.082031 60.714844 38.273438 60.957031 C 38.703125 61.042969 39.085938 61.097656 39.425781 61.125 C 40.449219 61.203125 41.167969 61.726562 41.582031 62.695312 C 41.601562 62.746094 41.660156 62.769531 41.710938 62.75 C 41.738281 62.738281 41.757812 62.714844 41.769531 62.691406 C 41.980469 62.074219 42.148438 61.421875 42.269531 60.730469 C 42.527344 59.265625 43.234375 57.738281 43.957031 56.300781 C 45.042969 54.148438 47 52.644531 48.738281 51.042969 C 52.429688 47.648438 56.664062 45.058594 61.457031 43.269531 C 61.464844 43.269531 61.472656 43.257812 61.46875 43.25 C 61.46875 43.242188 61.464844 43.238281 61.457031 43.234375 C 61.449219 43.230469 61.429688 43.230469 61.398438 43.238281 C 60.394531 43.449219 59.785156 43.578125 59.566406 43.628906 C 57.765625 44.039062 55.871094 44.675781 54.234375 45.042969 C 53.253906 45.261719 52.257812 45.621094 51.066406 45.839844 C 50.300781 45.980469 49.316406 46.140625 48.109375 46.320312 C 47.394531 46.425781 46.539062 46.6875 45.941406 46.746094 C 44.261719 46.90625 43.265625 47.03125 42.953125 47.132812 C 41.574219 47.578125 40.640625 47.835938 40.152344 47.910156 C 39.128906 48.074219 38 48.253906 36.769531 48.457031 C 36.378906 48.523438 35.363281 48.550781 33.714844 48.542969 C 33.003906 48.542969 32.058594 48.425781 31.140625 48.363281 C 29.558594 48.257812 27.609375 47.699219 25.949219 47.226562 C 25.851562 47.195312 25.796875 47.09375 25.824219 47 C 25.832031 46.96875 25.851562 46.941406 25.875 46.914062 L 25.882812 46.910156 C 26.015625 46.785156 26.199219 46.730469 26.378906 46.761719 C 28.007812 47.023438 29.519531 47.433594 31.097656 47.589844 C 31.992188 47.675781 33.226562 47.742188 34.804688 47.785156 C 36.46875 47.828125 38.171875 47.441406 39.863281 47.207031 C 40.839844 47.070312 41.828125 46.71875 42.757812 46.503906 C 44.074219 46.203125 45.261719 46.210938 46.613281 45.933594 C 48.195312 45.609375 49.433594 45.46875 50.816406 45.207031 C 51.316406 45.109375 51.753906 45.003906 52.132812 44.894531 C 53.855469 44.382812 55.339844 44.066406 57.246094 43.464844 C 58.800781 42.96875 60.878906 42.613281 62.472656 42.183594 C 64.550781 41.621094 65.835938 41.269531 66.328125 41.128906 C 67.453125 40.804688 68.925781 40.59375 69.96875 40.25 C 71.703125 39.671875 73.78125 38.992188 76.199219 38.199219 C 77.433594 37.796875 78.738281 37.414062 80.117188 37.054688 C 80.132812 37.054688 81.441406 36.683594 84.042969 35.949219 C 84.296875 35.878906 84.945312 35.632812 85.992188 35.203125 C 86.53125 34.988281 87.242188 34.789062 88.125 34.609375 C 88.269531 34.582031 88.398438 34.582031 88.511719 34.617188 C 88.554688 34.632812 88.582031 34.679688 88.570312 34.726562 C 88.5625 34.746094 88.546875 34.765625 88.53125 34.777344 C 87.722656 35.253906 86.945312 35.632812 86.191406 35.914062 C 84.929688 36.386719 84.234375 36.644531 84.101562 36.683594 C 81.128906 37.507812 78.113281 38.429688 75.050781 39.453125 C 74.464844 39.652344 73.222656 40.050781 71.324219 40.648438 C 70.46875 40.917969 69.210938 41.253906 67.550781 41.652344 C 66.667969 41.867188 65.023438 42.296875 62.617188 42.945312 C 62.601562 42.949219 62.589844 42.964844 62.59375 42.980469 L 62.59375 42.984375 C 62.597656 43.007812 62.621094 43.023438 62.644531 43.019531 C 62.972656 42.960938 63.242188 42.933594 63.449219 42.945312 C 64.898438 43.019531 66.339844 43.148438 67.78125 43.335938 C 69.078125 43.507812 70.78125 43.9375 71.414062 45.140625 C 71.527344 45.347656 71.457031 45.605469 71.261719 45.714844 C 71.230469 45.734375 71.195312 45.746094 71.15625 45.753906 C 71.148438 45.753906 71.109375 45.753906 71.039062 45.75 C 70.984375 45.746094 70.929688 45.722656 70.886719 45.683594 C 70.070312 44.914062 68.726562 44.554688 67.71875 44.449219 C 67.019531 44.378906 65.828125 44.289062 64.144531 44.183594 C 62.660156 44.09375 61.742188 44.371094 60.375 44.960938 C 57.410156 46.230469 54.597656 47.871094 51.933594 49.882812 C 51.375 50.308594 50.585938 50.980469 49.574219 51.902344 C 48.007812 53.328125 46.476562 54.496094 45.46875 56.023438 C 44.839844 56.976562 44.257812 58.199219 43.71875 59.699219 C 43.257812 60.984375 43.304688 62.558594 42.597656 63.789062 C 42.554688 63.867188 42.523438 63.949219 42.511719 64.039062 C 42.398438 64.9375 42.375 65.734375 42.4375 66.429688 C 42.449219 66.574219 42.445312 66.71875 42.421875 66.859375 C 42.226562 68 42.167969 68.867188 42.246094 69.457031 C 42.398438 70.609375 42.875 71.664062 43.679688 72.621094 C 44.382812 73.457031 45.042969 74.183594 45.660156 74.800781 C 45.667969 74.816406 45.691406 74.820312 45.707031 74.808594 C 45.722656 74.796875 45.726562 74.773438 45.714844 74.761719 C 45.308594 73.960938 44.988281 73.109375 44.757812 72.210938 C 44.71875 72.058594 44.699219 71.898438 44.695312 71.742188 C 44.675781 70.734375 44.675781 69.773438 44.695312 68.863281 C 44.703125 68.203125 44.847656 67.558594 45.027344 66.875 Z M 62.082031 33.660156 L 62.65625 33.757812 C 62.710938 33.765625 62.765625 33.785156 62.8125 33.820312 C 63.367188 34.191406 63.710938 34.394531 63.84375 34.429688 C 65.21875 34.792969 66.621094 34.964844 68.054688 34.9375 C 68.175781 34.933594 68.300781 34.917969 68.417969 34.890625 C 69.734375 34.570312 71.574219 34.332031 73.085938 33.542969 C 73.144531 33.511719 73.171875 33.445312 73.152344 33.382812 C 72.785156 32.148438 72.566406 30.828125 72.496094 29.417969 C 72.488281 29.253906 72.417969 29.101562 72.300781 28.984375 L 71.847656 28.53125 C 71.695312 28.375 71.488281 28.285156 71.269531 28.28125 C 70.148438 28.25 68.75 28.222656 67.453125 28.367188 C 65.507812 28.582031 63.988281 28.625 62.617188 29.179688 C 62.089844 29.394531 61.871094 29.910156 61.929688 30.511719 C 62.035156 31.558594 62.050781 32.5625 61.976562 33.527344 C 61.972656 33.59375 62.019531 33.648438 62.082031 33.660156 Z M 45.363281 34.757812 C 45.710938 35.242188 46.195312 35.515625 46.875 35.945312 C 47.132812 36.105469 47.453125 36.359375 47.835938 36.703125 C 48.386719 37.195312 49.042969 37.695312 49.808594 38.203125 C 49.867188 38.242188 49.921875 38.285156 49.96875 38.335938 C 50.15625 38.539062 50.308594 38.636719 50.429688 38.636719 C 51.101562 38.636719 51.601562 38.65625 52.246094 38.511719 C 54.878906 37.941406 56.835938 37.539062 58.117188 37.304688 C 59.296875 37.085938 60.339844 36.585938 61.285156 36.144531 C 61.347656 36.117188 61.371094 36.042969 61.34375 35.984375 C 61.335938 35.972656 61.324219 35.957031 61.3125 35.945312 C 60.675781 35.398438 60.15625 34.949219 59.757812 34.597656 C 59.132812 34.046875 58.132812 33.507812 57.601562 33.074219 C 56.929688 32.535156 56.246094 32.574219 55.539062 32.699219 C 54.542969 32.875 51.84375 33.398438 47.449219 34.265625 C 46.421875 34.46875 45.746094 34.59375 45.417969 34.636719 C 45.375 34.640625 45.34375 34.675781 45.351562 34.71875 C 45.351562 34.734375 45.355469 34.746094 45.363281 34.757812 Z M 45.011719 35.691406 L 45.023438 36.5625 C 45.023438 36.59375 45.035156 36.625 45.054688 36.648438 C 45.230469 36.886719 45.558594 37.1875 46.039062 37.550781 C 46.632812 38.003906 47.136719 38.570312 47.644531 39.121094 C 48.210938 39.734375 48.875 40.054688 49.671875 40.398438 C 49.695312 40.40625 49.722656 40.398438 49.730469 40.375 C 49.734375 40.367188 49.738281 40.355469 49.734375 40.347656 L 49.582031 39.171875 C 49.570312 39.089844 49.527344 39.019531 49.464844 38.96875 L 45.160156 35.617188 C 45.121094 35.585938 45.0625 35.59375 45.03125 35.632812 C 45.019531 35.648438 45.011719 35.667969 45.011719 35.691406 Z M 61.371094 37.140625 C 61.371094 37.078125 61.320312 37.027344 61.257812 37.027344 C 61.238281 37.027344 61.222656 37.03125 61.210938 37.039062 C 60.097656 37.539062 59.320312 37.824219 58.886719 37.898438 C 57.796875 38.082031 56.890625 38.257812 56.160156 38.421875 C 54.675781 38.753906 53.625 38.910156 51.972656 39.230469 C 51.953125 39.234375 51.9375 39.234375 51.917969 39.234375 L 50.601562 39.222656 C 50.550781 39.222656 50.511719 39.261719 50.511719 39.308594 C 50.511719 39.3125 50.511719 39.316406 50.511719 39.320312 L 50.753906 41.140625 C 50.761719 41.199219 50.816406 41.242188 50.878906 41.234375 C 50.878906 41.234375 50.882812 41.234375 50.886719 41.234375 C 52.492188 40.886719 53.707031 40.617188 54.53125 40.429688 C 55.238281 40.269531 56 40.050781 56.824219 39.769531 C 58.136719 39.328125 59.621094 38.953125 61.246094 38.269531 C 61.328125 38.234375 61.382812 38.152344 61.382812 38.058594 L 61.371094 37.144531 Z M 71.46875 47.230469 C 71.398438 47.210938 71.328125 47.203125 71.257812 47.199219 C 69.332031 47.15625 67.511719 47.234375 65.792969 47.425781 C 64.316406 47.59375 63.355469 47.691406 62.136719 48.101562 C 61.105469 48.453125 59.972656 48.890625 58.738281 49.414062 C 58.132812 49.671875 57.570312 50.007812 57.054688 50.425781 C 54.898438 52.160156 52.550781 54.15625 50.953125 56.4375 C 50.632812 56.890625 49.984375 57.984375 49.007812 59.71875 C 48.679688 60.304688 48.402344 60.894531 48.1875 61.484375 C 47.75 62.675781 47.023438 64.03125 46.644531 65.308594 C 46.15625 66.953125 45.777344 68.039062 45.796875 69.5 C 45.804688 70.484375 45.808594 71.042969 45.808594 71.175781 C 45.785156 71.953125 46.03125 72.636719 46.273438 73.207031 C 47.058594 75.070312 48.058594 76.707031 49.269531 78.105469 C 50.375 79.386719 51.769531 80.46875 53.457031 81.359375 C 54.011719 81.652344 54.898438 81.988281 56.121094 82.367188 C 57.375 82.757812 58.300781 83.003906 58.898438 83.117188 C 60.0625 83.335938 62.191406 83.644531 63.757812 83.652344 C 65.292969 83.660156 66.28125 83.597656 67.519531 83.089844 C 68.324219 82.757812 69.429688 82.25 70.835938 81.574219 C 71.808594 81.105469 72.574219 80.703125 73.140625 80.363281 C 74.414062 79.609375 75.15625 79.152344 75.359375 78.992188 C 76.945312 77.765625 78.507812 76.0625 79.621094 74.238281 C 80.09375 73.460938 80.378906 72.972656 80.472656 72.78125 C 80.804688 72.089844 81.148438 71.445312 81.5 70.847656 C 81.8125 70.316406 82.0625 69.597656 82.242188 68.695312 C 82.484375 67.492188 82.671875 66.007812 82.8125 64.238281 C 82.90625 63.058594 82.816406 61.988281 82.550781 61.027344 C 81.933594 58.828125 81.09375 56.742188 80.03125 54.769531 C 79.371094 53.546875 78.679688 52.550781 77.949219 51.773438 C 77.328125 51.121094 76.582031 50.367188 75.703125 49.511719 C 74.871094 48.703125 74.050781 48.109375 73.246094 47.738281 C 73.203125 47.71875 73.164062 47.703125 73.121094 47.691406 Z M 26.859375 51.988281 C 26.660156 51.085938 25.261719 49.9375 24.496094 49.539062 C 24.015625 49.292969 23.351562 48.964844 22.5 48.550781 C 22.4375 48.519531 22.367188 48.515625 22.304688 48.542969 L 21.042969 48.988281 C 20.941406 49.023438 20.886719 49.132812 20.925781 49.238281 C 20.925781 49.242188 20.929688 49.246094 20.929688 49.25 C 21.140625 49.71875 21.449219 50.105469 21.851562 50.40625 C 23.128906 51.371094 24.15625 52.113281 24.941406 52.640625 C 25.039062 52.703125 25.160156 52.71875 25.269531 52.679688 L 26.773438 52.144531 C 26.835938 52.121094 26.875 52.054688 26.859375 51.988281 Z M 25.433594 75.519531 C 25.542969 73.699219 25.335938 71.832031 25.34375 70.238281 C 25.351562 68.320312 25.351562 67 25.339844 66.273438 C 25.332031 65.835938 25.234375 65.324219 25.230469 64.957031 C 25.21875 64.082031 25.21875 62.007812 25.222656 58.738281 C 25.222656 58.675781 25.199219 58.617188 25.152344 58.578125 L 23.472656 57.09375 C 23.4375 57.0625 23.386719 57.066406 23.355469 57.097656 C 23.339844 57.117188 23.332031 57.136719 23.335938 57.15625 L 23.398438 67.324219 C 23.398438 67.355469 23.402344 67.386719 23.410156 67.421875 C 23.476562 67.714844 23.511719 67.921875 23.511719 68.039062 C 23.492188 70.058594 23.523438 72.066406 23.609375 74.0625 C 23.613281 74.117188 23.640625 74.164062 23.6875 74.195312 C 24.1875 74.503906 24.730469 74.957031 25.3125 75.5625 C 25.339844 75.59375 25.386719 75.59375 25.414062 75.566406 C 25.425781 75.554688 25.433594 75.535156 25.433594 75.519531 Z M 40.464844 63.191406 C 40.199219 62.464844 39.679688 62.328125 38.976562 62.058594 C 37.875 61.636719 36.800781 61.867188 35.804688 62.589844 C 34.375 63.628906 34.757812 64.996094 34.609375 66.53125 C 34.507812 67.574219 34.636719 68.246094 35.71875 68.5 C 36.429688 68.667969 38.335938 69 39.050781 68.5 C 39.074219 68.484375 39.078125 68.453125 39.0625 68.429688 C 39.054688 68.417969 39.039062 68.40625 39.023438 68.40625 C 37.503906 68.328125 36.515625 66.769531 37.148438 65.347656 C 37.527344 64.496094 38.304688 63.46875 39.238281 63.28125 C 39.574219 63.214844 39.949219 63.21875 40.371094 63.296875 C 40.414062 63.304688 40.460938 63.277344 40.464844 63.230469 C 40.46875 63.214844 40.464844 63.199219 40.464844 63.1875 Z M 40.953125 64.804688 L 40.597656 64.371094 C 40.566406 64.332031 40.523438 64.3125 40.476562 64.316406 L 39.449219 64.328125 C 39.351562 64.328125 39.257812 64.367188 39.1875 64.429688 C 38.605469 64.945312 38.242188 65.457031 38.09375 65.960938 C 37.816406 66.902344 38.578125 67.839844 39.441406 68.121094 C 39.496094 68.140625 39.558594 68.128906 39.605469 68.089844 C 40.597656 67.269531 41.066406 66.226562 41.015625 64.972656 C 41.015625 64.910156 40.992188 64.851562 40.953125 64.804688 Z M 40.953125 64.804688 " fill-opacity="1" fill-rule="nonzero"/></g><path fill="#5f6738" d="M 76.625 29.605469 C 77.398438 29.402344 77.859375 29.28125 78.003906 29.242188 C 79.019531 28.976562 80.359375 28.996094 81.09375 29.070312 C 81.523438 29.117188 82.167969 29.292969 83.027344 29.605469 C 83.675781 29.839844 84.308594 30.382812 84.929688 31.234375 C 84.96875 31.289062 84.996094 31.355469 85.003906 31.425781 C 85.105469 32.4375 85.210938 33.199219 84.15625 33.472656 C 82.4375 33.910156 80.910156 34.191406 79.574219 34.3125 C 79.308594 34.335938 78.488281 34.34375 77.109375 34.332031 C 76.699219 34.328125 76.425781 34.140625 76.289062 33.769531 C 75.632812 32.019531 75.296875 31.101562 75.28125 31.019531 C 75.089844 30.105469 75.894531 29.972656 76.464844 29.667969 C 76.515625 29.640625 76.566406 29.617188 76.625 29.605469 Z M 76.933594 30.367188 C 76.699219 30.519531 76.464844 30.632812 76.230469 30.699219 C 76.148438 30.722656 76.097656 30.8125 76.125 30.894531 C 76.125 30.898438 76.125 30.902344 76.128906 30.90625 L 77.046875 33.375 C 77.078125 33.453125 77.152344 33.511719 77.234375 33.511719 C 79.574219 33.589844 81.890625 33.292969 84.1875 32.613281 C 84.269531 32.589844 84.335938 32.53125 84.367188 32.457031 C 84.445312 32.292969 84.472656 32.0625 84.453125 31.765625 C 84.449219 31.714844 84.417969 31.675781 84.371094 31.660156 C 84.113281 31.570312 83.855469 31.359375 83.597656 31.035156 C 83.539062 30.957031 83.429688 30.945312 83.351562 31.007812 C 83.347656 31.011719 83.34375 31.015625 83.335938 31.019531 C 82.835938 31.542969 82.253906 31.890625 81.59375 32.0625 C 80.972656 32.226562 79.929688 32.355469 78.464844 32.453125 C 77.859375 32.492188 77.371094 32.332031 76.996094 31.972656 C 76.957031 31.9375 76.953125 31.871094 76.992188 31.832031 C 77.019531 31.800781 77.0625 31.792969 77.097656 31.804688 C 77.417969 31.914062 77.785156 31.96875 78.207031 31.957031 C 78.652344 31.949219 79.648438 31.828125 81.191406 31.597656 C 81.957031 31.484375 82.503906 31.230469 83.03125 30.722656 C 83.0625 30.695312 83.066406 30.648438 83.035156 30.617188 C 83.03125 30.609375 83.023438 30.601562 83.011719 30.597656 C 81.226562 29.777344 79.394531 29.671875 77.519531 30.273438 C 77.476562 30.285156 77.433594 30.296875 77.390625 30.300781 L 76.96875 30.351562 C 76.953125 30.351562 76.941406 30.359375 76.933594 30.367188 Z M 76.933594 30.367188 " fill-opacity="1" fill-rule="nonzero"/><path fill="#5f6738" d="M 62.480469 30.632812 L 63.300781 31.273438 C 63.359375 31.320312 63.429688 31.351562 63.503906 31.363281 L 65.765625 31.832031 C 65.796875 31.839844 65.832031 31.84375 65.863281 31.84375 C 67.921875 31.851562 69.144531 32.015625 70.632812 31.441406 C 70.96875 31.3125 71.597656 30.835938 71.585938 30.382812 C 71.585938 30.273438 71.675781 30.195312 71.796875 30.203125 C 71.855469 30.207031 71.914062 30.234375 71.953125 30.28125 C 72.523438 30.882812 71.4375 31.707031 70.949219 31.988281 C 70.472656 32.265625 69.234375 32.503906 68.539062 32.523438 C 67.433594 32.554688 66.015625 32.675781 64.808594 32.484375 C 63.664062 32.300781 62.613281 32.300781 62.226562 31.226562 C 62.148438 31.015625 62.160156 30.832031 62.257812 30.671875 C 62.300781 30.601562 62.394531 30.578125 62.464844 30.625 C 62.46875 30.625 62.476562 30.628906 62.480469 30.632812 Z M 62.480469 30.632812 " fill-opacity="1" fill-rule="nonzero"/><path fill="#5f6738" d="M 75.082031 37.90625 C 74.90625 37.921875 74.773438 37.941406 74.675781 37.96875 C 74.066406 38.136719 73.128906 38.429688 71.863281 38.839844 C 70.609375 39.25 69.160156 39.492188 67.988281 39.835938 C 66.523438 40.265625 64.945312 40.664062 63.253906 41.027344 C 59.632812 41.808594 55.699219 42.988281 52.226562 43.8125 C 50.964844 44.113281 49.433594 44.664062 48.359375 44.910156 C 46.550781 45.328125 44.238281 45.773438 41.417969 46.246094 C 41.167969 46.289062 40.699219 46.332031 40.023438 46.382812 C 38.953125 46.457031 37.964844 46.625 36.9375 46.769531 C 36.570312 46.824219 36 46.847656 35.226562 46.84375 C 33.308594 46.839844 32.574219 46.882812 31.085938 46.75 C 30.300781 46.679688 29.578125 46.621094 28.867188 46.464844 C 27.414062 46.144531 25.835938 45.65625 24.730469 44.785156 C 24.425781 44.542969 24.140625 44.171875 23.878906 43.671875 C 23.816406 43.550781 23.867188 43.40625 23.984375 43.34375 C 24 43.335938 24.019531 43.328125 24.039062 43.324219 L 24.109375 43.304688 C 24.246094 43.269531 24.394531 43.328125 24.476562 43.445312 C 24.90625 44.0625 25.46875 44.511719 26.167969 44.792969 C 27.433594 45.300781 28.605469 45.632812 29.691406 45.78125 C 29.949219 45.816406 30.554688 45.882812 31.515625 45.980469 C 32.289062 46.058594 32.898438 46.09375 33.34375 46.082031 C 34.523438 46.058594 35.96875 46.152344 37.195312 45.960938 C 37.921875 45.851562 38.871094 45.703125 39.789062 45.632812 C 41.488281 45.5 43.1875 45.25 44.886719 44.886719 C 46.324219 44.582031 47.59375 44.445312 48.980469 43.980469 C 51.25 43.222656 54.175781 42.59375 56.207031 42 C 58.527344 41.320312 60.714844 40.757812 62.769531 40.3125 C 64.425781 39.953125 65.667969 39.648438 66.488281 39.402344 C 68.242188 38.875 70.425781 38.453125 72.316406 37.753906 C 72.738281 37.59375 73.453125 37.382812 74.453125 37.117188 C 76.558594 36.558594 77.902344 36.207031 78.488281 36.054688 C 79.957031 35.675781 81.527344 35.179688 83.199219 34.558594 C 84.046875 34.242188 85.285156 33.957031 85.992188 33.597656 C 87.039062 33.070312 88.023438 32.558594 88.941406 32.070312 C 89.050781 32.011719 89.1875 32.054688 89.246094 32.164062 C 89.269531 32.207031 89.277344 32.257812 89.269531 32.308594 L 89.226562 32.542969 C 89.179688 32.832031 89 33.085938 88.742188 33.222656 C 87.441406 33.933594 86.601562 34.351562 86.222656 34.480469 C 84.472656 35.082031 83.480469 35.429688 83.25 35.519531 C 81.097656 36.347656 78.46875 37.023438 76.453125 37.492188 C 76.125 37.570312 75.726562 37.695312 75.25 37.871094 C 75.195312 37.890625 75.140625 37.902344 75.082031 37.90625 Z M 75.082031 37.90625 " fill-opacity="1" fill-rule="nonzero"/><path fill="#5f6738" d="M 32.21875 50.660156 C 32.394531 51.160156 32.488281 51.660156 32.496094 52.164062 C 32.523438 53.695312 32.527344 57.566406 32.511719 63.777344 C 32.507812 64.265625 32.640625 64.828125 32.632812 65.246094 C 32.621094 65.820312 32.636719 66.328125 32.679688 66.773438 C 32.859375 68.71875 32.699219 70.269531 32.824219 72.097656 C 32.996094 74.53125 33.078125 76.976562 33.078125 79.429688 C 33.078125 79.433594 33.117188 80.046875 33.1875 81.257812 C 33.242188 82.179688 33.183594 82.988281 33.019531 83.6875 C 33 83.757812 32.980469 83.816406 32.953125 83.851562 C 32.882812 83.953125 32.734375 83.96875 32.621094 83.890625 C 32.617188 83.886719 32.609375 83.878906 32.601562 83.875 C 32.085938 83.449219 32.140625 82.632812 32.132812 81.84375 C 32.125 81.300781 32.105469 80.820312 32.074219 80.398438 C 32.058594 80.207031 32.035156 79.398438 32 77.964844 C 31.957031 76.210938 31.878906 74.363281 31.753906 72.414062 C 31.695312 71.4375 31.667969 70.5625 31.667969 69.792969 C 31.675781 68.289062 31.65625 67.410156 31.609375 67.160156 C 31.566406 66.929688 31.542969 66.476562 31.550781 65.804688 C 31.554688 65.175781 31.429688 64.640625 31.429688 64.007812 C 31.429688 60.925781 31.429688 56.808594 31.429688 51.664062 C 31.429688 51.574219 31.421875 51.484375 31.402344 51.394531 C 31.355469 51.191406 31.328125 50.996094 31.320312 50.800781 C 31.3125 50.613281 31.40625 50.453125 31.554688 50.40625 C 31.761719 50.335938 31.945312 50.367188 32.109375 50.5 C 32.160156 50.542969 32.199219 50.597656 32.21875 50.660156 Z M 32.21875 50.660156 " fill-opacity="1" fill-rule="nonzero"/><path fill="#5f6738" d="M 52.570312 67.605469 C 52.539062 67.65625 52.46875 67.675781 52.417969 67.644531 C 52.382812 67.621094 52.363281 67.589844 52.363281 67.550781 C 52.203125 64.75 52.988281 62.273438 54.714844 60.117188 C 54.921875 59.855469 55.546875 59.164062 56.59375 58.03125 C 58.449219 56.023438 60.503906 54.273438 63.03125 53.300781 C 63.6875 53.046875 64.558594 52.765625 65.640625 52.457031 C 66.601562 52.179688 67.3125 52.027344 67.78125 51.988281 C 68.238281 51.953125 68.96875 51.945312 69.972656 51.96875 C 71.066406 51.992188 72.191406 52.367188 73.074219 52.476562 C 73.667969 52.554688 75.164062 53.066406 75.347656 53.605469 C 75.378906 53.695312 75.332031 53.796875 75.242188 53.828125 C 75.203125 53.839844 75.160156 53.839844 75.121094 53.820312 C 73.796875 53.253906 72.324219 52.875 70.707031 52.679688 C 69.125 52.496094 67.417969 52.582031 65.835938 53.09375 C 64.222656 53.617188 62.839844 54.015625 61.476562 54.800781 C 60.636719 55.289062 59.726562 55.960938 58.75 56.832031 C 58.128906 57.382812 57.160156 58.410156 55.839844 59.914062 C 54.65625 61.269531 53.859375 62.769531 53.445312 64.421875 C 53.042969 66.035156 52.878906 67.09375 52.570312 67.605469 Z M 52.570312 67.605469 " fill-opacity="1" fill-rule="nonzero"/><path fill="#5f6738" d="M 55.289062 66.40625 C 55.695312 65.105469 56.234375 63.859375 56.90625 62.664062 C 57.6875 61.277344 58.636719 60.679688 60.304688 59.210938 C 61.824219 57.867188 63.171875 57.03125 64.777344 56.140625 C 66.089844 55.414062 67.105469 54.796875 68.289062 54.679688 C 69.246094 54.582031 70.136719 54.625 70.960938 54.808594 C 71.210938 54.867188 71.777344 55.03125 72.652344 55.308594 C 74.5625 55.914062 76.097656 56.917969 77.347656 58.609375 C 78.457031 60.109375 79.464844 62.257812 79.519531 64.175781 C 79.53125 64.617188 79.625 65.046875 79.609375 65.484375 C 79.566406 66.621094 79.414062 67.527344 79.15625 68.207031 C 78.769531 69.214844 78.058594 70.726562 77.023438 72.75 C 76.941406 72.914062 76.570312 73.453125 75.910156 74.375 C 74.449219 76.40625 72.203125 77.910156 69.894531 78.96875 C 68.898438 79.429688 67.953125 79.710938 67.0625 79.8125 C 66 79.9375 65.007812 79.980469 64.085938 79.949219 C 62.570312 79.898438 61.148438 79.296875 59.792969 78.605469 C 58 77.691406 56.683594 76.285156 55.835938 74.375 C 55.410156 73.40625 55.136719 72.59375 55.03125 71.933594 C 54.691406 69.875 54.777344 68.03125 55.289062 66.40625 Z M 68.628906 55.695312 C 67.25 56.039062 66.125 56.746094 64.289062 57.800781 C 62.300781 58.941406 61.066406 60.105469 59.042969 61.886719 C 58.59375 62.28125 58.28125 62.628906 58.113281 62.925781 C 57.128906 64.644531 56.230469 66.632812 56.058594 68.613281 C 55.878906 70.691406 56.242188 72.605469 57.152344 74.351562 C 57.945312 75.871094 59.039062 76.925781 60.625 77.734375 C 61.640625 78.253906 62.503906 78.585938 63.210938 78.738281 C 64.398438 78.992188 66.042969 78.90625 67.285156 78.691406 C 69.128906 78.371094 70.886719 77.335938 72.457031 76.21875 C 73.414062 75.535156 74.203125 74.777344 74.824219 73.945312 C 76.226562 72.054688 77.175781 69.988281 77.988281 67.953125 C 78.121094 67.621094 78.21875 67.21875 78.277344 66.746094 C 78.648438 63.792969 77.652344 61 75.785156 58.804688 C 74.683594 57.503906 73.066406 56.675781 71.425781 56.277344 C 71.230469 56.230469 71.042969 56.148438 70.871094 56.039062 C 70.4375 55.753906 69.875 55.761719 68.867188 55.675781 C 68.785156 55.667969 68.707031 55.675781 68.628906 55.695312 Z M 68.628906 55.695312 " fill-opacity="1" fill-rule="nonzero"/><path fill="#5f6738" d="M 77.996094 74.714844 C 77.941406 74.746094 77.875 74.722656 77.847656 74.671875 C 77.828125 74.632812 77.828125 74.589844 77.851562 74.554688 L 78.238281 74.023438 C 78.238281 74.023438 78.246094 74.015625 78.25 74.007812 C 78.574219 73.347656 78.808594 72.625 78.949219 71.84375 C 79.085938 71.078125 79.285156 70.105469 79.542969 68.921875 C 79.613281 68.605469 79.789062 67.597656 80.074219 65.894531 C 80.238281 64.886719 80.171875 64.003906 80.1875 62.910156 C 80.191406 62.453125 80.117188 61.925781 79.957031 61.332031 C 79.421875 59.328125 78.28125 57.035156 76.644531 55.714844 C 76.523438 55.617188 76.503906 55.445312 76.601562 55.324219 C 76.601562 55.320312 76.605469 55.320312 76.609375 55.320312 C 76.683594 55.234375 76.785156 55.210938 76.917969 55.246094 C 77.21875 55.324219 77.578125 55.609375 77.828125 55.890625 C 79.144531 57.351562 80.070312 59.042969 80.605469 60.964844 C 81 62.386719 80.894531 64.273438 80.878906 65.1875 C 80.871094 65.71875 80.765625 66.515625 80.566406 67.578125 C 80.210938 69.46875 79.910156 70.980469 79.664062 72.105469 C 79.429688 73.179688 78.925781 74.175781 77.996094 74.714844 Z M 77.996094 74.714844 " fill-opacity="1" fill-rule="nonzero"/><path fill="#5f6738" d="M 67.816406 62.109375 C 68.339844 62.382812 68.691406 62.550781 68.882812 62.621094 C 70.101562 63.074219 71.078125 64.425781 71.429688 65.578125 C 72.082031 67.707031 70.761719 71.640625 68.65625 72.652344 C 67.425781 73.246094 66.632812 73.613281 66.28125 73.753906 C 64.957031 74.28125 63.609375 74.101562 62.324219 73.511719 C 61.410156 73.097656 60.695312 72.457031 60.179688 71.59375 C 59.730469 70.84375 59.515625 69.910156 59.53125 68.789062 C 59.558594 66.871094 60.269531 65.253906 61.65625 63.9375 C 62.828125 62.835938 64.460938 61.761719 66.097656 61.855469 C 66.238281 61.863281 66.703125 61.914062 67.488281 62.007812 C 67.601562 62.019531 67.714844 62.054688 67.816406 62.109375 Z M 60.757812 69.195312 C 60.757812 69.230469 60.78125 69.257812 60.816406 69.265625 C 62.390625 69.554688 63.816406 69.226562 65.101562 68.28125 C 66.550781 67.214844 66.5625 64.554688 66.125 63.027344 C 66.105469 62.964844 66.050781 62.925781 65.988281 62.925781 C 64.699219 62.972656 63.246094 64.035156 62.296875 64.976562 C 61.183594 66.082031 60.671875 67.488281 60.757812 69.195312 Z M 60.917969 70.320312 C 61.339844 71.363281 62.003906 72.082031 62.914062 72.480469 C 63.808594 72.871094 64.808594 73.074219 65.757812 72.730469 C 65.902344 72.675781 66.585938 72.367188 67.808594 71.808594 C 68.304688 71.578125 68.617188 71.382812 68.75 71.222656 C 69.574219 70.195312 70.097656 69.050781 70.320312 67.792969 C 70.601562 66.207031 70.105469 65.074219 68.894531 64.046875 C 68.867188 64.027344 68.839844 64.007812 68.808594 63.996094 L 67.714844 63.523438 C 67.679688 63.507812 67.640625 63.523438 67.625 63.558594 C 67.621094 63.566406 67.621094 63.578125 67.621094 63.589844 C 67.691406 65.160156 67.636719 67.195312 66.554688 68.488281 C 65.398438 69.867188 63.492188 70.445312 61.726562 70.300781 C 61.351562 70.269531 61.097656 70.246094 60.980469 70.234375 C 60.945312 70.230469 60.917969 70.253906 60.914062 70.289062 C 60.914062 70.296875 60.914062 70.308594 60.917969 70.320312 Z M 60.917969 70.320312 " fill-opacity="1" fill-rule="nonzero"/><path fill="#5f6738" d="M 58.324219 80.757812 L 57.40625 80.605469 C 57.390625 80.601562 57.375 80.597656 57.359375 80.589844 C 56.273438 80.136719 55.496094 79.753906 55.027344 79.453125 C 54.097656 78.855469 53.300781 78.101562 52.632812 77.199219 C 51.714844 75.949219 51.105469 74.898438 51.234375 73.417969 C 51.269531 72.992188 51.359375 72.183594 51.507812 70.988281 C 51.519531 70.871094 51.585938 70.808594 51.699219 70.804688 C 51.773438 70.804688 51.839844 70.863281 51.84375 70.9375 C 51.886719 71.84375 51.898438 72.78125 51.878906 73.753906 C 51.863281 74.347656 52.039062 74.929688 52.398438 75.507812 C 53.296875 76.941406 54.257812 78.015625 55.285156 78.726562 C 56.339844 79.457031 57.375 80.058594 58.394531 80.519531 C 58.457031 80.550781 58.484375 80.625 58.457031 80.6875 C 58.433594 80.738281 58.382812 80.769531 58.324219 80.757812 Z M 58.324219 80.757812 " fill-opacity="1" fill-rule="nonzero"/></svg>