<svg xmlns="http://www.w3.org/2000/svg" xmlns:xlink="http://www.w3.org/1999/xlink" width="150" zoomAndPan="magnify" viewBox="0 0 112.5 112.499997" height="150" preserveAspectRatio="xMidYMid meet" version="1.0"><defs><clipPath id="55c8c41d13"><path d="M 4.308594 30 L 107.695312 30 L 107.695312 87 L 4.308594 87 Z M 4.308594 30 " clip-rule="nonzero"/></clipPath></defs><path fill="#5f6738" d="M 66.554688 70.339844 C 66.566406 70.363281 66.597656 70.371094 66.621094 70.359375 L 66.625 70.359375 C 66.640625 70.351562 66.648438 70.332031 66.640625 70.316406 C 66.03125 68.914062 65.601562 67.40625 65.359375 65.792969 C 64.710938 61.472656 63.753906 57.203125 62.492188 52.980469 C 62.222656 52.085938 61.457031 49.828125 60.195312 46.214844 C 59.960938 45.546875 59.746094 45.019531 59.550781 44.617188 C 59.144531 43.789062 58.929688 43.3125 58.902344 43.183594 C 58.882812 43.074219 58.8125 42.980469 58.714844 42.925781 C 58.21875 42.65625 57.304688 42.003906 55.96875 40.972656 C 55.242188 40.410156 54.285156 39.773438 53.097656 39.058594 C 51.089844 37.847656 49.128906 36.234375 47.035156 34.796875 C 45.984375 34.074219 45.132812 33.367188 44.480469 32.671875 C 43.121094 31.222656 41.960938 30.5 40.21875 29.070312 C 40.199219 29.050781 40.167969 29.050781 40.15625 29.070312 C 40.140625 29.085938 40.140625 29.105469 40.148438 29.121094 C 40.84375 30.621094 41.609375 32.089844 42.441406 33.535156 C 43.601562 35.539062 44.621094 37.863281 45.589844 39.96875 C 46.578125 42.117188 47.507812 44.605469 48.382812 47.425781 C 48.433594 47.589844 48.34375 47.765625 48.179688 47.816406 C 48.167969 47.820312 48.160156 47.820312 48.148438 47.824219 L 48.132812 47.824219 C 47.933594 47.871094 47.726562 47.769531 47.636719 47.585938 C 47.351562 47.007812 47.117188 46.476562 46.9375 45.996094 C 46.023438 43.550781 45.261719 41.683594 44.640625 40.390625 C 43.222656 37.4375 42.59375 35.957031 41.234375 33.585938 C 40.636719 32.539062 39.878906 31.0625 38.957031 29.160156 C 38.566406 28.351562 37.839844 27.417969 37.5625 26.910156 C 37.535156 26.863281 37.515625 26.808594 37.507812 26.753906 C 37.46875 26.546875 37.507812 26.386719 37.609375 26.269531 C 37.808594 26.050781 38.148438 26.03125 38.382812 26.222656 C 40.132812 27.675781 41.78125 28.988281 43.320312 30.15625 C 44.503906 31.050781 45.695312 32.535156 46.746094 33.273438 C 48.710938 34.652344 50.226562 35.746094 51.285156 36.546875 C 53.066406 37.902344 55.925781 39.4375 57.695312 40.976562 C 57.773438 41.046875 58.359375 41.433594 59.453125 42.136719 C 59.691406 42.292969 59.785156 42.535156 59.730469 42.859375 C 59.707031 42.992188 59.734375 43.128906 59.800781 43.246094 C 60.347656 44.160156 60.691406 44.820312 60.835938 45.222656 C 62.113281 48.746094 63.039062 51.433594 63.609375 53.289062 C 63.777344 53.835938 64.195312 55.457031 64.859375 58.148438 C 65.269531 59.8125 65.601562 61.453125 65.851562 63.066406 C 66.199219 65.273438 66.605469 67.660156 67.070312 70.222656 C 67.097656 70.371094 66.996094 70.515625 66.847656 70.539062 C 66.84375 70.539062 66.84375 70.539062 66.839844 70.539062 C 66.757812 70.554688 66.679688 70.582031 66.617188 70.628906 C 66.511719 70.703125 66.363281 70.6875 66.277344 70.589844 C 64.640625 68.808594 63.507812 67.230469 61.085938 64.046875 C 59.8125 62.382812 58.433594 60.925781 57.210938 59.339844 C 56.074219 57.871094 54.796875 56.578125 53.296875 55.621094 C 53.144531 55.523438 53.101562 55.324219 53.199219 55.175781 C 53.269531 55.066406 53.40625 55.007812 53.535156 55.035156 C 54.867188 55.300781 56.804688 57.355469 57.550781 58.324219 C 58.238281 59.21875 58.972656 60.105469 59.746094 60.984375 C 60.390625 61.710938 61.289062 62.835938 62.4375 64.351562 C 63.988281 66.410156 65.308594 68.117188 66.554688 70.335938 Z M 66.554688 70.339844 " fill-opacity="1" fill-rule="nonzero"/><g clip-path="url(#55c8c41d13)"><path fill="#5f6738" d="M 31.875 44.441406 C 31.890625 44.441406 31.898438 44.433594 31.898438 44.417969 C 31.898438 44.410156 31.894531 44.402344 31.890625 44.394531 C 29.992188 43.105469 28.570312 42.195312 27.621094 41.660156 C 26.117188 40.820312 24.867188 40.054688 23.863281 39.363281 C 21.972656 38.066406 20.40625 37.066406 19.15625 36.371094 C 18.820312 36.183594 18.761719 35.972656 18.808594 35.640625 C 18.871094 35.222656 19.445312 35.21875 19.789062 35.269531 C 20.746094 35.410156 21.605469 35.570312 22.371094 35.746094 C 23.59375 36.027344 25.664062 36.4375 28.589844 36.984375 C 30.691406 37.375 32.839844 38.1875 35.027344 39.25 C 37.171875 40.292969 39.277344 41.464844 41.34375 42.757812 C 44.007812 44.421875 45.921875 46.5 48.171875 48.648438 C 48.5625 49.019531 49.332031 49.953125 50.484375 51.445312 C 50.921875 52.015625 51.316406 52.753906 51.671875 53.664062 C 51.742188 53.84375 51.695312 54.050781 51.554688 54.1875 L 51.546875 54.195312 C 51.449219 54.289062 51.289062 54.28125 51.195312 54.179688 C 51.179688 54.164062 51.167969 54.148438 51.15625 54.125 C 50.164062 52.222656 48.878906 50.652344 47.453125 49.277344 C 44.550781 46.46875 42.914062 44.777344 39.996094 43.070312 C 37.613281 41.675781 35.390625 40.515625 33.324219 39.59375 C 31.726562 38.878906 30.121094 38.371094 28.5 38.066406 C 27.449219 37.871094 25.25 37.4375 21.90625 36.761719 C 21.890625 36.757812 21.871094 36.769531 21.871094 36.789062 C 21.871094 36.800781 21.871094 36.8125 21.882812 36.820312 C 24.347656 38.53125 26.644531 39.953125 28.769531 41.085938 C 28.941406 41.175781 30.355469 42.078125 33.023438 43.789062 C 34.703125 44.867188 36.011719 46.042969 37.710938 47.238281 C 38.125 47.527344 38.726562 48.003906 39.519531 48.675781 C 42.121094 50.871094 43.898438 52.378906 44.847656 53.203125 C 45.066406 53.386719 45.511719 53.621094 46.195312 53.898438 C 47.484375 54.425781 48.121094 54.804688 49.671875 55.535156 C 50.398438 55.878906 51.070312 56.25 51.703125 56.648438 C 54.019531 58.117188 56.226562 59.847656 58.324219 61.832031 C 59.871094 63.296875 60.703125 64.542969 62.386719 66.480469 C 62.890625 67.0625 63.523438 68.070312 63.390625 68.859375 C 63.378906 68.921875 63.320312 68.964844 63.257812 68.953125 C 63.234375 68.949219 63.214844 68.9375 63.195312 68.921875 C 62.828125 68.578125 62.488281 68.1875 62.171875 67.757812 C 61.320312 66.609375 60.332031 65.730469 59.445312 64.601562 C 58.8125 63.800781 58.21875 63.152344 57.660156 62.660156 C 54.875 60.179688 52.394531 58.054688 48.894531 56.375 C 47.113281 55.519531 45.828125 54.917969 45.027344 54.566406 C 44.632812 54.390625 44.265625 54.160156 43.9375 53.882812 C 43.394531 53.425781 41.695312 52 38.832031 49.609375 C 37.136719 48.195312 35.28125 46.910156 33.492188 45.464844 C 33.222656 45.25 32.886719 45.132812 32.539062 45.140625 C 30.730469 45.175781 28.824219 45.210938 27.078125 45.722656 C 25.730469 46.117188 23.769531 46.886719 22.042969 47.71875 C 20.308594 48.554688 18.964844 49.136719 18.011719 49.457031 C 16.789062 49.871094 15.816406 50.085938 15.089844 50.105469 C 13.894531 50.132812 13.011719 50.160156 12.441406 50.183594 C 12.382812 50.183594 12.339844 50.234375 12.339844 50.289062 C 12.339844 50.316406 12.351562 50.34375 12.375 50.363281 C 13.328125 51.253906 14.367188 52.136719 15.484375 53.003906 C 16.433594 53.738281 17.167969 54.351562 17.683594 54.835938 C 19.417969 56.476562 20.640625 57.398438 22.578125 59.183594 C 23.152344 59.710938 24.101562 60.527344 25.429688 61.628906 C 26.371094 62.414062 27.746094 63.742188 29.542969 65.613281 C 30.886719 67.011719 31.824219 67.863281 33.257812 69.113281 C 33.3125 69.164062 33.394531 69.179688 33.46875 69.148438 C 34.652344 68.683594 35.730469 68.117188 36.707031 67.445312 C 37.300781 67.035156 38.597656 66.710938 39.972656 66.375 C 43.820312 65.441406 47.582031 65.0625 51.261719 65.234375 C 54.847656 65.402344 58.242188 66.625 61.15625 68.820312 C 62.335938 69.710938 63.253906 70.25 63.761719 71.023438 C 63.8125 71.089844 63.792969 71.183594 63.726562 71.230469 C 63.679688 71.261719 63.625 71.265625 63.574219 71.246094 C 62.34375 70.695312 61.472656 70.175781 60.125 69.25 C 57.488281 67.449219 54.621094 66.457031 51.515625 66.269531 C 48.003906 66.0625 44.363281 66.398438 40.597656 67.28125 C 38.652344 67.738281 37.601562 68.015625 36.140625 68.925781 C 35.390625 69.394531 34.511719 69.550781 33.679688 69.984375 C 33.496094 70.082031 33.273438 70.078125 33.09375 69.972656 C 31.671875 69.140625 30.167969 67.765625 28.871094 66.414062 C 27.074219 64.546875 25.367188 62.957031 23.742188 61.640625 C 21.773438 60.042969 19.839844 58.203125 17.523438 56.292969 C 17.472656 56.25 17.398438 56.25 17.347656 56.292969 C 16.546875 56.957031 15.902344 57.375 14.785156 57.789062 C 12.503906 58.632812 11.320312 59.0625 11.230469 59.074219 C 11.175781 59.082031 11.140625 59.132812 11.148438 59.183594 C 11.148438 59.207031 11.160156 59.226562 11.175781 59.238281 C 12.269531 60.246094 13.542969 61.390625 14.996094 62.671875 C 16.84375 64.304688 18.238281 65.726562 20.1875 67.507812 C 20.835938 68.101562 21.5 68.753906 22.179688 69.457031 C 24.042969 71.40625 25.996094 73.300781 28.027344 75.140625 C 28.792969 75.828125 29.492188 76.601562 30.128906 77.445312 C 30.222656 77.574219 30.367188 77.660156 30.527344 77.6875 C 30.957031 77.757812 31.410156 77.757812 31.886719 77.6875 C 33.175781 77.488281 34.777344 77.054688 36.183594 76.425781 C 37.503906 75.832031 38.597656 75.546875 39.832031 74.960938 C 40.964844 74.425781 42.5 73.824219 44.433594 73.15625 C 46.109375 72.582031 47.609375 72.417969 49.363281 71.914062 C 51.230469 71.378906 53.199219 71.054688 55.265625 70.9375 C 56.382812 70.875 57.445312 70.910156 58.457031 71.042969 C 60.605469 71.320312 62.136719 71.5 63.957031 72.558594 C 64.472656 72.859375 64.839844 72.96875 65.425781 73.03125 C 65.53125 73.046875 65.605469 73.140625 65.589844 73.246094 C 65.582031 73.324219 65.523438 73.390625 65.445312 73.410156 C 64.867188 73.542969 64.300781 73.554688 63.75 73.449219 C 63.671875 73.433594 63.597656 73.410156 63.523438 73.382812 C 62.238281 72.84375 61.476562 72.546875 61.242188 72.492188 C 59.777344 72.164062 57.589844 71.808594 55.726562 71.898438 C 53.726562 71.996094 52.050781 72.222656 50.703125 72.574219 C 48.1875 73.230469 46.394531 73.453125 44.226562 74.253906 C 42.222656 74.996094 41.121094 75.417969 40.917969 75.523438 C 40.199219 75.902344 39.273438 76.289062 38.136719 76.675781 C 37.960938 76.738281 37.027344 77.101562 35.332031 77.773438 C 34.289062 78.1875 32.847656 78.460938 31.007812 78.597656 C 30.933594 78.605469 30.875 78.667969 30.867188 78.742188 C 30.820312 79.839844 30.628906 80.828125 30.28125 81.707031 C 30.25 81.789062 30.28125 81.875 30.351562 81.925781 C 30.574219 82.074219 30.804688 82.15625 31.039062 82.175781 C 32.300781 82.269531 33.558594 82.203125 34.820312 81.976562 C 35.839844 81.789062 36.660156 81.695312 37.277344 81.695312 C 38.730469 81.6875 40.550781 81.175781 42.175781 80.996094 C 45.101562 80.667969 48.179688 80.0625 51.054688 79.84375 C 52.207031 79.753906 53.574219 79.527344 55.160156 79.164062 C 58.75 78.339844 62.292969 77.734375 65.539062 77.394531 C 65.65625 77.386719 65.75 77.285156 65.757812 77.167969 C 65.808594 76.332031 65.925781 74.339844 66.953125 74.125 C 67.796875 73.945312 68.515625 74.175781 69.109375 74.8125 C 69.660156 75.402344 70.097656 76.054688 70.417969 76.761719 C 70.519531 76.980469 70.773438 77.09375 71.003906 77.015625 C 73.515625 76.15625 75.957031 75.441406 78.335938 74.863281 C 79.183594 74.65625 80.484375 74.335938 82.234375 73.898438 C 84.046875 73.445312 85.359375 73.160156 86.164062 73.046875 C 87.496094 72.855469 88.550781 72.667969 89.332031 72.484375 C 91.183594 72.050781 93.203125 71.71875 94.976562 71.421875 C 97.398438 71.007812 100.640625 70.628906 103.199219 70.035156 C 103.359375 70 103.476562 69.851562 103.472656 69.6875 L 103.449219 67.710938 C 103.449219 67.582031 103.339844 67.472656 103.207031 67.472656 C 103.167969 67.472656 103.128906 67.484375 103.09375 67.503906 C 102.652344 67.738281 102.308594 67.878906 102.050781 67.921875 C 100.464844 68.183594 98.808594 68.183594 97.082031 67.921875 C 94.140625 67.46875 91.40625 66.75 88.882812 65.765625 C 88.132812 65.472656 86.9375 65.261719 85.296875 65.136719 C 84.351562 65.0625 82.8125 65.082031 80.671875 65.1875 C 80.457031 65.199219 80.246094 65.238281 80.039062 65.300781 L 76.929688 66.28125 C 76.765625 66.332031 76.605469 66.402344 76.460938 66.496094 C 76.441406 66.507812 75.433594 67.113281 73.429688 68.3125 C 73.117188 68.496094 72.78125 68.789062 72.421875 69.175781 C 71.554688 70.121094 70.769531 71.007812 70.058594 71.839844 C 69.957031 71.957031 69.839844 72.0625 69.710938 72.152344 C 69.628906 72.207031 69.515625 72.1875 69.460938 72.105469 C 69.433594 72.066406 69.421875 72.011719 69.433594 71.964844 C 69.558594 71.429688 69.820312 70.871094 70.222656 70.285156 C 70.3125 70.15625 70.386719 70.011719 70.4375 69.859375 C 71.121094 67.828125 72.453125 66.574219 74.175781 65.230469 C 75.355469 64.3125 76.519531 63.484375 77.917969 63.058594 C 78.761719 62.804688 79.8125 62.480469 81.070312 62.085938 C 82.355469 61.683594 83.589844 61.5625 84.84375 61.238281 C 86.234375 60.878906 87.664062 60.558594 89.128906 60.269531 C 90.855469 59.929688 92.796875 58.96875 93.921875 57.53125 C 93.980469 57.457031 93.96875 57.351562 93.890625 57.289062 C 93.886719 57.285156 93.878906 57.28125 93.871094 57.277344 C 92.210938 56.355469 90.199219 55.210938 87.835938 53.84375 C 86.511719 53.074219 84.960938 51.824219 83.421875 50.960938 C 82.757812 50.589844 82.167969 50.195312 81.652344 49.78125 C 81.582031 49.726562 81.480469 49.738281 81.425781 49.804688 C 81.417969 49.8125 81.414062 49.824219 81.40625 49.835938 C 80.816406 51.085938 80.285156 52.21875 79.460938 53.355469 C 78.734375 54.363281 78.042969 55.421875 77.386719 56.515625 C 76.832031 57.445312 76.367188 58.113281 75.996094 58.515625 C 75.351562 59.214844 74.625 60.144531 73.820312 60.941406 C 72.222656 62.523438 70.917969 64.296875 69.894531 66.261719 C 69.148438 67.699219 69.007812 69.105469 68.769531 70.679688 C 68.746094 70.820312 68.65625 70.941406 68.535156 71.007812 L 68.523438 71.015625 C 68.453125 71.050781 68.359375 71.023438 68.320312 70.953125 C 68.3125 70.933594 68.304688 70.90625 68.304688 70.886719 C 68.269531 68.914062 68.191406 67.609375 68.984375 66.058594 C 70.140625 63.789062 71.675781 61.730469 73.59375 59.875 C 74.011719 59.472656 74.566406 58.824219 75.269531 57.9375 C 76.457031 56.425781 77.355469 54.617188 78.414062 53.078125 C 79.429688 51.597656 80.191406 49.992188 80.78125 48.488281 C 80.8125 48.414062 80.792969 48.328125 80.734375 48.273438 C 77.605469 45.300781 74.300781 42.691406 70.820312 40.449219 C 68.1875 38.753906 65.835938 36.589844 63.292969 34.988281 C 62.664062 34.589844 61.890625 34 60.980469 33.222656 C 60.835938 33.097656 60.316406 32.816406 59.425781 32.375 C 59.367188 32.34375 59.300781 32.367188 59.269531 32.421875 C 59.261719 32.4375 59.257812 32.453125 59.257812 32.46875 C 59.09375 34.722656 58.273438 36.675781 56.796875 38.320312 C 56.550781 38.601562 56.273438 38.769531 55.972656 38.824219 C 55.800781 38.855469 55.636719 38.746094 55.601562 38.574219 C 55.582031 38.476562 55.609375 38.382812 55.671875 38.308594 C 55.941406 37.988281 56.515625 37.457031 56.808594 36.980469 C 57.484375 35.863281 57.972656 34.589844 58.277344 33.160156 C 58.308594 33.023438 58.3125 32.878906 58.285156 32.742188 C 58.171875 32.089844 57.886719 30.390625 59.167969 31.109375 C 59.519531 31.308594 60.132812 31.605469 60.996094 32 C 61.328125 32.152344 61.640625 32.347656 61.917969 32.585938 C 62.628906 33.195312 63.386719 33.746094 64.183594 34.238281 C 65.960938 35.332031 66.890625 36.136719 68.972656 37.738281 C 69.6875 38.289062 70.546875 38.882812 71.546875 39.523438 C 75.117188 41.808594 78.507812 44.496094 81.722656 47.59375 C 81.78125 47.644531 81.824219 47.714844 81.859375 47.789062 C 81.984375 48.097656 81.96875 48.472656 81.816406 48.910156 C 81.78125 49 81.820312 49.097656 81.902344 49.144531 C 83.179688 49.886719 84.519531 50.519531 85.730469 51.316406 C 87.207031 52.292969 88.230469 52.9375 88.796875 53.253906 C 92.1875 55.152344 94.179688 56.292969 94.757812 56.679688 C 95.074219 56.890625 95.128906 57.265625 94.933594 57.8125 C 94.726562 58.386719 94.371094 58.828125 93.867188 59.136719 C 93.78125 59.191406 93.753906 59.300781 93.808594 59.386719 C 93.816406 59.394531 93.824219 59.40625 93.828125 59.414062 C 95.519531 61.25 97.386719 62.882812 99.425781 64.308594 C 100.246094 64.878906 100.992188 65.109375 101.808594 65.449219 C 102.074219 65.5625 102.527344 65.871094 103.179688 66.378906 C 103.253906 66.4375 103.347656 66.472656 103.441406 66.46875 C 103.84375 66.460938 104.175781 66.628906 104.445312 66.964844 C 104.492188 67.023438 104.515625 67.09375 104.511719 67.167969 L 104.484375 69.324219 C 104.484375 69.394531 104.519531 69.464844 104.582031 69.503906 C 105.875 70.269531 106.730469 70.886719 107.152344 71.355469 C 107.621094 71.878906 107.527344 72.34375 106.867188 72.75 C 106.183594 73.167969 105.285156 73.546875 104.429688 73.792969 C 102.273438 74.410156 100.347656 74.886719 98.648438 75.226562 C 95.222656 75.910156 92.222656 76.757812 89.230469 77.34375 C 88.183594 77.550781 85.148438 78.164062 80.121094 79.191406 C 78.699219 79.480469 77.054688 80.007812 75.691406 80.28125 C 67.90625 81.84375 60.367188 83.238281 53.070312 84.460938 C 50.097656 84.957031 46.453125 85.410156 44.289062 85.6875 C 43.226562 85.824219 41.132812 85.96875 38.007812 86.121094 C 37.371094 86.152344 36.914062 86.183594 36.636719 86.21875 C 35.363281 86.367188 34.269531 86.34375 33.023438 86.492188 C 30.984375 86.730469 29.066406 86.8125 27.25 86.980469 C 26.878906 87.011719 26.613281 86.921875 26.460938 86.703125 C 24.957031 84.5625 23.292969 83.171875 21.359375 81.476562 C 21.222656 81.355469 20.804688 80.757812 20.101562 79.683594 C 19.796875 79.214844 19.285156 78.546875 18.5625 77.675781 C 18.148438 77.183594 17.578125 76.574219 16.835938 75.855469 C 13.898438 72.980469 12.191406 71.246094 11.714844 70.660156 C 10.390625 69.023438 9.183594 67.664062 8.09375 66.574219 C 7.015625 65.496094 6.417969 64.644531 5.1875 63.257812 C 4.769531 62.785156 4.558594 62.390625 4.558594 62.078125 C 4.558594 61.609375 4.808594 61.269531 5.3125 61.058594 C 6.257812 60.667969 7.296875 60.351562 8.429688 60.113281 C 8.507812 60.097656 8.574219 60.042969 8.609375 59.972656 C 8.722656 59.753906 8.789062 59.542969 8.8125 59.347656 C 8.855469 59.007812 9.09375 58.71875 9.4375 58.589844 C 10.140625 58.320312 11.117188 58.15625 11.941406 57.824219 C 13.605469 57.152344 15.246094 56.785156 16.667969 55.726562 C 16.753906 55.664062 16.773438 55.539062 16.707031 55.453125 C 16.699219 55.441406 16.6875 55.425781 16.671875 55.417969 C 14.523438 53.703125 12.695312 52.167969 11.183594 50.8125 C 10.800781 50.46875 10.585938 50.261719 10.53125 50.191406 C 10.074219 49.574219 10.335938 49.011719 11.121094 49.046875 C 12.640625 49.117188 14.492188 49.226562 16.0625 48.894531 C 18.851562 48.304688 21.566406 46.691406 24.054688 45.789062 C 26.023438 45.074219 27.769531 44.484375 29.699219 44.441406 C 30.652344 44.421875 31.378906 44.421875 31.875 44.445312 Z M 12.5625 61.777344 L 10.332031 59.792969 C 10.332031 59.792969 10.316406 59.773438 10.308594 59.765625 C 10.289062 59.714844 10.28125 59.652344 10.285156 59.574219 C 10.296875 59.449219 10.199219 59.335938 10.070312 59.328125 C 9.984375 59.324219 9.902344 59.367188 9.855469 59.4375 C 9.742188 59.617188 9.671875 59.816406 9.636719 60.019531 C 9.632812 60.035156 9.636719 60.046875 9.648438 60.058594 L 12.089844 62.171875 C 12.105469 62.179688 12.125 62.179688 12.136719 62.164062 C 12.140625 62.15625 12.140625 62.152344 12.140625 62.140625 C 12.140625 62.117188 12.136719 62.089844 12.136719 62.0625 C 12.128906 61.964844 12.199219 61.882812 12.296875 61.875 C 12.300781 61.875 12.308594 61.875 12.3125 61.875 L 12.523438 61.882812 C 12.554688 61.882812 12.582031 61.855469 12.582031 61.824219 C 12.582031 61.804688 12.574219 61.789062 12.5625 61.777344 Z M 74.429688 66.472656 C 74.511719 66.441406 74.890625 66.210938 75.570312 65.777344 C 75.875 65.582031 76.339844 65.371094 76.957031 65.144531 C 78.789062 64.480469 80.101562 64.113281 80.890625 64.054688 C 81.515625 64.007812 82.941406 64.003906 85.171875 64.046875 C 85.878906 64.0625 86.601562 64.148438 87.351562 64.3125 C 88.613281 64.582031 89.324219 64.75 89.492188 64.816406 C 92.121094 65.867188 94.851562 66.605469 97.679688 67.023438 C 99.128906 67.234375 100.632812 67.234375 102.1875 67.023438 C 102.257812 67.011719 102.304688 66.949219 102.292969 66.878906 C 102.292969 66.855469 102.28125 66.832031 102.265625 66.816406 C 101.800781 66.308594 100.851562 65.984375 100.199219 65.734375 C 100.019531 65.667969 99.84375 65.582031 99.683594 65.476562 C 97.207031 63.878906 95.023438 62.011719 93.144531 59.878906 C 93.101562 59.832031 93.03125 59.820312 92.980469 59.855469 C 91.769531 60.632812 90.433594 61.15625 88.96875 61.417969 C 86.914062 61.789062 85.429688 62.234375 83.535156 62.570312 C 81.695312 62.894531 80.535156 63.335938 78.570312 63.886719 C 77.277344 64.25 75.882812 65.085938 74.382812 66.398438 C 74.367188 66.414062 74.367188 66.441406 74.382812 66.457031 C 74.398438 66.472656 74.414062 66.476562 74.429688 66.472656 Z M 26.320312 75.011719 C 26.007812 74.75 27.058594 75.96875 29.480469 78.671875 C 29.546875 78.742188 29.558594 78.847656 29.515625 78.929688 L 29.46875 79.015625 C 29.433594 79.085938 29.34375 79.113281 29.269531 79.078125 C 29.253906 79.070312 29.242188 79.058594 29.226562 79.042969 C 28.269531 77.949219 27.300781 76.859375 26.320312 75.769531 C 25.515625 74.871094 24.71875 74.285156 23.957031 73.515625 C 23.242188 72.789062 22.65625 72.214844 22.199219 71.792969 C 19.238281 69.050781 16.609375 66.621094 14.316406 64.507812 C 14.304688 64.5 14.296875 64.496094 14.292969 64.492188 C 14.289062 64.492188 14.285156 64.496094 14.285156 64.5 C 14.285156 64.5 14.285156 64.507812 14.285156 64.507812 C 15.410156 65.671875 16.820312 67.140625 18.519531 68.925781 C 20.546875 71.046875 23.074219 73.457031 26.097656 76.144531 C 26.773438 76.746094 27.582031 77.746094 28.519531 79.148438 C 28.546875 79.191406 28.535156 79.25 28.492188 79.28125 C 28.480469 79.289062 28.464844 79.292969 28.449219 79.296875 L 28.367188 79.304688 C 28.289062 79.3125 28.210938 79.28125 28.164062 79.21875 C 27.855469 78.820312 27.4375 78.28125 26.914062 77.59375 C 26.5625 77.140625 26.085938 76.664062 25.480469 76.167969 C 23.804688 74.796875 22.371094 73.324219 20.203125 71.300781 C 19.113281 70.285156 18.28125 69.460938 17.695312 68.820312 C 16.308594 67.304688 14.425781 65.328125 12.054688 62.886719 C 11.488281 62.304688 11.050781 61.898438 10.75 61.671875 C 10.199219 61.25 9.796875 60.867188 9.550781 60.519531 C 9.539062 60.5 9.515625 60.496094 9.5 60.507812 C 9.492188 60.511719 9.484375 60.519531 9.484375 60.527344 L 8.996094 61.710938 C 8.980469 61.75 8.996094 61.796875 9.03125 61.820312 C 10.597656 62.855469 11.65625 63.714844 12.210938 64.390625 C 13.574219 66.066406 14.480469 67.101562 14.929688 67.5 C 18.390625 70.566406 21.570312 73.671875 24.675781 76.582031 C 26.398438 78.191406 27.761719 80.171875 29.632812 81.46875 C 29.703125 81.515625 29.796875 81.496094 29.84375 81.429688 C 29.859375 81.410156 29.867188 81.386719 29.867188 81.363281 L 30.140625 78.828125 C 30.148438 78.726562 30.105469 78.632812 30.019531 78.578125 C 29.800781 78.441406 29.546875 78.21875 29.261719 77.90625 C 28.101562 76.644531 27.121094 75.679688 26.316406 75.011719 Z M 30.042969 82.929688 C 29.402344 82.550781 28.757812 82.09375 28.109375 81.558594 C 27.050781 80.691406 25.726562 78.960938 24.882812 78.144531 C 23.101562 76.414062 20.335938 73.847656 18.628906 72.226562 C 17.488281 71.136719 16.105469 69.890625 14.488281 68.484375 C 13.902344 67.976562 13.121094 67.121094 12.140625 65.910156 C 11.019531 64.519531 9.933594 63.652344 8.511719 62.683594 C 7.996094 62.332031 7.875 61.832031 8.152344 61.179688 C 8.164062 61.152344 8.152344 61.121094 8.121094 61.109375 C 8.109375 61.105469 8.097656 61.105469 8.085938 61.109375 L 5.71875 61.886719 C 5.703125 61.894531 5.6875 61.898438 5.675781 61.914062 C 5.542969 62.027344 5.582031 62.199219 5.792969 62.425781 C 6.726562 63.453125 7.304688 64.109375 7.535156 64.40625 C 8.113281 65.152344 8.691406 65.792969 9.265625 66.335938 C 10.789062 67.78125 12.136719 69.695312 13.699219 71.328125 C 15.214844 72.910156 16.285156 73.992188 16.90625 74.570312 C 18.921875 76.445312 20.449219 78.265625 21.484375 80.042969 C 21.675781 80.363281 21.871094 80.617188 22.070312 80.800781 C 23.875 82.464844 25.460938 83.757812 26.925781 85.628906 C 26.992188 85.714844 27.109375 85.730469 27.195312 85.664062 C 27.195312 85.660156 27.203125 85.660156 27.203125 85.65625 L 30.058594 83.128906 C 30.109375 83.082031 30.117188 83.007812 30.074219 82.957031 C 30.066406 82.945312 30.054688 82.941406 30.042969 82.933594 Z M 22.492188 71.3125 C 22.476562 71.378906 22.515625 71.441406 22.609375 71.496094 C 22.679688 71.457031 22.640625 71.394531 22.492188 71.3125 C 21.953125 70.667969 21.492188 70.167969 21.117188 69.816406 C 17.1875 66.105469 15.09375 64.101562 13.09375 62.34375 C 13.078125 62.328125 13.050781 62.328125 13.035156 62.34375 C 13.019531 62.359375 13.019531 62.382812 13.035156 62.402344 C 13.8125 63.246094 14.621094 64.0625 15.460938 64.847656 C 17.121094 66.402344 18.917969 68.101562 20.855469 69.949219 C 21.191406 70.269531 21.738281 70.722656 22.492188 71.308594 Z M 13.300781 63.515625 C 13.289062 63.527344 13.472656 63.730469 13.714844 63.960938 C 13.953125 64.195312 14.160156 64.371094 14.175781 64.359375 C 14.1875 64.347656 14.003906 64.148438 13.761719 63.914062 C 13.523438 63.679688 13.316406 63.503906 13.300781 63.515625 Z M 103.578125 71.007812 C 103.042969 71.0625 102.851562 71.53125 102.507812 71.792969 C 102.058594 72.132812 101.324219 72.753906 100.308594 73.652344 C 100.277344 73.679688 100.277344 73.730469 100.304688 73.761719 C 100.320312 73.78125 100.347656 73.792969 100.375 73.785156 C 101.835938 73.480469 103.335938 73.085938 104.886719 72.605469 C 105.464844 72.425781 105.917969 72.226562 106.242188 72.011719 C 106.289062 71.976562 106.304688 71.90625 106.269531 71.855469 C 106.261719 71.84375 106.25 71.835938 106.242188 71.828125 L 104.449219 70.621094 C 104.402344 70.59375 104.34375 70.605469 104.3125 70.652344 C 104.296875 70.675781 104.292969 70.707031 104.300781 70.734375 C 104.347656 70.878906 104.347656 71.011719 104.308594 71.128906 C 104.25 71.296875 104.15625 71.445312 104.035156 71.570312 L 102.640625 72.984375 C 102.558594 73.066406 102.429688 73.070312 102.347656 72.992188 C 102.339844 72.984375 102.335938 72.976562 102.328125 72.96875 L 102.261719 72.882812 C 102.191406 72.792969 102.199219 72.664062 102.28125 72.578125 L 103.644531 71.136719 C 103.671875 71.109375 103.675781 71.0625 103.644531 71.027344 C 103.625 71.011719 103.601562 71 103.578125 71.007812 Z M 101.988281 71.378906 L 100.539062 71.640625 C 100.453125 71.660156 100.378906 71.714844 100.339844 71.796875 C 100.21875 72.078125 99.960938 72.378906 99.566406 72.703125 C 98.601562 73.5 97.933594 74.023438 97.558594 74.285156 C 97.527344 74.304688 97.519531 74.347656 97.542969 74.378906 C 97.558594 74.40625 97.589844 74.414062 97.617188 74.410156 L 99.507812 73.972656 C 99.632812 73.945312 99.738281 73.867188 99.800781 73.757812 C 100.113281 73.230469 100.453125 72.816406 100.8125 72.523438 C 101.617188 71.867188 102.03125 71.515625 102.058594 71.46875 C 102.074219 71.4375 102.058594 71.402344 102.027344 71.382812 C 102.015625 71.378906 102 71.375 101.988281 71.378906 Z M 97.179688 72.273438 C 97.226562 72.433594 97.152344 72.597656 96.945312 72.757812 C 96.160156 73.375 95.46875 74.058594 94.871094 74.808594 C 94.847656 74.835938 94.851562 74.878906 94.878906 74.902344 C 94.894531 74.914062 94.914062 74.921875 94.933594 74.917969 L 96.988281 74.535156 C 97.066406 74.519531 97.132812 74.457031 97.15625 74.378906 L 97.226562 74.128906 C 97.238281 74.085938 97.261719 74.046875 97.296875 74.015625 L 99.792969 71.808594 C 99.792969 71.808594 99.800781 71.789062 99.796875 71.78125 C 99.789062 71.777344 99.78125 71.773438 99.773438 71.773438 L 97.269531 72.132812 C 97.207031 72.144531 97.167969 72.199219 97.179688 72.261719 C 97.179688 72.265625 97.179688 72.269531 97.179688 72.273438 Z M 90.914062 75.882812 L 92.484375 75.589844 C 92.566406 75.574219 92.636719 75.523438 92.671875 75.449219 C 93.304688 74.140625 94.25 73.167969 95.503906 72.53125 C 95.601562 72.484375 95.722656 72.523438 95.769531 72.621094 C 95.8125 72.707031 95.789062 72.808594 95.71875 72.867188 C 94.769531 73.613281 93.960938 74.382812 93.296875 75.179688 C 93.265625 75.214844 93.269531 75.273438 93.308594 75.304688 C 93.328125 75.320312 93.355469 75.328125 93.382812 75.324219 L 93.878906 75.234375 C 94.027344 75.207031 94.160156 75.113281 94.238281 74.984375 C 94.867188 73.929688 95.742188 73.023438 96.855469 72.265625 C 96.886719 72.246094 96.890625 72.207031 96.871094 72.179688 C 96.855469 72.164062 96.835938 72.152344 96.8125 72.160156 L 94.089844 72.667969 C 94.042969 72.679688 93.996094 72.703125 93.960938 72.738281 L 90.871094 75.8125 C 90.855469 75.828125 90.851562 75.855469 90.871094 75.871094 C 90.878906 75.882812 90.898438 75.890625 90.914062 75.882812 Z M 24.300781 73.191406 C 24.417969 73.308594 24.539062 73.40625 24.664062 73.476562 C 24.671875 73.480469 24.683594 73.480469 24.691406 73.472656 C 24.695312 73.464844 24.695312 73.453125 24.6875 73.449219 C 24.550781 73.308594 24.445312 73.203125 24.367188 73.128906 C 24.289062 73.050781 24.179688 72.945312 24.039062 72.808594 C 24.03125 72.800781 24.019531 72.800781 24.011719 72.808594 C 24.003906 72.8125 24.003906 72.824219 24.011719 72.832031 C 24.085938 72.957031 24.183594 73.074219 24.300781 73.191406 Z M 88.296875 76.464844 L 90.039062 76.136719 C 90.136719 76.117188 90.21875 76.058594 90.265625 75.972656 C 90.453125 75.605469 90.609375 75.363281 90.726562 75.246094 C 91.8125 74.164062 92.570312 73.402344 92.996094 72.964844 C 93.011719 72.945312 93.011719 72.914062 92.992188 72.898438 C 92.980469 72.890625 92.96875 72.882812 92.953125 72.886719 L 84.207031 74.527344 C 84.179688 74.535156 84.152344 74.546875 84.128906 74.566406 L 80.390625 77.820312 C 80.339844 77.863281 80.335938 77.9375 80.378906 77.988281 C 80.40625 78.019531 80.449219 78.03125 80.492188 78.023438 L 82.097656 77.722656 C 82.398438 77.664062 82.667969 77.503906 82.855469 77.265625 C 83.59375 76.332031 84.335938 75.316406 85.167969 74.738281 C 85.402344 74.578125 85.574219 74.589844 85.695312 74.777344 C 85.726562 74.824219 85.722656 74.886719 85.683594 74.925781 L 83.355469 77.386719 C 83.339844 77.402344 83.339844 77.425781 83.355469 77.441406 C 83.363281 77.449219 83.375 77.453125 83.386719 77.449219 L 84.777344 77.1875 C 84.816406 77.179688 84.855469 77.15625 84.878906 77.121094 C 85.632812 75.972656 86.613281 74.988281 87.820312 74.171875 C 87.921875 74.101562 88.0625 74.128906 88.132812 74.226562 L 88.136719 74.234375 C 88.191406 74.320312 88.179688 74.433594 88.101562 74.503906 L 85.523438 76.816406 C 85.484375 76.847656 85.484375 76.902344 85.515625 76.941406 C 85.535156 76.960938 85.566406 76.972656 85.597656 76.96875 L 87.105469 76.683594 C 87.203125 76.664062 87.289062 76.617188 87.355469 76.546875 L 90.214844 73.53125 C 90.273438 73.46875 90.371094 73.464844 90.433594 73.527344 C 90.4375 73.53125 90.445312 73.539062 90.449219 73.542969 L 90.519531 73.636719 C 90.605469 73.742188 90.597656 73.890625 90.503906 73.988281 L 88.242188 76.371094 C 88.222656 76.394531 88.222656 76.429688 88.25 76.449219 C 88.261719 76.460938 88.277344 76.464844 88.296875 76.464844 Z M 83.054688 74.792969 L 81.128906 75.277344 C 81.066406 75.292969 81.007812 75.328125 80.964844 75.382812 L 78.46875 78.292969 C 78.425781 78.339844 78.433594 78.410156 78.480469 78.449219 C 78.507812 78.46875 78.542969 78.476562 78.578125 78.46875 L 79.589844 78.214844 C 79.710938 78.183594 79.816406 78.105469 79.875 77.996094 C 80.210938 77.394531 80.78125 76.769531 81.585938 76.117188 C 82.53125 75.355469 83.03125 74.941406 83.101562 74.875 C 83.117188 74.855469 83.117188 74.824219 83.097656 74.808594 C 83.085938 74.796875 83.070312 74.792969 83.054688 74.792969 Z M 67.066406 76.785156 L 68.15625 75.820312 C 68.277344 75.714844 68.289062 75.523438 68.183594 75.402344 C 68.164062 75.382812 68.140625 75.363281 68.113281 75.347656 C 67.535156 75.003906 67.203125 75.023438 67.113281 75.402344 C 67.003906 75.878906 66.925781 76.308594 66.878906 76.691406 C 66.875 76.75 66.917969 76.804688 66.980469 76.8125 C 67.011719 76.816406 67.042969 76.808594 67.066406 76.785156 Z M 77.933594 78.457031 C 77.90625 78.402344 77.910156 78.339844 77.953125 78.269531 C 78.46875 77.429688 79.152344 76.566406 80.019531 75.675781 C 80.046875 75.652344 80.046875 75.605469 80.019531 75.582031 C 80 75.566406 79.972656 75.558594 79.949219 75.566406 L 79.007812 75.800781 C 78.960938 75.816406 78.914062 75.835938 78.878906 75.867188 C 77.5 77.003906 76.402344 78.097656 75.589844 79.152344 C 75.574219 79.175781 75.578125 79.203125 75.601562 79.222656 C 75.613281 79.230469 75.628906 79.230469 75.640625 79.230469 L 77.84375 78.660156 C 77.917969 78.640625 77.960938 78.5625 77.941406 78.484375 C 77.9375 78.476562 77.9375 78.464844 77.933594 78.457031 Z M 52.058594 80.726562 L 50.507812 80.894531 C 50.386719 80.910156 50.269531 80.960938 50.179688 81.046875 C 48.988281 82.152344 47.527344 83.582031 46.003906 84.390625 C 45.957031 84.414062 45.902344 84.394531 45.878906 84.351562 C 45.875 84.34375 45.871094 84.335938 45.867188 84.324219 L 45.847656 84.226562 C 45.847656 84.210938 45.851562 84.195312 45.867188 84.1875 L 49.4375 81.175781 C 49.476562 81.140625 49.484375 81.082031 49.449219 81.042969 C 49.429688 81.023438 49.40625 81.011719 49.378906 81.011719 C 48.199219 81.007812 47.460938 81.585938 46.398438 82.417969 C 45.546875 83.09375 44.695312 83.824219 43.855469 84.605469 C 43.832031 84.625 43.832031 84.660156 43.851562 84.679688 C 43.863281 84.695312 43.878906 84.699219 43.898438 84.699219 C 44.640625 84.632812 45.394531 84.539062 46.160156 84.414062 C 47.238281 84.238281 47.988281 84.128906 48.414062 84.082031 C 51.1875 83.773438 54.277344 83.109375 56.472656 82.820312 C 56.996094 82.753906 58.839844 82.414062 62.011719 81.808594 C 62.144531 81.78125 62.261719 81.710938 62.34375 81.605469 C 63.152344 80.59375 64.167969 79.621094 65.378906 78.6875 C 65.4375 78.644531 65.515625 78.640625 65.574219 78.671875 L 65.644531 78.707031 C 65.710938 78.742188 65.738281 78.824219 65.703125 78.890625 C 65.695312 78.90625 65.683594 78.917969 65.675781 78.929688 L 62.925781 81.484375 C 62.898438 81.511719 62.894531 81.558594 62.921875 81.589844 C 62.941406 81.609375 62.964844 81.617188 62.988281 81.613281 L 64.011719 81.421875 C 64.09375 81.40625 64.167969 81.363281 64.21875 81.296875 C 64.636719 80.796875 65.527344 80.203125 66.175781 79.570312 C 67.125 78.644531 67.929688 77.914062 68.601562 77.386719 C 68.867188 77.175781 69.078125 77.066406 69.234375 77.054688 C 69.277344 77.050781 69.308594 77.011719 69.304688 76.96875 C 69.304688 76.953125 69.300781 76.945312 69.296875 76.933594 L 68.867188 76.191406 C 68.808594 76.09375 68.679688 76.058594 68.582031 76.117188 C 68.570312 76.125 68.5625 76.132812 68.546875 76.140625 L 67.433594 77.128906 C 67.367188 77.183594 67.285156 77.21875 67.195312 77.214844 C 67.105469 77.214844 66.996094 77.226562 66.871094 77.25 C 66.761719 77.273438 66.785156 78.253906 65.96875 78.359375 C 65.007812 78.484375 64.4375 78.546875 64.265625 78.550781 C 64.183594 78.550781 64.101562 78.578125 64.03125 78.621094 C 63.597656 78.90625 63.359375 79.070312 63.308594 79.117188 C 62.28125 80.125 61.265625 81.054688 60.265625 81.90625 C 60.21875 81.945312 60.152344 81.9375 60.113281 81.898438 L 60.070312 81.851562 C 60.015625 81.796875 60.019531 81.710938 60.070312 81.65625 L 62.890625 78.851562 C 62.914062 78.828125 62.914062 78.792969 62.890625 78.769531 C 62.878906 78.757812 62.867188 78.753906 62.855469 78.75 C 62.640625 78.722656 62.464844 78.769531 62.328125 78.890625 C 61.332031 79.769531 60.414062 80.589844 59.5625 81.351562 C 59.480469 81.429688 59.40625 81.511719 59.339844 81.605469 C 59.148438 81.878906 59.023438 82.050781 58.964844 82.121094 C 58.9375 82.152344 58.902344 82.175781 58.867188 82.183594 C 58.824219 82.195312 58.785156 82.195312 58.753906 82.1875 C 58.699219 82.175781 58.664062 82.117188 58.675781 82.0625 C 58.675781 82.058594 58.679688 82.050781 58.683594 82.046875 C 59.238281 80.804688 60.875 79.632812 61.492188 79.074219 C 61.519531 79.046875 61.519531 79.007812 61.496094 78.980469 C 61.480469 78.964844 61.457031 78.957031 61.4375 78.960938 L 60.480469 79.140625 C 60.378906 79.160156 60.28125 79.207031 60.199219 79.277344 C 59.070312 80.222656 57.914062 81.292969 56.738281 82.480469 C 56.695312 82.523438 56.664062 82.546875 56.640625 82.558594 C 56.566406 82.589844 56.476562 82.558594 56.445312 82.480469 C 56.425781 82.433594 56.429688 82.382812 56.457031 82.339844 C 57.199219 81.226562 58.429688 80.191406 59.335938 79.445312 C 59.371094 79.417969 59.378906 79.371094 59.355469 79.335938 C 59.335938 79.3125 59.304688 79.300781 59.273438 79.308594 L 58.300781 79.492188 C 58.203125 79.507812 58.117188 79.550781 58.042969 79.613281 C 56.964844 80.535156 55.800781 81.558594 54.550781 82.667969 C 54.523438 82.695312 54.488281 82.707031 54.457031 82.703125 C 54.371094 82.6875 54.308594 82.609375 54.320312 82.527344 C 54.324219 82.5 54.332031 82.480469 54.34375 82.457031 C 54.527344 82.191406 54.75 81.9375 55.011719 81.695312 C 55.585938 81.160156 56.265625 80.570312 57.042969 79.925781 C 57.070312 79.902344 57.078125 79.859375 57.050781 79.832031 C 57.035156 79.8125 57.007812 79.800781 56.980469 79.804688 L 55.140625 80.207031 C 55.078125 80.222656 55.019531 80.25 54.972656 80.296875 L 51.644531 83.394531 C 51.605469 83.425781 51.546875 83.421875 51.515625 83.386719 C 51.496094 83.363281 51.488281 83.332031 51.492188 83.304688 C 51.550781 83.058594 51.679688 82.824219 51.882812 82.609375 C 52.605469 81.835938 53.371094 81.128906 54.175781 80.484375 C 54.203125 80.460938 54.207031 80.421875 54.183594 80.394531 C 54.167969 80.375 54.144531 80.367188 54.117188 80.375 L 53.273438 80.597656 C 53.125 80.636719 52.984375 80.710938 52.867188 80.808594 C 52.546875 81.042969 51.625 81.753906 50.101562 82.941406 C 49.78125 83.191406 49.472656 83.496094 49.175781 83.851562 C 49.152344 83.882812 49.109375 83.882812 49.078125 83.855469 C 49.0625 83.84375 49.054688 83.824219 49.054688 83.804688 L 49.070312 83.609375 C 49.078125 83.488281 49.136719 83.371094 49.226562 83.292969 L 52.078125 80.765625 C 52.078125 80.765625 52.089844 80.742188 52.082031 80.730469 C 52.078125 80.726562 52.070312 80.722656 52.058594 80.726562 Z M 75.445312 79.203125 C 75.261719 79.117188 75.253906 78.921875 75.425781 78.617188 C 75.53125 78.433594 75.660156 78.253906 75.816406 78.078125 C 76.347656 77.476562 76.976562 76.851562 77.699219 76.203125 C 77.714844 76.1875 77.71875 76.164062 77.707031 76.148438 C 77.699219 76.132812 77.675781 76.128906 77.660156 76.132812 L 75.957031 76.5625 C 75.878906 76.582031 75.8125 76.621094 75.753906 76.675781 L 72.792969 79.621094 C 72.761719 79.652344 72.761719 79.703125 72.792969 79.734375 C 72.8125 79.753906 72.839844 79.761719 72.867188 79.757812 L 75.4375 79.273438 C 75.457031 79.273438 75.472656 79.253906 75.472656 79.234375 C 75.472656 79.21875 75.460938 79.207031 75.445312 79.203125 Z M 74.527344 77 L 73.179688 77.421875 C 73.058594 77.460938 72.949219 77.527344 72.859375 77.621094 L 70.410156 80.203125 C 70.410156 80.203125 70.410156 80.210938 70.410156 80.214844 C 70.410156 80.214844 70.414062 80.21875 70.417969 80.214844 L 71.851562 79.945312 C 71.90625 79.9375 71.953125 79.90625 71.988281 79.863281 C 72.527344 79.15625 72.941406 78.667969 73.230469 78.394531 C 74.074219 77.597656 74.527344 77.160156 74.585938 77.085938 C 74.605469 77.0625 74.597656 77.023438 74.574219 77.007812 C 74.558594 76.996094 74.539062 76.996094 74.527344 76.996094 Z M 69.480469 77.300781 C 69.480469 77.300781 69.457031 77.28125 69.445312 77.289062 C 69.445312 77.289062 69.445312 77.289062 69.441406 77.289062 L 65.089844 81.144531 C 65.066406 81.164062 65.0625 81.199219 65.082031 81.21875 C 65.09375 81.234375 65.117188 81.242188 65.136719 81.238281 L 67.128906 80.859375 C 67.1875 80.847656 67.242188 80.820312 67.285156 80.773438 L 69.746094 77.917969 C 69.78125 77.878906 69.785156 77.820312 69.761719 77.777344 L 69.480469 77.296875 Z M 69.519531 78.984375 C 69.183594 79.386719 68.726562 79.890625 68.15625 80.492188 C 68.121094 80.527344 68.125 80.582031 68.15625 80.613281 C 68.175781 80.632812 68.203125 80.640625 68.234375 80.636719 L 69.40625 80.453125 C 69.480469 80.441406 69.550781 80.414062 69.609375 80.367188 C 69.660156 80.320312 69.882812 80.066406 70.269531 79.601562 C 70.605469 79.199219 71.0625 78.695312 71.636719 78.089844 C 71.667969 78.058594 71.664062 78.003906 71.628906 77.96875 C 71.609375 77.953125 71.582031 77.945312 71.554688 77.949219 L 70.386719 78.132812 C 70.3125 78.144531 70.242188 78.171875 70.183594 78.21875 C 70.128906 78.265625 69.90625 78.519531 69.519531 78.984375 Z M 47.054688 81.332031 L 42.8125 81.941406 C 42.710938 81.957031 42.617188 81.996094 42.539062 82.058594 L 39.0625 84.972656 C 39.03125 84.992188 39.027344 85.039062 39.050781 85.066406 C 39.066406 85.085938 39.085938 85.097656 39.113281 85.09375 L 40.589844 84.984375 C 40.695312 84.976562 40.796875 84.9375 40.878906 84.871094 L 44.644531 81.710938 C 44.691406 81.671875 44.753906 81.679688 44.792969 81.722656 C 44.800781 81.730469 44.804688 81.742188 44.8125 81.75 L 44.847656 81.84375 C 44.867188 81.890625 44.851562 81.9375 44.816406 81.972656 L 41.515625 84.894531 C 41.5 84.910156 41.496094 84.9375 41.511719 84.953125 C 41.523438 84.964844 41.535156 84.972656 41.550781 84.96875 L 43.347656 84.773438 C 43.425781 84.765625 43.492188 84.71875 43.53125 84.65625 C 43.535156 84.648438 43.539062 84.605469 43.539062 84.519531 C 43.542969 84.46875 43.589844 84.394531 43.675781 84.304688 C 44.789062 83.164062 45.929688 82.203125 47.089844 81.425781 C 47.113281 81.410156 47.121094 81.375 47.101562 81.355469 C 47.09375 81.339844 47.074219 81.332031 47.054688 81.332031 Z M 41.816406 82.039062 L 39.832031 82.410156 C 39.800781 82.417969 39.769531 82.429688 39.746094 82.453125 L 36.269531 85.195312 C 36.253906 85.210938 36.253906 85.234375 36.265625 85.253906 C 36.273438 85.261719 36.285156 85.269531 36.300781 85.265625 L 38.515625 85.019531 C 38.546875 85.019531 38.570312 85.003906 38.589844 84.984375 C 39.535156 83.976562 40.628906 83.035156 41.871094 82.164062 C 41.898438 82.140625 41.90625 82.097656 41.886719 82.066406 C 41.871094 82.046875 41.84375 82.035156 41.816406 82.039062 Z M 34.480469 85.441406 C 34.898438 85.480469 35.347656 85.40625 35.699219 85.132812 C 37.003906 84.128906 38.082031 83.308594 38.929688 82.675781 C 38.957031 82.660156 38.960938 82.621094 38.941406 82.597656 C 38.929688 82.582031 38.910156 82.574219 38.886719 82.574219 L 37.582031 82.714844 C 37.519531 82.722656 37.457031 82.75 37.402344 82.789062 C 36.273438 83.617188 35.289062 84.480469 34.453125 85.375 C 34.4375 85.390625 34.4375 85.417969 34.453125 85.429688 C 34.460938 85.4375 34.472656 85.441406 34.480469 85.441406 Z M 36.714844 82.734375 L 35.007812 82.976562 C 34.925781 82.988281 34.859375 83.058594 34.855469 83.140625 C 34.847656 83.210938 34.824219 83.265625 34.785156 83.304688 C 34.527344 83.554688 33.703125 84.261719 32.3125 85.410156 C 32.269531 85.449219 32.261719 85.511719 32.296875 85.558594 C 32.320312 85.585938 32.359375 85.601562 32.394531 85.59375 L 33.738281 85.40625 C 33.894531 85.378906 34.039062 85.304688 34.144531 85.183594 C 34.890625 84.335938 35.765625 83.5625 36.769531 82.871094 C 36.804688 82.847656 36.8125 82.800781 36.785156 82.765625 C 36.769531 82.742188 36.742188 82.730469 36.714844 82.734375 Z M 34.316406 83.113281 L 32.136719 83.285156 C 32.089844 83.285156 32.046875 83.308594 32.015625 83.34375 L 29.628906 85.859375 C 29.628906 85.859375 29.625 85.863281 29.628906 85.867188 C 29.628906 85.867188 29.632812 85.871094 29.636719 85.867188 L 31.410156 85.730469 C 31.464844 85.722656 31.519531 85.699219 31.554688 85.65625 C 32.335938 84.8125 33.269531 84 34.355469 83.222656 C 34.386719 83.207031 34.394531 83.167969 34.375 83.140625 C 34.363281 83.117188 34.339844 83.109375 34.316406 83.109375 Z M 30.882812 83.21875 C 30.785156 83.222656 30.691406 83.257812 30.613281 83.324219 L 27.582031 86.007812 C 27.558594 86.035156 27.558594 86.070312 27.582031 86.09375 C 27.59375 86.109375 27.613281 86.117188 27.632812 86.117188 L 28.925781 85.972656 C 28.988281 85.964844 29.046875 85.933594 29.089844 85.886719 L 31.382812 83.335938 C 31.417969 83.300781 31.414062 83.25 31.378906 83.21875 C 31.363281 83.203125 31.339844 83.191406 31.316406 83.195312 Z M 30.882812 83.21875 " fill-opacity="1" fill-rule="nonzero"/></g><path fill="#5f6738" d="M 73.484375 70.503906 C 72.390625 71.191406 71.410156 72.171875 70.53125 73.449219 C 70.488281 73.511719 70.40625 73.527344 70.34375 73.484375 C 70.316406 73.464844 70.296875 73.4375 70.289062 73.40625 L 70.253906 73.261719 C 70.222656 73.140625 70.25 73.007812 70.328125 72.902344 C 71.726562 71.109375 72.867188 70.277344 74.804688 68.917969 C 75.574219 68.378906 76.433594 67.917969 77.390625 67.53125 C 80.683594 66.199219 84.003906 65.640625 87.351562 65.855469 C 87.777344 65.882812 88.113281 65.996094 88.363281 66.191406 C 88.414062 66.226562 88.421875 66.300781 88.382812 66.347656 C 88.359375 66.378906 88.316406 66.394531 88.277344 66.390625 L 87.363281 66.25 C 87.347656 66.246094 87.332031 66.246094 87.316406 66.246094 C 83.683594 66.21875 80.21875 66.910156 76.921875 68.320312 C 76.1875 68.636719 75.515625 69.019531 74.914062 69.476562 C 74.886719 69.496094 74.878906 69.519531 74.882812 69.539062 C 74.886719 69.550781 74.898438 69.554688 74.910156 69.550781 C 74.910156 69.550781 74.910156 69.550781 74.914062 69.550781 C 76.636719 68.695312 78.617188 68.367188 80.53125 67.984375 C 80.601562 67.96875 80.667969 68.015625 80.683594 68.082031 L 80.703125 68.148438 C 80.710938 68.183594 80.691406 68.21875 80.65625 68.230469 C 80.097656 68.417969 79.003906 68.726562 77.382812 69.15625 C 75.785156 69.578125 74.363281 70.375 73.125 71.542969 C 72.824219 71.820312 72.515625 72.3125 72.191406 73.007812 C 72.160156 73.074219 72.082031 73.105469 72.015625 73.074219 C 71.996094 73.066406 71.980469 73.054688 71.96875 73.035156 L 71.960938 73.027344 C 71.871094 72.917969 71.851562 72.769531 71.90625 72.640625 C 72.246094 71.839844 72.777344 71.140625 73.507812 70.539062 C 73.515625 70.53125 73.511719 70.515625 73.503906 70.507812 C 73.496094 70.503906 73.492188 70.503906 73.484375 70.507812 Z M 73.484375 70.503906 " fill-opacity="1" fill-rule="nonzero"/><path fill="#5f6738" d="M 84.917969 68.132812 C 86.175781 68.167969 87.550781 68.617188 88.710938 69.191406 C 88.796875 69.234375 88.851562 69.328125 88.851562 69.421875 L 88.851562 69.457031 C 88.847656 69.515625 88.796875 69.5625 88.738281 69.558594 C 88.722656 69.558594 88.707031 69.558594 88.695312 69.550781 C 87.609375 69.078125 86.183594 68.660156 84.902344 68.625 C 83.621094 68.589844 82.175781 68.929688 81.0625 69.34375 C 81.007812 69.363281 80.945312 69.335938 80.925781 69.28125 C 80.921875 69.269531 80.917969 69.253906 80.917969 69.242188 L 80.917969 69.210938 C 80.917969 69.113281 80.980469 69.027344 81.070312 68.988281 C 82.261719 68.476562 83.65625 68.101562 84.917969 68.132812 Z M 84.917969 68.132812 " fill-opacity="1" fill-rule="nonzero"/><path fill="#5f6738" d="M 88.644531 70.796875 L 90.101562 70.703125 C 90.164062 70.699219 90.222656 70.691406 90.285156 70.679688 C 92.835938 70.140625 94.5625 69.796875 95.457031 69.648438 C 96.457031 69.480469 97.445312 69.253906 98.429688 68.957031 C 99.738281 68.566406 101.160156 68.210938 102.59375 68.28125 C 102.65625 68.285156 102.703125 68.335938 102.699219 68.398438 L 102.699219 68.488281 C 102.695312 68.550781 102.644531 68.597656 102.582031 68.597656 C 101.976562 68.597656 101.550781 68.625 101.300781 68.679688 C 99.175781 69.113281 97.535156 69.722656 95.480469 70.070312 C 94.570312 70.222656 92.984375 70.554688 90.722656 71.0625 C 90.652344 71.082031 90.578125 71.089844 90.503906 71.089844 C 89.910156 71.09375 89.105469 71.246094 88.601562 71.019531 C 88.542969 70.996094 88.515625 70.925781 88.542969 70.867188 C 88.558594 70.828125 88.597656 70.800781 88.644531 70.796875 Z M 88.644531 70.796875 " fill-opacity="1" fill-rule="nonzero"/><path fill="#5f6738" d="M 103.316406 69.285156 C 103.382812 69.289062 103.429688 69.347656 103.421875 69.414062 C 103.421875 69.429688 103.417969 69.445312 103.410156 69.457031 L 103.371094 69.523438 C 103.332031 69.597656 103.253906 69.640625 103.171875 69.636719 C 102.140625 69.578125 101.011719 69.707031 99.792969 70.027344 C 97.519531 70.617188 95.453125 71.042969 93.597656 71.300781 C 91.167969 71.644531 89.390625 72.011719 86.691406 72.511719 C 86.582031 72.53125 86.472656 72.472656 86.429688 72.363281 L 86.429688 72.355469 C 86.394531 72.269531 86.441406 72.171875 86.53125 72.136719 C 86.535156 72.136719 86.542969 72.132812 86.546875 72.132812 C 89.03125 71.523438 91.726562 71.023438 94.625 70.640625 C 95.316406 70.546875 97.167969 70.144531 100.183594 69.429688 C 101.089844 69.21875 102.136719 69.167969 103.316406 69.285156 Z M 103.316406 69.285156 " fill-opacity="1" fill-rule="nonzero"/><path fill="#5f6738" d="M 84.253906 72.824219 C 84.34375 72.8125 84.425781 72.878906 84.433594 72.972656 C 84.433594 72.992188 84.433594 73.011719 84.429688 73.03125 L 84.40625 73.117188 C 84.371094 73.230469 84.277344 73.308594 84.164062 73.316406 C 81.40625 73.574219 78.664062 74.058594 75.9375 74.765625 C 75.171875 74.96875 73.617188 75.265625 71.277344 75.660156 C 71.1875 75.671875 71.101562 75.613281 71.089844 75.523438 L 71.089844 75.503906 C 71.074219 75.410156 71.136719 75.320312 71.230469 75.304688 C 72.640625 75.015625 73.640625 74.820312 74.226562 74.71875 C 74.683594 74.636719 75.671875 74.414062 77.191406 74.039062 C 79.476562 73.476562 81.832031 73.070312 84.253906 72.824219 Z M 84.253906 72.824219 " fill-opacity="1" fill-rule="nonzero"/><path fill="#5f6738" d="M 63.945312 73.96875 C 64.039062 74 64.089844 74.101562 64.058594 74.195312 C 64.050781 74.210938 64.042969 74.222656 64.039062 74.238281 L 63.96875 74.339844 C 63.902344 74.433594 63.773438 74.460938 63.675781 74.394531 C 63.675781 74.394531 63.675781 74.394531 63.671875 74.394531 C 63.488281 74.265625 63.359375 74.191406 63.277344 74.167969 C 62.238281 73.894531 61.257812 73.726562 60.332031 73.667969 C 56.902344 73.464844 54.6875 73.410156 53.695312 73.519531 C 52.128906 73.683594 49.992188 74.144531 47.28125 74.894531 C 47.21875 74.910156 47.152344 74.875 47.136719 74.8125 C 47.132812 74.804688 47.128906 74.792969 47.128906 74.78125 L 47.128906 74.757812 C 47.128906 74.65625 47.191406 74.566406 47.285156 74.527344 C 49.039062 73.777344 50.972656 73.414062 52.824219 73.132812 C 54.492188 72.882812 56.316406 72.925781 58.023438 73.085938 C 58.304688 73.113281 58.871094 73.144531 59.722656 73.175781 C 61.164062 73.234375 62.574219 73.496094 63.945312 73.96875 Z M 63.945312 73.96875 " fill-opacity="1" fill-rule="nonzero"/><path fill="#5f6738" d="M 53.214844 75.191406 L 53.214844 75.183594 C 53.175781 75.125 53.191406 75.046875 53.25 75.007812 C 53.257812 75.003906 53.269531 74.996094 53.277344 74.996094 C 53.691406 74.847656 53.921875 74.773438 53.96875 74.761719 C 56.082031 74.304688 58 74.164062 59.726562 74.339844 C 60.523438 74.421875 61.953125 74.800781 64.011719 75.480469 C 64.113281 75.515625 64.203125 75.585938 64.257812 75.675781 L 64.402344 75.929688 C 64.421875 75.96875 64.410156 76.019531 64.371094 76.042969 C 64.351562 76.054688 64.328125 76.058594 64.304688 76.050781 C 62.082031 75.289062 60.472656 74.882812 59.476562 74.832031 C 57.726562 74.742188 55.722656 74.898438 53.464844 75.300781 C 53.367188 75.316406 53.269531 75.273438 53.214844 75.191406 Z M 53.214844 75.191406 " fill-opacity="1" fill-rule="nonzero"/><path fill="#5f6738" d="M 31.71875 80.402344 C 32.386719 80.367188 33.242188 80.191406 34.289062 79.875 C 36.617188 79.175781 39.160156 78.652344 41.125 78.160156 C 42.847656 77.726562 44.800781 77.480469 46.628906 77.121094 C 46.691406 77.109375 46.753906 77.148438 46.765625 77.207031 L 46.78125 77.285156 C 46.792969 77.324219 46.765625 77.367188 46.726562 77.375 L 34.8125 80.121094 C 34.8125 80.121094 34.800781 80.128906 34.800781 80.136719 L 34.828125 80.257812 C 34.835938 80.292969 34.875 80.316406 34.910156 80.304688 C 35.394531 80.191406 35.910156 80.128906 36.457031 80.121094 C 37.050781 80.117188 37.566406 80.082031 38.003906 80.019531 C 41.28125 79.554688 43.238281 79.246094 43.871094 79.089844 C 45.757812 78.617188 47.589844 78.210938 49.367188 77.871094 C 49.433594 77.859375 49.496094 77.902344 49.507812 77.96875 C 49.507812 77.972656 49.507812 77.980469 49.507812 77.984375 L 49.507812 77.988281 C 49.511719 78.074219 49.453125 78.152344 49.371094 78.171875 C 46.328125 78.953125 44.027344 79.488281 42.484375 79.777344 C 42.410156 79.789062 42.277344 79.796875 42.078125 79.804688 C 41.933594 79.804688 41.789062 79.828125 41.644531 79.863281 C 41.066406 80.023438 40.417969 80.125 39.707031 80.167969 C 39.667969 80.167969 39.640625 80.203125 39.640625 80.242188 C 39.640625 80.242188 39.640625 80.242188 39.640625 80.246094 L 39.648438 80.304688 C 39.648438 80.304688 39.65625 80.316406 39.660156 80.316406 C 41.691406 80.148438 43.164062 79.972656 44.082031 79.785156 C 46.953125 79.203125 49.292969 78.992188 52.023438 78.40625 C 52.902344 78.214844 54.226562 77.996094 55.992188 77.753906 C 56.070312 77.738281 56.140625 77.792969 56.152344 77.867188 C 56.152344 77.886719 56.152344 77.902344 56.152344 77.917969 L 56.136719 77.988281 C 56.117188 78.082031 56.046875 78.15625 55.957031 78.179688 C 54.800781 78.496094 53.25 78.617188 52.117188 78.871094 C 50.785156 79.160156 49.339844 79.417969 47.777344 79.632812 C 46.429688 79.816406 45.347656 80.007812 44.523438 80.199219 C 43.980469 80.324219 42.886719 80.46875 41.242188 80.628906 C 39.539062 80.796875 38.460938 80.894531 38.003906 80.929688 C 37.074219 80.992188 36.097656 81.101562 35.078125 81.253906 C 34.355469 81.363281 33.269531 81.457031 31.828125 81.539062 C 31.746094 81.542969 31.679688 81.484375 31.671875 81.40625 C 31.671875 81.402344 31.671875 81.398438 31.671875 81.394531 L 31.671875 81.289062 C 31.671875 81.230469 31.71875 81.183594 31.773438 81.175781 L 37.320312 80.5625 C 37.320312 80.5625 37.335938 80.554688 37.335938 80.546875 L 37.324219 80.46875 C 37.320312 80.445312 37.300781 80.425781 37.273438 80.429688 L 32.015625 80.921875 C 32.015625 80.921875 32 80.917969 31.992188 80.914062 C 31.96875 80.898438 31.945312 80.886719 31.933594 80.878906 C 31.855469 80.835938 31.765625 80.832031 31.6875 80.867188 C 31.546875 80.929688 31.359375 80.960938 31.121094 80.96875 C 31.046875 80.972656 30.984375 80.914062 30.980469 80.84375 C 30.980469 80.835938 30.980469 80.828125 30.980469 80.820312 C 31 80.691406 31.109375 80.609375 31.316406 80.578125 C 31.355469 80.574219 31.382812 80.535156 31.375 80.496094 C 31.371094 80.480469 31.363281 80.460938 31.347656 80.449219 C 31.242188 80.363281 31.210938 80.277344 31.253906 80.195312 C 31.273438 80.148438 31.316406 80.113281 31.363281 80.09375 C 34.074219 79.046875 36.265625 78.234375 37.941406 77.652344 C 38.796875 77.351562 40.074219 76.671875 41.136719 76.332031 C 42.390625 75.929688 43.878906 75.410156 45.597656 74.777344 C 45.679688 74.746094 45.773438 74.78125 45.8125 74.859375 L 45.820312 74.867188 C 45.855469 74.941406 45.828125 75.03125 45.75 75.0625 C 45.75 75.0625 45.746094 75.0625 45.746094 75.066406 C 44.710938 75.519531 43.59375 76.058594 42.574219 76.359375 C 41.429688 76.699219 40.402344 77.078125 39.5 77.5 C 38.605469 77.917969 37.523438 78.324219 36.261719 78.71875 C 35.671875 78.902344 34.589844 79.308594 33.015625 79.929688 C 32.507812 80.128906 32.050781 80.117188 31.691406 80.292969 C 31.660156 80.304688 31.648438 80.339844 31.660156 80.371094 C 31.671875 80.394531 31.691406 80.40625 31.71875 80.402344 Z M 38.234375 80.320312 C 38.234375 80.398438 38.550781 80.398438 39.179688 80.316406 C 39.183594 80.316406 39.1875 80.308594 39.1875 80.304688 L 39.1875 80.277344 C 39.1875 80.277344 39.183594 80.265625 39.175781 80.265625 C 38.542969 80.21875 38.230469 80.238281 38.234375 80.320312 Z M 38.234375 80.320312 " fill-opacity="1" fill-rule="nonzero"/></svg>