<svg width="104" height="104" viewBox="0 0 104 104" fill="none" xmlns="http://www.w3.org/2000/svg">
<g clip-path="url(#clip0_1036_6052)">
<path d="M61.7992 65.3147C61.8107 65.3354 61.8385 65.3446 61.8616 65.3331H61.8639C61.8801 65.3262 61.887 65.3078 61.8801 65.2917C61.3137 63.992 60.9161 62.5912 60.6896 61.0937C60.0862 57.0821 59.1985 53.1165 58.0265 49.1969C57.7768 48.3642 57.0648 46.2687 55.8928 42.9126C55.6755 42.2938 55.4767 41.8016 55.2964 41.4312C54.9196 40.6607 54.7208 40.2167 54.6953 40.0994C54.6745 39.9982 54.6098 39.9108 54.5197 39.8602C54.0596 39.6095 53.2112 39.0045 51.9699 38.0453C51.2948 37.5231 50.4072 36.932 49.3045 36.2672C47.4413 35.1424 45.6173 33.6449 43.6732 32.3108C42.6977 31.6414 41.9071 30.9835 41.3014 30.3372C40.0392 28.9915 38.9643 28.3222 37.3438 26.9926C37.3276 26.9765 37.2999 26.9765 37.286 26.9926C37.2744 27.0064 37.2721 27.0248 37.2791 27.0409C37.924 28.4326 38.636 29.7966 39.4104 31.1377C40.4854 32.9986 41.4332 35.1585 42.3324 37.1114C43.2502 39.108 44.1147 41.4174 44.9261 44.0374C44.9747 44.1892 44.8891 44.3526 44.7366 44.4009C44.7273 44.4032 44.7181 44.4055 44.7088 44.4078H44.695C44.5077 44.4492 44.3182 44.3572 44.2326 44.1869C43.9668 43.6487 43.7518 43.1564 43.5854 42.7102C42.737 40.4398 42.0273 38.7055 41.4517 37.5047C40.1363 34.7628 39.5491 33.3896 38.2893 31.186C37.7345 30.2153 37.0294 28.8443 36.1741 27.0754C35.8111 26.3256 35.1361 25.4607 34.8795 24.9891C34.8541 24.9431 34.8356 24.8948 34.8263 24.8419C34.7917 24.651 34.8263 24.5015 34.9234 24.3934C35.1061 24.1909 35.4228 24.1702 35.6401 24.3496C37.2652 25.6999 38.7955 26.9167 40.2265 28.0001C41.3245 28.8305 42.4318 30.2107 43.4074 30.8961C45.2313 32.1774 46.6368 33.1918 47.6193 33.9371C49.2767 35.1953 51.9306 36.6214 53.5719 38.0476C53.6458 38.1143 54.1891 38.4731 55.2039 39.1264C55.4282 39.2713 55.5137 39.4944 55.4628 39.7958C55.442 39.92 55.4651 40.0465 55.5299 40.1546C56.0361 41.0057 56.3551 41.6176 56.4892 41.9902C57.6751 45.2635 58.5351 47.7592 59.0644 49.4821C59.2216 49.9904 59.6077 51.4948 60.2249 53.9952C60.6063 55.5386 60.9138 57.0614 61.1473 58.5611C61.4686 60.6107 61.8454 62.8258 62.2777 65.2042C62.3031 65.3423 62.2107 65.4757 62.072 65.501C62.0697 65.501 62.0673 65.501 62.065 65.501C61.9864 65.5125 61.9171 65.5401 61.8593 65.5815C61.7599 65.6528 61.6235 65.6367 61.5426 65.547C60.0215 63.8908 58.972 62.4256 56.7204 59.472C55.5391 57.9263 54.2584 56.5737 53.1234 55.1016C52.067 53.7352 50.8811 52.5368 49.4894 51.6466C49.3484 51.5569 49.3091 51.3729 49.3969 51.2349C49.464 51.1314 49.5888 51.0785 49.7113 51.1015C50.9458 51.3499 52.7466 53.2591 53.4378 54.1585C54.0781 54.9889 54.7578 55.8124 55.479 56.6266C56.0777 57.3029 56.91 58.3449 57.9756 59.755C59.4181 61.6642 60.641 63.2513 61.7992 65.3124V65.3147Z" fill="#697A72"/>
<path d="M29.5974 41.268C29.6113 41.268 29.6205 41.2588 29.6205 41.245C29.6205 41.2381 29.6159 41.2289 29.6113 41.2243C27.8498 40.0259 26.5298 39.1794 25.649 38.6848C24.2528 37.9028 23.09 37.192 22.1584 36.5525C20.4038 35.3449 18.9474 34.4179 17.7893 33.7715C17.4772 33.5967 17.4217 33.4012 17.4656 33.0953C17.5211 32.7065 18.0551 32.7042 18.3741 32.7502C19.2641 32.8813 20.0617 33.0285 20.7714 33.1919C21.9064 33.4518 23.8297 33.8336 26.546 34.342C28.497 34.7054 30.4943 35.4599 32.524 36.4467C34.5167 37.4151 36.4724 38.5008 38.3911 39.7016C40.8623 41.2473 42.6423 43.1772 44.7298 45.1715C45.0927 45.5189 45.807 46.3838 46.8773 47.7708C47.2819 48.2976 47.6494 48.983 47.98 49.8295C48.047 49.9974 48.0031 50.1907 47.8713 50.3149L47.8644 50.3218C47.7719 50.4092 47.624 50.4046 47.5385 50.3103C47.5246 50.2942 47.513 50.2781 47.5015 50.2597C46.5814 48.4908 45.3863 47.0347 44.064 45.7558C41.3686 43.1496 39.8475 41.5785 37.1382 39.9937C34.9259 38.6986 32.8615 37.6221 30.9428 36.7641C29.461 36.0994 27.97 35.6278 26.4651 35.3472C25.4872 35.1655 23.446 34.7629 20.3414 34.135C20.3252 34.1327 20.309 34.1442 20.3067 34.1603C20.3067 34.1718 20.309 34.181 20.3183 34.1879C22.6092 35.7796 24.7405 37.1 26.7147 38.1489C26.8719 38.234 28.1873 39.0713 30.6631 40.6608C32.2235 41.6614 33.4371 42.7517 35.0183 43.8627C35.3998 44.1318 35.9592 44.5758 36.6966 45.1991C39.1123 47.2348 40.7606 48.6357 41.6436 49.4017C41.8448 49.5742 42.2609 49.7904 42.8943 50.048C44.0917 50.5357 44.6812 50.8876 46.1237 51.5685C46.7964 51.8859 47.4229 52.231 48.0077 52.6013C50.1599 53.9654 52.2081 55.5709 54.1568 57.4157C55.5924 58.7752 56.3645 59.9299 57.9295 61.731C58.3988 62.2715 58.986 63.2077 58.8611 63.9392C58.8519 63.9967 58.7964 64.0358 58.7386 64.0266C58.7178 64.022 58.697 64.0128 58.6808 63.999C58.341 63.677 58.022 63.3158 57.7284 62.9179C56.9378 61.8506 56.0224 61.034 55.1971 59.9874C54.6099 59.2421 54.0574 58.6394 53.5419 58.1817C50.9528 55.8792 48.6527 53.9055 45.4001 52.346C43.7473 51.5524 42.5521 50.9934 41.8101 50.6668C41.4425 50.5058 41.1027 50.2919 40.7976 50.0342C40.2936 49.6087 38.7147 48.2838 36.0586 46.064C34.4843 44.7506 32.7598 43.5568 31.1 42.218C30.8503 42.0156 30.536 41.9075 30.2146 41.9144C28.534 41.9466 26.7656 41.9811 25.1451 42.4549C23.8922 42.823 22.0705 43.5384 20.4685 44.3112C18.8573 45.0864 17.609 45.6247 16.7236 45.9237C15.5885 46.3078 14.6847 46.508 14.012 46.5241C12.9024 46.5494 12.0817 46.5747 11.5523 46.5977C11.4992 46.5977 11.4576 46.6437 11.4576 46.6966C11.4576 46.7219 11.4691 46.7472 11.4899 46.7656C12.3776 47.5937 13.3416 48.4103 14.3795 49.2154C15.2603 49.8985 15.9399 50.4667 16.4184 50.9175C18.032 52.4403 19.1671 53.296 20.9655 54.9545C21.4972 55.4444 22.3803 56.2012 23.6124 57.2248C24.4886 57.954 25.7623 59.1869 27.4337 60.9259C28.6797 62.2232 29.5512 63.0145 30.8804 64.1738C30.9336 64.2221 31.0099 64.2359 31.0792 64.2083C32.1773 63.7759 33.1782 63.2491 34.0844 62.6258C34.6346 62.2462 35.839 61.9449 37.1173 61.6344C40.6889 60.7672 44.1842 60.4152 47.5986 60.5739C50.9297 60.7304 54.0806 61.8644 56.7852 63.9047C57.881 64.7305 58.7363 65.2296 59.2079 65.9473C59.2518 66.0117 59.2356 66.0991 59.1732 66.1428C59.1316 66.1704 59.0784 66.175 59.0322 66.1543C57.8879 65.646 57.0811 65.1606 55.8282 64.3026C53.3824 62.6304 50.717 61.708 47.8344 61.5354C44.5749 61.3422 41.1952 61.6551 37.6976 62.4739C35.8898 62.8972 34.9166 63.1548 33.5597 64.0013C32.8638 64.436 32.0455 64.5833 31.2734 64.9858C31.1023 65.0755 30.8966 65.0709 30.7301 64.9743C29.4079 64.2014 28.0139 62.9225 26.8072 61.6689C25.1405 59.9368 23.5546 58.46 22.0451 57.2363C20.2189 55.7526 18.4227 54.0459 16.2705 52.2701C16.2243 52.231 16.1549 52.231 16.1087 52.2701C15.3643 52.8888 14.7656 53.2753 13.7299 53.6594C11.6101 54.4438 10.5098 54.8417 10.4265 54.8532C10.378 54.8601 10.3433 54.9062 10.3503 54.9545C10.3526 54.9752 10.3618 54.9936 10.378 55.0074C11.3928 55.9413 12.5741 57.004 13.9241 58.1955C15.6417 59.7114 16.934 61.0317 18.744 62.6856C19.3474 63.2353 19.9646 63.8403 20.5934 64.4959C22.3248 66.3061 24.1372 68.0635 26.0258 69.7703C26.7355 70.4121 27.3851 71.1275 27.9746 71.9118C28.0648 72.0314 28.1988 72.112 28.3468 72.1373C28.7467 72.204 29.1674 72.204 29.609 72.1373C30.8064 71.9532 32.2928 71.5484 33.5966 70.9641C34.8241 70.4144 35.839 70.1498 36.9879 69.6047C38.0397 69.1078 39.4637 68.5489 41.2599 67.9301C42.8134 67.3965 44.2073 67.2423 45.8371 66.7754C47.5685 66.2808 49.3971 65.9772 51.3181 65.8691C52.3537 65.8116 53.3408 65.8438 54.2817 65.9657C56.2743 66.2256 57.696 66.3913 59.3859 67.3758C59.8667 67.6541 60.2065 67.7553 60.7498 67.8128C60.8492 67.8266 60.9185 67.9163 60.9047 68.0129C60.8954 68.0865 60.8423 68.1463 60.7706 68.1647C60.232 68.289 59.7049 68.3005 59.194 68.2015C59.1224 68.1877 59.053 68.167 58.986 68.1394C57.7931 67.638 57.0858 67.362 56.8661 67.3137C55.5069 67.0077 53.4749 66.6765 51.7434 66.7616C49.8871 66.8536 48.3337 67.0629 47.0807 67.3896C44.7436 67.9991 43.0815 68.2061 41.068 68.9491C39.2071 69.6369 38.183 70.0302 37.9958 70.1291C37.3277 70.4811 36.4678 70.8376 35.4136 71.1988C35.2495 71.2563 34.3826 71.5944 32.8084 72.2155C31.8398 72.5996 30.5013 72.8549 28.7929 72.9837C28.7236 72.9883 28.6681 73.0459 28.6635 73.1149C28.6196 74.1339 28.4393 75.054 28.1179 75.8706C28.0902 75.9442 28.1179 76.027 28.1827 76.0707C28.3907 76.2087 28.6034 76.2869 28.823 76.303C29.9927 76.3927 31.1624 76.3306 32.3321 76.119C33.2799 75.9465 34.0405 75.8591 34.6138 75.8568C35.9638 75.8522 37.6537 75.376 39.1609 75.2081C41.8794 74.9045 44.739 74.3432 47.4067 74.1385C48.477 74.0557 49.7461 73.8463 51.2187 73.5082C54.5521 72.7445 57.8417 72.181 60.8561 71.8658C60.9671 71.8566 61.0526 71.7646 61.0596 71.6542C61.1058 70.879 61.2144 69.0273 62.1692 68.8272C62.9528 68.6616 63.6209 68.8755 64.1734 69.4667C64.6843 70.0164 65.0888 70.6191 65.387 71.277C65.4795 71.4817 65.7153 71.5852 65.9326 71.5116C68.2628 70.7157 70.5306 70.0509 72.7382 69.515C73.5265 69.3241 74.7355 69.025 76.3606 68.6179C78.0436 68.1969 79.2595 67.9347 80.0085 67.8266C81.2453 67.6495 82.2254 67.477 82.9513 67.3068C84.6689 66.9042 86.5437 66.596 88.1896 66.3176C90.4412 65.9335 93.451 65.5839 95.8251 65.0318C95.9754 64.9973 96.0817 64.8616 96.0794 64.7075L96.0563 62.8742C96.0563 62.7523 95.9569 62.6534 95.8344 62.6534C95.7974 62.6534 95.7604 62.6626 95.728 62.681C95.3188 62.8995 94.9975 63.0283 94.7594 63.0674C93.2869 63.3112 91.7496 63.3112 90.1476 63.0674C87.4152 62.6488 84.8769 61.9817 82.5329 61.0662C81.8371 60.7948 80.7251 60.5992 79.2017 60.4819C78.3256 60.4152 76.8946 60.4313 74.9089 60.5302C74.7101 60.5417 74.5113 60.5762 74.3217 60.6361L71.4344 61.5446C71.2819 61.593 71.1339 61.6597 70.9998 61.7448C70.9813 61.7563 70.0428 62.3175 68.1819 63.4308C67.8929 63.6034 67.5808 63.8725 67.248 64.2336C66.4435 65.1123 65.713 65.9358 65.0542 66.7064C64.9594 66.8168 64.8507 66.9134 64.7305 66.9962C64.6542 67.0491 64.5502 67.0284 64.4994 66.9548C64.4716 66.9157 64.4624 66.8674 64.4739 66.8214C64.5872 66.3269 64.8322 65.807 65.2067 65.2618C65.2899 65.1422 65.357 65.0088 65.4055 64.8685C66.0413 62.9823 67.278 61.8184 68.8777 60.5693C69.9711 59.716 71.053 58.9477 72.3522 58.5543C73.1358 58.3174 74.1114 58.0161 75.2788 57.6503C76.4716 57.2777 77.6182 57.165 78.7833 56.8637C80.0732 56.5301 81.4001 56.2311 82.7617 55.9643C84.3637 55.6491 86.1669 54.7543 87.2117 53.4202C87.2672 53.3512 87.2533 53.2523 87.184 53.1971C87.1771 53.1925 87.1701 53.1879 87.1632 53.1833C85.6213 52.3299 83.7534 51.2672 81.5597 49.9951C80.3298 49.2821 78.892 48.1227 77.461 47.32C76.8461 46.9749 76.2982 46.6092 75.8174 46.225C75.755 46.1744 75.6602 46.1836 75.6093 46.2457C75.6024 46.2549 75.5955 46.2641 75.5909 46.2756C75.043 47.4373 74.5483 48.4862 73.7854 49.5443C73.1104 50.4805 72.4678 51.4604 71.8575 52.4794C71.342 53.342 70.9097 53.9608 70.5652 54.3357C69.9688 54.9844 69.2915 55.8469 68.5448 56.5876C67.063 58.0552 65.8494 59.7022 64.9016 61.5262C64.2081 62.8627 64.0786 64.1692 63.8544 65.6299C63.8336 65.761 63.7527 65.8737 63.6371 65.9358L63.6278 65.9404C63.5608 65.9749 63.4753 65.9496 63.4406 65.8829C63.4314 65.8645 63.4244 65.8415 63.4244 65.8208C63.3921 63.9921 63.3204 62.7776 64.0555 61.3376C65.1281 59.2329 66.5544 57.3191 68.3344 55.5985C68.7228 55.2236 69.2406 54.6232 69.8902 53.7997C70.9952 52.3943 71.8297 50.7151 72.8122 49.2844C73.7554 47.9111 74.4604 46.4206 75.0106 45.0243C75.0384 44.9553 75.0222 44.8748 74.9667 44.8242C72.0609 42.0639 68.991 39.6417 65.7592 37.56C63.3158 35.9844 61.1312 33.9739 58.771 32.488C58.1861 32.12 57.4695 31.5725 56.6234 30.8479C56.4893 30.7329 56.0085 30.4707 55.1786 30.0612C55.1254 30.0336 55.063 30.0543 55.0353 30.1072C55.0283 30.121 55.0237 30.1348 55.0237 30.1486C54.8712 32.2419 54.1106 34.0545 52.7398 35.5841C52.5086 35.844 52.2543 35.9982 51.9746 36.0511C51.8151 36.081 51.6602 35.9775 51.6278 35.8164C51.6117 35.729 51.6348 35.6393 51.6926 35.5726C51.9445 35.2759 52.4785 34.7813 52.749 34.3374C53.3755 33.3 53.8309 32.12 54.1152 30.7927C54.143 30.6639 54.1453 30.5305 54.1222 30.4017C54.0158 29.7967 53.75 28.221 54.9405 28.8881C55.2688 29.0721 55.8351 29.3482 56.6396 29.7139C56.9471 29.8565 57.236 30.0382 57.4949 30.2591C58.1538 30.8226 58.8565 31.3333 59.5986 31.791C61.2468 32.8077 62.1114 33.5553 64.0463 35.0436C64.7097 35.5542 65.5072 36.1063 66.4342 36.6997C69.7515 38.8229 72.9 41.3186 75.8844 44.1916C75.9376 44.2422 75.9792 44.3066 76.0093 44.3756C76.1272 44.6609 76.1133 45.0082 75.97 45.4154C75.9399 45.4982 75.9746 45.5902 76.0509 45.6339C77.2368 46.3216 78.4805 46.9105 79.604 47.6512C80.9748 48.5552 81.9249 49.1555 82.452 49.45C85.6028 51.212 87.4498 52.2724 87.9885 52.6312C88.2797 52.8244 88.3329 53.1741 88.1503 53.6824C87.9584 54.2161 87.6278 54.6255 87.1609 54.9131C87.0823 54.9614 87.0569 55.0649 87.1054 55.1431C87.1123 55.1523 87.1193 55.1615 87.1262 55.1707C88.6958 56.8752 90.4296 58.391 92.3229 59.7137C93.0834 60.245 93.7769 60.4566 94.5329 60.7741C94.7802 60.8776 95.2033 61.1651 95.8066 61.6367C95.876 61.6919 95.9638 61.7218 96.0517 61.7195C96.4238 61.7126 96.7336 61.8667 96.9833 62.1818C97.0249 62.2347 97.048 62.3014 97.0457 62.3704L97.0179 64.3716C97.0179 64.4383 97.0526 64.5005 97.1104 64.5373C98.3102 65.248 99.1054 65.8231 99.4961 66.2578C99.933 66.7432 99.8451 67.1756 99.2325 67.5506C98.5968 67.9416 97.7623 68.2936 96.9694 68.5213C94.9675 69.094 93.1782 69.5357 91.5993 69.8508C88.4184 70.4857 85.6328 71.2724 82.8542 71.8175C81.8833 72.0084 79.0653 72.5812 74.398 73.5335C73.0757 73.8026 71.5477 74.2926 70.2832 74.5456C63.0545 75.9971 56.0524 77.2898 49.2769 78.4261C46.519 78.8885 43.1324 79.3094 41.1235 79.567C40.1364 79.6936 38.1946 79.827 35.2934 79.9673C34.7016 79.9972 34.2763 80.0271 34.0197 80.057C32.8384 80.1973 31.8213 80.1743 30.6631 80.3123C28.7698 80.5354 26.9898 80.6091 25.3023 80.7655C24.9578 80.7954 24.7128 80.7103 24.5718 80.5101C23.1732 78.5204 21.629 77.23 19.8328 75.6543C19.7057 75.5416 19.3173 74.9873 18.6654 73.9913C18.3834 73.5565 17.9072 72.9354 17.2345 72.1258C16.853 71.668 16.3214 71.1045 15.6348 70.4351C12.9047 67.7645 11.3189 66.1566 10.8773 65.6115C9.6475 64.0933 8.52633 62.8282 7.51612 61.8184C6.51284 60.8155 5.96035 60.0242 4.81837 58.7384C4.4277 58.299 4.23351 57.9333 4.2312 57.6411C4.2312 57.2064 4.46468 56.8913 4.93396 56.6957C5.81009 56.3323 6.77406 56.0402 7.82588 55.817C7.89986 55.8032 7.96227 55.7549 7.99464 55.6882C8.09866 55.4835 8.16108 55.288 8.1842 55.1063C8.2235 54.7911 8.44542 54.522 8.76212 54.4024C9.41633 54.154 10.3225 54.0022 11.0877 53.6939C12.6342 53.0706 14.1576 52.7278 15.4776 51.7456C15.5585 51.6858 15.5747 51.5708 15.5146 51.4903C15.5053 51.4788 15.4938 51.4673 15.4822 51.4581C13.4872 49.8663 11.7881 48.4402 10.3849 47.1819C10.0289 46.8622 9.82781 46.6713 9.77926 46.6069C9.35391 46.0318 9.59895 45.5097 10.3271 45.5442C11.7373 45.6086 13.4572 45.7098 14.9135 45.4016C17.5049 44.8518 20.0247 43.3566 22.3364 42.517C24.1649 41.8546 25.7854 41.3048 27.577 41.268C28.4624 41.2496 29.1374 41.2496 29.5974 41.2703V41.268ZM11.6656 57.3651L9.59433 55.5203C9.59433 55.5203 9.58046 55.5042 9.57352 55.495C9.55272 55.4467 9.54578 55.3892 9.55041 55.3179C9.55965 55.2006 9.4695 55.0971 9.3516 55.0902C9.27069 55.0856 9.19441 55.1247 9.15048 55.1914C9.04646 55.3593 8.97942 55.541 8.94706 55.7319C8.94474 55.7457 8.94706 55.7572 8.95861 55.7664L11.2264 57.7285C11.2403 57.7377 11.2587 57.7377 11.268 57.7239C11.2726 57.717 11.2749 57.7101 11.2749 57.7009C11.2726 57.6779 11.2703 57.6526 11.268 57.6273C11.2611 57.5376 11.3281 57.4617 11.4183 57.4548C11.4229 57.4548 11.4298 57.4548 11.4344 57.4548L11.6286 57.4617C11.6587 57.4617 11.6841 57.4364 11.6841 57.4065C11.6841 57.3904 11.6772 57.3743 11.6656 57.3651ZM69.1112 61.7218C69.1875 61.6942 69.5412 61.4802 70.1699 61.0777C70.4543 60.896 70.8842 60.7005 71.4575 60.4911C73.159 59.8724 74.3772 59.5342 75.1123 59.4767C75.6926 59.433 77.0172 59.4307 79.0884 59.4721C79.7427 59.4859 80.4154 59.5664 81.1112 59.716C82.2809 59.9667 82.942 60.1231 83.0969 60.1852C85.5404 61.1628 88.0763 61.846 90.7001 62.2347C92.0455 62.4325 93.4418 62.4325 94.8866 62.2347C94.9513 62.2255 94.9952 62.1657 94.986 62.1013C94.9836 62.0783 94.9721 62.0576 94.9582 62.0415C94.5259 61.57 93.6475 61.2686 93.0395 61.0386C92.8731 60.9765 92.7113 60.896 92.5633 60.7994C90.2609 59.3157 88.2358 57.5813 86.4905 55.6008C86.4512 55.5571 86.3842 55.5479 86.3356 55.5801C85.2144 56.3024 83.9731 56.7854 82.6115 57.0316C80.7043 57.3743 79.3266 57.7884 77.5674 58.0989C75.859 58.4002 74.7795 58.812 72.9555 59.3226C71.7558 59.6584 70.4612 60.4359 69.0696 61.6528C69.0534 61.6689 69.0534 61.6942 69.0696 61.7103C69.0811 61.7218 69.0973 61.7264 69.1112 61.7218ZM24.44 69.6507C24.1487 69.4092 25.1266 70.5409 27.3759 73.0505C27.436 73.1172 27.4475 73.2138 27.4059 73.292L27.3643 73.3702C27.3296 73.4369 27.2464 73.4622 27.1794 73.4277C27.1632 73.4208 27.1516 73.4093 27.1401 73.3955C26.2501 72.3811 25.3508 71.3667 24.44 70.3546C23.691 69.5219 22.9513 68.979 22.2462 68.2637C21.5828 67.5897 21.0372 67.056 20.6142 66.6627C17.8633 64.1163 15.4221 61.8621 13.293 59.9C13.2838 59.8931 13.2769 59.8885 13.2722 59.8862C13.2676 59.8862 13.2653 59.8885 13.2653 59.8931C13.2653 59.8931 13.2653 59.8977 13.2653 59.9C14.3079 60.9788 15.6186 62.3451 17.1975 64.0013C19.0792 65.9726 21.4256 68.2084 24.2343 70.7042C24.8608 71.2632 25.6097 72.1925 26.4812 73.4921C26.509 73.5335 26.4974 73.5887 26.4558 73.6163C26.4443 73.6232 26.4304 73.6278 26.4165 73.6301L26.3402 73.6393C26.2686 73.6462 26.1969 73.6163 26.153 73.5588C25.8663 73.1885 25.478 72.687 24.9902 72.0499C24.6643 71.6289 24.2204 71.1873 23.6587 70.7272C22.1052 69.4529 20.7737 68.0842 18.7579 66.2049C17.7477 65.2641 16.9733 64.4982 16.43 63.9047C15.1424 62.4969 13.3948 60.6591 11.1917 58.3933C10.667 57.8528 10.2624 57.4778 9.98269 57.2639C9.4695 56.8752 9.09732 56.5186 8.86846 56.1943C8.85921 56.1782 8.83609 56.1736 8.81991 56.1851C8.81298 56.1897 8.80835 56.1943 8.80604 56.2012L8.35295 57.303C8.33908 57.3398 8.35295 57.3812 8.38531 57.4019C9.83937 58.3657 10.8241 59.1616 11.3373 59.7919C12.6042 61.3468 13.4456 62.3083 13.864 62.6787C17.0773 65.5264 20.0293 68.4086 22.9143 71.1091C24.514 72.6065 25.7785 74.4421 27.5169 75.6474C27.5793 75.6911 27.6671 75.675 27.7111 75.6129C27.7249 75.5945 27.7319 75.5715 27.7342 75.5485L27.9862 73.1954C27.9954 73.1034 27.9538 73.0137 27.8752 72.9653C27.6718 72.8388 27.436 72.6295 27.1701 72.3397C26.0952 71.1689 25.1844 70.2741 24.4377 69.6507H24.44ZM27.896 77.0046C27.3019 76.6526 26.7032 76.2294 26.0998 75.7325C25.1173 74.9252 23.8898 73.3196 23.1062 72.5605C21.451 70.9549 18.8827 68.5719 17.2992 67.0652C16.2381 66.0531 14.9551 64.8961 13.4525 63.5919C12.9093 63.1203 12.1834 62.3244 11.2749 61.1996C10.2324 59.9115 9.22446 59.1041 7.90448 58.2047C7.42365 57.8781 7.31269 57.4134 7.5716 56.8085C7.58084 56.7831 7.56929 56.7532 7.54155 56.744C7.52999 56.7394 7.51843 56.7394 7.50918 56.744L5.31076 57.464C5.29458 57.4709 5.28071 57.4778 5.26915 57.4893C5.14663 57.5951 5.18362 57.7539 5.3778 57.9655C6.24469 58.9178 6.78331 59.5296 6.99599 59.8034C7.53461 60.4957 8.07092 61.0915 8.60261 61.5953C10.0197 62.9386 11.268 64.7167 12.7197 66.2302C14.1276 67.7001 15.1216 68.7053 15.6972 69.2413C17.5697 70.9825 18.9867 72.6755 19.9507 74.3225C20.1264 74.6215 20.3067 74.8561 20.494 75.0287C22.1676 76.5744 23.6425 77.7752 25.0018 79.5118C25.0619 79.59 25.1728 79.6038 25.2514 79.544C25.2537 79.5417 25.2584 79.5394 25.2607 79.5371L27.9122 77.1886C27.9584 77.1472 27.9654 77.0759 27.9237 77.0299C27.9168 77.0207 27.9076 77.0138 27.896 77.0069V77.0046ZM20.8846 66.2164C20.8708 66.2785 20.9078 66.336 20.9933 66.389C21.0603 66.3499 21.0233 66.2923 20.8846 66.2164C20.383 65.6207 19.9576 65.156 19.6086 64.8271C15.9607 61.3836 14.0143 59.5227 12.158 57.8896C12.1441 57.8758 12.1187 57.8758 12.1048 57.8896C12.091 57.9034 12.0886 57.9264 12.1025 57.9425C12.8261 58.7269 13.5774 59.4859 14.3564 60.2151C15.8983 61.6574 17.5674 63.2353 19.3659 64.9513C19.6779 65.2503 20.1842 65.6713 20.8846 66.2141V66.2164ZM12.3522 58.9776C12.3406 58.9891 12.5117 59.1754 12.7359 59.3916C12.9578 59.6078 13.1497 59.7735 13.1613 59.762C13.1728 59.7505 13.0018 59.5641 12.7775 59.3479C12.5556 59.1317 12.3637 58.9661 12.3522 58.9776ZM96.1788 65.9335C95.6818 65.9864 95.5015 66.4212 95.1848 66.6627C94.7664 66.9778 94.0844 67.5552 93.1435 68.3902C93.1135 68.4155 93.1112 68.4615 93.1366 68.4914C93.1528 68.5098 93.1782 68.519 93.2036 68.5121C94.5583 68.2291 95.9546 67.8657 97.3924 67.4172C97.9311 67.2515 98.3495 67.0675 98.65 66.8651C98.6962 66.8329 98.7101 66.7685 98.6754 66.7202C98.6685 66.711 98.6592 66.7018 98.65 66.6949L96.9879 65.577C96.944 65.5494 96.8885 65.5609 96.8607 65.6046C96.8469 65.6276 96.8423 65.6552 96.8492 65.6805C96.8908 65.8162 96.8931 65.9381 96.8561 66.0485C96.803 66.2026 96.7151 66.3407 96.6018 66.458L95.3073 67.7714C95.231 67.8473 95.1108 67.8496 95.0345 67.776C95.0276 67.7691 95.0229 67.7622 95.016 67.7553L94.9559 67.6771C94.8912 67.592 94.8981 67.4724 94.9721 67.3942L96.2389 66.0554C96.2666 66.0278 96.269 65.9841 96.2389 65.9542C96.2227 65.9381 96.1996 65.9289 96.1765 65.9335H96.1788ZM94.7016 66.2785L93.3562 66.5224C93.2753 66.5385 93.206 66.5914 93.1713 66.6673C93.058 66.9272 92.8176 67.2078 92.4523 67.5092C91.5577 68.2475 90.9359 68.7352 90.5891 68.9767C90.5591 68.9974 90.5521 69.0365 90.5729 69.0664C90.5891 69.0894 90.6169 69.0986 90.6423 69.094L92.3992 68.6892C92.5148 68.6616 92.6118 68.5903 92.672 68.4891C92.9609 67.9968 93.2753 67.615 93.6105 67.3413C94.3572 66.7317 94.7432 66.4074 94.7664 66.3637C94.7802 66.3337 94.7663 66.2992 94.7386 66.2831C94.727 66.2785 94.7132 66.2762 94.7016 66.2785ZM90.2377 67.1089C90.2817 67.2584 90.21 67.4103 90.0181 67.5598C89.29 68.1325 88.6496 68.7674 88.0925 69.4644C88.0694 69.4897 88.074 69.5288 88.0994 69.5518C88.1133 69.5633 88.1341 69.5702 88.1526 69.5656L90.0574 69.2091C90.1314 69.1952 90.1938 69.1377 90.2146 69.0641L90.2794 68.8341C90.2909 68.7927 90.314 68.7559 90.3464 68.7283L92.6627 66.6788C92.6627 66.6788 92.672 66.6604 92.665 66.6535C92.6604 66.6489 92.6535 66.6443 92.6465 66.6466L90.3187 66.9801C90.2632 66.9893 90.2262 67.0422 90.2354 67.0974C90.2354 67.102 90.2354 67.1066 90.2377 67.1089ZM84.4169 70.4627L85.8779 70.189C85.9519 70.1752 86.0166 70.1269 86.049 70.0601C86.6384 68.8433 87.5169 67.9393 88.6797 67.3505C88.7721 67.3045 88.8831 67.3413 88.927 67.4333C88.9663 67.5115 88.9455 67.6058 88.8785 67.661C87.9977 68.3534 87.2487 69.0687 86.6315 69.8071C86.6015 69.8416 86.6061 69.8945 86.6431 69.9244C86.6616 69.9405 86.687 69.9474 86.7124 69.9428L87.1701 69.8577C87.3088 69.8324 87.4314 69.7473 87.5053 69.6254C88.0902 68.6478 88.9016 67.8059 89.9372 67.102C89.9627 67.0836 89.9673 67.0491 89.9488 67.0238C89.9372 67.0077 89.9164 66.9985 89.8956 67.0031L87.3689 67.477C87.3227 67.4862 87.2811 67.5092 87.2487 67.5414L84.3799 70.396C84.3637 70.4098 84.3614 70.4351 84.3776 70.4512C84.3869 70.4627 84.403 70.4673 84.4169 70.4627ZM22.5652 67.9623C22.6739 68.0704 22.7872 68.1601 22.9027 68.2268C22.9097 68.2315 22.9212 68.2314 22.9259 68.2245C22.9305 68.2176 22.9305 68.2061 22.9236 68.2015C22.7964 68.0727 22.697 67.9738 22.6253 67.9025C22.5537 67.8312 22.452 67.7346 22.3202 67.6081C22.3156 67.6012 22.304 67.6012 22.2971 67.6058C22.2901 67.6104 22.2901 67.6219 22.2948 67.6288C22.3641 67.7438 22.4543 67.8542 22.5652 67.9623ZM81.9896 71.0009L83.6055 70.6973C83.6956 70.6789 83.7742 70.6237 83.8159 70.5432C83.9915 70.2028 84.1349 69.9773 84.2435 69.8692C85.2537 68.864 85.9565 68.1578 86.3518 67.7507C86.368 67.7323 86.3657 67.7047 86.3472 67.6886C86.3379 67.6817 86.3264 67.6771 86.3125 67.6794L78.1915 69.2022C78.1638 69.2091 78.1383 69.2206 78.1175 69.239L74.6454 72.2592C74.5991 72.3006 74.5945 72.3696 74.6361 72.4156C74.6616 72.4455 74.7009 72.457 74.7402 72.4501L76.2335 72.1695C76.5109 72.1166 76.7606 71.967 76.934 71.7462C77.6205 70.879 78.3117 69.9359 79.0838 69.3977C79.2988 69.2482 79.4606 69.262 79.5739 69.4345C79.6016 69.4782 79.597 69.5357 79.5623 69.5725L77.3986 71.8566C77.3847 71.8727 77.387 71.8957 77.3986 71.9072C77.4078 71.9141 77.4194 71.9187 77.4287 71.9164L78.7209 71.6726C78.7579 71.6657 78.7926 71.645 78.8134 71.6105C79.5138 70.5432 80.4246 69.63 81.5458 68.8709C81.6406 68.8065 81.77 68.8318 81.8347 68.9238L81.8394 68.9307C81.8902 69.0112 81.8787 69.1147 81.807 69.1791L79.4121 71.3276C79.3774 71.3575 79.3751 71.4081 79.4052 71.4426C79.4236 71.4633 79.4537 71.4748 79.4837 71.4679L80.8823 71.2057C80.9725 71.1873 81.0534 71.1436 81.1158 71.0768L83.7696 68.2775C83.8251 68.2199 83.9153 68.2176 83.9731 68.2729C83.9777 68.2775 83.9823 68.2844 83.9869 68.289L84.054 68.3764C84.1302 68.4753 84.1233 68.611 84.0378 68.7007L81.9388 70.9158C81.9203 70.9365 81.9203 70.9687 81.9434 70.9871C81.955 70.9986 81.9711 71.0032 81.9873 71.0009H81.9896ZM77.1189 69.4506L75.3319 69.8991C75.2742 69.9152 75.221 69.9474 75.1794 69.9957L72.8607 72.7008C72.8238 72.7445 72.8307 72.8066 72.8746 72.8434C72.9 72.8641 72.9324 72.871 72.9625 72.8641L73.9033 72.6272C74.0166 72.5973 74.1137 72.5237 74.1692 72.4225C74.4812 71.8658 75.0106 71.2839 75.7573 70.6789C76.6334 69.9704 77.1004 69.5863 77.1628 69.5265C77.179 69.5081 77.179 69.4782 77.1605 69.4621C77.1489 69.4529 77.1351 69.4483 77.1189 69.4506ZM62.2732 71.3L63.2857 70.4029C63.399 70.304 63.4105 70.1291 63.3111 70.0164C63.2927 69.9957 63.2718 69.9773 63.2464 69.9635C62.7101 69.6438 62.4003 69.6622 62.3194 70.0141C62.2154 70.4581 62.1437 70.8583 62.1021 71.2103C62.0952 71.2678 62.1368 71.3184 62.1946 71.3253C62.2223 71.3276 62.2524 71.3207 62.2732 71.3ZM72.3637 72.8526C72.3383 72.7997 72.3452 72.7422 72.3845 72.6778C72.8607 71.898 73.4988 71.0952 74.3009 70.2695C74.3264 70.2465 74.3264 70.2051 74.3009 70.1821C74.2847 70.166 74.2593 70.1591 74.2385 70.166L73.3647 70.3868C73.3185 70.3983 73.2769 70.4167 73.2422 70.4466C71.9615 71.5024 70.9444 72.5191 70.1884 73.4967C70.1746 73.5174 70.1792 73.545 70.2 73.5611C70.2115 73.568 70.2254 73.5703 70.237 73.568L72.2805 73.039C72.3499 73.0206 72.3915 72.9492 72.373 72.8779C72.3707 72.8687 72.3684 72.8595 72.3637 72.8526ZM48.3406 74.9574L46.9004 75.1161C46.7872 75.1299 46.6785 75.1782 46.5953 75.2564C45.488 76.2846 44.1333 77.6095 42.7163 78.3594C42.6747 78.3824 42.6238 78.3663 42.6007 78.3249C42.5961 78.318 42.5937 78.3088 42.5914 78.2996L42.5729 78.2099C42.5706 78.1961 42.5753 78.18 42.5891 78.1708L45.9064 75.376C45.9434 75.3438 45.948 75.2886 45.9157 75.2518C45.8995 75.2334 45.8764 75.2219 45.8509 75.2219C44.7552 75.2196 44.0686 75.7555 43.0838 76.5307C42.2909 77.1587 41.5026 77.835 40.7213 78.5595C40.7005 78.5779 40.7005 78.6101 40.719 78.6308C40.7305 78.6423 40.7444 78.6492 40.7606 78.6469C41.4495 78.5848 42.1499 78.4974 42.8619 78.3824C43.8629 78.2214 44.561 78.1179 44.9563 78.0742C47.5292 77.7867 50.398 77.1702 52.4392 76.9034C52.9224 76.8413 54.6354 76.5261 57.5828 75.9626C57.7053 75.9396 57.8139 75.8729 57.8902 75.7762C58.6415 74.8354 59.5824 73.9314 60.7082 73.0666C60.7613 73.0252 60.833 73.0206 60.8908 73.0505L60.9555 73.085C61.0179 73.1172 61.0411 73.1931 61.0087 73.2552C61.0018 73.269 60.9925 73.2805 60.9833 73.2897L58.4312 75.6635C58.4034 75.6888 58.4011 75.7325 58.4265 75.7601C58.4427 75.7785 58.4658 75.7854 58.489 75.7808L59.4391 75.6037C59.513 75.5899 59.5824 75.5485 59.6309 75.4887C60.017 75.0241 60.8446 74.4743 61.4479 73.8854C62.3287 73.0252 63.0777 72.3489 63.6995 71.8566C63.9469 71.6611 64.141 71.5599 64.2867 71.5484C64.3283 71.5461 64.3583 71.5093 64.3537 71.4679C64.3537 71.4564 64.3491 71.4472 64.3445 71.438L63.9469 70.7479C63.8914 70.6559 63.7735 70.626 63.6833 70.6789C63.6718 70.6858 63.6625 70.6927 63.651 70.7019L62.6153 71.6174C62.5552 71.6703 62.4766 71.7002 62.3957 71.6979C62.3125 71.6979 62.2108 71.7094 62.0929 71.7324C61.9935 71.7508 62.0143 72.664 61.256 72.7606C60.3614 72.8756 59.8344 72.9354 59.6748 72.9377C59.5986 72.9377 59.5223 72.963 59.4575 73.0044C59.0553 73.269 58.8311 73.4208 58.7872 73.4645C57.8301 74.4007 56.8869 75.2633 55.96 76.0546C55.916 76.0891 55.8536 76.0845 55.8166 76.0454L55.7773 76.004C55.7288 75.9534 55.7311 75.8729 55.7796 75.8222L58.3965 73.2184C58.4173 73.1977 58.4196 73.1632 58.3965 73.1402C58.3872 73.131 58.3757 73.1264 58.3641 73.1241C58.1653 73.0988 58.0012 73.1425 57.874 73.2552C56.9517 74.0718 56.0963 74.8331 55.3081 75.5393C55.2295 75.6106 55.1601 75.6888 55.1 75.7739C54.922 76.0293 54.8064 76.188 54.7509 76.2547C54.7255 76.2846 54.6955 76.303 54.6608 76.3122C54.6215 76.3237 54.5845 76.3237 54.5544 76.3168C54.5036 76.303 54.4712 76.2501 54.4851 76.1995C54.4851 76.1949 54.4874 76.188 54.4897 76.1834C55.0075 75.031 56.524 73.943 57.0973 73.4231C57.1227 73.4001 57.1251 73.3633 57.1019 73.338C57.0881 73.3219 57.0673 73.315 57.0465 73.3196L56.1611 73.4852C56.064 73.5059 55.9738 73.5473 55.8975 73.6117C54.8503 74.4927 53.7777 75.4841 52.6843 76.5882C52.645 76.6273 52.6149 76.6503 52.5941 76.6595C52.5248 76.6894 52.4416 76.6595 52.4115 76.5882C52.393 76.5445 52.3976 76.4962 52.4231 76.4571C53.1143 75.422 54.2562 74.4605 55.0977 73.7681C55.1301 73.7451 55.137 73.6991 55.1139 73.6692C55.0977 73.6462 55.0676 73.6347 55.0376 73.6416L54.1337 73.8118C54.0459 73.8279 53.965 73.867 53.8956 73.9245C52.8947 74.7825 51.8151 75.7302 50.6523 76.763C50.6269 76.7884 50.5968 76.7975 50.5668 76.7929C50.4859 76.7814 50.4281 76.7078 50.4396 76.6296C50.4419 76.6066 50.4512 76.5859 50.4628 76.5675C50.6315 76.3191 50.8372 76.0822 51.08 75.8591C51.6163 75.3622 52.2451 74.8147 52.9663 74.2167C52.9941 74.1937 52.9987 74.1546 52.9756 74.127C52.9594 74.1086 52.934 74.0994 52.9108 74.104L51.2002 74.4766C51.1424 74.4904 51.0892 74.518 51.0453 74.5594L47.9546 77.4347C47.9199 77.4669 47.8644 77.4623 47.8344 77.4278C47.8159 77.4071 47.8089 77.3795 47.8136 77.3542C47.8667 77.1242 47.9869 76.908 48.1742 76.7055C48.8469 75.9902 49.5566 75.3323 50.3056 74.7342C50.331 74.7135 50.3333 74.6744 50.3125 74.6491C50.2986 74.633 50.2755 74.6238 50.2524 74.6307L49.4687 74.84C49.33 74.8768 49.2006 74.9436 49.0896 75.0333C48.7914 75.2518 47.9361 75.912 46.5213 77.0161C46.2231 77.2484 45.9388 77.529 45.6637 77.8603C45.6406 77.8879 45.599 77.8902 45.5712 77.8649C45.5573 77.8534 45.5481 77.835 45.5504 77.8166L45.5643 77.6371C45.5712 77.5244 45.6244 77.4163 45.7099 77.3404L48.3568 74.9965C48.3568 74.9965 48.3684 74.9735 48.3614 74.9643C48.3568 74.9574 48.3499 74.9551 48.3406 74.9574ZM70.0567 73.5427C69.8833 73.4645 69.8764 73.2828 70.0382 72.9999C70.1353 72.8296 70.2555 72.6617 70.4011 72.4984C70.8935 71.9417 71.476 71.3621 72.1464 70.7571C72.1626 70.7456 72.1672 70.7226 72.1557 70.7065C72.1464 70.6927 72.1279 70.6881 72.1118 70.6927L70.5306 71.0907C70.4589 71.1091 70.3942 71.1459 70.341 71.1988L67.5924 73.9337C67.5647 73.9614 67.5623 74.0097 67.5924 74.0373C67.6109 74.0557 67.634 74.0626 67.6594 74.058L70.0474 73.6094C70.0659 73.6094 70.0798 73.591 70.0798 73.5726C70.0798 73.5588 70.0705 73.5473 70.0567 73.5427ZM69.2013 71.4978L67.953 71.8888C67.8397 71.9256 67.7357 71.99 67.6548 72.0752L65.3801 74.4743C65.3801 74.4743 65.3778 74.4812 65.3801 74.4835C65.3801 74.4835 65.3847 74.4858 65.387 74.4835L66.7163 74.2351C66.7671 74.2259 66.811 74.196 66.8434 74.1569C67.345 73.5013 67.7311 73.0459 67.9993 72.7928C68.7829 72.0522 69.2013 71.6473 69.2568 71.5783C69.2753 71.5553 69.2684 71.5208 69.2453 71.5047C69.2314 71.4955 69.2152 71.4932 69.2013 71.4955V71.4978ZM64.5155 71.7761C64.5155 71.7761 64.4947 71.76 64.4832 71.7669C64.4832 71.7669 64.4832 71.7669 64.4809 71.7669L60.4377 75.3461C60.4169 75.3645 60.4146 75.3967 60.4331 75.4174C60.4446 75.4312 60.4631 75.4381 60.4816 75.4335L62.3333 75.0839C62.3888 75.0724 62.4396 75.0448 62.4766 75.0034L64.7629 72.3512C64.7953 72.3144 64.7999 72.2615 64.7768 72.2201L64.5155 71.7738V71.7761ZM64.5525 73.3403C64.2404 73.7152 63.8174 74.1822 63.288 74.7411C63.2557 74.7733 63.258 74.8239 63.288 74.8538C63.3065 74.8722 63.3319 74.8791 63.3597 74.8768L64.4462 74.7043C64.5155 74.6928 64.5803 74.6675 64.6357 74.6261C64.6843 74.5824 64.89 74.3455 65.2507 73.9153C65.5627 73.5404 65.9858 73.0712 66.5175 72.5122C66.5475 72.48 66.5452 72.4294 66.5128 72.3995C66.4943 72.3834 66.4689 72.3765 66.4435 72.3788L65.357 72.5513C65.2876 72.5628 65.2229 72.5881 65.1674 72.6295C65.1189 72.6732 64.9131 72.9101 64.5525 73.3403ZM43.6941 75.5209L39.7527 76.0868C39.6602 76.1006 39.5724 76.1374 39.5007 76.1972L36.2713 78.9C36.2435 78.9207 36.2389 78.9621 36.2597 78.9897C36.2736 79.0081 36.2944 79.0173 36.3175 79.015L37.6906 78.9138C37.7877 78.9069 37.8825 78.8678 37.9565 78.8057L41.4564 75.8729C41.498 75.8383 41.5581 75.8429 41.5928 75.8844C41.5997 75.8913 41.6043 75.9005 41.609 75.9097L41.6436 75.9971C41.6598 76.0385 41.6483 76.0845 41.6159 76.1144L38.5506 78.8287C38.5344 78.8425 38.5321 78.8678 38.546 78.8839C38.5552 78.8954 38.5691 78.9 38.5806 78.8977L40.2497 78.716C40.3214 78.7091 40.3838 78.6676 40.4208 78.6078C40.4231 78.6009 40.4277 78.5595 40.43 78.4813C40.4323 78.433 40.4739 78.3663 40.5548 78.2812C41.5905 77.2208 42.6469 76.3283 43.7265 75.6083C43.7473 75.5922 43.7542 75.5623 43.738 75.5416C43.7288 75.5278 43.7126 75.5209 43.6941 75.5209ZM38.828 76.1788L36.9879 76.5238C36.9578 76.5284 36.9278 76.5399 36.9047 76.5606L33.6799 79.1093C33.6637 79.1231 33.6637 79.1461 33.6752 79.1622C33.6822 79.1714 33.6937 79.176 33.7076 79.1737L35.765 78.946C35.7927 78.9437 35.8159 78.9299 35.8344 78.9115C36.7105 77.9753 37.7253 77.1035 38.8789 76.2938C38.9066 76.2731 38.9135 76.2317 38.8927 76.2041C38.8789 76.1834 38.8534 76.1742 38.828 76.1788ZM32.0178 79.337C32.4061 79.3738 32.8222 79.3025 33.1482 79.0518C34.3618 78.1179 35.3605 77.3565 36.1487 76.7699C36.1742 76.7538 36.1788 76.7193 36.1603 76.6963C36.1487 76.6802 36.1303 76.6733 36.1094 76.6733L34.8981 76.8068C34.838 76.8137 34.7802 76.8367 34.7317 76.8735C33.6822 77.644 32.7691 78.4445 31.9923 79.2749C31.9785 79.2887 31.9785 79.314 31.9923 79.3278C31.9993 79.3347 32.0085 79.337 32.0154 79.337H32.0178ZM34.0913 76.8229L32.5055 77.0483C32.4292 77.0598 32.3691 77.1242 32.3645 77.2001C32.3576 77.2645 32.3368 77.3151 32.2998 77.3542C32.0617 77.5865 31.2965 78.2398 30.0043 79.3094C29.9627 79.3439 29.9557 79.4037 29.9904 79.4451C30.0112 79.4704 30.0459 79.4842 30.0806 79.4796L31.3266 79.3025C31.4745 79.2795 31.6086 79.2082 31.7057 79.0978C32.3992 78.3088 33.2106 77.5934 34.1422 76.9517C34.1746 76.9287 34.1815 76.885 34.1584 76.8528C34.1422 76.8321 34.1168 76.8206 34.0913 76.8229ZM31.8629 77.1748L29.8401 77.3335C29.7962 77.3358 29.7569 77.3565 29.7269 77.3887L27.5123 79.7235C27.5123 79.7235 27.51 79.7304 27.5123 79.7327C27.5123 79.7327 27.5169 79.735 27.5192 79.7327L29.1651 79.6038C29.2183 79.5992 29.2668 79.5762 29.3015 79.5371C30.0274 78.7528 30.8943 77.9983 31.9022 77.2783C31.9299 77.2622 31.9368 77.2254 31.9207 77.2001C31.9091 77.1794 31.886 77.1702 31.8629 77.1725V77.1748ZM28.675 77.2714C28.5849 77.276 28.497 77.3105 28.4277 77.3726L25.6121 79.8638C25.5889 79.8868 25.5889 79.9213 25.6121 79.9443C25.6236 79.9558 25.6398 79.9627 25.6583 79.9627L26.8604 79.8293C26.9182 79.8224 26.9713 79.7948 27.0106 79.7511L29.142 77.3818C29.1721 77.3496 29.1697 77.3013 29.1374 77.2714C29.1212 77.2576 29.1004 77.2484 29.0796 77.2507L28.6774 77.2714H28.675Z" fill="#697A72"/>
<path d="M68.2328 65.4665C67.2203 66.1036 66.3071 67.0145 65.4911 68.2015C65.4518 68.259 65.3755 68.2728 65.3177 68.2337C65.2923 68.2176 65.2738 68.19 65.2669 68.1624L65.2345 68.0289C65.2045 67.9139 65.2299 67.792 65.3039 67.6954C66.603 66.0277 67.6595 65.2549 69.4603 63.9943C70.1746 63.4952 70.9744 63.065 71.8598 62.7062C74.9182 61.4687 78.002 60.9511 81.1112 61.1512C81.5065 61.1765 81.8186 61.28 82.0498 61.4618C82.096 61.4963 82.1029 61.563 82.0683 61.6067C82.0451 61.6366 82.0082 61.6504 81.9712 61.6458L81.1228 61.517C81.1066 61.5147 81.0927 61.5124 81.0789 61.5124C77.7038 61.4894 74.4859 62.1311 71.4252 63.44C70.7433 63.7321 70.1214 64.0886 69.562 64.5142C69.5366 64.5326 69.5273 64.551 69.532 64.5694C69.5366 64.5809 69.5481 64.5855 69.5574 64.5832C69.5574 64.5832 69.5597 64.5832 69.562 64.5832C71.1617 63.7873 73.0018 63.4814 74.7772 63.1271C74.8419 63.1133 74.9043 63.1547 74.9205 63.2168L74.9367 63.2789C74.9436 63.3111 74.9274 63.3457 74.8951 63.3572C74.3749 63.5297 73.3601 63.8172 71.8529 64.2151C70.3688 64.6085 69.0511 65.3469 67.8999 66.4303C67.6225 66.6902 67.3335 67.1457 67.033 67.792C67.0053 67.8541 66.9336 67.8817 66.8712 67.8541C66.8527 67.8449 66.8365 67.8334 66.825 67.8173L66.818 67.8081C66.7348 67.7069 66.7163 67.5689 66.7672 67.4493C67.0839 66.7063 67.5786 66.0576 68.2559 65.501C68.2628 65.4918 68.2605 65.478 68.2513 65.4711C68.2467 65.4665 68.2397 65.4665 68.2328 65.4688V65.4665Z" fill="#697A72"/>
<path d="M78.8503 63.2652C80.0177 63.2974 81.296 63.7161 82.3733 64.2497C82.4542 64.2888 82.5051 64.3739 82.5027 64.4636V64.4935C82.4981 64.5488 82.4542 64.5925 82.3987 64.5902C82.3849 64.5902 82.371 64.5879 82.3594 64.581C81.3492 64.1416 80.0269 63.7529 78.8364 63.7207C77.6459 63.6885 76.3051 64.0059 75.2718 64.3877C75.2209 64.4061 75.1631 64.3808 75.1446 64.3302C75.14 64.3187 75.1377 64.3072 75.1377 64.2957V64.2658C75.1377 64.1761 75.1932 64.0956 75.2764 64.0588C76.3837 63.5827 77.6806 63.2353 78.8503 63.2652Z" fill="#697A72"/>
<path d="M82.311 65.7402L83.6633 65.6528C83.7211 65.6482 83.7766 65.6413 83.8344 65.6298C86.2039 65.1283 87.8059 64.8086 88.6381 64.6706C89.5651 64.5165 90.4828 64.3048 91.3959 64.0311C92.6119 63.6677 93.9342 63.3364 95.2634 63.4031C95.3212 63.4054 95.3651 63.4538 95.3628 63.5113L95.3605 63.5964C95.3582 63.6539 95.3119 63.6976 95.2541 63.6976C94.6924 63.6976 94.2948 63.7229 94.0636 63.7712C92.0894 64.176 90.5683 64.7419 88.6589 65.0639C87.8151 65.2065 86.3426 65.5148 84.2412 65.9863C84.1742 66.0024 84.1048 66.0093 84.0378 66.0093C83.4876 66.0139 82.7386 66.1542 82.2717 65.9472C82.2162 65.9242 82.1908 65.8598 82.2162 65.8046C82.2324 65.7678 82.2694 65.7425 82.311 65.7402Z" fill="#697A72"/>
<path d="M95.9361 64.3348C95.9962 64.3394 96.0401 64.3946 96.0332 64.4544C96.0332 64.4682 96.0285 64.482 96.0216 64.4935L95.9869 64.5579C95.9499 64.6246 95.8783 64.666 95.802 64.6614C94.8426 64.6085 93.7954 64.7282 92.6627 65.0226C90.5521 65.5723 88.6334 65.9657 86.9112 66.2072C84.655 66.5246 83.0045 66.8674 80.4986 67.3297C80.3969 67.3504 80.2928 67.2929 80.2559 67.194V67.1871C80.2235 67.1043 80.2651 67.0146 80.3483 66.9824C80.3529 66.9824 80.3599 66.9778 80.3645 66.9778C82.6716 66.4119 85.1728 65.9496 87.866 65.593C88.5063 65.5079 90.2262 65.133 93.0257 64.4705C93.8671 64.2727 94.838 64.2267 95.9361 64.3348Z" fill="#697A72"/>
<path d="M78.2331 67.6196C78.3187 67.6104 78.3949 67.6725 78.4019 67.7576C78.4019 67.776 78.4019 67.7967 78.3973 67.8151L78.3741 67.8933C78.3441 67.9968 78.2562 68.0704 78.1499 68.0796C75.5909 68.3188 73.0434 68.7674 70.5121 69.4252C69.8001 69.6116 68.3576 69.8876 66.1846 70.2533C66.1014 70.2671 66.0228 70.2096 66.0089 70.1268V70.1222V70.1107C65.995 70.0233 66.0528 69.9405 66.1407 69.9244C67.4514 69.6553 68.3784 69.4735 68.9216 69.3792C69.347 69.3056 70.2647 69.0963 71.6749 68.749C73.7993 68.2268 75.9838 67.8496 78.2331 67.6196Z" fill="#697A72"/>
<path d="M59.3766 68.6822C59.4645 68.7121 59.5107 68.8064 59.4806 68.8938C59.476 68.9076 59.4691 68.9214 59.4621 68.9329L59.3974 69.0272C59.3373 69.117 59.2171 69.14 59.1269 69.0801C59.1269 69.0801 59.1246 69.0801 59.1223 69.0778C58.9536 68.9582 58.831 68.8892 58.7548 68.8685C57.7931 68.6132 56.8823 68.4591 56.0223 68.4062C52.8368 68.2153 50.7817 68.167 49.8594 68.2659C48.4053 68.42 46.4196 68.8455 43.9021 69.5425C43.8443 69.5586 43.7842 69.5264 43.7681 69.4689C43.7657 69.4597 43.7634 69.4482 43.7634 69.4367V69.416C43.7634 69.3217 43.8212 69.2389 43.9068 69.2021C45.5342 68.5074 47.3304 68.1693 49.0503 67.9093C50.5991 67.677 52.2913 67.7138 53.8771 67.8656C54.1383 67.8909 54.6654 67.9185 55.456 67.9484C56.7944 68.0013 58.1029 68.2452 59.3766 68.6822Z" fill="#697A72"/>
<path d="M49.4132 69.8184V69.8115C49.3762 69.7563 49.3901 69.685 49.4456 69.6482C49.4525 69.6436 49.4618 69.639 49.471 69.6367C49.8571 69.501 50.0697 69.4297 50.1114 69.4205C52.074 68.9972 53.8563 68.8661 55.4583 69.0294C56.2004 69.103 57.5273 69.455 59.439 70.0875C59.5338 70.1197 59.6147 70.1841 59.6656 70.2692L59.7997 70.5039C59.8205 70.5407 59.8089 70.589 59.7719 70.6097C59.7534 70.6212 59.7303 70.6235 59.7095 70.6166C57.6452 69.9104 56.1518 69.5332 55.2271 69.4849C53.602 69.4021 51.7411 69.547 49.6467 69.9196C49.5542 69.9357 49.4641 69.8943 49.4132 69.8184Z" fill="#697A72"/>
<path d="M29.4542 74.6582C30.0737 74.6237 30.8689 74.4604 31.8375 74.1683C34.0013 73.5196 36.3638 73.0342 38.1854 72.5765C39.7851 72.1739 41.5998 71.9439 43.2989 71.6104C43.3567 71.6012 43.4122 71.6357 43.4237 71.6909L43.4399 71.7645C43.4491 71.8013 43.426 71.8381 43.389 71.8473L32.3253 74.396C32.3253 74.396 32.3137 74.4029 32.316 74.4098V74.4121L32.3415 74.5225C32.3484 74.557 32.3831 74.5777 32.4154 74.5685C32.8662 74.4604 33.3447 74.4029 33.851 74.396C34.4035 74.3914 34.882 74.3592 35.2889 74.3017C38.3334 73.8715 40.1504 73.584 40.7375 73.4391C42.4898 72.9997 44.1912 72.6225 45.8394 72.3074C45.9018 72.2959 45.9596 72.3373 45.9712 72.3971C45.9712 72.4017 45.9712 72.4086 45.9712 72.4132V72.4178C45.9735 72.496 45.9203 72.5673 45.8441 72.588C43.0169 73.3126 40.8832 73.8094 39.4476 74.0762C39.3806 74.0877 39.2557 74.0969 39.0731 74.1015C38.939 74.1038 38.8026 74.1245 38.6709 74.1591C38.1322 74.3063 37.5312 74.4006 36.8701 74.4397C36.8354 74.442 36.8076 74.4719 36.81 74.5087C36.81 74.5087 36.81 74.5087 36.81 74.511L36.8169 74.5685C36.8169 74.5685 36.8215 74.5777 36.8261 74.5777C38.7125 74.4236 40.081 74.2603 40.934 74.0854C43.5971 73.5449 45.7724 73.3494 48.3083 72.8042C49.1243 72.6271 50.3519 72.4247 51.9932 72.1969C52.0648 72.1854 52.1295 72.236 52.1411 72.3051C52.1411 72.3212 52.1411 72.335 52.1411 72.3511L52.1272 72.4155C52.1087 72.5029 52.044 72.5719 51.9585 72.5949C50.8859 72.8893 49.4457 73.002 48.3939 73.2344C47.1571 73.5058 45.814 73.7427 44.3623 73.9428C43.1139 74.1153 42.106 74.2925 41.3409 74.4696C40.8392 74.5869 39.8244 74.7203 38.2941 74.8698C36.7129 75.0239 35.7119 75.116 35.2889 75.1459C34.4243 75.2057 33.5181 75.3069 32.5726 75.4495C31.8999 75.5507 30.8943 75.6381 29.5536 75.714C29.4796 75.7186 29.4149 75.6634 29.4102 75.5898C29.4102 75.5852 29.4102 75.5829 29.4102 75.5783V75.4794C29.4102 75.4265 29.4518 75.3828 29.505 75.3759L34.6532 74.8054C34.6532 74.8054 34.667 74.7985 34.667 74.7916L34.6578 74.7203C34.6555 74.6973 34.6347 74.6812 34.6115 74.6835L29.7292 75.139C29.7292 75.139 29.7131 75.1367 29.7061 75.1321C29.683 75.1183 29.6645 75.1067 29.6506 75.0998C29.579 75.0607 29.4958 75.0561 29.4218 75.0883C29.2946 75.1459 29.119 75.1781 28.897 75.185C28.8277 75.1873 28.7699 75.1344 28.7676 75.0676C28.7676 75.0607 28.7676 75.0538 28.7676 75.0446C28.7838 74.925 28.8878 74.8514 29.0773 74.8215C29.1143 74.8169 29.1398 74.7824 29.1328 74.7456C29.1305 74.7295 29.1213 74.7134 29.1097 74.7019C29.0103 74.6214 28.9803 74.5409 29.0196 74.465C29.0404 74.4213 29.0773 74.3891 29.1213 74.373C31.6387 73.4 33.673 72.6455 35.2288 72.1049C36.024 71.8266 37.2122 71.194 38.1993 70.8766C39.3621 70.504 40.7422 70.0232 42.3395 69.4344C42.4158 69.4068 42.5037 69.439 42.5406 69.5126L42.5453 69.5172C42.5799 69.5862 42.5522 69.669 42.4829 69.7012C42.4829 69.7012 42.4782 69.7012 42.4782 69.7035C41.5166 70.1221 40.4786 70.6259 39.5331 70.9042C38.4698 71.2193 37.5173 71.5713 36.6782 71.9623C35.846 72.3511 34.8427 72.7283 33.6707 73.094C33.1228 73.2666 32.1172 73.6415 30.6562 74.2189C30.1846 74.4052 29.7616 74.3937 29.4264 74.5547C29.3987 74.5685 29.3871 74.6007 29.3987 74.6283C29.4079 74.649 29.4287 74.6605 29.4518 74.6582H29.4542ZM35.5015 74.58C35.5015 74.6559 35.7951 74.6536 36.38 74.5777C36.3846 74.5777 36.3892 74.5708 36.3892 74.5662V74.5432C36.3892 74.5432 36.3823 74.5317 36.3777 74.5317C35.7905 74.488 35.4992 74.5041 35.5015 74.58Z" fill="#697A72"/>
</g>
<defs>
<clipPath id="clip0_1036_6052">
<rect width="96" height="57" fill="white" transform="translate(4 24)"/>
</clipPath>
</defs>
</svg>
