<svg width="104" height="104" viewBox="0 0 104 104" fill="none" xmlns="http://www.w3.org/2000/svg">
<g clip-path="url(#clip0_1036_3298)">
<path d="M32.8941 60.7128C32.9067 60.7276 32.9025 60.7487 32.8898 60.7614C32.8856 60.7656 32.8793 60.7677 32.8709 60.7677C29.6759 61.1461 26.5378 61.7823 23.4566 62.6807C21.9823 63.1098 20.8871 63.8686 19.4655 64.8895C19.4002 64.936 19.318 64.9529 19.2401 64.936C16.7612 64.4076 13.7642 63.2894 13.4799 67.0815C13.4083 68.0495 14.0696 68.4723 14.8952 68.7386C14.9773 68.7661 15.0237 68.8549 14.9963 68.9394C14.9942 68.9479 14.99 68.9563 14.9858 68.9627C14.9226 69.0789 14.832 69.2311 14.712 69.415C13.8506 70.7446 13.7347 72.0847 14.3645 73.4396C14.4129 73.5431 14.4824 73.634 14.5666 73.708L16.578 75.4518C16.5906 75.4624 16.6033 75.4709 16.618 75.4772C19.5581 76.9378 21.1462 77.7241 21.3841 77.8361C22.414 78.316 24.2779 79.0156 26.9801 79.9372C27.0791 79.971 27.1738 80.0154 27.2644 80.0725C28.4691 80.8355 29.5243 81.328 30.4278 81.5542C32.0979 81.9727 33.9913 82.2855 36.108 82.4927C36.4028 82.5202 37.3043 82.5772 38.8122 82.6618C39.9137 82.7231 40.8152 82.7527 41.5165 82.7463C45.2885 82.7146 49.069 82.8858 52.7842 82.6998C56.0171 82.5371 57.7273 82.4504 57.9105 82.4441C59.3111 82.3912 60.5179 81.9537 61.5309 81.1314C61.5962 81.0786 61.6762 81.0469 61.7605 81.0405C62.8304 80.9729 63.5085 80.9053 63.7929 80.8397C70.147 79.3792 73.898 78.4808 75.0437 78.1447C77.0045 77.5677 78.0049 76.6355 79.6898 75.1876C80.3954 74.5831 80.8798 74.0483 81.1472 73.5854C81.8233 72.4081 81.9686 71.2667 81.5874 70.1612C80.9535 68.3286 79.1991 66.7496 77.3836 65.7033C77.2004 65.5976 75.9178 64.9698 73.5315 63.8179C73.0787 63.6001 72.4532 63.3676 71.6529 63.1203C69.9196 62.5813 67.9187 62.2178 65.6462 62.0254C65.1471 61.9831 64.3046 61.7992 63.1189 61.4758C62.9357 61.4272 62.7398 61.478 62.605 61.6132L62.5924 61.6259C62.5166 61.702 62.5145 61.8267 62.5924 61.9049C62.6155 61.9282 62.6429 61.9451 62.6745 61.9535C63.3632 62.1586 63.8455 62.3023 64.1235 62.3805C64.311 62.4334 65.7094 62.6363 68.3189 62.985C69.5278 63.1478 70.8399 63.4733 72.2531 63.9637C73.6832 64.4625 75.1912 65.3207 76.7012 66.0753C78.841 67.1449 82.0529 69.8695 80.8334 72.6068C80.5491 73.2451 80.2079 73.727 79.812 74.0547C78.0407 75.5216 76.7349 76.8363 74.4161 77.407C70.3829 78.4026 67.3227 79.1382 65.2377 79.6159C64.3362 79.823 63.3379 80.0196 62.4049 80.1253C61.2403 80.2564 59.2226 80.4022 57.6051 80.5903C54.6123 80.9391 51.5879 81.0786 48.5299 81.0088C45.7287 80.9433 44.326 80.9116 44.3239 80.9116C38.9028 80.7869 34.6611 80.5903 29.8549 79.8421C28.9451 79.7004 28.0374 79.4679 27.1338 79.1466C24.1895 78.0961 22.2792 77.3542 21.4052 76.9209C19.0063 75.7351 17.669 75.0777 17.3931 74.9488C17.153 74.841 16.9297 74.6994 16.7275 74.5281L15.1753 73.2176C15.129 73.1775 15.0911 73.1288 15.0637 73.0739C14.3687 71.645 14.8889 70.4613 15.7882 69.1973C15.824 69.1466 15.883 69.1191 15.944 69.1233C18.6715 69.322 20.6407 69.377 21.8496 69.2882C26.7526 68.9267 31.7504 69.0578 36.8451 69.6835C37.3948 69.7511 37.6981 69.7934 37.755 69.8124C37.8118 69.8314 37.8561 69.8779 37.8687 69.9371C38.153 71.2413 39.3725 71.8289 40.6045 72.072C43.1024 72.5666 45.4297 72.8562 47.5863 72.9386C47.818 72.9471 48.0349 73.057 48.1802 73.2388C48.7299 73.9257 49.2796 74.2618 50.2084 74.8727C51.0951 75.4561 52.2029 75.8217 53.5277 75.9676C56.6637 76.3142 59.8039 76.2614 62.8325 75.4561C63.4411 75.2933 63.9614 75.0925 64.3973 74.8515C64.9618 74.5387 65.8779 74.2364 66.3539 73.7756C67.468 72.6976 68.4663 70.8354 66.4424 69.935C65.3451 69.4467 64.4458 69.136 63.7423 69.0007C62.1985 68.7006 61.0402 68.5442 60.2714 68.5315C59.1826 68.5167 58.4328 68.504 58.0179 68.4934C57.9631 68.4934 57.9189 68.4469 57.921 68.392C57.921 68.3772 57.9252 68.3624 57.9315 68.3497C59.1025 66.014 59.6375 64.7542 60.7074 63.1837C60.8043 63.0421 60.918 62.9111 61.0465 62.7948C62.2996 61.6597 63.4454 60.3873 64.4879 58.9774C64.5827 58.8464 64.7533 58.7893 64.9091 58.8358C66.5434 59.3304 67.8408 59.6813 68.8033 59.8863C70.6862 60.2879 71.9414 60.8819 73.9338 61.4801C74.5193 61.6555 75.2712 61.9197 76.1873 62.2727C79.8794 63.6889 83.3818 65.0988 86.6948 66.5023C89.2747 67.593 90.9891 68.4871 94.3863 70.1527C95.5678 70.7298 97.1832 71.626 99.2367 72.8372C100.024 73.3022 100.73 73.7059 101.475 73.4438C101.692 73.3656 101.821 73.1183 101.783 72.8498C101.758 72.6702 101.659 72.5518 101.486 72.4926C100.913 72.296 100.496 72.1143 100.237 71.943C98.6427 70.8989 97.1305 70.0026 95.7026 69.2544C89.5022 66.0013 83.3208 63.5177 76.3474 60.9538C75.5681 60.6684 74.6162 60.3556 73.4915 60.0174C72.0594 59.5883 71.0421 59.1021 69.6689 58.8231C68.7043 58.6265 67.4891 58.3243 66.0232 57.9121C65.9327 57.8888 65.8779 57.7937 65.9011 57.7028C65.9137 57.6563 65.9453 57.6183 65.9874 57.595C66.6424 57.2378 67.1311 56.889 67.4512 56.553C67.5017 56.5001 67.5628 56.46 67.6302 56.4367C67.8808 56.3479 68.3526 55.9675 68.6917 55.8322C70.7641 55.0057 72.369 54.2025 74.4961 53.4373C76.2063 52.8222 77.7838 52.1754 79.2307 51.4969C80.1595 51.0615 81.1262 50.4295 82.1287 49.6009C82.4994 49.2944 82.9037 48.8146 83.3418 48.1614C84.2285 46.8361 84.795 45.9188 84.7908 44.3884C84.7887 43.2555 84.576 42.038 84.1569 40.7338C83.4935 38.6771 81.3747 36.7219 79.3929 36.018C78.5715 35.7264 77.9691 35.534 77.5837 35.4431C76.299 35.1366 74.9574 35.3459 73.0935 35.5213C72.3942 35.589 72.0236 35.739 71.3749 35.9229C71.3264 35.9356 71.278 35.9081 71.2632 35.8595C71.2632 35.8532 71.2611 35.8447 71.2611 35.8384C71.2527 33.7796 71.2801 32.6192 70.7662 30.8415C70.1702 28.7891 68.5801 27.2101 66.832 26.0412C62.9378 23.4371 58.3717 22.3929 53.5866 21.6869C50.994 21.3044 48.6962 21.1522 46.6975 21.2325C46.0868 21.2557 45.5918 21.3044 45.2148 21.3783C44.6146 21.4946 44.1218 21.5665 43.7405 21.5897C43.0834 21.632 42.6285 21.6827 42.3779 21.7419C41.1964 22.0188 40.6656 22.0632 39.463 22.3993C39.0439 22.5176 38.6922 22.598 38.4121 22.6381C37.5317 22.7649 36.7819 23.082 35.9985 23.249C35.4825 23.361 35.0233 23.4857 34.6253 23.6231C33.1889 24.1198 32.1759 24.5024 31.5883 24.7688C29.7454 25.6037 28.804 26.0286 28.7682 26.0476C28.4333 26.2209 27.8183 26.6098 26.9232 27.2144C26.4683 27.5208 25.9544 28.026 25.3794 28.7278C24.1179 30.2666 23.2249 31.1628 22.989 32.8432C22.9827 32.8834 22.9806 33.3399 22.9827 34.2129C22.9827 34.5849 23.0248 35.0436 23.1027 35.589C23.2101 36.3182 23.1954 37.3539 23.0606 38.7004C22.9406 39.8798 23.0669 41.1798 23.4355 42.6002C23.9831 44.6991 24.2653 45.7814 24.2801 45.849C24.4254 46.4387 24.6318 47.0412 24.9014 47.6605C25.1857 48.3136 25.4047 49.2564 25.7754 50.0744C26.3988 51.4441 26.9211 52.5284 27.3423 53.3295C27.355 53.3507 27.3466 53.3781 27.3255 53.3908C27.3171 53.395 27.3065 53.3972 27.296 53.395C24.8045 53.059 22.1781 52.8328 19.4191 52.7208C17.9764 52.6616 16.2199 52.7546 14.5603 52.7609C12.9576 52.7673 11.8097 52.8117 11.1147 52.8962C9.49302 53.0949 6.17378 53.1985 4.05925 53.6762C3.84021 53.7269 3.62539 53.8284 3.41688 53.9827C3.21048 54.137 3.1473 54.4139 3.27998 54.5999C3.29472 54.621 3.31158 54.64 3.33053 54.6591C3.64434 54.9486 4.0424 55.0543 4.5268 54.9761C6.30015 54.6929 8.8317 54.3927 12.1236 54.0757C13.9243 53.9045 15.7461 54.0038 17.5615 53.8854C18.1112 53.8495 18.7136 53.8474 19.3644 53.8791C23.0564 54.0588 25.4847 54.1856 27.9405 54.4942C28.0121 54.5026 28.0774 54.5449 28.1153 54.6083C29.4548 56.8024 31.3208 58.6519 32.8941 60.7128ZM70.4924 32.7312C70.5788 33.3759 70.5956 34.3524 70.543 35.6629C70.5366 35.8109 70.5093 35.9589 70.4587 36.1005C70.1639 36.9396 69.6542 37.8824 68.9276 38.9244C68.6222 39.362 68.1272 39.808 67.4407 40.2645C66.5877 40.8331 65.1682 42.2366 63.7191 42.7841C63.5422 42.8517 63.121 43.0779 62.4534 43.4626C61.7836 43.8494 61.0928 44.1306 60.3789 44.3102C58.7972 44.7076 57.6367 45.0162 56.8996 45.2339C55.6654 45.6017 54.2458 45.5785 52.9295 45.8723C51.7038 46.1471 50.6149 46.276 49.6608 46.2591C48.3951 46.2358 47.5042 46.2718 46.9903 46.3669C46.8534 46.3922 45.8361 46.4092 43.9427 46.4176C41.5734 46.4261 38.7364 45.7053 36.822 45.4411C34.9854 45.1874 33.4943 44.7351 32.0432 44.0988C31.4324 43.8325 30.3056 43.2174 28.665 42.2557C28.587 42.2092 28.5176 42.1542 28.4523 42.0929C28.1953 41.8393 27.5572 41.3214 26.5378 40.5414C24.4506 38.9392 23.6566 35.9166 23.7746 33.3738C23.8546 31.6447 24.8445 30.6978 26.1271 29.1822C27.7362 27.282 29.5074 26.631 32.1295 25.4219C32.6076 25.2021 33.5512 24.8385 34.958 24.3291C35.2171 24.2361 35.592 24.1325 36.0848 24.0163C37.1042 23.7774 37.9656 23.4752 38.9218 23.3187C38.9955 23.3082 39.6062 23.1433 40.7541 22.8262C41.7608 22.5493 43.1866 22.3316 45.0316 22.171C45.1474 22.1604 45.2612 22.1414 45.3728 22.1139C45.9435 21.9765 46.329 21.9025 46.529 21.8877C47.7169 21.8074 49.1912 21.8603 50.954 22.0442C55.2147 22.4923 59.0246 23.2997 62.3839 24.4665C63.0073 24.6842 63.7865 24.9759 64.3847 25.331C65.7052 26.111 66.8004 26.8635 67.6702 27.5843C69.2688 28.9096 70.2081 30.6238 70.4924 32.7312ZM67.0068 55.4348C67.2869 54.8725 67.7313 53.8664 68.3358 52.4185C68.8223 51.2517 69.0118 50.0342 69.3467 48.4954C69.3951 48.2735 69.5615 47.614 69.8437 46.517C70.2544 44.9211 70.3576 42.8856 70.564 41.704C70.7978 40.3681 70.8589 38.7384 71.0695 37.2356C71.099 37.0263 71.0316 36.8572 71.04 36.7494C71.0442 36.6839 71.099 36.6353 71.1643 36.6374C71.1685 36.6374 71.1727 36.6374 71.1769 36.6374C71.9414 36.7557 72.7207 36.388 73.4999 36.4218C73.6031 36.426 74.2308 36.3837 75.387 36.2971C76.9308 36.1808 78.0386 36.5359 79.4982 37.1616C80.2795 37.4977 81.0651 38.0599 81.8549 38.8483C83.2871 40.2836 83.7736 42.7376 83.7336 44.6188C83.7083 45.7983 83.1312 46.555 82.3983 47.6415C81.5179 48.9435 79.9299 50.0236 78.6346 50.6239C77.7396 51.0361 76.1663 51.666 73.9106 52.5136C71.7371 53.3316 70.0649 54.1454 68.0957 54.9296C67.7797 55.0564 67.3775 55.3439 67.07 55.4961C67.0468 55.5088 67.0194 55.5003 67.0068 55.4792C66.9984 55.4644 66.9984 55.4475 67.0068 55.4327V55.4348ZM23.9157 38.5545C23.9178 38.5334 23.9368 38.5186 23.9557 38.5186C23.9683 38.5186 23.9789 38.5271 23.9852 38.5397C24.5096 39.679 25.2468 40.5837 26.1987 41.2517C27.1128 41.8921 27.6772 42.484 28.5302 42.9828C30.4552 44.1094 32.5128 44.993 34.7032 45.6292C36.5208 46.1576 38.8354 46.3711 40.4213 46.7072C41.5607 46.946 42.6685 47.0623 43.7427 47.0517C45.4297 47.0369 46.4532 47.0095 46.8176 46.9714C48.7763 46.7622 51.0214 46.9651 52.999 46.536C54.1869 46.276 55.8528 46.276 56.83 45.9758C57.9947 45.6186 59.1194 45.3206 60.204 45.086C61.0086 44.9105 61.9058 44.5977 62.5524 44.2236C63.1547 43.8748 64.0056 43.4499 65.105 42.9511C65.2693 42.8771 65.4251 42.7841 65.5683 42.6742C67.7692 41.0065 68.8749 40.1673 68.8854 40.1589C69.2287 39.8502 69.5004 39.4846 69.7047 39.0597C69.7784 38.9054 69.9638 38.8399 70.1175 38.916C70.1849 38.9477 70.2376 39.0026 70.2671 39.0703C70.2671 39.0745 70.2607 39.1295 70.246 39.233C70.1281 40.0341 69.8711 41.8266 69.4773 44.6125C69.393 45.2064 69.2582 45.8237 69.0729 46.4641C68.5948 48.1192 68.4705 48.8822 67.944 51.0002C67.685 52.0507 67.23 52.7969 66.8172 53.858C66.3434 55.0797 65.4462 56.3585 64.7469 57.4132C64.7006 57.4851 64.6395 57.5464 64.57 57.5971C64.2646 57.817 64.2183 58.1108 63.955 58.3982C63.7086 58.6667 63.2242 59.2353 62.506 60.1061C62.2154 60.4591 61.6278 61.0446 60.7432 61.8648C60.1472 62.4207 59.7639 62.9153 59.3911 63.5558C58.7656 64.6338 58.079 65.9654 57.3271 67.5507C57.1691 67.8826 56.9733 68.1658 56.7395 68.4025C56.6847 68.4575 56.611 68.4913 56.5331 68.4977C55.1346 68.5801 53.9889 68.7386 53.0938 68.9711C52.8263 69.0409 52.0513 69.3389 50.7665 69.8652C50.3264 70.047 50.002 70.1527 49.7935 70.1802C49.4945 70.2225 49.1891 70.2922 48.8795 70.3916C48.7573 70.4317 48.6246 70.4275 48.5046 70.381C46.4806 69.601 44.2439 69.0451 41.7966 68.7133C39.8948 68.4554 38.9154 68.3243 38.8586 68.3222C38.0962 68.2842 37.8792 67.4429 37.7002 66.8067C37.4854 66.0352 37.2958 65.6272 36.9631 64.6803C36.6851 63.894 36.3312 63.3423 35.8005 62.7399C34.5284 61.2983 33.6944 60.3196 33.3005 59.806C32.7424 59.0768 32.0937 58.3116 31.3587 57.5126C29.7602 55.7772 28.4017 53.7438 27.2876 51.4124C26.641 50.0575 26.085 48.7047 25.6195 47.3582C25.0256 45.6355 24.8466 44.5575 24.3095 42.6171C23.962 41.3679 23.8314 40.013 23.9157 38.5545ZM37.0705 68.0453C33.5343 67.631 31.5335 67.3943 31.0723 67.333C27.7193 66.8955 23.9915 66.0584 20.5396 65.2277C20.5122 65.2214 20.4933 65.1939 20.4996 65.1643C20.5017 65.1516 20.508 65.1411 20.5185 65.1347C22.3951 63.6551 24.0673 63.2683 26.7 62.6363C27.8625 62.3594 29.1073 62.0952 30.432 61.8436C31.4387 61.6534 32.4202 61.6386 33.3406 61.3997C33.4248 61.3765 33.5154 61.404 33.5722 61.4716C34.5874 62.6807 35.5899 63.6255 36.0174 64.7923C36.3923 65.8174 36.7567 66.8849 37.1105 67.9967C37.1168 68.0157 37.1063 68.039 37.0873 68.0432C37.081 68.0432 37.0768 68.0453 37.0705 68.0432V68.0453ZM67.0257 71.3237C66.9605 71.2413 66.891 71.1948 66.8172 71.1842C66.7498 71.1736 66.6888 71.218 66.674 71.2836L66.6129 71.5922C66.6066 71.626 66.594 71.6577 66.575 71.6852C65.8021 72.7674 64.4689 73.7418 63.1126 74.0399C62.6134 74.1498 62.1985 74.2301 61.8637 74.2787C59.2142 74.6698 56.4004 74.6698 53.4202 74.2787C52.2219 74.1223 50.8676 73.4628 49.9388 72.8435C49.0564 72.2559 47.9991 71.85 47.1335 71.9346C47.0577 71.9409 46.9819 71.9282 46.9124 71.8965C46.1921 71.5626 45.535 71.3026 44.9389 71.1187C41.6492 70.102 39.1303 69.3347 36.1059 69.0367C32.1064 68.6435 27.3824 68.3434 23.1091 68.6203C20.7671 68.7703 18.5556 68.7429 16.4769 68.5378C15.6029 68.4512 14.8973 68.1975 14.3603 67.7811C14.3076 67.7409 14.2613 67.6987 14.217 67.6501C14.1307 67.5528 14.1012 67.3097 14.1328 66.9187C14.2486 65.4497 15.0047 64.8155 16.4011 65.0185C17.4289 65.1685 18.4419 65.456 19.3012 65.6378C24.7623 66.7855 28.1153 67.593 32.6371 68.0601C34.4084 68.244 37.5422 68.6477 42.0409 69.2713C43.9469 69.5355 45.5476 69.8843 46.845 70.3155C47.2283 70.4423 47.7021 70.827 48.1255 70.9115C48.4962 70.9855 48.9953 70.9834 49.625 70.9052C50.0947 70.846 50.5243 70.4825 51.0066 70.3641C51.3499 70.2795 51.6996 70.1548 52.0513 69.9878C53.713 69.2015 55.4758 69.0811 57.4829 69.0641C60.7432 69.0345 63.7571 69.2058 66.554 70.5945C66.8172 70.7255 66.9984 70.9559 67.0974 71.2857C67.1016 71.3089 67.0868 71.3301 67.0658 71.3364C67.051 71.3385 67.0363 71.3364 67.0257 71.3237ZM45.7708 72.1777C44.3892 72.0149 42.9423 71.7274 41.1437 71.4484C40.1517 71.2941 39.3493 70.8777 38.7364 70.2013C38.6943 70.1569 38.6964 70.0851 38.7427 70.0428C38.768 70.0195 38.8038 70.009 38.8396 70.0153C39.0481 70.0534 39.2292 70.0914 39.383 70.1316C41.0216 70.5395 42.9002 71.087 45.019 71.7718C45.535 71.9388 45.8066 72.0382 45.8298 72.0678C45.853 72.0973 45.8488 72.1396 45.8193 72.1629C45.8045 72.1734 45.7877 72.1798 45.7708 72.1777ZM67.1037 71.5224C67.169 71.6683 67.1626 71.7993 67.0805 71.9135C66.5666 72.6363 66.2023 73.0971 65.9895 73.2958C65.8948 73.3867 65.7916 73.467 65.6842 73.5389C65.642 73.5664 65.006 73.8856 63.776 74.4943C63.0494 74.8537 62.1248 75.1221 61.0023 75.3018C58.1822 75.7541 55.2568 75.6949 52.2219 75.1221C51.9818 75.0777 51.748 74.9995 51.5269 74.8896C50.5601 74.4161 49.6629 73.8137 48.831 73.0845C48.8015 73.0591 48.7952 73.0126 48.8184 72.9809V72.9767C48.8479 72.9365 48.9047 72.9238 48.9469 72.9492C49.9051 73.5178 50.5981 73.8961 51.0214 74.0843C51.8238 74.4394 52.3693 74.6338 52.662 74.6676C55.1515 74.953 57.285 75.0587 59.0604 74.9868C60.0714 74.9445 61.2318 74.8198 62.5418 74.6106C64.2815 74.3316 65.503 73.6171 66.6951 72.2559C66.9668 71.943 67.091 71.7021 67.0679 71.533C67.0679 71.5224 67.0742 71.514 67.0847 71.5118C67.0931 71.5118 67.0995 71.5161 67.1037 71.5224ZM30.0382 80.7024C30.2972 80.7214 31.4809 80.863 33.5891 81.1314C34.64 81.2646 35.8279 81.3618 37.1484 81.4231C40.3223 81.5669 41.9756 81.6408 42.1041 81.643C45.7919 81.7212 47.9886 81.774 48.692 81.8036C49.7809 81.8501 50.975 81.8501 52.2745 81.8015C54.2227 81.7296 55.4147 81.6704 55.8528 81.6218C57.0596 81.4929 58.5739 81.3386 60.3957 81.1631C60.4252 81.161 60.4505 81.1822 60.4526 81.2118C60.4526 81.2329 60.4441 81.254 60.4252 81.2625C59.8039 81.6113 59.0857 81.8078 58.2706 81.848C54.1995 82.0551 50.9877 82.1481 48.6394 82.127C44.8631 82.0932 42.4832 82.0847 41.4975 82.0995C39.6968 82.127 37.2811 81.9812 35.5351 81.8036C33.9829 81.6451 32.3928 81.3809 30.7669 81.011C30.689 80.994 30.4425 80.9116 30.0255 80.7615C30.0087 80.7573 30.0024 80.7404 30.0066 80.7235C30.0108 80.7108 30.0234 80.7024 30.0382 80.7024Z" fill="#697A72"/>
<path d="M46.5503 22.6952C46.1565 22.8537 45.6763 22.9552 45.1097 22.9996C42.7024 23.1919 40.47 23.4582 38.4081 23.7943C37.8921 23.8767 37.3213 24.0247 36.6958 24.234C34.815 24.866 33.1659 25.5001 31.7485 26.1363C31.4642 26.2632 30.7818 26.6373 29.7014 27.2587C28.6188 27.8844 27.4689 29.1611 26.2095 30.4314C25.8809 30.7612 25.5713 31.2029 25.2828 31.7546C24.3856 33.4689 24.3055 35.3099 25.0448 37.282C25.1564 37.5801 25.3228 37.8993 25.5397 38.2353C26.26 39.3472 27.1256 40.2941 28.1787 40.9134C28.9685 41.3785 29.4107 41.6955 30.3459 42.2557C30.4743 42.3317 30.6154 42.3867 30.7608 42.4142C31.302 42.5178 31.896 42.8242 32.5425 43.3337C32.7447 43.4922 33.2144 43.6719 33.9515 43.8727C34.1706 43.934 34.3854 44.0122 34.5918 44.1115C35.7122 44.6505 36.7758 45.0162 37.7804 45.2064C39.7707 45.5848 41.4977 45.7475 42.9636 45.6947C44.1894 45.6503 45.8405 45.6165 47.9172 45.5932C49.8043 45.5721 52.0957 45.329 54.7894 44.864C55.6803 44.7097 56.5185 44.5068 57.302 44.2552C57.4242 44.2151 58.1971 44.027 59.6209 43.6888C59.762 43.6549 59.8989 43.6084 60.0315 43.5493C61.5416 42.8877 62.4725 42.503 62.82 42.3973C63.7994 42.1035 65.3242 41.1882 65.9603 40.5478C66.1835 40.3237 66.5415 40.0658 67.0344 39.7762C68.0516 39.1781 69.1131 37.5547 69.4838 36.5718C69.8692 35.5467 70.0988 34.6652 70.1725 33.9233C70.4905 30.6386 67.8895 27.8844 65.3537 26.2272C64.3512 25.572 63.2792 25.3099 62.1187 24.811C61.8639 24.7032 61.411 24.5658 60.7603 24.3988C59.4376 24.0628 58.3888 23.8028 57.6158 23.6146C56.3332 23.3039 55.3686 23.1052 54.7199 23.0186C54.3914 22.9742 53.412 22.8368 51.784 22.6043C50.6446 22.4415 49.442 22.4267 48.1762 22.5641C47.5591 22.6296 47.0979 22.6592 46.7925 22.6529C46.7083 22.6529 46.6261 22.6656 46.5503 22.6952ZM50.5182 44.8048C50.3181 44.8196 50.1265 44.8365 49.9454 44.8513C46.8641 45.1092 44.1999 45.2022 41.9484 45.1282C40.7395 45.0881 39.2126 44.8725 38.2143 44.6717C37.4414 44.5152 36.4999 44.213 35.3879 43.7649C34.4991 43.4055 34.0589 43.3146 33.0775 43.0251C32.989 42.9976 32.9027 42.9595 32.8248 42.9088L31.8728 42.2937C31.8244 42.262 31.7696 42.2366 31.7127 42.2197L30.8239 41.9513C30.6386 41.8942 30.4638 41.816 30.3037 41.7145C29.3686 41.1227 28.8568 40.8014 28.7663 40.7507C27.6374 40.1081 26.8624 39.2668 26.1105 38.174C25.725 37.616 25.4828 37.0791 25.3796 36.5613C25.2112 35.7137 25.1269 35.1218 25.1248 34.7878C25.1206 34.2531 25.3249 33.4625 25.7398 32.4162C25.8977 32.0146 26.1989 31.8138 26.3127 31.4397C26.3548 31.2917 26.4327 31.1564 26.538 31.0444C26.5675 31.0106 27.2246 30.3638 28.5093 29.1061C29.1264 28.5037 29.6803 28.0556 30.1732 27.766C31.2789 27.115 31.8981 26.7578 32.035 26.6965C33.4861 26.0391 35.3142 25.3521 37.5235 24.6335C38.7977 24.2171 40.2362 24.1748 41.5841 23.9275C41.8684 23.8746 42.6729 23.7859 43.9956 23.6569C44.9096 23.566 45.7079 23.4308 46.3923 23.249C46.4913 23.2236 46.5924 23.2109 46.6935 23.2088C47.6076 23.1982 48.4247 23.0228 49.2672 23.0186C50.2107 23.0122 50.7204 23.0143 50.7983 23.0207C51.3775 23.0799 52.5317 23.2236 54.2587 23.4519C55.2296 23.5808 56.3669 23.8091 57.6706 24.141C59.7219 24.6631 60.8213 24.866 62.4325 25.5107C63.9068 26.1025 64.7598 26.4682 64.9914 26.6098C67.5967 28.2014 69.7386 30.6703 69.6691 33.8092C69.667 33.9318 69.6481 34.0565 69.6165 34.177C69.3448 35.2021 69.0794 36.0032 68.8246 36.5803C68.4771 37.3666 67.9147 38.1571 67.1355 38.954C67.1123 38.9773 67.087 38.9984 67.0575 39.0132L66.1203 39.5268C66.0298 39.5754 65.9455 39.6367 65.8697 39.7065C64.8714 40.6302 63.6204 41.4567 62.243 41.8245C61.748 41.9576 61.0172 42.2789 60.0484 42.7925C59.8925 42.875 59.7283 42.9405 59.5598 42.9891C58.6247 43.2576 58.0539 43.4098 57.8496 43.4415C56.9819 43.5831 56.1963 43.9445 55.2106 44.1263C53.1972 44.4941 51.6324 44.7203 50.5182 44.8048Z" fill="#697A72"/>
<path d="M50.3348 28.5375C51.2131 27.4827 53.1023 26.9057 53.0054 25.4515C52.9254 24.2255 51.6996 24.16 51.0509 24.9463C50.994 25.0139 50.893 25.0245 50.8256 24.9674C50.8171 24.9611 50.8087 24.9526 50.8024 24.9442C50.2611 24.2614 49.722 24.1431 49.1807 24.589C49.1217 24.6398 49.0754 24.7032 49.0459 24.7772C48.909 25.1175 48.8816 25.481 48.9637 25.8657C49.1638 26.8064 49.2333 27.5271 49.1723 28.0239C49.0733 28.8461 49.0417 29.2836 49.0775 29.3386C49.1006 29.3767 49.1512 29.3872 49.187 29.364C49.1954 29.3597 49.2017 29.3534 49.2081 29.3449C49.823 28.5608 49.6103 26.6119 49.3702 25.61C49.0333 24.2043 50.7624 24.7835 50.7371 25.8404C50.735 25.889 50.7729 25.9313 50.8213 25.9334C50.8529 25.9334 50.8824 25.9207 50.8993 25.8932C51.1962 25.4599 51.3584 25.2295 51.3837 25.202C51.5985 24.9737 52.2367 24.7455 52.4199 25.1513C52.6853 25.741 52.2556 26.2991 51.7754 26.6563C50.6613 27.487 49.6798 28.0683 49.4313 29.29C49.4081 29.4041 49.2165 29.6536 48.8563 30.0383C48.829 30.0678 48.7847 30.07 48.7552 30.0425C48.7426 30.0298 48.7342 30.0129 48.7321 29.996C48.6036 28.696 48.0139 27.7301 46.9629 27.1023C46.11 26.5929 45.2591 26.5738 44.4061 27.0473C43.7343 27.4193 43.7322 28.2627 43.7511 29.049C43.768 29.6662 43.9723 30.1756 44.3619 30.5773C44.7473 30.9767 45.1369 31.0275 45.6403 31.2896C46.8682 31.9258 47.0451 33.2596 46.8745 34.4919C46.8682 34.549 46.9082 34.5997 46.965 34.606C46.9924 34.6081 47.0198 34.6018 47.0409 34.5849C47.2999 34.3735 47.5821 34.0543 47.8917 33.6253C48.5194 32.7586 50.1937 32.8559 51.112 32.4627C52.224 31.9871 52.9906 31.26 53.4098 30.2771C53.6983 29.6049 53.7446 29.0638 53.553 28.6559C52.9822 27.4405 51.43 28.1 50.3748 28.5903C50.358 28.5988 50.3369 28.5903 50.3306 28.5755C50.3243 28.5629 50.3264 28.5481 50.3348 28.5375ZM47.3778 33.008C47.2957 31.7208 46.5228 30.9345 45.2886 30.5244C44.1871 30.1566 44.2271 29.2942 44.2503 28.2923C44.2608 27.7744 44.4398 27.4553 44.8737 27.3094C45.6866 27.041 46.5017 27.2376 47.1778 27.8209C48.1318 28.6432 48.4899 29.7254 48.2519 31.0634C48.2308 31.1797 48.2793 31.298 48.3782 31.3657L48.4709 31.4312C48.5173 31.4629 48.5825 31.4523 48.6141 31.4058C48.6289 31.3847 48.6352 31.3614 48.631 31.3361C48.6036 31.1057 48.6984 30.8689 48.9153 30.6259C49.9241 29.4823 50.7329 28.6263 52.2345 28.4931C52.9106 28.4339 53.2855 28.8567 53.0875 29.4971C52.7337 30.6407 51.9481 31.4333 50.7329 31.8793C50.5812 31.9364 50.0484 32.0695 49.1365 32.2809C48.6815 32.3845 48.1382 32.6487 47.5042 33.0715C47.4663 33.0968 47.4158 33.0841 47.3905 33.0461C47.3821 33.0355 47.3778 33.0207 47.3778 33.008Z" fill="#697A72"/>
<path d="M46.1437 36.409C46.1437 36.4598 46.1858 36.4999 46.2343 36.4999C46.2553 36.4999 46.2743 36.4936 46.2911 36.4788L46.3543 36.426C46.4154 36.3752 46.4575 36.3055 46.4702 36.2273C46.6555 35.1767 46.4533 34.2023 45.8615 33.2997C45.1749 32.2471 44.263 32.8749 43.6311 32.2175C43.3805 31.9554 43.2268 31.6447 43.172 31.2832C43.014 30.2306 42.8603 28.4551 42.4201 28.119C42.3359 28.0556 42.2348 28.0239 42.1316 28.026C41.2028 28.0577 40.4762 28.3282 39.9496 28.8419C39.0145 29.7529 37.8498 31.9448 38.1658 33.397C38.448 34.6948 40.3266 35.4959 41.4913 35.7221C41.6872 35.7622 42.338 35.8087 43.4458 35.8637C44.5136 35.9187 45.0506 36.5105 45.792 37.2292C45.8489 37.2841 45.9373 37.282 45.9921 37.2249C46.0047 37.2123 46.0131 37.1975 46.0195 37.1827C46.1037 36.9734 46.0869 36.7959 45.971 36.65C45.3729 35.9081 44.7158 35.4642 44.0018 35.3141C43.1973 35.1471 42.1126 35.3078 41.2217 35.0605C40.0908 34.7455 38.4564 33.9804 38.6881 32.5473C38.8629 31.4735 39.282 30.48 39.9475 29.5648C40.4425 28.8863 41.1249 28.5206 41.9947 28.4699C42.1295 28.4614 42.2474 28.5586 42.2664 28.6918C42.4285 29.8227 42.5718 30.7041 42.6939 31.334C42.8287 32.0273 43.1636 32.5198 43.6964 32.8115C43.985 32.97 44.5641 33.0102 44.9474 33.0778C45.0928 33.1032 45.2255 33.1771 45.3266 33.2849C46.228 34.2573 46.1332 35.1683 46.1437 36.409Z" fill="#697A72"/>
<path d="M47.658 37.0052C48.1866 36.407 48.7658 36.0413 49.3934 35.9082C49.7093 35.8405 50.9267 35.6376 53.0433 35.2973C54.8546 35.0077 56.7859 32.9912 56.9417 31.11C57.0175 30.2074 57.0407 29.2837 56.4468 28.5777C56.0066 28.0599 55.2758 28.3114 54.9009 28.7701C54.545 29.2055 53.93 30.0278 53.0559 31.2389C52.1882 32.4374 51.2826 33.1011 49.8905 33.3484C48.711 33.5577 47.8538 34.27 47.3189 35.4896C47.2389 35.6735 47.1967 35.8934 47.1925 36.1491C47.1925 36.2337 47.2578 36.3013 47.3421 36.3034C47.4095 36.3034 47.4705 36.2612 47.4874 36.1956C47.7633 35.2614 48.3467 34.5638 49.2376 34.103C49.3239 34.0587 49.4166 34.0269 49.5114 34.0079C49.7894 33.953 50.0821 33.9001 50.3917 33.8515C51.4027 33.6887 52.481 33.0039 53.0349 32.2641C53.5172 31.6236 54.248 30.6217 55.2295 29.2541C55.3874 29.0343 55.5412 28.9117 55.6865 28.8842C55.9582 28.8356 56.2257 29.0343 56.2952 29.3366C56.689 31.036 56.2404 32.4903 54.9451 33.6972C54.2733 34.325 53.5404 34.6928 52.7506 34.8048C50.9772 35.0542 49.7325 35.2783 49.0185 35.4749C48.2456 35.6905 47.6896 36.1449 47.3505 36.8382C47.2915 36.9566 47.3442 37.0897 47.3147 37.2123C47.3042 37.2567 47.2726 37.2969 47.2241 37.3307C46.3648 37.9141 45.8025 38.3432 45.3981 39.3134C45.3707 39.3789 45.3897 39.455 45.4466 39.4994L45.4887 39.5311C45.5224 39.5565 45.5687 39.5522 45.594 39.5205C45.5961 39.5184 45.5982 39.5142 45.6003 39.51C46.3732 38.1677 47.5969 37.3836 49.2692 37.1574C50.4802 36.9946 51.1583 36.9101 51.3037 36.908C52.1166 36.8932 52.7822 36.779 53.2982 36.5677C54.4881 36.0773 55.6191 35.3966 56.2509 34.3334C56.5142 33.8896 56.8512 33.2681 57.2134 32.9468C57.2513 32.913 57.3082 32.9172 57.3419 32.9553C57.363 32.9806 57.3714 33.0124 57.3608 33.0441C56.6764 35.1874 54.2754 37.1975 52.2683 38.2248C51.39 38.675 50.6466 38.7976 49.5788 38.7786C47.7612 38.749 46.2616 38.7575 45.1138 40.2477C45.0738 40.3005 45.0822 40.3787 45.137 40.4189C45.1791 40.4506 45.2381 40.4527 45.2802 40.4231C46.5965 39.4783 47.4074 39.231 49.1049 39.2775C50.1053 39.3049 50.8572 39.25 51.3563 39.1084C53.4014 38.5376 55.6359 36.5613 56.8743 34.9063C57.2787 34.3694 57.9485 33.3019 57.7568 32.6425C57.7041 32.4649 57.523 32.3592 57.3461 32.4015C56.6848 32.5579 56.0656 33.7226 55.6191 34.4053C55.5791 34.4687 55.5327 34.5279 55.4801 34.5807C54.804 35.274 53.9658 35.7961 52.9612 36.147C52.6073 36.2717 51.9229 36.3711 50.9056 36.4472C49.6504 36.5423 48.5826 36.7473 47.7001 37.0665C47.6811 37.0749 47.658 37.0665 47.6496 37.0454C47.6432 37.0306 47.6475 37.0158 47.658 37.0052Z" fill="#697A72"/>
<path d="M43.9386 40.4316C43.9681 40.4654 43.9681 40.5162 43.9365 40.5479C43.9218 40.5606 43.9049 40.569 43.8839 40.569C42.7697 40.624 41.5061 40.495 40.0886 40.1801C38.0752 39.7362 36.4514 38.6603 35.2151 36.9503C34.8128 36.3965 34.3811 35.9294 33.9177 35.5468C33.7197 35.3819 33.4523 35.3756 33.3196 35.5341C33.3154 35.5404 33.3091 35.5468 33.3048 35.551C33.2522 35.625 33.2038 35.7603 33.1616 35.9568C32.772 37.7599 34.4695 38.3602 35.4868 39.4043C35.5668 39.4868 35.6553 39.5565 35.7522 39.6178C36.0997 39.8334 36.8115 40.2372 37.8878 40.8269C38.6797 41.2623 39.4042 41.535 40.0634 41.6449C43.0056 42.1332 46.1437 42.2811 49.4735 42.0909C51.1205 41.9958 52.3547 41.9133 53.6941 41.554C54.109 41.442 55.0526 41.1376 56.5227 40.6409C57.9274 40.1653 58.8604 39.1761 59.8966 37.967C60.3579 37.4301 61.4341 35.4009 60.817 34.733C60.2126 34.082 59.5302 35.1325 59.2627 35.6546C58.5635 37.0264 57.5336 38.1065 56.173 38.8949C56.053 38.9647 55.9224 39.0175 55.7876 39.0535C55.0062 39.2564 54.3723 39.5925 53.4877 39.7933C50.9162 40.3788 48.3278 40.5584 45.7225 40.3365C45.6551 40.3302 45.5961 40.3809 45.5898 40.4485C45.5856 40.495 45.6088 40.5415 45.6509 40.5648C46.0953 40.8332 46.5523 40.9791 47.0199 41.0023C49.2818 41.1144 51.5143 40.8945 53.7173 40.3428C54.5934 40.1251 55.2148 39.7869 56.0467 39.5756C56.2278 39.5291 56.4005 39.4551 56.5606 39.3578C57.1355 39.0048 57.7463 38.5187 58.395 37.8994C59.0774 37.2462 59.4691 36.3458 60.0567 35.3713C60.1262 35.2572 60.2041 35.1727 60.2947 35.1198C60.3431 35.0923 60.4021 35.1092 60.4295 35.1579C60.44 35.1769 60.4442 35.198 60.4421 35.217C60.2399 36.8108 59.4523 37.5908 58.3086 38.6899C57.5883 39.3811 56.9881 39.7764 56.0951 40.0659C53.7805 40.8121 52.3883 41.256 50.1769 41.3701C49.2692 41.4166 48.7048 41.4525 48.4836 41.4758C47.9129 41.5371 47.3463 41.5625 46.7882 41.5519C44.522 41.5181 42.3295 41.3469 40.2108 41.0383C38.9998 40.8607 37.9404 40.2054 36.1755 39.25C36.0238 39.1697 35.8869 39.064 35.769 38.9414C34.8802 38.0156 33.4081 37.633 33.6334 36.0456C33.6376 36.0118 33.6692 35.9886 33.7029 35.9928C33.7155 35.9928 33.7282 36.0012 33.7366 36.0097C34.4758 36.7051 35.1245 37.7958 35.8027 38.4172C37.3191 39.8038 38.785 40.4464 40.6826 40.7191C41.3144 40.81 41.704 40.9305 42.3927 40.9875C43.0246 41.0383 43.6438 40.9896 44.2524 40.8417C44.3935 40.8079 44.4799 40.6662 44.4462 40.5267C44.4399 40.495 44.4251 40.4675 44.4083 40.4401C42.9382 38.2376 40.7163 38.7702 38.6481 38.282C36.8747 37.8655 35.7964 36.7537 35.411 34.9507C35.2151 34.027 35.2214 33.1181 35.4299 32.224C35.4531 32.1225 35.5415 32.0507 35.6447 32.0486C36.3608 32.0253 36.3398 33.2048 36.4093 33.9403C36.4303 34.1602 36.4872 34.3758 36.5799 34.5766C36.8305 35.1283 37.0832 35.6208 37.3381 36.0498C38.1826 37.4808 39.4589 38.2819 41.1691 38.4532C41.5292 38.4891 41.8683 38.4447 42.1884 38.3221C42.3422 38.2629 42.4222 38.0917 42.3632 37.9353C42.3506 37.9036 42.3338 37.874 42.3127 37.8486C42.2285 37.7451 42.0747 37.6415 41.8536 37.5337C40.8237 37.0391 39.6316 36.6248 38.6523 35.6525C38.6165 35.6165 38.6165 35.5573 38.6523 35.5214C38.6586 35.5151 38.667 35.5087 38.6733 35.5045C38.8229 35.4221 38.9556 35.4305 39.0693 35.5256C39.9265 36.2422 40.9227 36.7537 42.06 37.0581C43.3068 37.3921 44.4167 37.4935 44.8611 38.3031C44.8822 38.3432 44.8948 38.3897 44.8948 38.4363V38.878C44.8948 38.9647 44.9664 39.0366 45.0527 39.0366C45.1096 39.0366 45.1644 39.0048 45.1897 38.9541C45.6067 38.172 44.8274 37.4428 44.1176 37.1469C44.0924 37.1363 43.2878 36.8911 41.7061 36.4113C40.8616 36.1555 40.0823 35.7497 39.3683 35.1896C39.0714 34.9549 38.726 34.919 38.3364 35.0796C38.2669 35.1071 38.2163 35.1663 38.1974 35.2382C38.1068 35.57 38.1679 35.8427 38.3785 36.0562C38.9977 36.6797 39.7306 37.1574 40.5773 37.4935C40.8763 37.6119 41.1775 37.7408 41.4787 37.8782C41.5145 37.8973 41.5292 37.9416 41.5103 37.9776C41.4976 38.0029 41.4724 38.0177 41.4429 38.0177C40.2761 37.9226 39.2694 37.466 38.4248 36.6438C37.8709 36.1048 37.4202 35.0691 37.1422 34.4751C37.0327 34.2405 36.9653 33.9911 36.9379 33.7332C36.8431 32.7968 36.8389 31.7442 35.8111 31.5159C35.5373 31.4546 35.2551 31.5687 35.0993 31.8012C34.9287 32.057 34.8234 32.3889 34.7876 32.7926C34.4358 36.7009 36.3103 38.878 40.1539 39.0831C41.7019 39.1655 42.934 39.3494 43.9386 40.4316Z" fill="#697A72"/>
<path d="M82.6174 44.0883C82.6406 43.0103 82.2468 42.1733 81.4401 41.5793C80.008 40.5246 78.6474 39.7023 76.872 40.1737C76.8046 40.1906 76.7646 40.2603 76.7814 40.328C76.7961 40.3851 76.8488 40.4252 76.9078 40.4231C78.4979 40.3787 79.9406 40.9219 81.2337 42.057C81.8824 42.6256 82.0677 43.4098 82.4342 44.1306C82.4595 44.1792 82.5163 44.1982 82.5648 44.1729C82.5964 44.156 82.6174 44.1242 82.6174 44.0883Z" fill="#697A72"/>
<path d="M79.9889 44.4455C80.0121 44.4117 80.0563 44.4032 80.0879 44.4265C80.0985 44.4328 80.1069 44.4434 80.1132 44.4561L80.6145 45.5235C80.665 45.6313 80.7956 45.6778 80.903 45.6271C80.9599 45.5996 81.002 45.551 81.0188 45.4918C81.1979 44.8788 81.1073 44.2743 80.7514 43.6803C80.0563 42.522 79.0686 41.7907 77.786 41.4842C77.4827 41.4123 76.973 41.406 76.259 41.4651C75.9494 41.4905 75.4292 41.518 74.7026 41.5476C74.6226 41.5497 74.5446 41.5645 74.4709 41.5899C73.7338 41.835 73.2031 42.3423 72.8766 43.1117C72.2827 44.5195 71.9415 45.217 71.4824 46.4683C71.1391 47.3984 70.6862 48.4933 70.1197 49.751C70.0776 49.844 70.0081 49.9222 69.9238 49.975C69.6121 50.1716 69.4773 50.4379 69.5216 50.774C69.53 50.848 69.5721 50.9135 69.6332 50.9558C69.8691 51.1164 70.0586 51.1334 70.2018 51.0065C70.7937 50.476 71.3244 50.1166 71.7941 49.9285C73.8265 49.1105 75.0585 48.5736 75.4903 48.3136C76.6002 47.6457 77.1899 47.3033 77.2552 47.2842C77.3795 47.2504 77.4932 47.1912 77.5922 47.1109C78.5189 46.3436 79.3171 45.4538 79.9889 44.4455ZM71.1875 49.0154C71.9668 47.6795 72.3859 46.2591 73.0093 44.8471C73.5463 43.6317 73.8391 42.4417 75.2249 42.4396C75.7915 42.4396 76.2127 42.429 76.4928 42.41C77.6575 42.3275 78.561 42.634 79.3634 43.4267C79.5214 43.5831 79.5403 43.8346 79.4056 44.0101C78.7421 44.8809 77.9797 45.682 77.1204 46.4155C77.032 46.4916 76.9309 46.5508 76.8214 46.5909C76.5623 46.6861 76.0463 46.9545 75.2713 47.3963C74.1887 48.0114 72.864 48.5948 71.297 49.1507C71.2486 49.1676 71.1959 49.1401 71.1791 49.0915C71.1707 49.0661 71.1728 49.0386 71.1875 49.0154Z" fill="#697A72"/>
<path d="M60.6592 60.7508C60.6571 60.8163 60.7076 60.8712 60.7729 60.8734C60.7919 60.8734 60.8129 60.8691 60.8298 60.8607C61.5774 60.4696 62.0555 59.7341 63.0686 58.5884C63.5761 58.0135 64.0247 57.4026 64.4123 56.7579C65.379 55.1451 65.9476 54.1623 66.1203 53.8114C66.3941 53.2512 66.8427 52.0549 67.4682 50.2223C67.9463 48.8187 68.3086 47.2525 68.5508 45.5213C68.5803 45.3078 68.5887 45.1514 68.5739 45.0521C68.5613 44.9527 68.4708 44.8851 68.3739 44.8978C68.2959 44.9083 68.2349 44.9675 68.2201 45.0436C67.7799 47.466 67.1713 49.7171 66.3962 51.7949C65.9603 52.9595 65.5517 53.8621 65.1705 54.5026C64.4291 55.7454 63.4182 57.392 62.1461 58.8146C61.6764 59.3409 61.1962 59.9497 60.7055 60.6408C60.6781 60.681 60.6613 60.7191 60.6592 60.7508Z" fill="#697A72"/>
<path d="M36.1186 62.1121C36.1923 62.1396 36.2703 62.0825 36.2892 61.9853C36.2955 61.9557 36.2955 61.924 36.2892 61.8923C36.2344 61.5858 36.0638 61.256 35.7795 60.9073C35.095 60.0702 34.2042 59.1402 33.1069 58.1171C31.6642 56.7707 30.5142 55.2129 29.6065 53.7819C29.0168 52.8561 28.7409 52.074 28.168 50.903C27.9216 50.3999 27.5825 49.4043 27.1529 47.9184C27.1318 47.8486 27.0581 47.8063 26.9886 47.8275C26.9781 47.8296 26.9675 47.8338 26.9591 47.8402L26.8728 47.8888C26.7801 47.9437 26.7338 48.0515 26.7569 48.1572C27.0307 49.3684 27.2603 50.1949 27.4435 50.6366C28.1912 52.4439 29.2948 54.3124 30.7564 56.2401C31.3693 57.0497 32.1044 57.8593 32.9637 58.6646C33.884 59.5291 34.8823 60.6388 35.9585 61.9937C36.0049 62.0508 36.0575 62.091 36.1165 62.1121H36.1186Z" fill="#697A72"/>
<path d="M75.642 66.3269C75.5514 66.1155 75.3724 65.9337 75.1049 65.7816C72.7103 64.4203 70.164 63.541 67.464 63.1457C66.4256 62.9935 65.5958 62.7251 64.5344 62.6532C64.4522 62.6469 64.3722 62.6342 64.2943 62.6152C63.6603 62.4503 63.0306 62.3742 62.4072 62.389C62.325 62.3911 62.2555 62.4545 62.245 62.537V62.5412C62.2366 62.6152 62.2871 62.6807 62.3587 62.6892C62.3629 62.6892 62.3672 62.6892 62.3693 62.6892C62.8579 62.7082 63.3528 62.7631 63.852 62.854C66.9774 63.4142 68.6981 63.7291 69.0141 63.8031C70.5979 64.1688 71.8826 64.5746 72.8704 65.0206C74.0772 65.566 74.7511 65.8809 74.8922 65.9676C75.1555 66.1261 75.3514 66.2804 75.4756 66.4305C75.5114 66.4727 75.5725 66.477 75.6146 66.441C75.6483 66.4136 75.6588 66.3671 75.642 66.3269Z" fill="#697A72"/>
<path d="M22.0372 75.6252C21.9909 75.5956 21.9298 75.6082 21.9003 75.6526C21.8814 75.6822 21.8793 75.7203 21.894 75.752C22.2205 76.3713 22.7049 76.7983 23.3957 77.0963C25.5945 78.0433 27.6879 78.7493 29.6761 79.2143C30.8913 79.4996 32.9448 79.7533 35.8365 79.9773C39.6844 80.2775 42.753 80.4128 45.0381 80.3832C47.854 80.3472 50.0549 80.2775 51.6408 80.176C52.3189 80.1316 53.0308 80.1042 53.7743 80.0915C55.3054 80.0661 56.9629 79.8209 58.2961 79.7216C60.4717 79.5588 62.1524 79.3834 63.3402 79.1931C68.4497 78.3751 71.0697 77.9545 71.2024 77.9334C72.5987 77.7156 73.5107 77.2823 74.8312 76.8828C75.2335 76.7602 75.6568 76.4897 76.1012 76.0712C76.1665 76.0099 76.1854 75.9147 76.1496 75.8323V75.8281C76.1201 75.7689 76.0527 75.7435 75.9938 75.771C75.9832 75.7752 75.9727 75.7816 75.9643 75.79C75.5473 76.1768 75.086 76.4453 74.5785 76.5911C73.557 76.8892 72.6071 77.3204 71.7099 77.4578C68.8014 77.8995 66.3962 78.2758 64.4944 78.5823C62.7484 78.8655 61.2994 79.0494 60.1474 79.1339C57.7843 79.3094 56.4069 79.5102 54.3113 79.5947C50.8594 79.7321 49.0734 79.804 48.9555 79.8082C43.3321 79.9985 37.7341 79.7554 32.1592 79.0769C31.0177 78.9395 29.8783 78.7788 28.7389 78.4132C26.1147 77.5719 24.0085 77.0139 22.0372 75.6252Z" fill="#697A72"/>
</g>
<defs>
<clipPath id="clip0_1036_3298">
<rect width="99" height="62" fill="white" transform="matrix(-1 0 0 1 102 21)"/>
</clipPath>
</defs>
</svg>
