<svg xmlns="http://www.w3.org/2000/svg" xmlns:xlink="http://www.w3.org/1999/xlink" width="2048" zoomAndPan="magnify" viewBox="0 0 1536 1535.999932" height="2048" preserveAspectRatio="xMidYMid meet" version="1.0"><path fill="#5f6738" d="M 485.820312 896.679688 C 486.007812 896.898438 485.945312 897.210938 485.757812 897.398438 C 485.695312 897.460938 485.601562 897.492188 485.476562 897.492188 C 438.289062 903.082031 391.941406 912.476562 346.4375 925.746094 C 324.660156 932.082031 308.488281 943.289062 287.492188 958.367188 C 286.527344 959.054688 285.3125 959.304688 284.160156 959.054688 C 247.550781 951.25 203.285156 934.734375 199.085938 990.742188 C 198.03125 1005.039062 207.796875 1011.28125 219.992188 1015.214844 C 221.203125 1015.621094 221.886719 1016.933594 221.484375 1018.183594 C 221.453125 1018.308594 221.390625 1018.429688 221.328125 1018.527344 C 220.394531 1020.242188 219.058594 1022.488281 217.285156 1025.207031 C 204.5625 1044.84375 202.851562 1064.636719 212.152344 1084.644531 C 212.867188 1086.175781 213.894531 1087.515625 215.136719 1088.609375 L 244.84375 1114.363281 C 245.03125 1114.523438 245.21875 1114.648438 245.433594 1114.738281 C 288.859375 1136.3125 312.3125 1147.925781 315.828125 1149.578125 C 331.039062 1156.667969 358.566406 1167 398.476562 1180.609375 C 399.9375 1181.109375 401.335938 1181.765625 402.675781 1182.609375 C 420.464844 1193.878906 436.050781 1201.152344 449.394531 1204.492188 C 474.0625 1210.671875 502.023438 1215.292969 533.289062 1218.355469 C 537.640625 1218.761719 550.957031 1219.601562 573.226562 1220.851562 C 589.496094 1221.757812 602.808594 1222.195312 613.167969 1222.097656 C 668.875 1221.632812 724.710938 1224.160156 779.582031 1221.414062 C 827.328125 1219.007812 852.585938 1217.730469 855.292969 1217.636719 C 875.980469 1216.855469 893.804688 1210.394531 908.765625 1198.25 C 909.726562 1197.46875 910.910156 1197 912.15625 1196.90625 C 927.957031 1195.90625 937.972656 1194.910156 942.171875 1193.941406 C 1036.015625 1172.371094 1091.417969 1159.101562 1108.335938 1154.136719 C 1137.296875 1145.613281 1152.074219 1131.847656 1176.957031 1110.464844 C 1187.378906 1101.535156 1194.53125 1093.636719 1198.480469 1086.800781 C 1208.46875 1069.410156 1210.613281 1052.554688 1204.984375 1036.226562 C 1195.621094 1009.160156 1169.710938 985.839844 1142.894531 970.386719 C 1140.191406 968.824219 1121.246094 959.554688 1086.003906 942.542969 C 1079.316406 939.324219 1070.078125 935.890625 1058.257812 932.238281 C 1032.660156 924.277344 1003.105469 918.910156 969.542969 916.066406 C 962.171875 915.441406 949.730469 912.726562 932.21875 907.949219 C 929.511719 907.234375 926.617188 907.984375 924.628906 909.980469 L 924.441406 910.167969 C 923.320312 911.289062 923.292969 913.132812 924.441406 914.289062 C 924.78125 914.632812 925.1875 914.882812 925.652344 915.003906 C 935.824219 918.035156 942.949219 920.15625 947.054688 921.3125 C 949.824219 922.09375 970.476562 925.089844 1009.019531 930.238281 C 1026.871094 932.644531 1046.25 937.453125 1067.121094 944.695312 C 1088.242188 952.0625 1110.515625 964.738281 1132.816406 975.882812 C 1164.421875 991.679688 1211.859375 1031.917969 1193.847656 1072.347656 C 1189.648438 1081.773438 1184.609375 1088.890625 1178.761719 1093.730469 C 1152.601562 1115.394531 1133.316406 1134.8125 1099.070312 1143.242188 C 1039.5 1157.945312 994.304688 1168.808594 963.511719 1175.867188 C 950.195312 1178.925781 935.453125 1181.828125 921.671875 1183.390625 C 904.472656 1185.324219 874.671875 1187.480469 850.78125 1190.257812 C 806.582031 1195.40625 761.914062 1197.46875 716.75 1196.4375 C 675.378906 1195.46875 654.660156 1195.003906 654.628906 1195.003906 C 574.566406 1193.160156 511.917969 1190.257812 440.933594 1179.207031 C 427.496094 1177.113281 414.089844 1173.679688 400.746094 1168.933594 C 357.261719 1153.417969 329.046875 1142.460938 316.136719 1136.0625 C 280.707031 1118.550781 260.957031 1108.839844 256.882812 1106.9375 C 253.335938 1105.34375 250.039062 1103.253906 247.050781 1100.722656 L 224.128906 1081.367188 C 223.445312 1080.773438 222.882812 1080.054688 222.480469 1079.246094 C 212.214844 1058.140625 219.898438 1040.660156 233.179688 1021.992188 C 233.707031 1021.242188 234.578125 1020.835938 235.480469 1020.898438 C 275.765625 1023.832031 304.847656 1024.644531 322.703125 1023.332031 C 395.117188 1017.996094 468.929688 1019.929688 544.171875 1029.171875 C 552.292969 1030.171875 556.773438 1030.792969 557.613281 1031.074219 C 558.453125 1031.355469 559.105469 1032.042969 559.292969 1032.917969 C 563.492188 1052.179688 581.5 1060.859375 599.695312 1064.449219 C 636.589844 1071.753906 670.960938 1076.03125 702.8125 1077.246094 C 706.234375 1077.371094 709.4375 1078.996094 711.585938 1081.679688 C 719.703125 1091.824219 727.820312 1096.789062 741.539062 1105.8125 C 754.636719 1114.429688 770.996094 1119.828125 790.5625 1121.984375 C 836.878906 1127.101562 883.257812 1126.320312 927.988281 1114.429688 C 936.976562 1112.023438 944.660156 1109.058594 951.097656 1105.5 C 959.4375 1100.878906 972.964844 1096.414062 979.996094 1089.609375 C 996.449219 1073.6875 1011.195312 1046.183594 981.304688 1032.886719 C 965.097656 1025.675781 951.816406 1021.085938 941.425781 1019.085938 C 918.625 1014.65625 901.515625 1012.34375 890.164062 1012.15625 C 874.082031 1011.9375 863.007812 1011.75 856.878906 1011.59375 C 856.070312 1011.59375 855.417969 1010.90625 855.449219 1010.097656 C 855.449219 1009.878906 855.511719 1009.660156 855.605469 1009.472656 C 872.898438 974.976562 880.800781 956.371094 896.601562 933.175781 C 898.03125 931.082031 899.710938 929.148438 901.609375 927.429688 C 920.117188 910.667969 937.039062 891.875 952.4375 871.050781 C 953.835938 869.117188 956.355469 868.273438 958.65625 868.960938 C 982.792969 876.265625 1001.957031 881.445312 1016.171875 884.472656 C 1043.980469 890.40625 1062.519531 899.179688 1091.945312 908.015625 C 1100.59375 910.605469 1111.699219 914.507812 1125.226562 919.71875 C 1179.757812 940.636719 1231.484375 961.460938 1280.414062 982.1875 C 1318.519531 998.296875 1343.839844 1011.5 1394.011719 1036.101562 C 1411.464844 1044.625 1435.320312 1057.859375 1465.648438 1075.75 C 1477.277344 1082.617188 1487.703125 1088.578125 1498.707031 1084.707031 C 1501.914062 1083.554688 1503.816406 1079.902344 1503.257812 1075.933594 C 1502.886719 1073.28125 1501.425781 1071.535156 1498.871094 1070.660156 C 1490.40625 1067.757812 1484.25 1065.074219 1480.421875 1062.542969 C 1456.875 1047.121094 1434.542969 1033.882812 1413.453125 1022.835938 C 1321.878906 974.789062 1230.585938 938.109375 1127.59375 900.242188 C 1116.082031 896.027344 1102.023438 891.40625 1085.414062 886.410156 C 1064.261719 880.074219 1049.238281 872.890625 1028.957031 868.773438 C 1014.710938 865.867188 996.761719 861.40625 975.113281 855.316406 C 973.773438 854.972656 972.964844 853.570312 973.308594 852.226562 C 973.496094 851.539062 973.960938 850.976562 974.582031 850.632812 C 984.257812 845.359375 991.476562 840.207031 996.203125 835.246094 C 996.949219 834.464844 997.851562 833.871094 998.847656 833.527344 C 1002.546875 832.214844 1009.515625 826.597656 1014.523438 824.597656 C 1045.132812 812.390625 1068.835938 800.527344 1100.25 789.226562 C 1125.507812 780.144531 1148.808594 770.589844 1170.175781 760.570312 C 1183.894531 754.140625 1198.171875 744.804688 1212.976562 732.566406 C 1218.453125 728.039062 1224.425781 720.953125 1230.894531 711.308594 C 1243.988281 691.734375 1252.355469 678.183594 1252.292969 655.582031 C 1252.265625 638.851562 1249.121094 620.867188 1242.933594 601.605469 C 1233.132812 571.230469 1201.839844 542.355469 1172.570312 531.957031 C 1160.441406 527.652344 1151.542969 524.808594 1145.851562 523.46875 C 1126.878906 518.941406 1107.0625 522.03125 1079.535156 524.621094 C 1069.207031 525.621094 1063.734375 527.835938 1054.152344 530.554688 C 1053.4375 530.742188 1052.722656 530.335938 1052.503906 529.617188 C 1052.503906 529.523438 1052.472656 529.398438 1052.472656 529.304688 C 1052.347656 498.898438 1052.753906 481.761719 1045.164062 455.503906 C 1036.359375 425.191406 1012.875 401.871094 987.058594 384.609375 C 929.542969 346.148438 862.105469 330.726562 791.433594 320.296875 C 753.140625 314.648438 719.207031 312.402344 689.6875 313.585938 C 680.667969 313.929688 673.355469 314.648438 667.789062 315.742188 C 658.921875 317.457031 651.644531 318.519531 646.011719 318.863281 C 636.308594 319.488281 629.589844 320.238281 625.890625 321.109375 C 608.4375 325.199219 600.601562 325.855469 582.839844 330.820312 C 576.648438 332.566406 571.453125 333.753906 567.316406 334.347656 C 554.3125 336.21875 543.242188 340.902344 531.671875 343.371094 C 524.050781 345.023438 517.265625 346.867188 511.390625 348.894531 C 490.175781 356.230469 475.214844 361.882812 466.535156 365.816406 C 439.316406 378.148438 425.414062 384.421875 424.882812 384.703125 C 419.9375 387.261719 410.855469 393.007812 397.636719 401.9375 C 390.917969 406.460938 383.328125 413.921875 374.835938 424.289062 C 356.203125 447.015625 343.015625 460.25 339.53125 485.070312 C 339.4375 485.664062 339.40625 492.40625 339.4375 505.296875 C 339.4375 510.792969 340.058594 517.566406 341.210938 525.621094 C 342.796875 536.390625 342.578125 551.6875 340.585938 571.574219 C 338.816406 588.992188 340.679688 608.195312 346.125 629.171875 C 354.210938 660.171875 358.378906 676.15625 358.597656 677.15625 C 360.746094 685.863281 363.792969 694.761719 367.773438 703.910156 C 371.972656 713.554688 375.207031 727.480469 380.683594 739.558594 C 389.890625 759.789062 397.605469 775.804688 403.824219 787.636719 C 404.011719 787.949219 403.886719 788.351562 403.578125 788.539062 C 403.453125 788.601562 403.296875 788.636719 403.140625 788.601562 C 366.34375 783.640625 327.554688 780.300781 286.804688 778.644531 C 265.496094 777.769531 239.554688 779.144531 215.042969 779.238281 C 191.375 779.332031 174.421875 779.988281 164.15625 781.234375 C 140.203125 784.171875 91.183594 785.699219 59.953125 792.757812 C 56.71875 793.503906 53.542969 795.003906 50.464844 797.28125 C 47.417969 799.5625 46.484375 803.652344 48.441406 806.398438 C 48.660156 806.710938 48.910156 806.992188 49.1875 807.273438 C 53.824219 811.546875 59.703125 813.109375 66.855469 811.953125 C 93.046875 807.773438 130.4375 803.339844 179.054688 798.65625 C 205.652344 796.128906 232.558594 797.59375 259.371094 795.847656 C 267.488281 795.316406 276.386719 795.285156 285.996094 795.753906 C 340.523438 798.40625 376.390625 800.28125 412.660156 804.835938 C 413.71875 804.960938 414.679688 805.585938 415.242188 806.523438 C 435.023438 838.925781 462.585938 866.242188 485.820312 896.679688 Z M 1041.117188 483.414062 C 1042.394531 492.9375 1042.644531 507.359375 1041.867188 526.714844 C 1041.769531 528.898438 1041.367188 531.085938 1040.621094 533.175781 C 1036.265625 545.570312 1028.738281 559.492188 1018.007812 574.882812 C 1013.496094 581.347656 1006.1875 587.933594 996.046875 594.675781 C 983.449219 603.074219 962.484375 623.800781 941.082031 631.886719 C 938.46875 632.886719 932.25 636.226562 922.386719 641.910156 C 912.496094 647.621094 902.292969 651.773438 891.75 654.425781 C 868.390625 660.296875 851.25 664.855469 840.363281 668.070312 C 822.136719 673.503906 801.167969 673.160156 781.726562 677.5 C 763.625 681.558594 747.542969 683.460938 733.453125 683.210938 C 714.757812 682.867188 701.601562 683.398438 694.011719 684.804688 C 691.988281 685.175781 676.964844 685.429688 649 685.550781 C 614.007812 685.679688 572.105469 675.03125 543.832031 671.128906 C 516.707031 667.382812 494.683594 660.703125 473.253906 651.304688 C 464.230469 647.371094 447.589844 638.289062 423.359375 624.085938 C 422.207031 623.398438 421.183594 622.585938 420.21875 621.679688 C 416.421875 617.933594 407 610.285156 391.941406 598.765625 C 361.117188 575.101562 349.390625 530.460938 351.132812 492.90625 C 352.3125 467.367188 366.933594 453.382812 385.878906 431 C 409.640625 402.933594 435.800781 393.320312 474.527344 375.460938 C 481.589844 372.214844 495.527344 366.84375 516.304688 359.320312 C 520.128906 357.949219 525.667969 356.417969 532.945312 354.703125 C 548 351.175781 560.722656 346.710938 574.84375 344.398438 C 575.933594 344.246094 584.953125 341.808594 601.90625 337.125 C 616.773438 333.035156 637.832031 329.820312 665.082031 327.449219 C 666.792969 327.292969 668.472656 327.011719 670.121094 326.605469 C 678.550781 324.574219 684.242188 323.484375 687.199219 323.265625 C 704.742188 322.078125 726.515625 322.859375 752.550781 325.574219 C 815.480469 332.195312 871.746094 344.117188 921.363281 361.351562 C 930.570312 364.566406 942.078125 368.875 950.914062 374.121094 C 970.414062 385.640625 986.589844 396.753906 999.4375 407.398438 C 1023.046875 426.972656 1036.917969 452.289062 1041.117188 483.414062 Z M 989.640625 818.730469 C 993.777344 810.425781 1000.339844 795.566406 1009.265625 774.179688 C 1016.453125 756.949219 1019.25 738.964844 1024.199219 716.238281 C 1024.914062 712.960938 1027.371094 703.222656 1031.539062 687.019531 C 1037.601562 663.449219 1039.128906 633.386719 1042.175781 615.9375 C 1045.628906 596.207031 1046.53125 572.136719 1049.640625 549.941406 C 1050.078125 546.851562 1049.082031 544.351562 1049.207031 542.761719 C 1049.269531 541.792969 1050.078125 541.074219 1051.042969 541.105469 C 1051.105469 541.105469 1051.164062 541.105469 1051.226562 541.105469 C 1062.519531 542.851562 1074.027344 537.421875 1085.535156 537.921875 C 1087.0625 537.984375 1096.332031 537.359375 1113.40625 536.082031 C 1136.207031 534.363281 1152.570312 539.605469 1174.128906 548.847656 C 1185.667969 553.8125 1197.269531 562.117188 1208.933594 573.757812 C 1230.085938 594.957031 1237.273438 631.203125 1236.679688 658.984375 C 1236.308594 676.40625 1227.785156 687.582031 1216.960938 703.628906 C 1203.957031 722.859375 1180.503906 738.808594 1161.371094 747.675781 C 1148.152344 753.765625 1124.917969 763.066406 1091.601562 775.585938 C 1059.5 787.667969 1034.804688 799.6875 1005.722656 811.269531 C 1001.054688 813.140625 995.113281 817.386719 990.574219 819.632812 C 990.230469 819.820312 989.824219 819.695312 989.640625 819.386719 C 989.515625 819.167969 989.515625 818.917969 989.640625 818.699219 Z M 353.214844 569.421875 C 353.246094 569.109375 353.527344 568.890625 353.808594 568.890625 C 353.992188 568.890625 354.148438 569.015625 354.242188 569.203125 C 361.988281 586.027344 372.875 599.390625 386.933594 609.253906 C 400.433594 618.714844 408.769531 627.457031 421.367188 634.824219 C 449.800781 651.460938 480.1875 664.511719 512.539062 673.90625 C 539.382812 681.710938 573.570312 684.867188 596.992188 689.828125 C 613.820312 693.355469 630.179688 695.074219 646.046875 694.917969 C 670.960938 694.699219 686.078125 694.292969 691.460938 693.730469 C 720.386719 690.640625 753.546875 693.636719 782.753906 687.300781 C 800.300781 683.460938 824.902344 683.460938 839.335938 679.027344 C 856.539062 673.75 873.148438 669.351562 889.167969 665.886719 C 901.050781 663.292969 914.300781 658.671875 923.851562 653.148438 C 932.746094 647.996094 945.3125 641.722656 961.550781 634.355469 C 963.976562 633.261719 966.277344 631.886719 968.394531 630.265625 C 1000.898438 605.632812 1017.230469 593.238281 1017.382812 593.117188 C 1022.453125 588.558594 1026.46875 583.15625 1029.484375 576.882812 C 1030.574219 574.601562 1033.3125 573.636719 1035.582031 574.757812 C 1036.578125 575.226562 1037.355469 576.039062 1037.789062 577.039062 C 1037.789062 577.101562 1037.695312 577.914062 1037.480469 579.441406 C 1035.738281 591.273438 1031.941406 617.746094 1026.125 658.890625 C 1024.882812 667.664062 1022.890625 676.78125 1020.152344 686.238281 C 1013.09375 710.683594 1011.257812 721.953125 1003.480469 753.234375 C 999.65625 768.75 992.933594 779.769531 986.839844 795.441406 C 979.839844 813.484375 966.589844 832.371094 956.261719 847.949219 C 955.578125 849.011719 954.675781 849.914062 953.648438 850.664062 C 949.140625 853.914062 948.453125 858.25 944.566406 862.496094 C 940.925781 866.460938 933.773438 874.859375 923.164062 887.722656 C 918.875 892.933594 910.195312 901.582031 897.128906 913.695312 C 888.328125 921.90625 882.667969 929.210938 877.160156 938.671875 C 867.921875 954.589844 857.78125 974.257812 846.675781 997.671875 C 844.34375 1002.574219 841.453125 1006.757812 838 1010.253906 C 837.1875 1011.066406 836.101562 1011.5625 834.949219 1011.660156 C 814.296875 1012.875 797.375 1015.214844 784.15625 1018.648438 C 780.203125 1019.679688 768.757812 1024.082031 749.78125 1031.855469 C 743.28125 1034.539062 738.492188 1036.101562 735.410156 1036.507812 C 730.996094 1037.132812 726.484375 1038.160156 721.914062 1039.628906 C 720.109375 1040.222656 718.148438 1040.160156 716.375 1039.472656 C 686.484375 1027.953125 653.449219 1019.742188 617.304688 1014.84375 C 589.214844 1011.035156 574.75 1009.097656 573.910156 1009.066406 C 562.652344 1008.503906 559.445312 996.078125 556.804688 986.683594 C 553.628906 975.289062 550.832031 969.261719 545.917969 955.277344 C 541.8125 943.664062 536.582031 935.515625 528.746094 926.621094 C 509.957031 905.328125 497.640625 890.875 491.824219 883.289062 C 483.582031 872.519531 474 861.21875 463.144531 849.417969 C 439.535156 823.785156 419.472656 793.753906 403.015625 759.320312 C 393.46875 739.3125 385.253906 719.332031 378.378906 699.445312 C 369.609375 674 366.964844 658.078125 359.03125 629.421875 C 353.898438 610.972656 351.972656 590.960938 353.214844 569.421875 Z M 547.503906 1004.976562 C 495.277344 998.859375 465.726562 995.363281 458.914062 994.457031 C 409.394531 987.996094 354.335938 975.632812 303.355469 963.363281 C 302.949219 963.269531 302.671875 962.863281 302.761719 962.425781 C 302.792969 962.238281 302.886719 962.082031 303.042969 961.988281 C 330.757812 940.136719 355.457031 934.425781 394.339844 925.089844 C 411.507812 921 429.890625 917.097656 449.457031 913.382812 C 464.324219 910.574219 478.820312 910.355469 492.414062 906.828125 C 493.660156 906.484375 494.996094 906.890625 495.835938 907.886719 C 510.828125 925.746094 525.636719 939.699219 531.949219 956.933594 C 537.484375 972.074219 542.867188 987.839844 548.09375 1004.257812 C 548.1875 1004.539062 548.03125 1004.882812 547.75 1004.945312 C 547.65625 1004.945312 547.597656 1004.976562 547.503906 1004.945312 Z M 989.917969 1053.394531 C 988.957031 1052.179688 987.929688 1051.492188 986.839844 1051.335938 C 985.84375 1051.179688 984.941406 1051.835938 984.722656 1052.804688 L 983.820312 1057.363281 C 983.726562 1057.859375 983.542969 1058.328125 983.261719 1058.734375 C 971.847656 1074.71875 952.15625 1089.109375 932.125 1093.511719 C 924.75 1095.136719 918.625 1096.320312 913.679688 1097.039062 C 874.546875 1102.816406 832.992188 1102.816406 788.976562 1097.039062 C 771.277344 1094.730469 751.273438 1084.988281 737.558594 1075.84375 C 724.523438 1067.164062 708.910156 1061.167969 696.125 1062.417969 C 695.007812 1062.511719 693.886719 1062.324219 692.859375 1061.855469 C 682.222656 1056.925781 672.515625 1053.085938 663.714844 1050.367188 C 615.125 1035.351562 577.925781 1024.019531 533.257812 1019.617188 C 474.1875 1013.8125 404.417969 1009.378906 341.304688 1013.46875 C 306.714844 1015.683594 274.050781 1015.28125 243.351562 1012.25 C 230.441406 1010.972656 220.023438 1007.222656 212.089844 1001.074219 C 211.3125 1000.480469 210.628906 999.859375 209.972656 999.140625 C 208.699219 997.703125 208.265625 994.113281 208.730469 988.335938 C 210.441406 966.640625 221.609375 957.273438 242.230469 960.273438 C 257.410156 962.488281 272.371094 966.734375 285.0625 969.417969 C 365.71875 986.371094 415.242188 998.296875 482.023438 1005.195312 C 508.1875 1007.910156 554.46875 1013.875 620.910156 1023.082031 C 649.0625 1026.984375 672.703125 1032.136719 691.863281 1038.503906 C 697.527344 1040.378906 704.523438 1046.058594 710.777344 1047.308594 C 716.25 1048.402344 723.621094 1048.371094 732.921875 1047.214844 C 739.859375 1046.339844 746.203125 1040.972656 753.328125 1039.222656 C 758.398438 1037.972656 763.5625 1036.132812 768.757812 1033.664062 C 793.300781 1022.054688 819.335938 1020.273438 848.976562 1020.023438 C 897.128906 1019.585938 941.644531 1022.117188 982.953125 1042.625 C 986.839844 1044.5625 989.515625 1047.964844 990.976562 1052.835938 C 991.039062 1053.175781 990.820312 1053.492188 990.511719 1053.582031 C 990.292969 1053.613281 990.074219 1053.582031 989.917969 1053.394531 Z M 676 1066.007812 C 655.59375 1063.605469 634.226562 1059.359375 607.660156 1055.238281 C 593.007812 1052.957031 581.160156 1046.808594 572.105469 1036.820312 C 571.484375 1036.164062 571.515625 1035.101562 572.199219 1034.476562 C 572.574219 1034.132812 573.101562 1033.980469 573.632812 1034.070312 C 576.710938 1034.632812 579.386719 1035.195312 581.65625 1035.789062 C 605.859375 1041.8125 633.601562 1049.898438 664.894531 1060.015625 C 672.515625 1062.480469 676.527344 1063.949219 676.871094 1064.386719 C 677.214844 1064.820312 677.152344 1065.445312 676.714844 1065.789062 C 676.496094 1065.945312 676.25 1066.039062 676 1066.007812 Z M 991.070312 1056.332031 C 992.035156 1058.484375 991.941406 1060.421875 990.726562 1062.105469 C 983.136719 1072.78125 977.757812 1079.585938 974.613281 1082.523438 C 973.214844 1083.863281 971.691406 1085.050781 970.105469 1086.113281 C 969.480469 1086.519531 960.089844 1091.234375 941.921875 1100.222656 C 931.191406 1105.53125 917.535156 1109.496094 900.957031 1112.148438 C 859.304688 1118.828125 816.101562 1117.957031 771.277344 1109.496094 C 767.730469 1108.839844 764.277344 1107.683594 761.011719 1106.0625 C 746.734375 1099.070312 733.484375 1090.171875 721.195312 1079.402344 C 720.761719 1079.027344 720.667969 1078.339844 721.011719 1077.871094 L 721.011719 1077.808594 C 721.445312 1077.214844 722.285156 1077.027344 722.90625 1077.402344 C 737.058594 1085.800781 747.296875 1091.386719 753.546875 1094.167969 C 765.398438 1099.414062 773.453125 1102.285156 777.777344 1102.78125 C 814.546875 1107 846.054688 1108.558594 872.277344 1107.496094 C 887.207031 1106.871094 904.347656 1105.03125 923.695312 1101.941406 C 949.386719 1097.820312 967.429688 1087.269531 985.035156 1067.164062 C 989.046875 1062.542969 990.882812 1058.984375 990.542969 1056.488281 C 990.542969 1056.332031 990.632812 1056.207031 990.789062 1056.175781 C 990.914062 1056.175781 991.007812 1056.238281 991.070312 1056.332031 Z M 443.640625 1191.914062 C 447.464844 1192.191406 464.949219 1194.285156 496.085938 1198.25 C 511.605469 1200.214844 529.152344 1201.652344 548.652344 1202.554688 C 595.53125 1204.679688 619.949219 1205.773438 621.84375 1205.804688 C 676.3125 1206.960938 708.753906 1207.738281 719.144531 1208.175781 C 735.226562 1208.863281 752.863281 1208.863281 772.054688 1208.144531 C 800.828125 1207.082031 818.433594 1206.207031 824.902344 1205.492188 C 842.726562 1203.585938 865.089844 1201.308594 891.996094 1198.714844 C 892.433594 1198.683594 892.808594 1199 892.839844 1199.4375 C 892.839844 1199.746094 892.710938 1200.058594 892.433594 1200.183594 C 883.257812 1205.335938 872.648438 1208.238281 860.613281 1208.832031 C 800.484375 1211.890625 753.050781 1213.265625 718.367188 1212.953125 C 662.59375 1212.453125 627.445312 1212.328125 612.886719 1212.546875 C 586.292969 1212.953125 550.613281 1210.800781 524.824219 1208.175781 C 501.902344 1205.835938 478.417969 1201.933594 454.402344 1196.46875 C 453.253906 1196.21875 449.613281 1195.003906 443.453125 1192.785156 C 443.207031 1192.722656 443.113281 1192.472656 443.175781 1192.222656 C 443.238281 1192.035156 443.421875 1191.914062 443.640625 1191.914062 Z M 443.640625 1191.914062 " fill-opacity="1" fill-rule="nonzero"/><path fill="#5f6738" d="M 687.511719 335.191406 C 681.695312 337.53125 674.605469 339.03125 666.234375 339.6875 C 630.679688 342.527344 597.710938 346.460938 567.257812 351.421875 C 559.636719 352.640625 551.207031 354.828125 541.96875 357.917969 C 514.191406 367.25 489.835938 376.617188 468.902344 386.011719 C 464.703125 387.886719 454.625 393.414062 438.667969 402.589844 C 422.675781 411.832031 405.695312 430.6875 387.09375 449.449219 C 382.242188 454.320312 377.667969 460.84375 373.40625 468.992188 C 360.15625 494.308594 358.972656 521.5 369.890625 550.625 C 371.539062 555.027344 374 559.742188 377.203125 564.707031 C 387.839844 581.128906 400.625 595.113281 416.175781 604.257812 C 427.84375 611.128906 434.375 615.808594 448.1875 624.085938 C 450.082031 625.207031 452.164062 626.019531 454.3125 626.425781 C 462.304688 627.957031 471.078125 632.480469 480.628906 640.003906 C 483.613281 642.347656 490.550781 645 501.4375 647.964844 C 504.671875 648.871094 507.847656 650.027344 510.894531 651.492188 C 527.441406 659.453125 543.148438 664.855469 557.988281 667.664062 C 587.382812 673.253906 612.890625 675.65625 634.539062 674.875 C 652.644531 674.21875 677.027344 673.71875 707.699219 673.375 C 735.570312 673.066406 769.414062 669.472656 809.195312 662.605469 C 822.355469 660.328125 834.734375 657.332031 846.304688 653.613281 C 848.109375 653.023438 859.527344 650.246094 880.554688 645.25 C 882.640625 644.75 884.660156 644.0625 886.617188 643.191406 C 908.921875 633.417969 922.671875 627.738281 927.804688 626.175781 C 942.269531 621.835938 964.789062 608.316406 974.183594 598.859375 C 977.480469 595.550781 982.765625 591.742188 990.046875 587.464844 C 1005.070312 578.628906 1020.746094 554.652344 1026.222656 540.136719 C 1031.914062 524.996094 1035.304688 511.976562 1036.394531 501.019531 C 1041.089844 452.507812 1002.675781 411.832031 965.222656 387.355469 C 950.417969 377.679688 934.585938 373.808594 917.445312 366.4375 C 913.683594 364.847656 906.992188 362.816406 897.382812 360.351562 C 877.847656 355.390625 862.359375 351.550781 850.941406 348.769531 C 831.996094 344.179688 817.75 341.246094 808.171875 339.96875 C 803.320312 339.3125 788.855469 337.28125 764.808594 333.847656 C 747.980469 331.445312 730.21875 331.226562 711.527344 333.253906 C 702.410156 334.222656 695.601562 334.660156 691.089844 334.566406 C 689.84375 334.566406 688.632812 334.753906 687.511719 335.191406 Z M 746.113281 661.730469 C 743.160156 661.949219 740.328125 662.199219 737.65625 662.417969 C 692.148438 666.226562 652.796875 667.601562 619.546875 666.507812 C 601.691406 665.917969 579.140625 662.730469 564.394531 659.765625 C 552.980469 657.457031 539.074219 652.992188 522.652344 646.375 C 509.523438 641.066406 503.023438 639.722656 488.527344 635.449219 C 487.222656 635.042969 485.949219 634.480469 484.796875 633.730469 L 470.738281 624.644531 C 470.023438 624.175781 469.210938 623.800781 468.371094 623.550781 L 455.246094 619.589844 C 452.507812 618.746094 449.925781 617.589844 447.5625 616.089844 C 433.75 607.351562 426.191406 602.605469 424.855469 601.855469 C 408.183594 592.367188 396.738281 579.941406 385.632812 563.800781 C 379.9375 555.558594 376.363281 547.628906 374.835938 539.980469 C 372.351562 527.464844 371.105469 518.722656 371.074219 513.789062 C 371.011719 505.890625 374.03125 494.214844 380.15625 478.761719 C 382.488281 472.832031 386.9375 469.867188 388.617188 464.339844 C 389.238281 462.15625 390.390625 460.15625 391.945312 458.5 C 392.382812 458.003906 402.085938 448.449219 421.058594 429.875 C 430.175781 420.976562 438.355469 414.359375 445.636719 410.082031 C 461.964844 400.46875 471.109375 395.191406 473.132812 394.285156 C 494.5625 384.578125 521.5625 374.429688 554.191406 363.816406 C 573.011719 357.667969 594.257812 357.042969 614.164062 353.390625 C 618.363281 352.609375 630.246094 351.300781 649.78125 349.394531 C 663.28125 348.050781 675.070312 346.054688 685.179688 343.371094 C 686.640625 342.996094 688.132812 342.808594 689.628906 342.777344 C 703.128906 342.621094 715.195312 340.027344 727.636719 339.96875 C 741.574219 339.871094 749.101562 339.902344 750.25 339.996094 C 758.804688 340.871094 775.851562 342.996094 801.359375 346.367188 C 815.699219 348.269531 832.496094 351.640625 851.75 356.542969 C 882.046875 364.253906 898.285156 367.25 922.078125 376.773438 C 943.855469 385.515625 956.453125 390.914062 959.871094 393.007812 C 998.351562 416.511719 1029.984375 452.976562 1028.957031 499.335938 C 1028.929688 501.148438 1028.648438 502.988281 1028.183594 504.769531 C 1024.167969 519.90625 1020.25 531.738281 1016.488281 540.261719 C 1011.355469 551.875 1003.046875 563.550781 991.539062 575.320312 C 991.195312 575.664062 990.824219 575.976562 990.386719 576.195312 L 976.546875 583.78125 C 975.210938 584.5 973.964844 585.402344 972.84375 586.433594 C 958.101562 600.078125 939.625 612.285156 919.28125 617.714844 C 911.96875 619.679688 901.175781 624.425781 886.867188 632.011719 C 884.566406 633.230469 882.140625 634.199219 879.652344 634.914062 C 865.839844 638.882812 857.410156 641.128906 854.394531 641.597656 C 841.578125 643.6875 829.976562 649.027344 815.417969 651.710938 C 785.683594 657.144531 762.570312 660.484375 746.113281 661.730469 Z M 746.113281 661.730469 " fill-opacity="1" fill-rule="nonzero"/><path fill="#5f6738" d="M 743.40625 421.476562 C 756.378906 405.898438 784.28125 397.375 782.847656 375.898438 C 781.667969 357.792969 763.5625 356.824219 753.984375 368.4375 C 753.140625 369.4375 751.652344 369.59375 750.65625 368.75 C 750.53125 368.65625 750.40625 368.53125 750.3125 368.40625 C 742.316406 358.320312 734.355469 356.574219 726.359375 363.160156 C 725.488281 363.910156 724.804688 364.847656 724.371094 365.941406 C 722.347656 370.964844 721.945312 376.335938 723.15625 382.015625 C 726.113281 395.910156 727.136719 406.554688 726.238281 413.890625 C 724.773438 426.035156 724.308594 432.496094 724.835938 433.308594 C 725.179688 433.871094 725.925781 434.027344 726.453125 433.683594 C 726.578125 433.621094 726.671875 433.527344 726.765625 433.402344 C 735.847656 421.820312 732.707031 393.039062 729.160156 378.238281 C 724.183594 357.480469 749.722656 366.035156 749.347656 381.644531 C 749.316406 382.359375 749.875 382.984375 750.589844 383.015625 C 751.058594 383.015625 751.492188 382.828125 751.742188 382.421875 C 756.128906 376.023438 758.523438 372.621094 758.898438 372.214844 C 762.070312 368.84375 771.496094 365.472656 774.203125 371.464844 C 778.121094 380.175781 771.773438 388.417969 764.683594 393.691406 C 748.226562 405.960938 733.734375 414.546875 730.0625 432.589844 C 729.71875 434.277344 726.890625 437.960938 721.570312 443.640625 C 721.167969 444.078125 720.511719 444.109375 720.078125 443.703125 C 719.890625 443.515625 719.765625 443.265625 719.734375 443.019531 C 717.835938 423.816406 709.128906 409.550781 693.605469 400.28125 C 681.007812 392.757812 668.441406 392.472656 655.84375 399.46875 C 645.921875 404.960938 645.890625 417.417969 646.171875 429.03125 C 646.417969 438.148438 649.4375 445.671875 655.191406 451.601562 C 660.882812 457.503906 666.636719 458.253906 674.070312 462.125 C 692.207031 471.519531 694.820312 491.21875 692.300781 509.417969 C 692.207031 510.261719 692.796875 511.011719 693.636719 511.105469 C 694.042969 511.136719 694.445312 511.042969 694.757812 510.792969 C 698.582031 507.671875 702.75 502.957031 707.324219 496.621094 C 716.59375 483.820312 741.324219 485.257812 754.886719 479.449219 C 771.308594 472.425781 782.628906 461.6875 788.820312 447.167969 C 793.082031 437.242188 793.765625 429.25 790.9375 423.226562 C 782.507812 405.273438 759.582031 415.015625 743.996094 422.257812 C 743.75 422.382812 743.4375 422.257812 743.34375 422.039062 C 743.25 421.851562 743.28125 421.632812 743.40625 421.476562 Z M 699.734375 487.503906 C 698.519531 468.492188 687.105469 456.878906 668.878906 450.820312 C 652.609375 445.390625 653.199219 432.652344 653.542969 417.855469 C 653.699219 410.207031 656.339844 405.492188 662.75 403.339844 C 674.757812 399.375 686.792969 402.277344 696.78125 410.894531 C 710.871094 423.039062 716.160156 439.019531 712.644531 458.78125 C 712.332031 460.5 713.046875 462.246094 714.507812 463.246094 L 715.878906 464.214844 C 716.5625 464.683594 717.527344 464.527344 717.992188 463.839844 C 718.210938 463.527344 718.304688 463.183594 718.242188 462.808594 C 717.835938 459.40625 719.238281 455.910156 722.441406 452.320312 C 737.339844 435.429688 749.285156 422.789062 771.464844 420.820312 C 781.449219 419.945312 786.984375 426.191406 784.0625 435.648438 C 778.835938 452.539062 767.234375 464.246094 749.285156 470.832031 C 747.046875 471.675781 739.175781 473.640625 725.707031 476.765625 C 718.988281 478.292969 710.964844 482.195312 701.601562 488.441406 C 701.039062 488.8125 700.292969 488.625 699.921875 488.066406 C 699.796875 487.910156 699.734375 487.691406 699.734375 487.503906 Z M 699.734375 487.503906 " fill-opacity="1" fill-rule="nonzero"/><path fill="#5f6738" d="M 681.507812 537.734375 C 681.507812 538.484375 682.128906 539.074219 682.84375 539.074219 C 683.15625 539.074219 683.4375 538.980469 683.683594 538.765625 L 684.617188 537.984375 C 685.519531 537.234375 686.140625 536.203125 686.328125 535.050781 C 689.066406 519.53125 686.078125 505.140625 677.339844 491.8125 C 667.199219 476.265625 653.730469 485.535156 644.398438 475.828125 C 640.695312 471.957031 638.425781 467.367188 637.617188 462.027344 C 635.285156 446.484375 633.011719 420.261719 626.511719 415.296875 C 625.269531 414.359375 623.777344 413.890625 622.25 413.921875 C 608.535156 414.390625 597.800781 418.386719 590.023438 425.972656 C 576.214844 439.425781 559.011719 471.800781 563.679688 493.246094 C 567.847656 512.414062 595.59375 524.246094 612.792969 527.585938 C 615.6875 528.179688 625.300781 528.867188 641.660156 529.679688 C 657.429688 530.492188 665.363281 539.230469 676.3125 549.847656 C 677.152344 550.65625 678.457031 550.625 679.269531 549.78125 C 679.453125 549.597656 679.578125 549.378906 679.671875 549.160156 C 680.917969 546.070312 680.667969 543.445312 678.957031 541.292969 C 670.121094 530.335938 660.417969 523.777344 649.871094 521.5625 C 637.992188 519.09375 621.96875 521.46875 608.8125 517.816406 C 592.109375 513.164062 567.972656 501.863281 571.394531 480.699219 C 573.976562 464.839844 580.164062 450.167969 589.992188 436.648438 C 597.304688 426.628906 607.382812 421.226562 620.230469 420.476562 C 622.21875 420.351562 623.960938 421.789062 624.242188 423.753906 C 626.636719 440.457031 628.753906 453.476562 630.554688 462.777344 C 632.546875 473.019531 637.492188 480.292969 645.363281 484.601562 C 649.625 486.941406 658.175781 487.535156 663.839844 488.535156 C 665.984375 488.910156 667.945312 490 669.4375 491.59375 C 682.753906 505.953125 681.351562 519.410156 681.507812 537.734375 Z M 681.507812 537.734375 " fill-opacity="1" fill-rule="nonzero"/><path fill="#5f6738" d="M 703.871094 546.539062 C 711.679688 537.703125 720.234375 532.300781 729.503906 530.335938 C 734.167969 529.335938 752.148438 526.339844 783.410156 521.3125 C 810.160156 517.035156 838.683594 487.253906 840.984375 459.472656 C 842.105469 446.140625 842.445312 432.496094 833.675781 422.070312 C 827.175781 414.421875 816.382812 418.136719 810.84375 424.914062 C 805.585938 431.34375 796.503906 443.488281 783.59375 461.375 C 770.78125 479.074219 757.40625 488.878906 736.84375 492.53125 C 719.425781 495.621094 706.765625 506.140625 698.863281 524.152344 C 697.683594 526.871094 697.058594 530.117188 696.996094 533.894531 C 696.996094 535.144531 697.960938 536.140625 699.207031 536.171875 C 700.203125 536.171875 701.101562 535.550781 701.351562 534.582031 C 705.425781 520.785156 714.042969 510.480469 727.203125 503.675781 C 728.476562 503.019531 729.84375 502.550781 731.246094 502.269531 C 735.351562 501.460938 739.675781 500.679688 744.246094 499.960938 C 759.179688 497.554688 775.105469 487.441406 783.285156 476.515625 C 790.40625 467.054688 801.203125 452.257812 815.695312 432.058594 C 818.03125 428.8125 820.300781 427.003906 822.445312 426.597656 C 826.460938 425.878906 830.410156 428.8125 831.4375 433.277344 C 837.253906 458.378906 830.628906 479.855469 811.496094 497.683594 C 801.574219 506.953125 790.75 512.386719 779.085938 514.039062 C 752.894531 517.722656 734.511719 521.035156 723.964844 523.9375 C 712.550781 527.121094 704.339844 533.832031 699.332031 544.070312 C 698.460938 545.820312 699.238281 547.785156 698.800781 549.597656 C 698.648438 550.253906 698.179688 550.847656 697.464844 551.34375 C 684.773438 559.960938 676.46875 566.300781 670.496094 580.628906 C 670.089844 581.597656 670.371094 582.71875 671.210938 583.375 L 671.832031 583.84375 C 672.332031 584.21875 673.015625 584.15625 673.386719 583.6875 C 673.417969 583.65625 673.449219 583.59375 673.480469 583.53125 C 684.894531 563.707031 702.96875 552.125 727.667969 548.785156 C 745.554688 546.382812 755.570312 545.132812 757.714844 545.101562 C 769.722656 544.882812 779.550781 543.199219 787.171875 540.078125 C 804.746094 532.832031 821.453125 522.78125 830.78125 507.078125 C 834.671875 500.523438 839.648438 491.34375 844.996094 486.597656 C 845.558594 486.101562 846.398438 486.160156 846.894531 486.722656 C 847.207031 487.097656 847.332031 487.566406 847.175781 488.035156 C 837.066406 519.691406 801.605469 549.378906 771.960938 564.550781 C 758.992188 571.199219 748.011719 573.011719 732.242188 572.730469 C 705.394531 572.292969 683.25 572.417969 666.296875 594.425781 C 665.707031 595.207031 665.828125 596.363281 666.640625 596.957031 C 667.261719 597.425781 668.132812 597.457031 668.753906 597.019531 C 688.195312 583.0625 700.171875 579.410156 725.242188 580.097656 C 740.015625 580.503906 751.121094 579.691406 758.492188 577.601562 C 788.699219 569.171875 821.699219 539.980469 839.988281 515.539062 C 845.960938 507.609375 855.855469 491.84375 853.023438 482.105469 C 852.246094 479.480469 849.570312 477.921875 846.957031 478.546875 C 837.191406 480.855469 828.046875 498.058594 821.453125 508.140625 C 820.859375 509.074219 820.175781 509.949219 819.398438 510.730469 C 809.414062 520.96875 797.035156 528.679688 782.195312 533.863281 C 776.96875 535.707031 766.859375 537.171875 751.835938 538.296875 C 733.296875 539.703125 717.527344 542.730469 704.492188 547.445312 C 704.214844 547.566406 703.871094 547.445312 703.746094 547.132812 C 703.652344 546.914062 703.71875 546.695312 703.871094 546.539062 Z M 703.871094 546.539062 " fill-opacity="1" fill-rule="nonzero"/><path fill="#5f6738" d="M 648.9375 597.144531 C 649.375 597.644531 649.375 598.394531 648.910156 598.859375 C 648.691406 599.046875 648.441406 599.171875 648.132812 599.171875 C 631.675781 599.984375 613.011719 598.078125 592.078125 593.429688 C 562.339844 586.871094 538.359375 570.984375 520.101562 545.726562 C 514.160156 537.546875 507.78125 530.648438 500.9375 525 C 498.015625 522.5625 494.066406 522.46875 492.105469 524.8125 C 492.042969 524.90625 491.949219 525 491.886719 525.0625 C 491.109375 526.152344 490.394531 528.152344 489.769531 531.054688 C 484.015625 557.683594 509.089844 566.550781 524.113281 581.972656 C 525.292969 583.191406 526.601562 584.21875 528.03125 585.125 C 533.164062 588.308594 543.675781 594.273438 559.574219 602.980469 C 571.269531 609.414062 581.96875 613.441406 591.707031 615.0625 C 635.160156 622.273438 681.507812 624.460938 730.683594 621.648438 C 755.011719 620.246094 773.238281 619.027344 793.019531 613.71875 C 799.148438 612.066406 813.085938 607.570312 834.796875 600.234375 C 855.542969 593.210938 869.324219 578.601562 884.625 560.742188 C 891.441406 552.8125 907.335938 522.84375 898.21875 512.980469 C 889.292969 503.363281 879.214844 518.878906 875.265625 526.589844 C 864.9375 546.851562 849.726562 562.804688 829.632812 574.449219 C 827.859375 575.480469 825.929688 576.257812 823.941406 576.789062 C 812.398438 579.785156 803.035156 584.75 789.972656 587.714844 C 751.992188 596.363281 713.765625 599.015625 675.285156 595.738281 C 674.289062 595.644531 673.417969 596.394531 673.328125 597.394531 C 673.265625 598.078125 673.605469 598.765625 674.230469 599.109375 C 680.792969 603.074219 687.542969 605.230469 694.449219 605.574219 C 727.855469 607.226562 760.828125 603.980469 793.363281 595.832031 C 806.300781 592.617188 815.480469 587.621094 827.765625 584.5 C 830.441406 583.8125 832.992188 582.722656 835.355469 581.285156 C 843.847656 576.070312 852.867188 568.890625 862.449219 559.746094 C 872.527344 550.097656 878.3125 536.800781 886.992188 522.40625 C 888.019531 520.722656 889.167969 519.472656 890.507812 518.691406 C 891.222656 518.285156 892.09375 518.535156 892.496094 519.253906 C 892.652344 519.535156 892.714844 519.847656 892.683594 520.128906 C 889.695312 543.667969 878.066406 555.1875 861.171875 571.421875 C 850.535156 581.628906 841.671875 587.46875 828.480469 591.742188 C 794.296875 602.761719 773.734375 609.320312 741.074219 611.003906 C 727.667969 611.691406 719.332031 612.222656 716.066406 612.566406 C 707.636719 613.472656 699.269531 613.847656 691.027344 613.691406 C 657.554688 613.191406 625.175781 610.660156 593.882812 606.105469 C 575.996094 603.480469 560.351562 593.804688 534.285156 579.691406 C 532.042969 578.507812 530.023438 576.945312 528.28125 575.132812 C 515.152344 561.460938 493.410156 555.808594 496.738281 532.367188 C 496.800781 531.867188 497.269531 531.523438 497.765625 531.585938 C 497.953125 531.585938 498.140625 531.710938 498.261719 531.835938 C 509.179688 542.105469 518.761719 558.214844 528.777344 567.390625 C 551.175781 587.871094 572.824219 597.363281 600.851562 601.390625 C 610.183594 602.730469 615.9375 604.511719 626.109375 605.355469 C 635.441406 606.105469 644.585938 605.386719 653.574219 603.199219 C 655.65625 602.703125 656.933594 600.609375 656.4375 598.546875 C 656.34375 598.078125 656.125 597.671875 655.875 597.269531 C 634.164062 564.738281 601.347656 572.605469 570.804688 565.394531 C 544.609375 559.246094 528.683594 542.824219 522.992188 516.195312 C 520.101562 502.550781 520.191406 489.128906 523.273438 475.921875 C 523.613281 474.425781 524.921875 473.363281 526.445312 473.332031 C 537.019531 472.988281 536.710938 490.410156 537.738281 501.273438 C 538.046875 504.519531 538.886719 507.703125 540.257812 510.667969 C 543.957031 518.816406 547.691406 526.089844 551.453125 532.429688 C 563.925781 553.5625 582.777344 565.394531 608.035156 567.925781 C 613.355469 568.453125 618.363281 567.796875 623.089844 565.988281 C 625.363281 565.113281 626.542969 562.585938 625.671875 560.273438 C 625.484375 559.808594 625.238281 559.371094 624.925781 558.996094 C 623.683594 557.464844 621.410156 555.9375 618.144531 554.34375 C 602.933594 547.039062 585.328125 540.921875 570.863281 526.558594 C 570.335938 526.027344 570.335938 525.152344 570.863281 524.625 C 570.957031 524.53125 571.082031 524.4375 571.175781 524.375 C 573.382812 523.15625 575.34375 523.28125 577.023438 524.6875 C 589.683594 535.269531 604.398438 542.824219 621.195312 547.320312 C 639.609375 552.253906 656 553.75 662.5625 565.707031 C 662.875 566.300781 663.0625 566.984375 663.0625 567.675781 L 663.0625 574.199219 C 663.0625 575.480469 664.121094 576.539062 665.394531 576.539062 C 666.234375 576.539062 667.042969 576.070312 667.417969 575.320312 C 673.574219 563.769531 662.066406 553 651.582031 548.632812 C 651.210938 548.472656 639.328125 544.851562 615.96875 537.765625 C 603.496094 533.988281 591.984375 527.996094 581.441406 519.722656 C 577.054688 516.257812 571.953125 515.726562 566.199219 518.097656 C 565.171875 518.503906 564.425781 519.378906 564.144531 520.441406 C 562.808594 525.339844 563.710938 529.367188 566.820312 532.523438 C 575.964844 541.730469 586.789062 548.785156 599.296875 553.75 C 603.710938 555.5 608.160156 557.402344 612.609375 559.433594 C 613.136719 559.714844 613.355469 560.367188 613.074219 560.898438 C 612.886719 561.273438 612.515625 561.492188 612.078125 561.492188 C 594.847656 560.085938 579.980469 553.34375 567.503906 541.199219 C 559.324219 533.238281 552.667969 517.945312 548.5625 509.171875 C 546.945312 505.707031 545.949219 502.023438 545.542969 498.214844 C 544.144531 484.382812 544.082031 468.835938 528.902344 465.464844 C 524.859375 464.558594 520.691406 466.246094 518.390625 469.679688 C 515.871094 473.457031 514.316406 478.359375 513.785156 484.320312 C 508.589844 542.042969 536.273438 574.199219 593.042969 577.226562 C 615.90625 578.445312 634.101562 581.160156 648.9375 597.144531 Z M 648.9375 597.144531 " fill-opacity="1" fill-rule="nonzero"/><path fill="#5f6738" d="M 1220.195312 651.148438 C 1220.539062 635.230469 1214.722656 622.867188 1202.808594 614.09375 C 1181.65625 598.515625 1161.5625 586.371094 1135.339844 593.335938 C 1134.34375 593.585938 1133.753906 594.613281 1134.003906 595.613281 C 1134.21875 596.457031 1134.996094 597.050781 1135.867188 597.019531 C 1159.355469 596.363281 1180.660156 604.386719 1199.757812 621.148438 C 1209.339844 629.546875 1212.078125 641.128906 1217.488281 651.773438 C 1217.863281 652.492188 1218.703125 652.773438 1219.417969 652.398438 C 1219.886719 652.148438 1220.195312 651.679688 1220.195312 651.148438 Z M 1220.195312 651.148438 " fill-opacity="1" fill-rule="nonzero"/><path fill="#5f6738" d="M 1181.375 656.425781 C 1181.71875 655.925781 1182.371094 655.800781 1182.835938 656.144531 C 1182.992188 656.238281 1183.117188 656.394531 1183.210938 656.582031 L 1190.613281 672.347656 C 1191.359375 673.9375 1193.289062 674.625 1194.875 673.878906 C 1195.714844 673.472656 1196.335938 672.753906 1196.585938 671.878906 C 1199.230469 662.824219 1197.890625 653.898438 1192.636719 645.125 C 1182.371094 628.015625 1167.78125 617.214844 1148.839844 612.691406 C 1144.359375 611.628906 1136.832031 611.535156 1126.285156 612.40625 C 1121.714844 612.78125 1114.03125 613.1875 1103.300781 613.625 C 1102.117188 613.65625 1100.964844 613.875 1099.878906 614.25 C 1088.992188 617.871094 1081.152344 625.363281 1076.332031 636.726562 C 1067.558594 657.519531 1062.519531 667.820312 1055.738281 686.300781 C 1050.667969 700.039062 1043.980469 716.207031 1035.613281 734.785156 C 1034.992188 736.15625 1033.964844 737.3125 1032.71875 738.09375 C 1028.117188 740.996094 1026.125 744.929688 1026.78125 749.894531 C 1026.90625 750.984375 1027.527344 751.953125 1028.429688 752.578125 C 1031.914062 754.949219 1034.710938 755.199219 1036.828125 753.328125 C 1045.570312 745.492188 1053.40625 740.183594 1060.34375 737.40625 C 1090.359375 725.324219 1108.554688 717.394531 1114.933594 713.554688 C 1131.324219 703.691406 1140.035156 698.632812 1141 698.351562 C 1142.835938 697.851562 1144.515625 696.976562 1145.976562 695.792969 C 1159.664062 684.460938 1171.453125 671.316406 1181.375 656.425781 Z M 1051.382812 723.917969 C 1062.894531 704.191406 1069.085938 683.210938 1078.292969 662.355469 C 1086.222656 644.40625 1090.546875 626.832031 1111.015625 626.800781 C 1119.382812 626.800781 1125.601562 626.644531 1129.738281 626.363281 C 1146.941406 625.144531 1160.285156 629.671875 1172.136719 641.378906 C 1174.46875 643.6875 1174.75 647.402344 1172.757812 649.996094 C 1162.960938 662.855469 1151.699219 674.6875 1139.007812 685.519531 C 1137.703125 686.644531 1136.210938 687.519531 1134.59375 688.113281 C 1130.765625 689.519531 1123.144531 693.480469 1111.699219 700.007812 C 1095.710938 709.089844 1076.144531 717.707031 1053 725.917969 C 1052.285156 726.167969 1051.507812 725.761719 1051.261719 725.042969 C 1051.136719 724.667969 1051.167969 724.261719 1051.382812 723.917969 Z M 1051.382812 723.917969 " fill-opacity="1" fill-rule="nonzero"/><path fill="#5f6738" d="M 895.890625 897.242188 C 895.859375 898.210938 896.605469 899.019531 897.570312 899.054688 C 897.847656 899.054688 898.160156 898.988281 898.410156 898.867188 C 909.449219 893.089844 916.511719 882.226562 931.476562 865.304688 C 938.96875 856.816406 945.59375 847.792969 951.320312 838.269531 C 965.597656 814.449219 973.996094 799.933594 976.546875 794.753906 C 980.589844 786.480469 987.214844 768.8125 996.453125 741.746094 C 1003.515625 721.015625 1008.867188 697.882812 1012.441406 672.316406 C 1012.878906 669.160156 1013.003906 666.851562 1012.785156 665.386719 C 1012.597656 663.917969 1011.261719 662.917969 1009.828125 663.105469 C 1008.679688 663.261719 1007.777344 664.136719 1007.558594 665.257812 C 1001.058594 701.035156 992.070312 734.285156 980.621094 764.972656 C 974.183594 782.171875 968.148438 795.5 962.519531 804.960938 C 951.566406 823.316406 936.636719 847.636719 917.851562 868.644531 C 910.914062 876.417969 903.820312 885.410156 896.574219 895.617188 C 896.167969 896.210938 895.921875 896.773438 895.890625 897.242188 Z M 895.890625 897.242188 " fill-opacity="1" fill-rule="nonzero"/><path fill="#5f6738" d="M 533.445312 917.347656 C 534.53125 917.753906 535.683594 916.910156 535.964844 915.476562 C 536.058594 915.039062 536.058594 914.570312 535.964844 914.101562 C 535.152344 909.574219 532.632812 904.703125 528.4375 899.554688 C 518.328125 887.191406 505.167969 873.457031 488.964844 858.34375 C 467.65625 838.460938 450.671875 815.453125 437.265625 794.316406 C 428.554688 780.644531 424.480469 769.09375 416.019531 751.796875 C 412.378906 744.367188 407.371094 729.664062 401.027344 707.71875 C 400.714844 706.6875 399.628906 706.0625 398.601562 706.375 C 398.445312 706.40625 398.289062 706.46875 398.164062 706.5625 L 396.890625 707.28125 C 395.523438 708.089844 394.835938 709.683594 395.179688 711.246094 C 399.222656 729.132812 402.613281 741.339844 405.320312 747.863281 C 416.363281 774.554688 432.660156 802.152344 454.25 830.621094 C 463.300781 842.582031 474.15625 854.539062 486.847656 866.429688 C 500.441406 879.199219 515.183594 895.589844 531.078125 915.597656 C 531.765625 916.441406 532.542969 917.035156 533.414062 917.347656 Z M 533.445312 917.347656 " fill-opacity="1" fill-rule="nonzero"/><path fill="#5f6738" d="M 1117.175781 979.597656 C 1115.835938 976.476562 1113.191406 973.789062 1109.242188 971.542969 C 1073.875 951.4375 1036.269531 938.453125 996.390625 932.613281 C 981.054688 930.367188 968.800781 926.402344 953.125 925.339844 C 951.910156 925.246094 950.726562 925.058594 949.578125 924.777344 C 940.214844 922.34375 930.914062 921.21875 921.707031 921.4375 C 920.492188 921.46875 919.464844 922.40625 919.3125 923.625 L 919.3125 923.683594 C 919.1875 924.777344 919.933594 925.746094 920.988281 925.871094 C 921.050781 925.871094 921.117188 925.871094 921.148438 925.871094 C 928.363281 926.152344 935.671875 926.960938 943.046875 928.304688 C 989.203125 936.578125 1014.617188 941.230469 1019.285156 942.324219 C 1042.675781 947.722656 1061.652344 953.71875 1076.238281 960.304688 C 1094.0625 968.359375 1104.015625 973.011719 1106.101562 974.289062 C 1109.988281 976.632812 1112.882812 978.910156 1114.714844 981.128906 C 1115.246094 981.75 1116.148438 981.8125 1116.769531 981.28125 C 1117.265625 980.878906 1117.421875 980.191406 1117.175781 979.597656 Z M 1117.175781 979.597656 " fill-opacity="1" fill-rule="nonzero"/><path fill="#5f6738" d="M 325.472656 1116.925781 C 324.789062 1116.488281 323.886719 1116.675781 323.449219 1117.332031 C 323.171875 1117.769531 323.140625 1118.332031 323.359375 1118.796875 C 328.179688 1127.945312 335.332031 1134.25 345.535156 1138.652344 C 378.011719 1152.640625 408.929688 1163.066406 438.292969 1169.933594 C 456.242188 1174.148438 486.570312 1177.894531 529.277344 1181.203125 C 586.109375 1185.636719 631.429688 1187.636719 665.179688 1187.199219 C 706.765625 1186.667969 739.273438 1185.636719 762.695312 1184.136719 C 772.710938 1183.480469 783.222656 1183.078125 794.203125 1182.890625 C 816.816406 1182.515625 841.296875 1178.894531 860.988281 1177.425781 C 893.121094 1175.023438 917.941406 1172.433594 935.484375 1169.621094 C 1010.949219 1157.539062 1049.644531 1151.328125 1051.605469 1151.015625 C 1072.226562 1147.800781 1085.695312 1141.398438 1105.199219 1135.5 C 1111.140625 1133.6875 1117.394531 1129.695312 1123.957031 1123.511719 C 1124.921875 1122.609375 1125.199219 1121.203125 1124.671875 1119.984375 L 1124.671875 1119.921875 C 1124.234375 1119.046875 1123.238281 1118.671875 1122.371094 1119.078125 C 1122.214844 1119.140625 1122.058594 1119.234375 1121.933594 1119.359375 C 1115.777344 1125.074219 1108.960938 1129.039062 1101.46875 1131.191406 C 1086.378906 1135.59375 1072.351562 1141.960938 1059.101562 1143.992188 C 1016.144531 1150.515625 980.621094 1156.074219 952.53125 1160.601562 C 926.746094 1164.78125 905.34375 1167.5 888.332031 1168.746094 C 853.429688 1171.339844 833.085938 1174.304688 802.136719 1175.550781 C 751.152344 1177.582031 724.777344 1178.644531 723.035156 1178.707031 C 639.980469 1181.515625 557.304688 1177.925781 474.964844 1167.90625 C 458.109375 1165.875 441.28125 1163.503906 424.453125 1158.101562 C 385.695312 1145.675781 354.585938 1137.4375 325.472656 1116.925781 Z M 325.472656 1116.925781 " fill-opacity="1" fill-rule="nonzero"/></svg>