<svg xmlns="http://www.w3.org/2000/svg" xmlns:xlink="http://www.w3.org/1999/xlink" width="150" zoomAndPan="magnify" viewBox="0 0 112.5 112.499997" height="150" preserveAspectRatio="xMidYMid meet" version="1.0"><defs><clipPath id="283b5d184b"><path d="M 0 0 L 112.003906 0 L 112.003906 112 L 0 112 Z M 0 0 " clip-rule="nonzero"/></clipPath></defs><g clip-path="url(#283b5d184b)"><path fill="#5f6738" d="M 37.855469 101.3125 C 38.523438 96.636719 37.039062 89.660156 36.964844 89.363281 L 36.890625 89.363281 C 36.890625 88.695312 36.148438 88.25 34.511719 87.953125 C 33.84375 87.804688 33.175781 87.730469 32.507812 87.65625 L 32.433594 83.203125 L 49.804688 83.128906 L 49.878906 96.042969 L 51.066406 96.117188 L 51.066406 95.449219 L 71.773438 90.625 L 79.492188 96.042969 L 79.566406 99.382812 L 80.828125 99.382812 L 80.902344 91.441406 L 90.476562 93.519531 L 90.550781 95.671875 L 91.144531 95.671875 L 90.996094 90.847656 L 80.976562 88.84375 L 81.050781 83.574219 L 101.535156 83.128906 L 101.609375 87.953125 L 103.09375 87.953125 L 103.09375 87.582031 L 111.707031 93.667969 L 112.003906 93.222656 L 103.09375 86.839844 L 103.09375 83.054688 L 103.910156 83.054688 L 103.910156 81.644531 C 103.835938 70.214844 103.6875 67.023438 103.464844 66.132812 L 103.167969 22.414062 L 67.246094 22.339844 L 67.097656 59.898438 C 66.800781 59.898438 66.503906 59.898438 66.132812 59.898438 C 64.796875 59.898438 62.941406 59.824219 61.160156 59.75 C 56.929688 59.601562 55.816406 59.601562 55.519531 59.75 C 54.257812 59.75 41.640625 59.675781 39.933594 60.121094 C 38.226562 60.566406 37.1875 61.085938 36.964844 61.160156 C 36.890625 61.160156 36.742188 61.160156 36.667969 61.160156 C 36.519531 61.234375 36.371094 61.382812 36.371094 61.605469 C 36.296875 62.050781 36.222656 63.089844 36.519531 64.5 C 35.476562 64.871094 31.691406 66.28125 31.46875 67.765625 C 31.246094 69.324219 31.246094 81.347656 31.246094 81.867188 L 31.246094 87.507812 C 29.464844 87.433594 27.609375 87.507812 25.902344 87.65625 C 26.421875 87.210938 26.941406 86.46875 27.089844 85.652344 C 27.089844 85.578125 27.089844 85.503906 27.089844 85.503906 C 27.3125 85.429688 27.460938 85.132812 27.683594 84.761719 C 28.054688 84.167969 28.351562 83.128906 28.351562 82.164062 L 28.945312 82.164062 L 28.945312 81.867188 C 28.796875 70.140625 28.796875 70.140625 28.351562 70.140625 C 26.050781 70.140625 24.195312 70.140625 22.710938 70.140625 L 22.710938 59.824219 C 23.675781 60.195312 24.492188 61.53125 25.234375 62.792969 C 25.457031 63.164062 25.605469 63.460938 25.828125 63.757812 C 26.050781 64.128906 26.347656 64.351562 26.644531 64.351562 C 27.164062 64.351562 27.460938 63.757812 27.832031 63.164062 C 28.054688 62.71875 28.351562 62.273438 28.648438 62.125 C 29.019531 61.902344 29.242188 61.605469 29.242188 61.234375 C 29.242188 60.492188 28.425781 59.601562 27.164062 59.007812 C 25.53125 58.191406 23.527344 58.414062 22.785156 58.488281 L 22.785156 56.78125 C 23.007812 56.78125 23.304688 57.003906 23.75 57.597656 C 24.121094 58.191406 24.863281 58.117188 25.457031 58.042969 C 25.976562 57.96875 26.496094 57.96875 26.867188 58.191406 C 27.164062 58.414062 27.460938 58.488281 27.757812 58.488281 C 28.351562 58.414062 28.722656 57.746094 29.167969 57.078125 L 29.316406 56.78125 C 29.6875 56.1875 30.132812 56.1875 30.503906 56.1875 C 30.652344 56.1875 30.800781 56.1875 30.949219 56.1875 C 31.097656 56.1875 31.320312 56.039062 31.246094 55.667969 C 31.246094 55 30.207031 53.367188 27.757812 53.070312 C 25.679688 52.847656 23.675781 54.257812 22.710938 55 L 22.710938 54.554688 C 23.230469 54.554688 23.675781 54.257812 24.195312 53.886719 C 25.011719 53.367188 26.050781 52.550781 28.128906 52.402344 C 30.578125 52.179688 31.617188 52.996094 32.433594 53.589844 C 32.804688 53.886719 33.101562 54.109375 33.472656 54.183594 C 33.695312 54.257812 33.917969 54.183594 34.066406 54.035156 C 34.363281 53.738281 34.363281 53.144531 34.066406 52.402344 C 33.546875 50.992188 32.210938 49.433594 29.910156 48.988281 C 26.71875 48.394531 23.898438 50.398438 22.785156 51.289062 L 22.785156 50.175781 C 22.859375 50.027344 23.230469 49.582031 24.863281 48.320312 C 26.050781 47.429688 26.273438 47.355469 26.71875 47.355469 C 27.089844 47.28125 27.609375 47.28125 28.722656 46.761719 C 30.132812 46.167969 30.578125 46.539062 31.171875 46.984375 C 31.617188 47.28125 32.0625 47.652344 32.953125 47.726562 C 33.546875 47.800781 33.695312 47.429688 33.695312 47.28125 C 33.992188 46.167969 30.503906 42.679688 29.316406 42.085938 C 28.425781 41.640625 28.054688 41.863281 27.683594 42.234375 C 27.460938 42.457031 27.238281 42.679688 26.496094 42.753906 C 25.902344 42.753906 25.308594 43.050781 24.714844 43.421875 C 24.714844 43.050781 24.863281 42.308594 25.976562 41.714844 C 26.867188 41.269531 27.460938 41.046875 27.980469 40.898438 C 28.574219 40.675781 29.09375 40.527344 29.6875 40.007812 C 30.207031 39.488281 30.652344 39.636719 31.246094 39.785156 C 31.617188 39.859375 31.988281 40.007812 32.507812 40.007812 C 33.101562 40.007812 33.175781 39.636719 33.175781 39.488281 C 33.175781 38.820312 31.542969 38.003906 29.910156 37.929688 C 28.574219 37.855469 27.90625 38.449219 27.238281 39.042969 C 26.71875 39.488281 26.199219 39.933594 25.382812 40.15625 C 24.863281 40.304688 24.417969 40.527344 23.972656 40.75 C 24.492188 40.378906 25.160156 40.007812 25.753906 39.636719 L 26.125 39.414062 C 26.941406 38.96875 27.460938 38.375 27.535156 37.707031 C 27.683594 36.890625 27.238281 36.296875 27.089844 36.148438 C 26.941406 36 26.792969 36 26.71875 36 C 26.421875 36 26.199219 36.296875 25.828125 36.742188 C 25.457031 37.261719 24.863281 38.003906 24.121094 38.226562 C 23.378906 38.375 22.933594 38.597656 22.636719 38.894531 L 22.636719 37.632812 C 23.527344 37.410156 25.457031 36.371094 26.273438 34.660156 C 26.792969 33.546875 27.460938 32.878906 28.054688 32.359375 C 28.574219 31.914062 28.945312 31.542969 28.945312 31.023438 C 28.945312 30.652344 28.722656 30.578125 28.648438 30.503906 C 28.128906 30.28125 27.015625 30.949219 25.308594 32.507812 C 25.308594 32.210938 25.382812 31.914062 25.382812 31.617188 C 25.457031 31.171875 25.605469 30.652344 25.382812 30.207031 C 25.234375 29.984375 25.085938 29.910156 25.011719 29.910156 C 24.714844 29.910156 24.492188 30.207031 24.121094 30.800781 C 23.75 31.320312 23.378906 32.0625 22.859375 32.359375 C 22.488281 32.582031 22.265625 32.804688 22.117188 33.027344 C 22.117188 33.027344 22.117188 33.027344 22.117188 32.953125 C 22.339844 32.65625 22.933594 31.914062 23.898438 29.761719 C 25.160156 26.792969 25.457031 25.457031 25.011719 24.863281 C 24.863281 24.714844 24.640625 24.566406 24.195312 24.640625 C 23.082031 24.789062 22.265625 25.605469 21.96875 26.71875 C 21.96875 26.421875 21.96875 25.976562 21.96875 25.53125 C 22.042969 23.972656 21.449219 22.933594 20.707031 22.710938 C 20.261719 22.5625 19.816406 22.710938 19.445312 23.230469 C 19.074219 23.824219 18.703125 24.121094 18.40625 24.269531 L 18.480469 15.734375 L 18.183594 15.363281 L 18.183594 12.394531 L 111.632812 12.46875 L 111.632812 11.875 L 18.035156 11.875 L 8.609375 0.222656 L 8.164062 0.59375 L 17.589844 12.246094 L 17.589844 14.84375 L 13.285156 10.316406 L 13.285156 10.242188 L 13.210938 10.242188 L 3.636719 0.148438 L 3.265625 0.519531 L 4.601562 1.929688 L 5.195312 68.285156 C 4.898438 68.359375 4.601562 68.359375 4.304688 68.507812 C 4.082031 68.582031 3.933594 68.582031 3.785156 68.65625 L 3.117188 0.445312 L 2.523438 0.445312 L 3.117188 68.804688 C 2.820312 68.878906 2.597656 68.953125 2.375 69.027344 L 2.078125 0.445312 L 1.484375 0.445312 L 1.855469 69.25 C 0.445312 69.84375 0.0742188 70.289062 0 70.289062 L 0.519531 70.660156 C 0.519531 70.660156 1.039062 70.140625 3.117188 69.398438 C 3.5625 69.695312 5.492188 70.882812 6.53125 72.738281 C 7.347656 74.222656 7.570312 75.558594 7.570312 76.226562 C 6.457031 75.707031 5.417969 75.113281 4.601562 74.222656 C 1.707031 71.179688 0.519531 70.808594 0.445312 70.808594 L 0.296875 71.328125 C 0.296875 71.328125 1.484375 71.699219 4.230469 74.59375 C 6.011719 76.523438 8.386719 77.191406 11.355469 78.15625 C 13.359375 78.75 15.585938 79.492188 18.183594 80.605469 C 24.714844 83.5 26.570312 84.613281 26.421875 85.652344 C 26.273438 86.765625 25.085938 87.730469 24.789062 87.730469 C 20.113281 88.101562 7.570312 88.917969 5.714844 87.804688 C 4.453125 86.988281 3.117188 83.796875 2.152344 81.496094 C 1.335938 79.492188 0.890625 78.453125 0.445312 78.230469 L 0.148438 78.675781 C 0.445312 78.824219 1.039062 80.382812 1.632812 81.71875 C 2.152344 83.054688 2.746094 84.464844 3.414062 85.726562 L 3.117188 97.601562 L 4.527344 97.675781 L 4.898438 87.878906 C 5.046875 88.027344 5.195312 88.175781 5.417969 88.25 C 5.9375 88.546875 6.976562 88.695312 8.386719 88.84375 L 8.386719 94.039062 L 9.722656 94.039062 L 9.648438 88.917969 C 10.242188 88.917969 10.910156 88.917969 11.578125 88.917969 C 13.953125 88.917969 16.625 88.84375 18.925781 88.695312 C 16.179688 89.363281 15.363281 89.882812 15.214844 90.328125 C 14.621094 91.070312 14.25 93.519531 14.027344 96.117188 L 0.0742188 109.40625 L 0.445312 109.777344 L 14.027344 96.859375 C 13.804688 99.457031 13.804688 101.980469 13.804688 102.5 L 5.417969 111.484375 L 5.789062 111.855469 L 10.910156 106.433594 L 17.367188 106.804688 C 18.554688 107.328125 19.964844 107.699219 21.820312 107.921875 C 22.5625 107.996094 23.304688 108.070312 24.121094 108.070312 C 26.941406 108.070312 29.984375 107.550781 32.507812 106.582031 L 111.484375 106.582031 L 111.484375 105.988281 L 33.84375 105.988281 C 36 104.800781 37.558594 103.316406 37.855469 101.3125 Z M 28.128906 70.882812 C 28.203125 72.21875 28.277344 77.785156 28.351562 81.71875 L 28.277344 81.71875 C 28.277344 81.347656 28.128906 80.976562 27.980469 80.679688 C 27.683594 80.234375 26.792969 80.011719 25.753906 79.9375 C 25.679688 79.9375 20.558594 77.339844 16.328125 74.964844 C 16.253906 73.777344 16.253906 72.070312 16.328125 71.402344 C 18.183594 71.847656 19.890625 72.070312 21.449219 72.070312 C 24.714844 71.996094 27.238281 71.253906 28.128906 70.882812 Z M 15.734375 74.59375 C 14.992188 74.148438 14.324219 73.777344 13.65625 73.332031 L 13.730469 58.117188 C 13.730469 58.117188 13.804688 58.117188 13.804688 58.042969 C 14.695312 57.375 15.734375 56.558594 17.070312 56.558594 C 18.628906 56.558594 19.222656 55.964844 19.667969 55.59375 C 20.039062 55.296875 20.1875 55.148438 20.632812 55.222656 C 21.152344 55.371094 21.300781 55.59375 21.375 55.816406 C 21.449219 56.039062 21.597656 56.261719 21.894531 56.335938 C 20.929688 56.632812 20.1875 57.375 19.445312 58.117188 C 18.851562 58.710938 18.257812 59.304688 17.441406 59.824219 C 15.214844 61.234375 14.398438 61.828125 14.101562 62.570312 C 14.027344 62.644531 13.953125 62.941406 14.101562 63.089844 C 14.25 63.238281 14.472656 63.238281 14.695312 63.238281 C 14.917969 63.238281 15.214844 63.164062 15.585938 63.3125 C 16.03125 63.460938 16.328125 63.460938 16.550781 63.460938 C 16.847656 63.460938 17.070312 63.460938 17.441406 63.683594 C 17.8125 63.90625 18.183594 63.980469 18.628906 63.832031 C 19.371094 63.609375 20.039062 62.867188 20.410156 61.828125 C 20.78125 60.863281 21.523438 60.269531 22.042969 59.972656 L 22.042969 70.214844 C 16.03125 70.289062 15.882812 70.660156 15.808594 70.882812 C 15.660156 71.402344 15.660156 73.480469 15.734375 74.59375 Z M 11.429688 46.167969 C 11.578125 46.242188 11.800781 46.390625 12.171875 46.390625 C 12.542969 46.390625 12.914062 46.316406 13.210938 46.316406 L 13.210938 49.136719 C 12.617188 49.507812 12.171875 49.953125 12.023438 50.25 C 11.875 50.546875 11.875 50.84375 12.097656 51.066406 L 12.171875 51.140625 C 12.46875 51.511719 12.765625 51.734375 13.136719 51.808594 L 13.136719 56.261719 C 12.320312 56.78125 11.652344 57.375 11.578125 58.042969 C 11.578125 58.339844 11.652344 58.636719 11.949219 58.785156 C 12.097656 58.859375 12.171875 58.933594 12.320312 58.933594 C 12.542969 58.933594 12.839844 58.785156 13.136719 58.5625 L 13.0625 72.960938 C 12.542969 72.664062 12.097656 72.292969 11.800781 72.070312 C 11.726562 71.996094 11.578125 71.921875 11.503906 71.847656 Z M 10.835938 37.484375 L 10.984375 71.402344 C 10.539062 71.03125 10.09375 70.660156 9.796875 70.289062 C 9.277344 69.769531 8.832031 69.398438 8.386719 69.027344 L 8.164062 22.265625 L 10.910156 24.34375 L 10.835938 37.261719 C 10.835938 37.261719 10.835938 37.335938 10.835938 37.335938 C 10.835938 37.335938 10.835938 37.410156 10.835938 37.484375 Z M 5.34375 19.519531 L 5.269531 17.441406 C 7.644531 19.296875 11.875 22.5625 12.246094 22.933594 C 12.394531 23.082031 12.542969 23.15625 12.691406 23.15625 C 12.765625 23.15625 12.839844 23.15625 12.988281 23.082031 C 13.136719 23.007812 13.285156 22.859375 13.433594 22.710938 L 13.136719 35.625 C 12.394531 35.851562 11.800781 36.148438 11.355469 36.445312 L 11.28125 24.046875 Z M 7.71875 68.65625 C 7.125 68.359375 6.53125 68.136719 5.714844 68.210938 L 5.34375 20.1875 L 7.570312 21.894531 Z M 15.214844 35.777344 C 18.035156 35.402344 21.523438 38.449219 22.117188 38.96875 L 22.117188 42.753906 C 21.820312 42.53125 21.449219 42.308594 20.929688 42.011719 C 20.855469 41.714844 20.707031 41.046875 19.964844 40.230469 C 19.742188 39.933594 19.59375 39.5625 19.445312 39.191406 C 19.148438 38.300781 18.851562 37.335938 16.625 36.816406 C 14.695312 36.371094 13.507812 36.816406 12.617188 37.113281 C 12.171875 37.261719 11.726562 37.410156 11.429688 37.335938 C 11.355469 37.335938 11.355469 37.335938 11.355469 37.335938 C 11.503906 37.039062 12.691406 36.148438 15.214844 35.777344 Z M 22.117188 50.324219 L 22.117188 50.546875 C 21.671875 49.730469 20.78125 48.839844 19.445312 48.394531 C 19.222656 47.578125 18.554688 47.429688 17.886719 47.28125 C 17.292969 47.132812 16.699219 46.984375 16.179688 46.390625 C 15.214844 45.277344 14.324219 45.5 13.359375 45.648438 C 12.988281 45.722656 12.617188 45.796875 12.246094 45.796875 C 12.097656 45.796875 11.949219 45.796875 11.949219 45.722656 C 12.171875 45.5 12.914062 45.128906 14.25 45.054688 C 15.660156 44.980469 16.699219 45.5 17.738281 46.019531 C 18.40625 46.390625 19.074219 46.6875 19.742188 46.761719 C 21.003906 46.984375 21.96875 47.949219 22.191406 48.246094 Z M 14.546875 50.992188 C 13.210938 51.511719 13.0625 51.363281 12.617188 50.769531 L 12.542969 50.695312 C 12.542969 50.621094 12.542969 50.546875 12.542969 50.472656 C 12.914062 49.804688 14.769531 48.542969 17.738281 48.617188 C 21.003906 48.765625 21.96875 51.289062 22.117188 51.808594 L 22.117188 53.441406 C 21.671875 53.292969 20.855469 53.070312 19.816406 53.070312 C 18.628906 50.695312 16.253906 50.324219 14.546875 50.992188 Z M 19.148438 53.144531 C 18.777344 53.144531 18.332031 53.21875 17.886719 53.292969 C 16.253906 53.664062 15.882812 54.183594 15.511719 54.703125 C 15.214844 55.074219 14.992188 55.445312 14.25 55.742188 C 14.101562 55.816406 13.878906 55.890625 13.730469 55.964844 L 13.730469 51.808594 C 14.027344 51.734375 14.324219 51.660156 14.769531 51.511719 C 16.253906 50.917969 18.109375 51.214844 19.148438 53.144531 Z M 13.804688 48.839844 L 13.804688 46.167969 C 14.472656 46.09375 15.066406 46.09375 15.734375 46.835938 C 16.328125 47.578125 17.144531 47.726562 17.738281 47.875 C 18.183594 47.949219 18.480469 48.097656 18.628906 48.246094 C 18.332031 48.171875 18.035156 48.171875 17.738281 48.171875 C 16.105469 48.023438 14.769531 48.394531 13.804688 48.839844 Z M 13.730469 43.792969 C 14.175781 43.570312 14.695312 43.273438 15.882812 43.496094 L 16.328125 43.570312 C 18.183594 43.867188 18.183594 43.867188 18.332031 44.683594 C 18.480469 45.351562 18.777344 45.574219 19 45.796875 C 19.148438 45.871094 19.222656 46.019531 19.296875 46.09375 C 18.851562 45.945312 18.332031 45.722656 17.886719 45.5 C 16.847656 44.980469 15.660156 44.386719 14.101562 44.460938 C 13.953125 44.460938 13.878906 44.460938 13.730469 44.535156 Z M 19.964844 46.316406 C 19.890625 45.871094 19.667969 45.648438 19.445312 45.425781 C 19.222656 45.203125 19 45.054688 18.925781 44.609375 C 18.703125 43.347656 18.332031 43.347656 16.402344 43.050781 L 15.957031 42.976562 C 14.472656 42.753906 13.804688 43.125 13.359375 43.421875 C 13.136719 43.570312 12.914062 43.644531 12.691406 43.644531 C 13.210938 43.125 15.660156 41.9375 17.8125 41.9375 C 20.1875 41.863281 21.820312 43.273438 22.191406 43.496094 L 22.191406 47.503906 C 21.671875 47.058594 20.855469 46.539062 19.964844 46.316406 Z M 13.730469 42.308594 L 13.730469 37.335938 C 14.472656 37.113281 15.363281 37.039062 16.550781 37.335938 C 18.40625 37.78125 18.703125 38.523438 18.925781 39.339844 C 19.074219 39.710938 19.222656 40.15625 19.519531 40.527344 C 19.890625 41.046875 20.113281 41.417969 20.261719 41.714844 C 19.59375 41.492188 18.703125 41.269531 17.738281 41.269531 C 16.476562 41.34375 14.84375 41.789062 13.730469 42.308594 Z M 12.839844 37.632812 C 12.914062 37.632812 12.988281 37.558594 13.136719 37.558594 L 13.136719 42.605469 C 12.46875 42.976562 12.097656 43.347656 12.023438 43.644531 C 12.023438 43.792969 12.097656 44.015625 12.394531 44.089844 C 12.691406 44.164062 12.914062 44.089844 13.136719 44.089844 L 13.136719 44.683594 C 12.320312 44.832031 11.652344 45.128906 11.355469 45.425781 L 11.355469 37.929688 C 11.875 38.003906 12.320312 37.855469 12.839844 37.632812 Z M 12.246094 58.339844 C 12.097656 58.265625 12.097656 58.191406 12.097656 58.117188 C 12.171875 57.671875 12.988281 56.855469 14.398438 56.261719 C 15.289062 55.890625 15.585938 55.445312 15.882812 55.074219 C 16.253906 54.554688 16.550781 54.183594 17.960938 53.886719 C 20.039062 53.441406 21.597656 53.960938 22.117188 54.183594 L 22.117188 56.039062 C 21.96875 56.039062 21.96875 55.890625 21.894531 55.742188 C 21.746094 55.445312 21.597656 55.074219 20.78125 54.851562 C 20.039062 54.628906 19.667969 55 19.296875 55.296875 C 18.851562 55.667969 18.40625 56.113281 17.070312 56.113281 C 15.511719 56.113281 14.324219 57.078125 13.433594 57.746094 C 12.914062 58.042969 12.46875 58.488281 12.246094 58.339844 Z M 22.117188 56.929688 L 22.117188 59.378906 C 21.671875 59.601562 20.484375 60.34375 19.964844 61.679688 C 19.667969 62.570312 19.074219 63.164062 18.554688 63.386719 C 18.332031 63.460938 18.109375 63.460938 17.8125 63.3125 C 17.292969 62.941406 16.921875 62.941406 16.625 62.941406 C 16.402344 62.941406 16.179688 62.941406 15.808594 62.792969 C 15.363281 62.644531 14.992188 62.644531 14.695312 62.71875 C 14.917969 62.199219 15.882812 61.53125 17.738281 60.34375 C 18.628906 59.75 19.296875 59.15625 19.816406 58.5625 C 20.558594 57.820312 21.226562 57.226562 22.117188 56.929688 Z M 26.570312 70.808594 C 24.640625 71.328125 21.300781 71.921875 17.292969 71.03125 C 18.925781 70.882812 22.339844 70.808594 26.570312 70.808594 Z M 26.792969 59.601562 C 28.128906 60.269531 28.574219 60.9375 28.574219 61.382812 C 28.574219 61.53125 28.5 61.679688 28.277344 61.828125 C 27.832031 62.050781 27.535156 62.570312 27.238281 63.089844 C 27.015625 63.460938 26.71875 63.980469 26.570312 63.980469 C 26.496094 63.980469 26.421875 63.90625 26.199219 63.683594 C 26.050781 63.386719 25.828125 63.089844 25.605469 62.71875 C 24.789062 61.308594 23.824219 59.75 22.5625 59.453125 L 22.5625 59.230469 C 23.230469 59.082031 25.160156 58.785156 26.792969 59.601562 Z M 27.609375 53.886719 C 29.167969 54.035156 29.984375 54.925781 30.28125 55.296875 C 30.503906 55.59375 30.578125 55.816406 30.578125 55.890625 C 30.503906 55.890625 30.503906 55.890625 30.429688 55.890625 C 29.984375 55.890625 29.316406 55.816406 28.722656 56.707031 L 28.574219 57.003906 C 28.203125 57.449219 27.832031 58.042969 27.535156 58.042969 C 27.386719 58.042969 27.238281 58.042969 27.089844 57.894531 C 26.570312 57.523438 25.902344 57.523438 25.308594 57.597656 C 24.714844 57.671875 24.269531 57.671875 24.121094 57.375 C 23.675781 56.707031 23.304688 56.335938 22.710938 56.261719 L 22.710938 55.964844 C 23.15625 55.519531 25.457031 53.589844 27.609375 53.886719 Z M 29.6875 49.730469 C 32.210938 50.175781 33.25 52.03125 33.546875 53.070312 C 33.695312 53.589844 33.621094 53.8125 33.546875 53.886719 C 33.25 53.8125 33.027344 53.664062 32.730469 53.367188 C 31.914062 52.773438 30.726562 51.882812 28.054688 52.105469 C 25.902344 52.253906 24.714844 53.070312 23.898438 53.664062 C 23.378906 54.035156 23.082031 54.183594 22.785156 54.257812 L 22.785156 52.253906 C 23.15625 51.734375 26.273438 49.136719 29.6875 49.730469 Z M 26.496094 43.496094 C 27.386719 43.421875 27.757812 43.125 27.980469 42.828125 C 28.277344 42.605469 28.351562 42.457031 29.019531 42.753906 C 30.058594 43.273438 32.65625 45.871094 33.027344 47.058594 C 33.101562 47.28125 33.101562 47.28125 33.101562 47.355469 C 33.101562 47.355469 33.027344 47.355469 32.878906 47.355469 C 32.210938 47.28125 31.839844 47.058594 31.394531 46.6875 C 30.726562 46.242188 30.132812 45.722656 28.425781 46.390625 C 27.386719 46.835938 26.941406 46.910156 26.570312 46.910156 C 25.976562 46.984375 25.679688 47.058594 24.417969 48.023438 C 23.675781 48.617188 23.082031 49.0625 22.710938 49.507812 L 22.710938 45.945312 C 23.15625 45.5 25.085938 43.570312 26.496094 43.496094 Z M 25.457031 40.898438 C 26.421875 40.675781 27.015625 40.15625 27.609375 39.710938 C 28.277344 39.117188 28.796875 38.671875 29.910156 38.746094 C 31.320312 38.820312 32.359375 39.414062 32.582031 39.710938 C 32.582031 39.710938 32.507812 39.710938 32.507812 39.710938 C 32.136719 39.710938 31.765625 39.636719 31.394531 39.5625 C 30.726562 39.414062 30.058594 39.191406 29.316406 39.933594 C 28.796875 40.378906 28.425781 40.527344 27.832031 40.675781 C 27.3125 40.824219 26.644531 41.046875 25.753906 41.492188 C 24.046875 42.382812 24.121094 43.570312 24.269531 44.089844 C 23.675781 44.535156 23.15625 44.980469 22.785156 45.351562 L 22.785156 43.273438 C 22.785156 42.902344 23.75 41.269531 25.457031 40.898438 Z M 22.710938 39.859375 C 22.710938 39.859375 22.933594 39.265625 24.269531 38.96875 C 25.234375 38.746094 25.902344 37.929688 26.347656 37.261719 C 26.496094 37.113281 26.644531 36.890625 26.71875 36.742188 C 26.867188 36.964844 27.089844 37.335938 26.941406 37.78125 C 26.867188 38.300781 26.421875 38.746094 25.753906 39.117188 L 25.382812 39.339844 C 24.269531 39.933594 23.15625 40.527344 22.5625 41.34375 Z M 23.230469 33.027344 C 23.824219 32.65625 24.34375 31.914062 24.714844 31.320312 C 24.789062 31.171875 24.9375 30.949219 25.085938 30.800781 C 25.160156 31.023438 25.085938 31.394531 25.011719 31.691406 C 24.9375 32.136719 24.789062 32.65625 24.9375 33.175781 C 24.121094 33.917969 23.453125 34.214844 22.933594 34.363281 C 22.785156 34.4375 22.636719 34.511719 22.488281 34.585938 C 22.488281 34.511719 22.488281 34.363281 22.488281 34.289062 C 22.414062 34.066406 22.414062 33.546875 23.230469 33.027344 Z M 23.082031 34.882812 C 23.601562 34.660156 24.417969 34.363281 25.382812 33.472656 C 27.089844 31.839844 28.128906 31.246094 28.425781 31.246094 C 28.425781 31.46875 28.128906 31.839844 27.683594 32.210938 C 27.089844 32.730469 26.347656 33.472656 25.753906 34.660156 C 24.863281 36.519531 22.859375 37.335938 22.414062 37.410156 C 22.265625 37.335938 21.894531 37.113281 21.746094 36.667969 C 21.671875 36.371094 21.671875 36.074219 21.894531 35.773438 C 22.265625 35.179688 22.5625 35.03125 23.082031 34.882812 Z M 22.339844 28.425781 C 22.265625 26.792969 23.007812 25.679688 24.269531 25.457031 C 24.492188 25.457031 24.566406 25.457031 24.566406 25.53125 C 25.011719 26.050781 23.75 28.945312 23.378906 29.835938 C 22.710938 31.46875 22.191406 32.285156 21.894531 32.65625 C 21.820312 32.507812 21.746094 32.285156 21.597656 32.136719 C 21.523438 31.988281 21.449219 31.914062 21.375 31.765625 C 21.671875 31.320312 22.414062 30.058594 22.339844 28.425781 Z M 19.964844 23.824219 C 20.113281 23.527344 20.335938 23.453125 20.558594 23.527344 C 21.003906 23.675781 21.523438 24.492188 21.449219 25.753906 C 21.300781 27.460938 21.671875 28.203125 21.820312 28.5 C 21.820312 29.6875 21.375 30.726562 21.003906 31.171875 C 20.929688 31.097656 20.855469 30.949219 20.78125 30.875 C 20.039062 29.761719 19.222656 28.574219 18.925781 27.015625 C 18.851562 26.496094 18.628906 25.753906 18.40625 25.160156 C 18.777344 25.011719 19.371094 24.640625 19.964844 23.824219 Z M 18.40625 27.089844 C 18.703125 28.796875 19.519531 29.984375 20.335938 31.171875 C 20.632812 31.617188 20.855469 31.988281 21.152344 32.359375 C 21.894531 33.546875 21.894531 34.511719 21.894531 34.882812 C 21.746094 35.03125 21.597656 35.253906 21.449219 35.476562 C 21.300781 35.699219 21.226562 35.925781 21.226562 36.148438 C 21.078125 35.851562 20.929688 35.328125 21.003906 34.511719 C 21.078125 32.878906 20.929688 32.0625 18.777344 29.910156 C 16.921875 27.980469 16.773438 25.679688 17.21875 24.34375 C 17.21875 24.195312 17.292969 24.195312 17.292969 24.195312 C 17.441406 24.269531 17.664062 24.640625 17.886719 25.234375 L 17.886719 25.457031 L 17.960938 25.457031 C 18.109375 25.828125 18.332031 26.421875 18.40625 27.089844 Z M 17.960938 15.957031 L 17.886719 23.972656 C 17.664062 23.75 17.515625 23.601562 17.292969 23.527344 C 17.144531 23.527344 16.847656 23.601562 16.699219 24.121094 C 16.253906 25.605469 16.402344 28.128906 18.40625 30.207031 C 20.484375 32.359375 20.558594 33.027344 20.484375 34.4375 C 20.410156 35.550781 20.707031 36.445312 21.152344 36.742188 C 21.226562 36.816406 21.300781 36.816406 21.375 36.816406 C 21.597656 37.261719 21.96875 37.558594 22.117188 37.632812 L 22.117188 38.078125 C 20.929688 37.113281 17.886719 34.734375 15.140625 35.105469 C 14.621094 35.179688 14.175781 35.253906 13.730469 35.402344 L 14.027344 21.300781 C 14.027344 21.152344 13.804688 20.929688 13.433594 20.484375 L 13.285156 10.984375 Z M 13.507812 21.449219 C 13.507812 21.746094 13.136719 22.414062 12.839844 22.5625 C 12.765625 22.5625 12.765625 22.5625 12.691406 22.5625 C 12.171875 22.042969 5.640625 16.996094 5.34375 16.773438 L 5.269531 16.847656 L 5.269531 14.027344 C 8.460938 16.699219 13.136719 20.855469 13.507812 21.449219 Z M 5.121094 2.523438 L 12.765625 10.539062 L 12.914062 20.039062 C 11.578125 18.703125 8.980469 16.476562 5.269531 13.285156 Z M 9.722656 77.042969 C 9.128906 76.894531 8.609375 76.671875 8.164062 76.449219 C 8.164062 75.855469 8.089844 74.296875 7.050781 72.441406 C 6.085938 70.882812 4.601562 69.695312 3.785156 69.175781 C 4.007812 69.101562 4.230469 69.027344 4.453125 68.953125 C 5.046875 68.804688 5.492188 68.730469 5.9375 68.730469 C 6.234375 69.101562 7.273438 70.289062 8.609375 72.8125 C 9.648438 75.039062 9.796875 76.449219 9.722656 77.042969 Z M 18.40625 80.085938 C 15.734375 78.898438 13.507812 78.230469 11.503906 77.5625 C 11.058594 77.414062 10.6875 77.339844 10.316406 77.191406 C 10.390625 76.597656 10.316406 74.964844 9.128906 72.515625 C 8.164062 70.585938 7.347656 69.472656 6.828125 68.804688 C 7.71875 69.027344 8.460938 69.695312 9.425781 70.660156 C 10.019531 71.179688 10.6875 71.847656 11.503906 72.515625 C 14.175781 74.59375 21.597656 78.453125 24.417969 79.863281 C 22.191406 79.863281 19.667969 80.160156 18.851562 80.234375 C 18.628906 80.234375 18.480469 80.160156 18.40625 80.085938 Z M 19.742188 80.753906 C 22.933594 80.457031 27.015625 80.308594 27.460938 81.050781 C 27.90625 81.71875 27.683594 82.980469 27.3125 84.019531 C 27.089844 84.539062 26.941406 84.835938 26.792969 84.984375 C 26.347656 83.945312 24.492188 82.90625 19.742188 80.753906 Z M 4.007812 97.007812 L 3.710938 97.007812 L 3.933594 86.617188 C 4.082031 86.839844 4.230469 87.0625 4.378906 87.210938 Z M 8.980469 93.445312 L 8.980469 88.84375 C 9.054688 88.84375 9.128906 88.84375 9.203125 88.84375 L 9.203125 93.445312 Z M 37.261719 101.238281 C 37.039062 102.796875 35.777344 104.132812 33.992188 105.171875 C 34.289062 102.574219 33.992188 93.667969 33.917969 91.292969 C 35.105469 90.921875 36.074219 90.550781 36.519531 90.105469 C 36.890625 91.8125 37.855469 97.453125 37.261719 101.238281 Z M 50.546875 95.597656 L 50.472656 95.597656 L 50.472656 83.203125 L 50.695312 83.203125 Z M 31.914062 82.683594 L 31.988281 87.210938 L 31.691406 87.210938 L 31.691406 82.238281 L 53.515625 82.3125 C 53.886719 82.460938 54.332031 82.609375 54.851562 82.683594 Z M 52.476562 81.71875 L 34.734375 81.644531 L 34.734375 80.085938 L 51.882812 80.53125 C 51.957031 80.902344 52.03125 81.273438 52.476562 81.71875 Z M 51.066406 94.929688 L 59.972656 92.851562 Z M 51.066406 94.335938 L 51.140625 83.203125 L 58.636719 83.203125 C 61.679688 83.5 65.390625 83.574219 69.027344 83.574219 C 72.738281 83.574219 76.375 83.5 79.121094 83.351562 L 79.195312 87.804688 Z M 79.269531 88.917969 L 79.34375 94.484375 L 73.480469 90.253906 Z M 72.515625 90.476562 L 72.8125 90.402344 L 79.417969 95.152344 L 79.417969 95.375 Z M 80.160156 98.789062 L 80.011719 98.789062 L 79.714844 83.277344 C 79.9375 83.277344 80.085938 83.277344 80.234375 83.277344 Z M 90.328125 91.21875 L 90.402344 92.925781 L 80.828125 90.847656 L 80.828125 89.363281 Z M 58.933594 82.683594 L 58.5625 82.683594 C 55.742188 82.386719 53.589844 82.015625 52.921875 81.347656 C 52.402344 80.902344 52.550781 80.605469 52.550781 80.53125 C 53.144531 79.046875 59.15625 77.5625 71.03125 77.5625 C 71.253906 77.5625 71.402344 77.5625 71.625 77.5625 C 71.847656 77.5625 84.984375 77.859375 88.695312 79.417969 C 89.585938 79.789062 90.03125 80.160156 90.03125 80.53125 C 89.957031 80.976562 89.214844 81.421875 87.804688 81.867188 C 86.320312 82.3125 84.167969 82.683594 81.347656 82.832031 C 74.667969 83.054688 65.167969 83.203125 58.933594 82.683594 Z M 74.667969 62.792969 C 74.59375 61.753906 74.445312 60.640625 74.445312 60.269531 C 74.742188 60.195312 75.707031 60.34375 76.597656 60.417969 C 77.191406 60.492188 77.785156 60.566406 78.453125 60.640625 C 78.15625 61.085938 78.527344 61.902344 79.046875 63.164062 C 79.269531 63.683594 79.566406 64.277344 79.714844 64.796875 C 80.234375 66.207031 80.308594 68.285156 80.308594 69.769531 C 80.308594 69.992188 80.308594 70.214844 80.308594 70.4375 C 79.417969 70.660156 76.152344 71.402344 74.890625 72.070312 C 74.816406 71.996094 74.742188 71.921875 74.667969 71.847656 C 74.742188 71.402344 74.964844 70.140625 75.039062 68.433594 C 75.113281 67.320312 74.890625 64.796875 74.667969 62.792969 Z M 69.25 39.191406 L 69.25 37.410156 L 82.90625 37.410156 L 82.757812 60.269531 C 82.3125 60.269531 81.792969 60.269531 81.347656 60.269531 L 81.125 39.117188 L 69.25 39.117188 Z M 70.882812 39.710938 L 70.808594 59.75 C 70.363281 59.824219 69.84375 59.824219 69.25 59.898438 L 69.25 39.710938 Z M 96.042969 62.125 L 95.96875 24.9375 L 101.089844 24.9375 L 101.535156 65.390625 C 100.050781 65.167969 97.75 64.871094 96.042969 64.722656 C 96.117188 64.203125 96.117188 62.570312 96.042969 62.125 Z M 101.386719 65.984375 C 101.015625 66.132812 100.644531 66.429688 100.570312 66.875 C 100.496094 67.46875 100.496094 73.257812 100.496094 77.414062 C 100.496094 77.265625 100.496094 77.117188 100.421875 77.042969 C 100.347656 76.449219 96.488281 74.371094 92.925781 72.515625 C 92.925781 71.699219 92.851562 68.582031 92.925781 67.542969 C 93.074219 66.207031 93.519531 65.464844 94.335938 65.242188 C 95.078125 65.09375 98.492188 65.539062 101.386719 65.984375 Z M 90.550781 80.53125 C 90.550781 80.457031 90.550781 80.457031 90.550781 80.382812 L 99.976562 80.457031 L 100.050781 81.644531 L 89.363281 81.792969 C 89.957031 81.421875 90.476562 80.976562 90.550781 80.53125 Z M 88.84375 78.824219 C 86.988281 78.082031 83.128906 77.636719 79.492188 77.339844 L 99.902344 77.414062 C 99.976562 78.007812 99.976562 79.195312 99.902344 79.863281 L 90.328125 79.789062 C 90.105469 79.492188 89.585938 79.121094 88.84375 78.824219 Z M 95.523438 64.722656 C 94.929688 64.722656 94.484375 64.722656 94.261719 64.796875 C 92.851562 65.167969 92.554688 66.578125 92.480469 67.542969 C 92.40625 68.507812 92.40625 71.179688 92.40625 72.292969 C 92.332031 72.21875 92.183594 72.21875 92.109375 72.144531 C 92.257812 71.03125 91.664062 68.65625 91.144531 67.320312 C 90.476562 65.761719 90.550781 64.128906 90.625 63.089844 C 90.625 62.792969 90.625 62.644531 90.625 62.496094 C 90.625 62.421875 90.625 62.347656 90.476562 62.273438 C 92.925781 62.199219 94.929688 62.199219 95.449219 62.347656 C 95.523438 62.792969 95.523438 64.054688 95.523438 64.722656 Z M 80.976562 61.53125 C 82.164062 61.828125 83.574219 62.199219 85.207031 62.496094 C 85.652344 62.496094 86.023438 62.421875 86.46875 62.421875 C 88.101562 62.347656 89.660156 62.421875 90.03125 62.644531 C 90.03125 62.792969 90.03125 62.941406 90.03125 63.164062 C 89.957031 64.128906 89.882812 65.984375 90.625 67.617188 C 91.367188 69.324219 91.664062 71.699219 91.589844 72.21875 C 90.105469 71.699219 88.25 71.179688 86.765625 71.179688 C 86.46875 71.179688 86.171875 71.179688 85.949219 71.253906 C 85.652344 71.328125 85.429688 71.328125 85.132812 71.402344 C 83.796875 71.699219 81.792969 72.070312 81.199219 71.699219 C 81.125 71.625 81.125 71.625 81.125 71.550781 C 81.050781 71.253906 81.050781 70.585938 81.050781 69.917969 C 81.050781 68.359375 80.976562 66.28125 80.457031 64.722656 C 80.234375 64.128906 79.9375 63.535156 79.714844 63.015625 C 79.34375 62.273438 78.898438 61.234375 79.046875 61.011719 C 79.046875 61.011719 79.121094 61.011719 79.195312 61.011719 C 79.492188 61.085938 80.160156 61.308594 80.976562 61.53125 Z M 80.753906 60.863281 C 80.902344 60.863281 80.976562 60.863281 81.125 60.863281 C 83.5 60.9375 86.023438 60.714844 87.433594 60.566406 C 87.953125 60.492188 88.398438 60.492188 88.621094 60.492188 C 88.621094 60.714844 88.546875 61.234375 88.324219 61.828125 C 87.730469 61.828125 87.136719 61.902344 86.46875 61.902344 C 85.949219 61.902344 85.503906 61.976562 85.28125 61.976562 C 83.648438 61.753906 82.238281 61.382812 81.125 61.011719 C 80.976562 60.9375 80.902344 60.863281 80.753906 60.863281 Z M 88.917969 61.753906 C 89.066406 61.234375 89.289062 60.417969 89.066406 60.121094 C 88.992188 59.972656 88.84375 59.898438 88.695312 59.898438 C 88.546875 59.898438 88.175781 59.898438 87.359375 59.972656 C 86.394531 60.046875 84.910156 60.195312 83.351562 60.269531 L 83.5 36.816406 L 69.25 36.816406 L 69.25 24.863281 L 95.449219 25.011719 L 95.523438 61.828125 C 94.78125 61.679688 93 61.605469 88.917969 61.753906 Z M 71.476562 39.710938 L 80.605469 39.710938 L 80.828125 60.269531 C 79.34375 60.195312 77.859375 60.046875 76.671875 59.898438 C 75.335938 59.75 74.667969 59.675781 74.222656 59.75 C 73.925781 59.453125 73.40625 59.15625 72.589844 59.453125 C 72.367188 59.527344 71.996094 59.601562 71.402344 59.675781 Z M 80.382812 71.105469 C 80.382812 71.328125 80.382812 71.476562 80.457031 71.625 C 80.53125 71.847656 80.605469 71.996094 80.828125 72.144531 C 81.570312 72.664062 83.5 72.292969 85.207031 71.921875 C 85.503906 71.847656 85.800781 71.773438 86.023438 71.773438 C 87.136719 71.550781 89.140625 71.921875 91.589844 72.738281 C 91.664062 72.738281 91.664062 72.738281 91.738281 72.738281 C 91.8125 72.738281 91.960938 72.664062 92.035156 72.589844 C 95.152344 74.222656 98.417969 76.003906 99.605469 76.820312 L 79.046875 76.746094 C 78.304688 75.78125 76.820312 74 75.484375 72.589844 C 76.375 72.070312 79.046875 71.402344 80.382812 71.105469 Z M 102.277344 87.285156 L 101.90625 87.285156 L 101.832031 82.980469 L 102.277344 82.980469 Z M 103.167969 82.386719 L 85.652344 82.757812 C 86.46875 82.609375 87.136719 82.460938 87.804688 82.238281 L 103.167969 82.015625 Z M 103.167969 81.570312 L 101.089844 81.570312 C 101.089844 77.488281 101.089844 67.691406 101.164062 66.949219 C 101.238281 66.429688 102.203125 66.207031 102.796875 66.207031 C 103.019531 67.542969 103.09375 75.855469 103.167969 81.570312 Z M 67.765625 22.933594 L 102.648438 23.007812 L 102.722656 65.613281 C 102.574219 65.613281 102.351562 65.539062 102.203125 65.539062 L 101.757812 24.417969 L 68.804688 24.269531 L 68.804688 59.898438 C 68.433594 59.898438 68.0625 59.898438 67.691406 59.898438 Z M 55.742188 60.269531 C 56.335938 60.195312 58.933594 60.269531 61.011719 60.34375 C 62.792969 60.417969 64.722656 60.492188 66.058594 60.492188 C 69.175781 60.492188 71.550781 60.269531 72.738281 59.972656 C 73.40625 59.75 73.777344 60.046875 73.851562 60.195312 C 73.851562 60.492188 73.925781 61.234375 74.074219 62.792969 C 74.296875 64.796875 74.519531 67.246094 74.445312 68.507812 C 74.371094 69.84375 74.222656 70.882812 74.148438 71.476562 C 73.777344 71.179688 73.480469 70.882812 73.183594 70.734375 C 71.402344 69.695312 59.378906 70.289062 56.929688 70.734375 C 56.558594 70.808594 56.261719 70.808594 55.890625 70.808594 C 55.890625 66.875 55.667969 61.160156 55.742188 60.269531 Z M 39.933594 60.714844 C 41.566406 60.269531 53.21875 60.34375 55.222656 60.34375 C 55.148438 61.457031 55.222656 65.019531 55.445312 70.808594 C 54.703125 70.808594 53.886719 70.660156 52.996094 70.511719 C 51.511719 70.289062 49.804688 70.066406 47.652344 70.140625 C 47.355469 70.140625 47.058594 70.214844 46.761719 70.214844 C 46.835938 61.085938 46.539062 60.863281 46.390625 60.789062 L 46.242188 60.714844 L 46.09375 60.863281 C 45.648438 61.160156 43.347656 62.273438 42.605469 62.347656 C 41.640625 62.496094 39.191406 62.421875 38.449219 62.050781 C 38.226562 61.902344 37.929688 61.753906 37.707031 61.605469 C 37.632812 61.605469 37.632812 61.53125 37.558594 61.53125 C 38.003906 61.308594 38.894531 61.011719 39.933594 60.714844 Z M 36.816406 61.828125 C 36.816406 61.753906 36.816406 61.753906 36.816406 61.828125 C 36.964844 61.828125 37.1875 61.976562 37.335938 62.125 C 37.558594 62.273438 37.855469 62.421875 38.152344 62.570312 C 39.117188 63.015625 41.789062 63.089844 42.679688 62.941406 C 43.496094 62.867188 45.351562 61.902344 46.09375 61.53125 C 46.242188 62.71875 46.242188 67.320312 46.242188 70.4375 C 43.496094 70.957031 39.933594 72.664062 37.410156 74.148438 C 37.261719 73.183594 37.410156 71.847656 37.484375 70.585938 C 37.632812 68.953125 37.78125 67.246094 37.410156 66.132812 C 36.667969 63.980469 36.667969 62.347656 36.816406 61.828125 Z M 34.957031 65.6875 C 35.476562 65.464844 36 65.242188 36.519531 65.09375 C 36.59375 65.464844 36.742188 65.835938 36.890625 66.207031 C 37.261719 67.246094 37.113281 68.878906 36.964844 70.4375 C 36.816406 71.921875 36.742188 73.332031 36.964844 74.371094 C 36.148438 74.890625 35.476562 75.335938 35.03125 75.632812 Z M 34.957031 76.449219 C 35.476562 75.707031 43.347656 70.882812 47.652344 70.734375 C 49.730469 70.660156 51.4375 70.882812 52.921875 71.105469 C 54.480469 71.328125 55.816406 71.550781 57.152344 71.253906 C 59.972656 70.734375 71.550781 70.363281 73.035156 71.179688 C 74.222656 71.847656 76.894531 75.039062 78.230469 76.746094 L 34.882812 76.597656 C 34.882812 76.523438 34.882812 76.523438 34.957031 76.449219 Z M 34.734375 77.191406 L 62.496094 77.265625 C 56.929688 77.710938 53.144531 78.675781 52.253906 80.011719 L 34.808594 79.566406 C 34.660156 78.972656 34.585938 77.933594 34.734375 77.191406 Z M 31.839844 67.914062 C 31.914062 67.246094 33.101562 66.503906 34.4375 65.910156 L 34.4375 76.226562 C 33.84375 77.265625 34.214844 79.492188 34.289062 79.863281 L 34.289062 81.71875 L 31.765625 81.71875 C 31.691406 79.863281 31.691406 69.324219 31.839844 67.914062 Z M 11.429688 105.914062 L 13.878906 103.316406 C 14.101562 104.28125 14.769531 105.320312 16.179688 106.136719 Z M 17.21875 106.0625 C 15.066406 105.023438 14.398438 103.613281 14.398438 102.648438 C 14.398438 99.902344 14.769531 92.703125 15.585938 90.921875 C 15.882812 91.21875 16.550781 91.441406 17.292969 91.589844 Z M 15.882812 90.550781 C 15.882812 90.550781 15.957031 89.957031 20.1875 88.992188 C 20.484375 88.917969 29.316406 87.507812 34.511719 88.546875 C 36.074219 88.84375 36.445312 89.214844 36.445312 89.4375 C 36.371094 90.179688 32.582031 91.589844 26.570312 91.738281 C 19.816406 91.738281 15.957031 91.070312 15.882812 90.550781 Z M 21.894531 107.328125 C 20.1875 107.101562 18.851562 106.804688 17.738281 106.359375 L 17.886719 91.8125 C 19.148438 92.035156 20.78125 92.109375 22.265625 92.183594 Z M 27.832031 107.175781 C 26.050781 107.476562 24.195312 107.550781 22.414062 107.402344 L 22.710938 92.183594 C 23.824219 92.257812 24.789062 92.257812 25.53125 92.257812 C 25.976562 92.257812 26.347656 92.257812 26.496094 92.257812 C 27.015625 92.257812 27.460938 92.257812 27.90625 92.183594 Z M 33.398438 105.46875 C 33.101562 105.617188 32.804688 105.765625 32.433594 105.914062 L 32.359375 105.914062 C 31.171875 106.433594 29.761719 106.804688 28.351562 107.027344 L 28.425781 92.035156 C 30.28125 91.886719 31.914062 91.664062 33.324219 91.292969 C 33.546875 96.5625 33.695312 104.503906 33.398438 105.46875 Z M 33.398438 105.46875 " fill-opacity="1" fill-rule="nonzero"/></g><path fill="#5f6738" d="M 111.484375 9.574219 L 111.484375 8.980469 L 17.960938 9.054688 L 10.835938 0.296875 L 10.390625 0.59375 L 17.738281 9.648438 Z M 111.484375 9.574219 " fill-opacity="1" fill-rule="nonzero"/><path fill="#5f6738" d="M 38.449219 57.671875 L 58.265625 57.746094 L 58.117188 27.90625 L 38.523438 27.90625 Z M 39.117188 28.5 L 57.597656 28.5 L 57.746094 57.226562 L 39.042969 57.152344 Z M 39.117188 28.5 " fill-opacity="1" fill-rule="nonzero"/><path fill="#5f6738" d="M 57.300781 28.722656 L 39.117188 28.648438 L 38.96875 57.003906 L 57.523438 57.152344 Z M 39.5625 56.484375 L 39.710938 29.242188 L 56.78125 29.316406 L 57.003906 56.558594 Z M 39.5625 56.484375 " fill-opacity="1" fill-rule="nonzero"/><path fill="#5f6738" d="M 79.269531 40.824219 L 72.8125 40.824219 L 72.664062 57.523438 L 79.121094 57.597656 Z M 78.601562 57.003906 L 73.257812 56.929688 L 73.332031 41.34375 L 78.675781 41.34375 Z M 78.601562 57.003906 " fill-opacity="1" fill-rule="nonzero"/></svg>