<svg xmlns="http://www.w3.org/2000/svg" xmlns:xlink="http://www.w3.org/1999/xlink" width="150" zoomAndPan="magnify" viewBox="0 0 112.5 112.499997" height="150" preserveAspectRatio="xMidYMid meet" version="1.0"><defs><clipPath id="15db9e1d5b"><path d="M 38 16.691406 L 89.503906 16.691406 L 89.503906 66 L 38 66 Z M 38 16.691406 " clip-rule="nonzero"/></clipPath><clipPath id="fb3c3c3186"><path d="M 22.496094 67 L 87 67 L 87 94.234375 L 22.496094 94.234375 Z M 22.496094 67 " clip-rule="nonzero"/></clipPath></defs><g clip-path="url(#15db9e1d5b)"><path fill="#5f6738" d="M 61.902344 17.304688 C 63.917969 16.953125 66.175781 16.828125 68.675781 16.929688 C 70.125 16.984375 71.101562 17.078125 71.609375 17.210938 C 71.703125 17.234375 72.707031 17.480469 74.621094 17.949219 C 76.40625 18.382812 77.785156 19.175781 79.742188 20.402344 C 80.625 20.960938 81.421875 21.886719 82.136719 23.179688 C 82.214844 23.324219 82.300781 23.457031 82.394531 23.589844 C 82.457031 23.679688 82.667969 23.929688 83.023438 24.339844 C 83.511719 24.910156 83.773438 25.546875 84.136719 26.363281 C 84.195312 26.5 84.269531 26.628906 84.359375 26.75 C 85.339844 28.117188 86.191406 29.683594 86.921875 31.453125 C 87.140625 31.988281 87.375 32.476562 87.617188 32.90625 C 88.050781 33.691406 88.46875 34.378906 88.601562 35.160156 C 88.679688 35.625 88.847656 36.539062 89.105469 37.898438 C 89.234375 38.59375 89.300781 39.347656 89.300781 40.152344 C 89.300781 41.480469 89.289062 42.234375 89.265625 42.417969 C 89.109375 43.597656 88.972656 44.851562 88.851562 46.175781 C 88.710938 47.671875 88.507812 48.910156 88.238281 49.890625 C 87.523438 52.507812 86.238281 54.75 84.378906 56.625 C 82.851562 58.167969 81.753906 60.097656 79.738281 61.144531 C 78.648438 61.710938 77.34375 62.433594 75.824219 63.308594 C 75.300781 63.613281 74.730469 63.863281 74.117188 64.050781 C 72.902344 64.433594 71.261719 64.859375 69.203125 65.335938 C 68.191406 65.570312 67.25 65.695312 66.378906 65.710938 C 64.855469 65.738281 63.367188 65.746094 61.917969 65.734375 C 61.613281 65.734375 61.316406 65.703125 61.03125 65.644531 C 57.265625 64.882812 54.328125 64.148438 52.214844 63.4375 C 51.222656 63.105469 50.054688 62.507812 48.710938 61.640625 C 47.15625 60.640625 45.679688 59.496094 44.289062 58.207031 C 43.503906 57.484375 42.640625 56.480469 42.109375 55.507812 C 41.203125 53.855469 40.5625 52.394531 40.195312 51.136719 C 39.976562 50.394531 39.644531 48.960938 39.199219 46.835938 C 38.714844 44.519531 38.582031 42.25 38.808594 40.03125 C 38.941406 38.707031 39.066406 37.695312 39.175781 37 C 39.464844 35.1875 40.085938 33.539062 40.921875 31.597656 C 41.679688 29.84375 42.617188 28.210938 43.734375 26.703125 C 47.878906 21.105469 55.09375 18.484375 61.902344 17.304688 Z M 74.679688 26.445312 C 75.472656 27.046875 75.910156 27.582031 76.71875 28.53125 C 76.878906 28.714844 77.089844 28.847656 77.324219 28.910156 C 78.207031 29.132812 79.105469 29.230469 80.019531 29.199219 C 80.359375 29.183594 80.9375 29.398438 81.085938 29.613281 C 81.5 30.21875 82.035156 30.703125 82.691406 31.070312 C 83.046875 31.265625 83.328125 31.648438 83.324219 32.011719 C 83.304688 33.472656 83.34375 34.753906 84.710938 35.652344 C 84.734375 35.667969 84.769531 35.65625 84.785156 35.632812 C 84.796875 35.617188 84.796875 35.59375 84.785156 35.574219 C 84.394531 35 84.230469 34.410156 84.300781 33.800781 C 84.304688 33.761719 84.316406 33.722656 84.339844 33.6875 L 84.550781 33.324219 C 84.605469 33.230469 84.625 33.117188 84.597656 33.011719 C 84.480469 32.464844 84.523438 31.949219 84.726562 31.460938 C 84.757812 31.390625 84.769531 31.082031 84.769531 30.539062 C 84.769531 30.445312 84.746094 30.355469 84.707031 30.269531 C 84.386719 29.59375 84.003906 28.941406 83.558594 28.304688 C 82.972656 27.460938 82.6875 26.84375 82.339844 26.074219 C 82.175781 25.71875 81.984375 25.414062 81.761719 25.164062 C 81.050781 24.371094 80.195312 23.355469 79.878906 22.261719 C 79.851562 22.167969 79.800781 22.085938 79.726562 22.015625 C 79.453125 21.761719 79.140625 21.535156 78.785156 21.332031 C 77.5625 20.644531 76.304688 20.027344 75.015625 19.484375 C 74.753906 19.371094 74.433594 19.296875 74.050781 19.253906 C 73.078125 19.152344 72.53125 18.972656 71.25 18.699219 C 69.363281 18.304688 67.144531 18.429688 65.066406 18.460938 C 65.042969 18.460938 65.023438 18.476562 65.023438 18.503906 C 65.023438 18.515625 65.03125 18.527344 65.042969 18.539062 C 65.460938 18.84375 65.929688 18.96875 66.449219 18.910156 C 67.121094 18.832031 67.746094 18.8125 67.695312 19.585938 C 67.632812 20.566406 66.898438 20.84375 65.996094 21.128906 C 65.578125 21.261719 65.183594 21.328125 64.816406 21.332031 C 64.746094 21.332031 64.679688 21.34375 64.613281 21.359375 C 63.566406 21.621094 62.582031 21.695312 61.664062 21.582031 C 61.515625 21.5625 61.367188 21.59375 61.238281 21.667969 L 60.171875 22.277344 C 60.128906 22.300781 60.078125 22.316406 60.027344 22.320312 L 59.082031 22.363281 C 59.035156 22.363281 59 22.40625 59.003906 22.453125 C 59.003906 22.46875 59.007812 22.484375 59.019531 22.5 C 60.054688 23.816406 57.445312 23.574219 56.890625 23.578125 C 56.816406 23.578125 56.753906 23.636719 56.753906 23.707031 C 56.753906 23.714844 56.753906 23.726562 56.757812 23.738281 C 56.917969 24.410156 56.132812 24.515625 55.738281 24.773438 C 55.707031 24.792969 55.699219 24.828125 55.714844 24.859375 C 55.726562 24.875 55.742188 24.886719 55.757812 24.886719 C 56.117188 24.960938 56.480469 24.953125 56.851562 24.863281 C 57.765625 24.640625 58.707031 24.308594 59.671875 23.867188 C 60.121094 23.660156 60.699219 23.597656 61.410156 23.675781 C 61.496094 23.683594 61.582031 23.714844 61.652344 23.773438 L 63.003906 24.8125 C 63.023438 24.828125 63.058594 24.828125 63.074219 24.804688 C 63.089844 24.792969 63.09375 24.773438 63.085938 24.757812 C 62.976562 24.371094 62.914062 24.148438 62.902344 24.09375 C 62.84375 23.871094 62.945312 23.640625 63.144531 23.542969 C 63.585938 23.320312 64.183594 23.574219 64.695312 23.78125 C 64.808594 23.828125 64.9375 23.828125 65.054688 23.785156 C 65.386719 23.667969 65.71875 23.386719 66.082031 23.273438 C 66.832031 23.039062 67.332031 22.871094 67.582031 22.769531 C 68.429688 22.421875 69.214844 22.40625 69.996094 22.445312 C 70.226562 22.457031 70.445312 22.570312 70.582031 22.757812 C 70.976562 23.28125 71.84375 24.710938 70.675781 24.90625 C 70.207031 24.984375 69.316406 25 68.011719 24.949219 C 67.914062 24.949219 67.5625 25.015625 66.949219 25.15625 C 66.925781 25.164062 66.910156 25.1875 66.917969 25.210938 C 66.921875 25.222656 66.929688 25.234375 66.941406 25.238281 C 67.472656 25.472656 68.28125 25.425781 68.835938 25.722656 C 69.742188 26.207031 70.820312 26.695312 70.597656 27.847656 C 70.585938 27.917969 70.558594 27.988281 70.523438 28.046875 C 70.261719 28.492188 69.84375 28.648438 69.261719 28.527344 C 68.617188 28.390625 67.472656 27.957031 66.453125 28.046875 C 66.347656 28.058594 66.25 28.089844 66.167969 28.144531 C 65.414062 28.632812 64.917969 28.867188 64.050781 28.535156 C 63.703125 28.398438 63.363281 28.308594 63.03125 28.261719 C 62.90625 28.246094 62.777344 28.257812 62.660156 28.300781 C 62.097656 28.503906 61.375 28.71875 61.230469 27.851562 C 61.171875 27.503906 61.136719 26.976562 61.128906 26.285156 C 61.128906 26.183594 61.050781 26.101562 60.953125 26.089844 C 60.128906 26 59.914062 26.796875 59.234375 26.917969 C 58.273438 27.09375 57.0625 27.238281 55.597656 27.363281 C 55.535156 27.367188 55.484375 27.414062 55.472656 27.472656 C 55.386719 27.980469 55.105469 28.359375 54.640625 28.617188 C 54.371094 28.765625 53.914062 29.089844 53.265625 29.582031 C 53.113281 29.699219 52.972656 29.898438 52.84375 30.1875 C 52.730469 30.441406 52.4375 30.671875 51.964844 30.882812 C 51.570312 31.058594 51.246094 31.367188 50.992188 31.804688 C 50.957031 31.859375 50.945312 31.925781 50.949219 31.992188 L 51.089844 33.644531 C 51.089844 33.675781 51.097656 33.707031 51.109375 33.734375 L 52.347656 37.222656 C 52.363281 37.269531 52.410156 37.300781 52.464844 37.296875 C 53.308594 37.246094 54.269531 37.347656 55.347656 37.59375 C 56.46875 37.851562 57.261719 37.871094 58.28125 37.671875 C 58.675781 37.597656 59.03125 37.691406 59.210938 38.058594 C 59.265625 38.175781 59.320312 38.269531 59.375 38.335938 C 59.414062 38.390625 59.480469 38.417969 59.546875 38.402344 C 60.328125 38.242188 61.039062 38.101562 61.300781 38.917969 C 61.371094 39.144531 61.476562 39.664062 61.613281 40.472656 C 61.640625 40.640625 61.714844 40.796875 61.832031 40.921875 C 62.042969 41.15625 62.160156 41.351562 62.179688 41.507812 C 62.191406 41.628906 62.273438 41.730469 62.386719 41.769531 C 63.472656 42.132812 63.351562 43.007812 63.335938 44.082031 C 63.320312 44.851562 63.101562 45.148438 62.425781 45.511719 C 62.332031 45.5625 62.296875 45.679688 62.347656 45.773438 C 62.351562 45.78125 62.355469 45.785156 62.359375 45.792969 C 62.902344 46.527344 63.21875 47.316406 63.308594 48.164062 C 63.316406 48.234375 63.347656 48.304688 63.394531 48.359375 C 63.707031 48.710938 63.882812 48.9375 63.925781 49.039062 C 64.125 49.519531 64.128906 50.019531 63.933594 50.542969 C 63.910156 50.609375 63.933594 50.683594 63.992188 50.722656 C 64.371094 50.988281 64.59375 51.207031 64.652344 51.378906 C 64.898438 52.078125 65.050781 52.996094 65.109375 54.136719 C 65.117188 54.203125 65.132812 54.265625 65.164062 54.324219 L 65.410156 54.808594 C 65.476562 54.9375 65.640625 54.992188 65.777344 54.921875 C 65.800781 54.910156 65.824219 54.890625 65.84375 54.871094 C 66.460938 54.246094 67.148438 53.78125 67.910156 53.472656 C 68.164062 53.371094 68.363281 53.203125 68.511719 52.964844 C 68.890625 52.359375 69.386719 51.816406 70.003906 51.339844 C 70.496094 50.960938 70.617188 50.453125 70.359375 49.816406 C 70.21875 49.453125 70.265625 49.0625 70.503906 48.652344 C 70.710938 48.292969 71.527344 48.21875 71.746094 47.945312 C 72.078125 47.539062 72.433594 47.179688 72.8125 46.867188 C 73.421875 46.375 73.730469 45.867188 73.671875 45.167969 C 73.664062 45.085938 73.636719 45.011719 73.589844 44.949219 C 73.304688 44.566406 73.257812 44.085938 73.449219 43.507812 C 73.476562 43.421875 73.476562 43.324219 73.445312 43.238281 C 73.332031 42.9375 73.011719 42.734375 72.941406 42.398438 C 72.78125 41.636719 73.386719 41.203125 74.015625 40.652344 C 74.019531 40.644531 74.027344 40.636719 74.035156 40.632812 L 75.671875 39.542969 C 75.765625 39.480469 75.839844 39.394531 75.890625 39.296875 C 76.070312 38.941406 76.3125 38.578125 76.613281 38.210938 C 76.957031 37.796875 77.214844 37.222656 77.34375 36.773438 C 77.371094 36.679688 77.316406 36.582031 77.21875 36.558594 C 77.191406 36.546875 77.160156 36.546875 77.132812 36.554688 C 76.398438 36.714844 75.277344 37.027344 74.832031 36.472656 C 74.148438 35.621094 73.320312 34.875 72.648438 33.996094 C 72.101562 33.285156 71.3125 32.667969 70.871094 32.019531 C 70.339844 31.242188 70.089844 30.308594 70.121094 29.222656 C 70.121094 29.132812 70.148438 29.050781 70.199219 28.976562 C 70.488281 28.5625 71.019531 28.730469 71.386719 29.03125 C 72.320312 29.804688 73.074219 31.09375 73.527344 32.183594 C 73.554688 32.25 73.597656 32.304688 73.65625 32.34375 L 74.5 32.902344 C 74.511719 32.910156 74.523438 32.921875 74.53125 32.933594 L 75.738281 34.148438 C 75.835938 34.25 76 34.253906 76.105469 34.152344 C 76.113281 34.144531 76.117188 34.140625 76.121094 34.136719 C 76.539062 33.652344 77.121094 33.21875 77.867188 32.84375 C 78.117188 32.71875 78.3125 32.496094 78.402344 32.230469 L 78.730469 31.269531 C 78.785156 31.117188 78.699219 30.949219 78.542969 30.894531 C 78.5 30.882812 78.453125 30.878906 78.410156 30.882812 L 76.601562 31.121094 C 76.421875 31.148438 76.242188 31.113281 76.082031 31.03125 C 75.089844 30.511719 74.523438 30.226562 74.378906 30.164062 C 73.71875 29.878906 73.136719 28.65625 73.109375 28.070312 C 73.070312 27.195312 73.425781 26.609375 74.167969 26.308594 C 74.191406 26.296875 74.203125 26.261719 74.191406 26.238281 C 74.1875 26.226562 74.175781 26.214844 74.160156 26.210938 C 73.730469 26.078125 72.960938 26.320312 72.808594 25.566406 C 72.765625 25.359375 72.859375 25.175781 72.890625 24.988281 C 72.902344 24.910156 72.890625 24.828125 72.855469 24.753906 C 72.511719 24.042969 72.324219 23.652344 72.292969 23.582031 C 72.234375 23.449219 72.238281 23.207031 72.316406 22.859375 C 72.328125 22.792969 72.367188 22.734375 72.421875 22.695312 L 73.082031 22.214844 C 73.136719 22.175781 73.199219 22.148438 73.269531 22.136719 C 74.160156 21.949219 74.179688 23.007812 74.492188 23.527344 C 74.535156 23.59375 74.597656 23.648438 74.671875 23.683594 C 75.386719 24.027344 75.796875 24.589844 75.894531 25.363281 C 76.003906 26.191406 75.464844 26.488281 74.726562 26.339844 C 74.695312 26.335938 74.664062 26.351562 74.65625 26.386719 C 74.648438 26.40625 74.660156 26.433594 74.679688 26.445312 Z M 64.179688 18.53125 L 62.320312 18.804688 C 62.238281 18.820312 62.179688 18.890625 62.179688 18.972656 C 62.175781 19.65625 63.273438 19.597656 63.679688 19.609375 C 63.753906 19.609375 63.8125 19.554688 63.816406 19.480469 C 63.816406 19.476562 63.816406 19.46875 63.816406 19.464844 C 63.785156 19.121094 63.921875 18.847656 64.226562 18.652344 C 64.257812 18.632812 64.265625 18.59375 64.25 18.5625 C 64.234375 18.539062 64.207031 18.527344 64.179688 18.53125 Z M 85.640625 32.394531 C 85.628906 32.375 85.605469 32.367188 85.585938 32.378906 C 85.570312 32.386719 85.5625 32.402344 85.566406 32.421875 C 85.710938 33.152344 85.667969 33.667969 85.433594 33.972656 C 85.316406 34.121094 85.308594 34.304688 85.414062 34.515625 C 85.65625 35.007812 85.820312 35.390625 85.898438 35.65625 C 86.0625 36.199219 85.847656 36.785156 85.222656 36.804688 C 84.304688 36.828125 83.28125 35.75 82.859375 35.050781 C 82.382812 34.265625 82.335938 32.953125 82.292969 32.109375 C 82.289062 32.015625 82.238281 31.929688 82.152344 31.878906 C 81.40625 31.453125 80.828125 30.894531 80.429688 30.207031 C 80.375 30.113281 80.277344 30.054688 80.171875 30.046875 L 79.117188 29.992188 C 79.082031 29.992188 79.054688 30.019531 79.054688 30.050781 C 79.054688 30.074219 79.0625 30.097656 79.085938 30.105469 C 80.132812 30.691406 79.582031 32.023438 79.160156 32.910156 C 78.859375 33.542969 77.910156 33.902344 77.488281 34.140625 C 77.351562 34.21875 77.230469 34.324219 77.128906 34.445312 C 76.738281 34.933594 76.257812 35.34375 75.613281 35.195312 C 75.550781 35.183594 75.492188 35.152344 75.445312 35.105469 C 75.128906 34.820312 74.671875 34.355469 74.074219 33.71875 C 73.976562 33.613281 73.824219 33.492188 73.625 33.359375 C 73.59375 33.339844 73.554688 33.347656 73.535156 33.375 C 73.519531 33.398438 73.519531 33.425781 73.535156 33.449219 C 73.78125 33.820312 74.144531 34.234375 74.625 34.695312 C 74.628906 34.703125 74.632812 34.707031 74.640625 34.714844 L 75.371094 35.777344 C 75.507812 35.972656 75.753906 36.058594 75.984375 35.992188 C 76.710938 35.777344 78.535156 35.375 78.316406 36.683594 C 78.25 37.066406 78.070312 37.585938 77.769531 38.246094 C 77.726562 38.335938 77.675781 38.417969 77.613281 38.496094 C 77.238281 38.976562 76.976562 39.347656 76.824219 39.613281 C 76.503906 40.167969 76.019531 40.558594 75.53125 40.832031 C 74.957031 41.15625 74.433594 41.519531 73.964844 41.921875 C 73.855469 42.007812 73.847656 42.167969 73.9375 42.269531 C 73.9375 42.273438 73.941406 42.277344 73.945312 42.28125 C 74.441406 42.800781 74.542969 43.375 74.25 44.011719 C 74.203125 44.113281 74.222656 44.234375 74.296875 44.316406 C 74.984375 45.101562 74.582031 46.511719 74.019531 47.171875 C 73.972656 47.226562 73.914062 47.277344 73.855469 47.320312 C 73.226562 47.761719 72.730469 48.238281 72.375 48.753906 C 72.363281 48.777344 72.339844 48.796875 72.316406 48.808594 L 71.472656 49.25 C 71.375 49.304688 71.324219 49.417969 71.355469 49.523438 C 71.554688 50.199219 71.621094 50.976562 71.175781 51.582031 C 70.828125 52.058594 69.9375 52.484375 69.652344 52.980469 C 69.105469 53.949219 68.632812 54.226562 67.550781 54.652344 C 67.417969 54.703125 67.292969 54.773438 67.183594 54.859375 C 66.582031 55.324219 65.484375 56.449219 64.757812 55.402344 C 64.363281 54.839844 64.105469 54.417969 64.136719 53.625 C 64.148438 53.335938 64.066406 52.773438 63.894531 51.945312 C 63.710938 51.0625 62.539062 51.414062 63.109375 50.117188 C 63.234375 49.828125 63.160156 49.480469 62.921875 49.25 C 62.71875 49.046875 62.566406 48.882812 62.476562 48.75 C 62.429688 48.683594 62.402344 48.605469 62.402344 48.523438 L 62.394531 48.027344 C 62.394531 47.910156 62.371094 47.796875 62.324219 47.6875 C 62.105469 47.148438 61.855469 46.664062 61.574219 46.234375 C 60.992188 45.332031 61.542969 45.070312 62.28125 44.476562 C 62.382812 44.394531 62.441406 44.273438 62.433594 44.144531 L 62.375 42.917969 C 62.371094 42.816406 62.300781 42.730469 62.203125 42.707031 C 61.832031 42.605469 61.363281 42.476562 61.304688 42 C 61.253906 41.566406 60.84375 41.289062 60.753906 40.875 C 60.667969 40.476562 60.570312 39.992188 60.460938 39.417969 C 60.433594 39.28125 60.300781 39.1875 60.160156 39.214844 C 60.144531 39.21875 60.128906 39.222656 60.117188 39.226562 C 59.347656 39.523438 58.808594 39.316406 58.492188 38.609375 C 58.472656 38.558594 58.417969 38.535156 58.367188 38.550781 C 57.523438 38.789062 56.632812 38.796875 55.695312 38.574219 C 54.496094 38.285156 53.414062 38.148438 52.445312 38.164062 C 52.054688 38.167969 51.695312 38.058594 51.582031 37.703125 C 51.199219 36.460938 50.953125 35.675781 50.851562 35.363281 C 50.820312 35.265625 50.78125 35.171875 50.734375 35.082031 C 50.449219 34.511719 50.292969 34.078125 50.269531 33.785156 C 50.195312 32.808594 50.160156 32.21875 50.167969 32.007812 C 50.203125 30.980469 51.050781 30.453125 51.960938 29.980469 C 52.027344 29.945312 52.078125 29.894531 52.117188 29.828125 C 52.617188 28.894531 53.636719 28.359375 54.5625 27.765625 C 54.617188 27.734375 54.65625 27.683594 54.675781 27.625 L 54.863281 27.074219 C 54.953125 26.808594 55.199219 26.628906 55.484375 26.621094 L 56.40625 26.59375 C 56.449219 26.59375 56.492188 26.585938 56.535156 26.578125 L 58.980469 26.1875 C 59.152344 26.160156 59.3125 26.078125 59.433594 25.957031 C 59.996094 25.398438 60.652344 25.199219 61.40625 25.359375 C 61.707031 25.421875 61.867188 25.601562 61.894531 25.898438 C 61.953125 26.628906 61.996094 27.183594 62.03125 27.554688 C 62.035156 27.597656 62.074219 27.628906 62.117188 27.625 C 62.121094 27.625 62.125 27.625 62.132812 27.625 C 62.707031 27.445312 63.316406 27.460938 63.949219 27.671875 C 64.410156 27.824219 64.6875 27.90625 64.773438 27.925781 C 64.835938 27.9375 64.894531 27.933594 64.957031 27.917969 C 65.511719 27.761719 65.871094 27.316406 66.433594 27.292969 C 67.433594 27.257812 68.085938 27.429688 69.34375 27.742188 C 69.546875 27.792969 69.691406 27.785156 69.78125 27.710938 C 69.90625 27.609375 69.917969 27.421875 69.804688 27.289062 C 69.800781 27.285156 69.796875 27.277344 69.792969 27.273438 C 69.300781 26.757812 68.667969 26.234375 67.785156 26.136719 C 67.210938 26.074219 66.660156 25.890625 66.136719 25.582031 C 65.46875 25.183594 65.726562 24.550781 66.492188 24.5 C 66.867188 24.472656 67.355469 24.390625 67.957031 24.25 C 67.988281 24.246094 68.019531 24.242188 68.050781 24.242188 L 70.277344 24.183594 C 70.359375 24.183594 70.425781 24.113281 70.425781 24.03125 C 70.425781 24.003906 70.417969 23.980469 70.40625 23.957031 L 70.105469 23.445312 C 70.035156 23.324219 69.902344 23.25 69.761719 23.246094 C 68.949219 23.242188 68.496094 23.261719 68.402344 23.304688 C 67.839844 23.578125 67.207031 23.800781 66.511719 23.980469 C 66.363281 24.015625 66.21875 24.070312 66.082031 24.140625 L 65.46875 24.449219 C 65.386719 24.492188 65.296875 24.519531 65.203125 24.527344 C 64.84375 24.578125 64.4375 24.5 63.988281 24.300781 C 63.941406 24.277344 63.886719 24.296875 63.859375 24.347656 C 63.847656 24.371094 63.847656 24.402344 63.859375 24.425781 C 64.09375 24.941406 63.957031 25.328125 63.453125 25.59375 C 63.394531 25.628906 63.324219 25.644531 63.253906 25.648438 C 62.601562 25.691406 61.707031 24.824219 61.367188 24.464844 C 61.316406 24.410156 61.246094 24.378906 61.171875 24.371094 C 60.238281 24.320312 59.015625 25.070312 57.921875 25.359375 C 56.972656 25.605469 55.820312 25.9375 55.035156 25.25 C 54.496094 24.777344 55.222656 24.15625 55.640625 24 C 55.707031 23.976562 55.753906 23.914062 55.75 23.84375 C 55.742188 23.382812 56.019531 23.105469 56.578125 23 C 56.703125 22.976562 57.253906 22.933594 58.230469 22.871094 C 58.277344 22.867188 58.3125 22.824219 58.308594 22.777344 C 58.308594 22.765625 58.304688 22.757812 58.296875 22.746094 C 58.089844 22.382812 58.105469 22.097656 58.34375 21.894531 C 58.652344 21.632812 59.210938 21.699219 59.75 21.6875 C 59.839844 21.683594 59.925781 21.65625 60.003906 21.609375 C 60.28125 21.445312 60.5625 21.28125 60.847656 21.113281 C 61.621094 20.660156 62.292969 21.113281 63 21.015625 C 64.203125 20.839844 66.664062 20.628906 67.039062 19.640625 C 67.054688 19.59375 67.03125 19.542969 66.984375 19.527344 C 66.976562 19.523438 66.964844 19.523438 66.957031 19.523438 L 65.695312 19.539062 C 65.589844 19.539062 65.492188 19.515625 65.398438 19.46875 L 64.90625 19.214844 C 64.757812 19.140625 64.578125 19.195312 64.5 19.34375 C 64.480469 19.382812 64.46875 19.429688 64.464844 19.476562 C 64.460938 19.804688 64.339844 20.050781 64.109375 20.210938 C 64.03125 20.265625 63.9375 20.285156 63.84375 20.269531 C 63.359375 20.179688 62.070312 20.21875 61.851562 19.628906 C 61.753906 19.367188 61.65625 19.179688 61.554688 19.066406 C 61.484375 18.984375 61.375 18.945312 61.265625 18.96875 C 59.296875 19.339844 57.238281 19.894531 55.085938 20.628906 C 54.25 20.914062 53.03125 21.460938 51.429688 22.277344 C 48.863281 23.582031 46.800781 25.238281 45.234375 27.253906 C 44.125 28.679688 43.238281 30.121094 42.570312 31.582031 C 41.75 33.382812 41.042969 35.109375 40.632812 37.117188 C 40.625 37.167969 40.65625 37.214844 40.703125 37.226562 C 40.730469 37.234375 40.753906 37.226562 40.777344 37.210938 C 41.03125 37.046875 41.269531 36.992188 41.492188 37.046875 C 41.574219 37.070312 41.648438 37.109375 41.703125 37.175781 C 41.808594 37.296875 41.867188 37.539062 41.875 37.898438 C 41.894531 38.664062 41.890625 39.324219 41.867188 39.875 C 41.867188 39.898438 41.863281 39.921875 41.855469 39.945312 L 41.492188 41.007812 C 41.460938 41.089844 41.507812 41.179688 41.59375 41.210938 C 41.617188 41.21875 41.644531 41.21875 41.671875 41.214844 C 41.941406 41.167969 42.183594 41.191406 42.398438 41.289062 C 42.476562 41.320312 42.546875 41.375 42.59375 41.445312 L 42.894531 41.859375 C 42.949219 41.9375 43.03125 41.992188 43.125 42.011719 C 44.054688 42.242188 44.710938 42.917969 45.097656 44.042969 C 45.304688 44.644531 45.402344 45.074219 45.386719 45.335938 C 45.382812 45.445312 45.355469 45.554688 45.304688 45.65625 L 45.097656 46.085938 C 45.058594 46.167969 45.039062 46.257812 45.039062 46.347656 L 45.050781 47.355469 C 45.050781 47.4375 45.03125 47.523438 44.992188 47.597656 L 44.707031 48.097656 C 44.667969 48.160156 44.644531 48.230469 44.636719 48.300781 C 44.542969 49.144531 45.242188 50.0625 44.546875 51.015625 C 44.367188 51.257812 44.273438 51.5625 44.257812 51.921875 C 44.257812 51.980469 44.265625 52.039062 44.285156 52.09375 C 44.777344 53.546875 45.109375 54.683594 45.277344 55.503906 C 45.347656 55.851562 45.316406 56.285156 45.171875 56.816406 C 45.15625 56.886719 45.175781 56.960938 45.230469 57.007812 C 46.691406 58.359375 48.242188 59.558594 49.882812 60.601562 C 50.664062 61.097656 51.453125 61.320312 52.078125 61.710938 C 52.414062 61.921875 52.933594 62.132812 53.632812 62.347656 C 55.9375 63.058594 57.695312 63.515625 58.914062 63.714844 C 58.972656 63.726562 59.039062 63.71875 59.097656 63.699219 C 59.84375 63.457031 60.601562 63.480469 61.371094 63.773438 C 61.757812 63.921875 62.578125 63.683594 62.988281 63.671875 C 63.375 63.664062 63.902344 63.664062 64.570312 63.675781 C 64.664062 63.679688 64.757812 63.664062 64.84375 63.625 C 65.203125 63.476562 65.558594 63.3125 65.910156 63.136719 C 66.78125 62.695312 67.4375 62.84375 68.257812 63.199219 C 68.398438 63.261719 68.566406 63.253906 68.699219 63.175781 L 69.832031 62.527344 C 69.972656 62.449219 70.132812 62.40625 70.292969 62.410156 C 70.507812 62.414062 71.199219 62.402344 72.367188 62.375 C 72.808594 62.359375 73.164062 62.503906 73.441406 62.804688 C 73.515625 62.890625 73.636719 62.917969 73.742188 62.886719 C 74.574219 62.613281 75.421875 62.214844 76.273438 61.695312 C 77.941406 60.679688 79.875 59.984375 81.140625 58.46875 C 82.613281 56.703125 83.492188 55.644531 83.777344 55.292969 C 85.34375 53.34375 86.125 51.789062 86.847656 49.386719 C 87.078125 48.636719 87.285156 47.535156 87.46875 46.089844 C 87.707031 44.246094 87.835938 43.132812 87.859375 42.746094 C 87.910156 41.789062 87.859375 40.445312 87.703125 38.71875 C 87.585938 37.414062 87.84375 36.34375 87.117188 35.105469 C 86.617188 34.246094 86.125 33.34375 85.644531 32.394531 Z M 74.96875 25.03125 C 74.882812 24.839844 74.703125 24.710938 74.492188 24.691406 C 73.714844 24.617188 73.507812 23.839844 73.226562 23.089844 C 73.191406 23 73.089844 22.957031 73 22.988281 C 72.988281 22.992188 72.976562 23 72.964844 23.007812 L 72.941406 23.023438 C 72.839844 23.089844 72.8125 23.226562 72.871094 23.328125 C 73.304688 24.046875 73.695312 24.558594 73.621094 25.234375 C 73.613281 25.308594 73.664062 25.375 73.738281 25.386719 L 74.933594 25.582031 C 75.023438 25.597656 75.109375 25.535156 75.125 25.445312 C 75.128906 25.417969 75.125 25.382812 75.109375 25.355469 Z M 78.269531 29.921875 L 76.964844 29.640625 C 76.929688 29.632812 76.894531 29.621094 76.863281 29.605469 C 76.5 29.414062 76.28125 29.269531 76.203125 29.171875 C 75.523438 28.34375 74.933594 27.703125 74.4375 27.242188 C 74.378906 27.191406 74.285156 27.195312 74.234375 27.253906 C 74.226562 27.261719 74.21875 27.269531 74.214844 27.277344 C 73.828125 27.929688 74.167969 28.554688 74.558594 29.109375 C 74.640625 29.230469 74.757812 29.328125 74.886719 29.398438 L 76.429688 30.191406 C 76.496094 30.226562 76.566406 30.238281 76.636719 30.230469 L 78.265625 30.015625 C 78.292969 30.015625 78.3125 29.996094 78.316406 29.96875 C 78.316406 29.941406 78.296875 29.921875 78.269531 29.921875 Z M 72.765625 32.324219 L 71.34375 29.929688 C 71.339844 29.917969 71.328125 29.914062 71.316406 29.917969 C 71.316406 29.917969 71.316406 29.917969 71.3125 29.917969 C 71.132812 30.023438 71.300781 30.636719 71.691406 31.292969 L 71.726562 31.355469 C 72.113281 32.011719 72.574219 32.457031 72.75 32.351562 C 72.757812 32.347656 72.765625 32.332031 72.757812 32.324219 Z M 44.328125 55.835938 C 44.332031 55.820312 44.082031 54.949219 43.582031 53.222656 C 43.382812 52.535156 43.292969 52.023438 43.316406 51.691406 C 43.351562 51.171875 43.523438 50.6875 43.84375 50.234375 C 43.90625 50.140625 43.925781 50.027344 43.898438 49.917969 C 43.695312 49.101562 43.445312 48.300781 43.851562 47.625 C 44.003906 47.367188 44.085938 47.226562 44.101562 47.203125 C 44.148438 47.113281 44.164062 47.007812 44.140625 46.910156 C 44.023438 46.339844 44.125 45.820312 44.445312 45.347656 C 44.496094 45.273438 44.507812 45.179688 44.488281 45.09375 C 44.285156 44.355469 43.996094 43.378906 43.429688 43.09375 C 43.308594 43.03125 42.980469 42.902344 42.445312 42.695312 C 42.386719 42.671875 42.328125 42.632812 42.289062 42.585938 L 41.976562 42.207031 C 41.886719 42.097656 41.746094 42.039062 41.605469 42.046875 C 40.085938 42.128906 40.648438 40.574219 40.976562 39.777344 C 40.992188 39.726562 41.003906 39.675781 41.007812 39.625 L 41.105469 37.882812 C 41.105469 37.847656 41.082031 37.820312 41.046875 37.816406 C 41.042969 37.816406 41.039062 37.816406 41.039062 37.816406 L 40.617188 37.839844 C 40.574219 37.839844 40.535156 37.871094 40.527344 37.917969 L 40.214844 40.519531 C 40.214844 40.535156 40.214844 40.546875 40.214844 40.5625 C 40.273438 41.007812 40.292969 41.320312 40.273438 41.503906 C 39.980469 44.320312 40.773438 47.332031 41.417969 49.875 C 41.871094 51.660156 42.648438 53.457031 43.753906 55.273438 C 43.796875 55.34375 43.953125 55.542969 44.214844 55.859375 C 44.238281 55.890625 44.277344 55.894531 44.304688 55.871094 C 44.316406 55.863281 44.324219 55.851562 44.328125 55.835938 Z M 69.457031 64.023438 L 71.515625 63.515625 C 71.535156 63.515625 71.550781 63.496094 71.550781 63.476562 C 71.550781 63.457031 71.53125 63.4375 71.507812 63.4375 C 71.195312 63.414062 70.796875 63.40625 70.3125 63.414062 C 70.082031 63.421875 69.777344 63.585938 69.398438 63.914062 C 69.371094 63.933594 69.363281 63.972656 69.386719 64 C 69.402344 64.023438 69.429688 64.03125 69.457031 64.023438 Z M 65.171875 64.476562 C 66.242188 64.515625 67.273438 64.445312 68.261719 64.261719 C 68.296875 64.257812 68.320312 64.226562 68.3125 64.195312 C 68.308594 64.171875 68.296875 64.152344 68.273438 64.144531 L 67.164062 63.773438 C 66.933594 63.695312 66.679688 63.707031 66.457031 63.804688 L 65.148438 64.371094 C 65.121094 64.382812 65.109375 64.414062 65.121094 64.441406 C 65.128906 64.460938 65.148438 64.476562 65.171875 64.476562 Z M 65.171875 64.476562 " fill-opacity="1" fill-rule="nonzero"/></g><path fill="#5f6738" d="M 75.675781 23.96875 C 75.3125 23.816406 75.027344 23.535156 74.816406 23.125 C 74.753906 23.007812 74.773438 22.863281 74.859375 22.761719 L 75.390625 22.167969 C 75.441406 22.113281 75.507812 22.070312 75.582031 22.054688 C 76 21.953125 76.292969 22.050781 76.457031 22.347656 C 76.492188 22.40625 76.511719 22.476562 76.511719 22.550781 C 76.527344 23.03125 76.464844 23.402344 76.335938 23.667969 C 76.203125 23.933594 75.914062 24.066406 75.675781 23.96875 Z M 75.765625 23.125 C 75.804688 22.992188 75.78125 22.886719 75.695312 22.816406 C 75.667969 22.792969 75.632812 22.785156 75.601562 22.792969 C 75.496094 22.8125 75.472656 22.902344 75.523438 23.054688 C 75.550781 23.128906 75.625 23.1875 75.6875 23.1875 C 75.726562 23.1875 75.757812 23.164062 75.765625 23.125 Z M 75.765625 23.125 " fill-opacity="1" fill-rule="nonzero"/><path fill="#5f6738" d="M 73.660156 48.417969 C 73.648438 47.773438 74.582031 47.496094 75.148438 47.53125 C 75.265625 47.539062 75.382812 47.492188 75.457031 47.402344 C 75.6875 47.121094 75.988281 46.734375 76.351562 46.226562 C 76.847656 45.546875 77.417969 46.191406 77.433594 46.773438 C 77.433594 46.832031 77.417969 46.886719 77.394531 46.9375 L 76.996094 47.71875 C 76.988281 47.734375 76.984375 47.753906 76.980469 47.769531 L 76.613281 50.328125 C 76.59375 50.4375 76.546875 50.539062 76.472656 50.628906 C 76.285156 50.847656 75.917969 50.871094 75.8125 51.257812 C 75.71875 51.609375 75.550781 51.886719 75.3125 52.09375 C 75.261719 52.136719 75.203125 52.175781 75.136719 52.199219 C 74.585938 52.410156 74.046875 52.546875 73.515625 52.613281 C 73.269531 52.644531 73.039062 52.519531 72.953125 52.308594 C 72.871094 52.101562 72.949219 51.734375 73.132812 51.507812 C 73.304688 51.300781 73.46875 51.007812 73.632812 50.640625 C 73.65625 50.582031 73.671875 50.515625 73.671875 50.449219 C 73.675781 49.84375 73.671875 49.167969 73.660156 48.417969 Z M 73.863281 51.878906 C 74.40625 51.765625 74.765625 51.640625 74.945312 51.503906 C 75.046875 51.421875 75.121094 51.308594 75.144531 51.179688 C 75.238281 50.722656 75.46875 50.410156 75.839844 50.242188 C 75.90625 50.214844 75.953125 50.15625 75.96875 50.085938 C 76.1875 49.175781 76.304688 48.527344 76.320312 48.132812 C 76.339844 47.617188 76.863281 47.015625 76.855469 46.707031 C 76.855469 46.667969 76.824219 46.640625 76.789062 46.640625 C 76.773438 46.640625 76.757812 46.648438 76.746094 46.660156 C 76.671875 46.726562 76.582031 47.015625 76.453125 47.152344 C 76 47.613281 75.699219 47.929688 75.546875 48.105469 C 75.523438 48.132812 75.496094 48.148438 75.460938 48.15625 L 74.761719 48.296875 C 74.53125 48.34375 74.363281 48.539062 74.359375 48.769531 C 74.34375 49.226562 74.347656 49.785156 74.367188 50.441406 C 74.375 50.652344 74.1875 51.105469 73.800781 51.800781 C 73.785156 51.824219 73.796875 51.859375 73.824219 51.875 C 73.835938 51.878906 73.851562 51.882812 73.863281 51.878906 Z M 73.863281 51.878906 " fill-opacity="1" fill-rule="nonzero"/><g clip-path="url(#fb3c3c3186)"><path fill="#5f6738" d="M 68.785156 73.355469 C 68.792969 73.402344 68.839844 73.433594 68.886719 73.425781 C 68.886719 73.425781 68.886719 73.425781 68.890625 73.425781 C 69.617188 73.234375 70.601562 73.019531 71.847656 72.777344 C 72.84375 72.582031 73.769531 72.117188 74.714844 71.402344 C 76.285156 70.214844 77.234375 69.515625 77.5625 69.304688 C 79.625 67.976562 82.484375 66.863281 84.925781 67.082031 C 86.25 67.195312 86.96875 68.257812 86.59375 69.527344 C 86.332031 70.402344 85.789062 71.128906 84.960938 71.703125 C 84.347656 72.125 83.285156 72.863281 81.765625 73.902344 C 79.902344 75.183594 77.9375 76.289062 76.132812 77.710938 C 74.765625 78.792969 73.476562 79.445312 71.988281 80.5 C 70.371094 81.652344 69.011719 82.5625 67.910156 83.242188 C 66.222656 84.28125 64.320312 84.757812 61.742188 85.453125 C 61.40625 85.546875 61.003906 85.605469 60.539062 85.632812 C 59.980469 85.667969 58.792969 85.730469 56.976562 85.824219 C 54.015625 85.980469 51.976562 85.941406 48.667969 85.9375 C 47.234375 85.9375 45.859375 86.082031 44.480469 86.277344 C 40.445312 86.839844 37.214844 88.632812 33.507812 90.964844 C 32.410156 91.652344 31.753906 92.273438 30.417969 93.367188 C 29.605469 94.027344 28.671875 94.425781 27.890625 93.425781 C 26.964844 92.230469 26.0625 90.5625 25.613281 89.835938 C 24.441406 87.941406 23.628906 85.808594 22.996094 83.691406 C 22.5 82.042969 22.632812 80.425781 23.394531 78.835938 C 23.425781 78.777344 23.46875 78.726562 23.523438 78.691406 C 23.835938 78.492188 24.257812 78.535156 24.574219 78.394531 C 26.644531 77.476562 28.007812 76.402344 30.105469 74.890625 C 30.5625 74.5625 31.117188 74.085938 31.765625 73.453125 C 32.914062 72.335938 33.992188 71.484375 35 70.894531 C 36.460938 70.039062 37.992188 68.980469 39.507812 68.460938 C 40.75 68.035156 42.019531 67.746094 43.316406 67.59375 C 45.679688 67.3125 47.472656 67.25 49.542969 68.125 C 50.414062 68.496094 51.574219 69.007812 53.015625 69.65625 C 53.703125 69.960938 54.851562 70.261719 56.460938 70.558594 C 58.464844 70.921875 60.160156 71.148438 61.550781 71.242188 C 62.332031 71.292969 63.570312 71.304688 65.269531 71.273438 C 66.390625 71.25 67.148438 71.339844 67.535156 71.539062 C 68.199219 71.875 68.613281 72.480469 68.785156 73.359375 Z M 50.386719 78.375 C 50.496094 78.1875 50.667969 78.03125 50.902344 77.902344 C 52.164062 77.21875 53.480469 76.785156 54.851562 76.609375 C 57.445312 76.273438 60.691406 76.417969 62.765625 76.421875 C 63.992188 76.421875 64.902344 76.21875 66.066406 75.921875 C 66.796875 75.738281 67.253906 75.167969 67.371094 74.445312 C 67.421875 74.144531 67.476562 73.921875 67.535156 73.78125 C 67.558594 73.730469 67.566406 73.679688 67.5625 73.625 C 67.511719 72.914062 67.101562 72.570312 66.332031 72.597656 C 65.609375 72.625 64.136719 72.621094 61.914062 72.59375 C 61.011719 72.582031 59.140625 72.359375 56.296875 71.929688 C 54.730469 71.691406 53.429688 71.339844 52.394531 70.871094 C 49.808594 69.695312 48.0625 68.65625 45.511719 68.714844 C 43.398438 68.757812 41.445312 69.09375 39.660156 69.714844 C 38.71875 70.042969 37.710938 70.746094 36.003906 71.757812 C 34.605469 72.585938 33.320312 73.59375 32.1875 74.757812 C 31.921875 75.03125 31.53125 75.351562 31.015625 75.71875 C 28.640625 77.394531 27.132812 78.570312 24.867188 79.328125 C 24.621094 79.410156 24.441406 79.617188 24.394531 79.867188 L 24.101562 81.507812 C 24.097656 81.527344 24.097656 81.550781 24.101562 81.574219 C 24.148438 82.136719 24.226562 82.59375 24.335938 82.941406 C 24.972656 84.984375 25.785156 87.089844 26.914062 89.042969 C 27.683594 90.378906 28.179688 91.472656 29.046875 92.472656 C 29.078125 92.511719 29.132812 92.515625 29.171875 92.484375 C 30.546875 91.410156 31.824219 90.257812 33.347656 89.347656 C 36.445312 87.496094 39.550781 85.738281 42.941406 85.109375 C 45.023438 84.726562 46.652344 84.539062 47.820312 84.546875 C 51.53125 84.574219 55.265625 84.507812 59.023438 84.347656 C 60.261719 84.292969 61.257812 84.167969 62.015625 83.964844 C 63.621094 83.53125 65.578125 83.027344 67.042969 82.125 C 68.097656 81.476562 69.507812 80.554688 71.269531 79.359375 C 72.726562 78.375 74.230469 77.578125 75.636719 76.476562 C 76.402344 75.878906 77.269531 75.277344 78.238281 74.671875 C 80.449219 73.300781 81.566406 72.476562 84.285156 70.628906 C 84.667969 70.371094 85.679688 69.210938 85.34375 68.636719 C 85.246094 68.46875 85.09375 68.382812 84.890625 68.378906 C 82.472656 68.320312 79.941406 69.34375 77.992188 70.636719 C 77.710938 70.824219 76.761719 71.488281 75.144531 72.625 C 74.253906 73.253906 73.367188 73.648438 72.488281 73.808594 C 71.34375 74.019531 70.148438 74.210938 68.894531 74.386719 C 68.8125 74.398438 68.738281 74.457031 68.714844 74.535156 C 68.5625 74.988281 68.363281 75.421875 68.121094 75.832031 C 67.511719 76.863281 66.605469 77.050781 65.304688 77.34375 C 64.578125 77.511719 64.078125 77.597656 63.808594 77.601562 C 62.363281 77.617188 60.730469 77.621094 58.90625 77.613281 C 56.324219 77.597656 54.3125 77.914062 51.703125 78.445312 C 51.277344 78.535156 50.863281 78.558594 50.46875 78.53125 C 50.414062 78.527344 50.371094 78.476562 50.375 78.417969 C 50.375 78.402344 50.378906 78.386719 50.386719 78.375 Z M 50.386719 78.375 " fill-opacity="1" fill-rule="nonzero"/></g></svg>