<svg width="90" height="61" viewBox="0 0 90 61" fill="none" xmlns="http://www.w3.org/2000/svg">
<path d="M73.3067 32.3042C71.3728 32.3042 70.3384 31.4947 70.1136 31.2698C69.6189 30.8201 69.4839 30.1005 69.7987 29.5608C73.4866 22.8148 80.6374 22.8148 83.9204 23.7592C84.4151 23.8942 84.7749 24.2989 84.9099 24.7487C85.0448 25.2434 84.8649 25.7381 84.5051 26.0979C79.3331 31.1349 75.6453 32.3042 73.3067 32.3042ZM73.2167 29.4709C74.476 29.5159 76.7696 28.9762 80.2776 26.1428C78.1638 26.1878 75.3305 26.8174 73.2167 29.4709Z" fill="white"/>
<path d="M49.4712 60.3678C48.7067 60.3678 48.077 59.7382 48.077 58.9736V48.7197C48.077 46.7408 45.8733 45.1218 43.2199 45.1218H42.2305C39.622 45.1218 37.3733 46.7858 37.3733 48.7197V58.9736C37.3733 59.7382 36.7437 60.3678 35.9791 60.3678C35.2146 60.3678 34.585 59.7382 34.585 58.9736V48.7197C34.585 45.1668 38.003 42.2885 42.2305 42.2885H43.2199C47.4474 42.2885 50.8654 45.1668 50.8654 48.7197V58.9736C50.8654 59.7382 50.2358 60.3678 49.4712 60.3678Z" fill="white"/>
<path d="M75.7801 60.3678H3.3727C2.60815 60.3678 1.97852 59.7382 1.97852 58.9736C1.97852 58.2091 2.60815 57.5795 3.3727 57.5795H75.7801C76.5447 57.5795 77.1743 58.2091 77.1743 58.9736C77.1743 59.7382 76.5447 60.3678 75.7801 60.3678Z" fill="white"/>
<path d="M42.725 37.9709C40.2065 37.9709 38.1377 35.9021 38.1377 33.3836C38.1377 30.865 40.2065 28.7963 42.725 28.7963C45.2435 28.7963 47.3123 30.865 47.3123 33.3836C47.3123 35.9021 45.2435 37.9709 42.725 37.9709ZM42.725 31.5846C41.7356 31.5846 40.9261 32.3941 40.9261 33.3836C40.9261 34.373 41.7356 35.1825 42.725 35.1825C43.7144 35.1825 44.5239 34.373 44.5239 33.3836C44.5239 32.3941 43.7144 31.5846 42.725 31.5846Z" fill="white"/>
<path d="M18.0343 59.1535C17.2698 59.1535 16.6401 58.5239 16.6401 57.7594V51.0133C16.6401 50.2488 17.2698 49.6191 18.0343 49.6191C18.7989 49.6191 19.4285 50.2488 19.4285 51.0133V57.7594C19.4735 58.5239 18.8438 59.1535 18.0343 59.1535Z" fill="white"/>
<path d="M6.38637 59.1535C5.62182 59.1535 4.99219 58.5239 4.99219 57.7593V44.5371C4.99219 43.7726 5.62182 43.1429 6.38637 43.1429C7.15092 43.1429 7.78055 43.7726 7.78055 44.5371V57.7593C7.78055 58.5239 7.15092 59.1535 6.38637 59.1535Z" fill="white"/>
<path d="M18.0342 52.4074C14.976 52.4074 11.6479 49.1243 11.6479 39.9048C11.6479 32.2143 14.3014 21.7804 15.9204 16.2037C16.1903 15.2593 17.0448 14.6296 18.0342 14.6296C19.0236 14.6296 19.8781 15.2593 20.148 16.2037C21.722 21.7355 24.4204 32.2143 24.4204 39.9048C24.4204 47.5053 21.9019 52.4074 18.0342 52.4074ZM18.0342 19.082C16.64 24.254 14.4813 33.3386 14.4813 39.9048C14.4813 46.291 16.2802 49.6191 18.0342 49.6191C19.7432 49.6191 21.5871 46.2011 21.5871 39.9048C21.6321 33.2937 19.4284 24.209 18.0342 19.082Z" fill="white"/>
<path d="M6.38624 45.9312C3.32804 45.9312 0 42.6481 0 33.4286C0 25.7381 2.65344 15.3042 4.27249 9.72752C4.54233 8.78307 5.39683 8.15344 6.38624 8.15344C7.37566 8.15344 8.23016 8.78307 8.5 9.72752C10.0741 15.2593 12.7725 25.7381 12.7725 33.4286C12.7275 41.0291 10.254 45.9312 6.38624 45.9312ZM6.38624 12.6058C4.99206 17.7778 2.83333 26.8624 2.83333 33.4286C2.83333 39.8148 4.63228 43.1429 6.38624 43.1429C8.09524 43.1429 9.93915 39.7249 9.93915 33.4286C9.93915 26.8175 7.78042 17.7328 6.38624 12.6058Z" fill="white"/>
<path d="M67.8201 27.8519C65.3466 27.8519 61.119 25.963 60.3095 18.5424C60.2646 18.0927 60.4444 17.598 60.8042 17.3281C61.164 17.0133 61.6587 16.9234 62.1085 17.0583C65.0317 17.9577 70.3386 21.1509 69.5291 26.6376C69.4392 27.2673 68.9444 27.762 68.2698 27.807C68.1349 27.8519 68 27.8519 67.8201 27.8519ZM63.5926 20.7911C64.3571 23.4445 65.7513 24.4339 66.7407 24.8387C66.4259 22.9498 64.9418 21.6006 63.5926 20.7911Z" fill="white"/>
<path d="M69.3493 35.3175C68.5847 35.3175 67.9551 34.6879 67.9551 33.9233C67.9551 4.78047 82.5265 0.238141 83.1561 0.0582473C83.9207 -0.16662 84.6852 0.283115 84.9101 1.00269C85.135 1.72227 84.6852 2.53179 83.9657 2.75666C83.8757 2.80163 80.6376 3.83603 77.3995 8.06354C74.3413 12.0662 70.7434 19.8016 70.7434 33.9233C70.7434 34.6879 70.1138 35.3175 69.3493 35.3175Z" fill="white"/>
<path d="M76.8594 39.725C76.6345 39.725 76.4096 39.68 76.2297 39.5451L42.7694 22.0054L22.8461 32.4393C22.1715 32.7991 21.317 32.5292 20.9573 31.8546C20.5975 31.18 20.8673 30.3255 21.5419 29.9657L42.1398 19.1721C42.5446 18.9472 43.0393 18.9472 43.444 19.1721L77.5789 37.0266C78.2536 37.3864 78.5234 38.2409 78.1636 38.9155C77.8488 39.4551 77.3541 39.725 76.8594 39.725Z" fill="white"/>
<path d="M69.3492 60.3678C68.5847 60.3678 67.9551 59.7382 67.9551 58.9736V33.9234C67.9101 33.3387 67.2805 18.2726 75.1508 12.2012C78.6138 9.50274 83.1111 9.00803 88.5529 10.717C88.9577 10.8519 89.3175 11.1668 89.4524 11.5715C89.5873 11.9763 89.5424 12.426 89.3175 12.7858C89.1376 13.1006 84.4603 20.3414 72.6773 20.7012C70.4736 26.6826 70.7884 33.7885 70.7884 33.8784V59.0186C70.7434 59.7382 70.1138 60.3678 69.3492 60.3678ZM82.7064 12.516C80.4127 12.516 78.4789 13.1456 76.8598 14.4049C75.6905 15.3043 74.7461 16.4736 73.9815 17.7779C80.1879 17.2382 83.8307 14.5848 85.5847 12.8308C84.5953 12.6059 83.6059 12.516 82.7064 12.516Z" fill="white"/>
</svg>
