<svg xmlns="http://www.w3.org/2000/svg" xmlns:xlink="http://www.w3.org/1999/xlink" width="150" zoomAndPan="magnify" viewBox="0 0 112.5 112.499997" height="150" preserveAspectRatio="xMidYMid meet" version="1.0"><defs><clipPath id="b286fa6e0c"><path d="M 1.078125 24.769531 L 112 24.769531 L 112 86 L 1.078125 86 Z M 1.078125 24.769531 " clip-rule="nonzero"/></clipPath></defs><g clip-path="url(#b286fa6e0c)"><path fill="#5f6738" d="M 62.527344 30.121094 C 62.476562 30.109375 62.441406 30.140625 62.40625 30.222656 C 60.949219 31.433594 59.476562 32.632812 57.992188 33.816406 C 57.109375 34.523438 56.800781 36.519531 56.683594 37.597656 C 56.652344 37.902344 56.515625 38.152344 56.273438 38.347656 C 56.21875 38.390625 56.191406 38.453125 56.195312 38.519531 C 56.230469 39.046875 56.132812 39.578125 55.90625 40.113281 C 55.878906 40.1875 55.871094 40.261719 55.886719 40.339844 L 56.082031 41.339844 C 56.085938 41.363281 56.109375 41.378906 56.132812 41.371094 C 56.148438 41.367188 56.160156 41.355469 56.164062 41.339844 C 56.304688 40.402344 56.601562 39.484375 57.050781 38.582031 C 57.710938 37.261719 57.949219 36.476562 58.449219 35.296875 C 58.714844 34.65625 59.199219 34.179688 59.851562 33.769531 C 60.9375 33.085938 61.914062 32.523438 62.773438 32.089844 C 63.871094 31.53125 64.824219 30.980469 65.640625 30.429688 C 67.402344 29.238281 68.617188 28.429688 69.292969 28.011719 C 69.921875 27.617188 70.609375 27.515625 71.351562 27.707031 C 74.136719 28.417969 77.019531 29.371094 80 30.5625 C 80.980469 30.953125 83.027344 31.605469 86.152344 32.511719 C 86.28125 32.550781 86.359375 32.6875 86.320312 32.820312 C 86.316406 32.828125 86.316406 32.835938 86.3125 32.84375 L 86.304688 32.855469 C 86.242188 33.007812 86.082031 33.09375 85.921875 33.070312 C 84.164062 32.785156 82.996094 32.460938 81.242188 31.902344 C 78.96875 31.179688 76.691406 30.238281 74.535156 29.613281 C 73.042969 29.179688 71.953125 28.855469 71.269531 28.636719 C 70.753906 28.472656 70.210938 28.578125 69.644531 28.949219 C 68.164062 29.921875 66.722656 30.910156 65.316406 31.917969 C 64.875 32.234375 64.214844 32.597656 63.339844 33.011719 C 62.621094 33.347656 62.078125 33.632812 61.71875 33.859375 C 60.773438 34.441406 59.695312 34.777344 59.230469 36.070312 C 58.847656 37.136719 58.453125 38.070312 58.042969 38.871094 C 57.613281 39.71875 57.320312 40.503906 57.167969 41.21875 C 56.960938 42.183594 56.582031 43.726562 57.078125 44.378906 C 57.203125 44.539062 57.410156 44.640625 57.699219 44.679688 C 58.414062 44.785156 59.070312 44.660156 59.664062 44.3125 C 61.707031 43.117188 62.738281 41.414062 63.894531 39.417969 C 64.121094 39.023438 64.417969 38.6875 64.785156 38.414062 C 64.953125 38.285156 65.359375 38.117188 66.007812 37.902344 C 67.003906 37.570312 67.691406 37.285156 68.074219 37.046875 C 69.4375 36.203125 70.609375 35.375 72.167969 35.875 C 72.25 35.902344 72.324219 35.9375 72.390625 35.984375 C 74.234375 37.242188 76.210938 38.304688 78.328125 39.179688 C 78.554688 39.273438 78.707031 39.429688 78.789062 39.644531 C 78.847656 39.8125 78.765625 39.996094 78.597656 40.058594 C 78.550781 40.074219 78.5 40.082031 78.445312 40.074219 C 77.8125 39.988281 77.164062 39.785156 76.492188 39.464844 C 76.4375 39.4375 76.375 39.464844 76.347656 39.515625 C 76.335938 39.546875 76.335938 39.574219 76.347656 39.601562 C 76.675781 40.398438 77.050781 41.117188 76.949219 41.683594 C 76.925781 41.804688 76.8125 41.882812 76.695312 41.863281 C 76.671875 41.855469 76.648438 41.847656 76.628906 41.835938 C 76.394531 41.707031 76.226562 41.492188 76.117188 41.195312 C 75.71875 40.113281 75.460938 39.429688 75.347656 39.148438 C 75.304688 39.039062 75.222656 38.953125 75.121094 38.898438 C 74.144531 38.40625 73.019531 37.746094 71.742188 36.917969 C 71.222656 36.582031 70.128906 37.132812 69.621094 37.445312 C 68.445312 38.179688 67.550781 38.636719 65.851562 39.167969 C 65.492188 39.28125 65.164062 39.59375 64.875 40.101562 C 64.855469 40.136719 64.863281 40.179688 64.898438 40.199219 C 64.921875 40.214844 64.949219 40.210938 64.972656 40.199219 L 65.191406 40.074219 C 65.234375 40.046875 65.289062 40.035156 65.339844 40.039062 C 66.804688 40.148438 67.964844 40.070312 69.257812 40.34375 C 69.691406 40.433594 70.285156 40.5 71.042969 40.546875 C 71.234375 40.554688 71.414062 40.625 71.558594 40.75 C 72.960938 41.925781 74.511719 43.007812 76.21875 44 C 76.417969 44.117188 76.589844 44.277344 76.714844 44.472656 L 77.800781 46.160156 C 77.8125 46.171875 77.824219 46.1875 77.835938 46.203125 L 79.164062 47.660156 C 79.203125 47.707031 79.273438 47.710938 79.320312 47.667969 C 79.332031 47.65625 79.339844 47.644531 79.347656 47.632812 C 80.222656 45.625 80.898438 43.535156 81.378906 41.359375 C 81.429688 41.117188 81.535156 40.8125 81.6875 40.445312 C 81.769531 40.253906 81.984375 40.148438 82.164062 40.214844 C 82.222656 40.238281 82.277344 40.277344 82.3125 40.328125 C 82.394531 40.445312 82.414062 40.582031 82.378906 40.742188 C 81.671875 43.648438 81.042969 45.761719 80.476562 47.074219 C 80.230469 47.652344 79.855469 48.425781 79.351562 49.394531 C 79.019531 50.03125 78.550781 50.753906 77.949219 51.550781 C 77.078125 52.707031 76.476562 53.496094 76.152344 53.910156 C 75.367188 54.917969 74.183594 55.992188 72.601562 57.128906 C 72.4375 57.246094 71.871094 57.566406 70.90625 58.089844 C 70.214844 58.460938 69.628906 58.738281 69.144531 58.925781 C 68.796875 59.0625 67.292969 59.707031 64.632812 60.863281 C 64.109375 61.089844 63.285156 61.496094 62.160156 62.082031 C 61.199219 62.578125 60.25 63.367188 59.308594 64.445312 C 58.402344 65.488281 57.828125 66.664062 57.59375 67.972656 C 57.507812 68.476562 57.4375 69.511719 57.390625 71.082031 C 57.347656 72.523438 57.601562 74.035156 58.152344 75.609375 C 58.183594 75.699219 58.257812 75.761719 58.347656 75.785156 C 58.554688 75.835938 58.691406 75.957031 58.761719 76.152344 C 58.78125 76.203125 58.835938 76.226562 58.882812 76.207031 C 58.890625 76.203125 58.898438 76.199219 58.910156 76.191406 C 59.707031 75.542969 60.410156 74.777344 61.011719 73.902344 C 61.945312 72.550781 63.058594 71.230469 64.105469 70.167969 C 65.144531 69.117188 66.367188 68.535156 67.765625 67.847656 C 69.570312 66.960938 71.804688 66.652344 73.695312 66.464844 C 75.476562 66.289062 77.335938 66.535156 79.277344 66.617188 C 81.664062 66.714844 84.117188 67.394531 86.46875 68.21875 C 87.613281 68.621094 88.785156 68.898438 89.984375 69.054688 C 91.714844 69.273438 93.464844 69.359375 95.230469 69.3125 C 95.976562 69.292969 96.660156 69.574219 97.285156 70.152344 C 98.441406 71.230469 99.285156 72.003906 100.628906 73.015625 C 102.214844 74.207031 103.605469 75.25 104.8125 76.132812 C 105.734375 76.8125 106.832031 77.824219 107.894531 78.507812 C 108.539062 78.921875 109.507812 79.464844 110.265625 80.132812 C 110.449219 80.292969 110.476562 80.5625 110.335938 80.730469 C 110.316406 80.753906 110.289062 80.773438 110.269531 80.792969 C 109.773438 81.144531 108.78125 80.09375 108.359375 79.816406 C 107.160156 79.027344 105.800781 78.042969 104.285156 76.863281 C 102.496094 75.476562 101.160156 74.59375 99.226562 73.1875 C 98.144531 72.398438 97.300781 71.535156 96.347656 70.703125 C 96.082031 70.46875 95.699219 70.355469 95.199219 70.363281 C 94.25 70.382812 93.382812 70.535156 92.433594 70.425781 C 90.691406 70.226562 89.523438 70.066406 88.929688 69.953125 C 88.035156 69.78125 86.621094 69.394531 84.6875 68.789062 C 83.710938 68.484375 82.960938 68.28125 82.433594 68.1875 C 81.253906 67.964844 80.476562 67.746094 79.359375 67.730469 C 77.675781 67.703125 76.027344 67.492188 74.59375 67.570312 C 72.59375 67.679688 70.074219 67.96875 68.152344 68.898438 C 66.5625 69.675781 65.476562 70.296875 64.289062 71.640625 C 63.652344 72.355469 62.898438 73.277344 62.023438 74.402344 C 61.199219 75.457031 60.492188 76.160156 59.410156 77.015625 C 59.246094 77.144531 58.863281 77.214844 58.261719 77.226562 C 58.195312 77.226562 58.128906 77.25 58.078125 77.289062 C 56.625 78.375 55.167969 77.566406 54.019531 76.488281 C 52.980469 75.519531 52.25 74.8125 51.824219 74.363281 C 51.285156 73.800781 50.648438 73.285156 49.910156 72.816406 C 47.6875 71.414062 45.675781 70.332031 43.867188 69.574219 C 43.207031 69.296875 42.039062 68.90625 40.363281 68.40625 C 39.054688 68.011719 37.824219 67.757812 36.671875 67.632812 C 34.816406 67.4375 32.917969 68.402344 31.273438 69.320312 C 28.835938 70.683594 26.511719 71.5 23.613281 72 C 21.914062 72.292969 20.414062 72.605469 19.109375 72.9375 C 18.238281 73.160156 17.429688 73.484375 16.683594 73.902344 C 16.238281 74.15625 15.578125 74.714844 14.703125 75.578125 C 13.6875 76.578125 12.960938 77.242188 12.523438 77.566406 C 10.84375 78.808594 8.015625 81.09375 4.039062 84.425781 C 3.683594 84.722656 2.9375 85.210938 1.789062 85.898438 C 1.648438 85.984375 1.460938 85.933594 1.378906 85.789062 C 1.359375 85.757812 1.347656 85.726562 1.339844 85.695312 L 1.316406 85.574219 C 1.28125 85.394531 1.363281 85.214844 1.523438 85.128906 C 2.6875 84.488281 3.492188 83.976562 3.945312 83.585938 C 5.90625 81.890625 7.085938 80.863281 7.484375 80.507812 C 8.738281 79.375 9.851562 78.578125 11.503906 77.328125 C 12.578125 76.515625 13.613281 75.515625 14.460938 74.605469 C 16.082031 72.867188 18.167969 72.304688 20.535156 71.78125 C 21.671875 71.53125 23.035156 71.257812 24.617188 70.96875 C 25.976562 70.71875 27.804688 70.191406 28.679688 69.691406 C 31.082031 68.320312 32.46875 67.480469 34.375 66.847656 C 34.945312 66.65625 35.605469 66.582031 36.351562 66.621094 C 38.429688 66.734375 40.222656 67.304688 42.503906 68.027344 C 45.332031 68.925781 47.804688 70.320312 50.398438 71.945312 C 51.230469 72.464844 51.988281 73.074219 52.679688 73.773438 C 53.625 74.730469 54.308594 75.4375 54.734375 75.890625 C 55.410156 76.613281 56.492188 77.5 57.480469 76.652344 C 57.535156 76.605469 57.554688 76.519531 57.515625 76.453125 C 57.125 75.722656 56.847656 74.917969 56.691406 74.035156 C 56.394531 72.394531 56.324219 70.90625 56.480469 69.558594 C 56.574219 68.703125 56.628906 68.214844 56.632812 68.097656 C 56.632812 68.019531 56.625 67.945312 56.59375 67.871094 C 56.199219 66.820312 55.367188 65.902344 54.09375 65.125 C 51.796875 63.710938 49.6875 62.6875 47.769531 62.046875 C 46.507812 61.625 45.625 61.296875 45.125 61.058594 C 44.261719 60.644531 43.382812 60.289062 42.484375 59.984375 C 41.535156 59.664062 40.8125 59.042969 40.324219 58.121094 C 39.738281 57.019531 38.917969 55.953125 38.347656 55.015625 C 36.210938 51.492188 34.492188 48.5625 33.402344 44.859375 C 32.921875 43.222656 33.160156 41.71875 34.117188 40.34375 C 34.253906 40.148438 34.347656 39.847656 34.664062 39.824219 C 34.804688 39.8125 34.929688 39.929688 34.9375 40.085938 C 34.9375 40.132812 34.929688 40.179688 34.910156 40.21875 C 34.523438 41.082031 34.277344 41.664062 34.171875 41.972656 C 33.976562 42.550781 34.003906 43.785156 34.226562 44.527344 C 34.539062 45.539062 34.871094 46.488281 35.230469 47.375 C 35.257812 47.4375 35.332031 47.46875 35.394531 47.441406 C 35.417969 47.433594 35.4375 47.417969 35.449219 47.394531 C 35.988281 46.550781 36.339844 45.5625 36.671875 44.492188 C 36.832031 43.992188 37.199219 43.632812 37.628906 43.355469 C 37.679688 43.320312 37.691406 43.257812 37.660156 43.207031 C 37.65625 43.203125 37.652344 43.191406 37.644531 43.1875 C 37.445312 43 37.378906 42.746094 37.441406 42.425781 C 37.667969 41.324219 37.917969 40.554688 38.191406 40.128906 C 38.472656 39.6875 38.957031 39.296875 39.648438 38.957031 C 40.914062 38.335938 42.136719 37.605469 43.316406 36.769531 C 43.339844 36.753906 43.34375 36.726562 43.328125 36.703125 C 43.320312 36.6875 43.308594 36.683594 43.292969 36.679688 C 43.136719 36.65625 42.996094 36.683594 42.871094 36.761719 C 42.34375 37.085938 41.578125 37.574219 40.574219 38.21875 C 39.777344 38.738281 38.566406 39.402344 36.9375 40.21875 C 36.703125 40.339844 36.417969 40.273438 36.261719 40.0625 L 36.257812 40.058594 C 36.121094 39.878906 36.160156 39.621094 36.335938 39.488281 C 36.351562 39.476562 36.367188 39.464844 36.382812 39.457031 C 38.804688 38.085938 40.578125 36.976562 41.707031 36.125 C 42.410156 35.589844 43.210938 35.433594 44.117188 35.660156 C 45.25 35.941406 46.375 36.355469 47.488281 36.898438 C 48.003906 37.148438 48.175781 37.316406 48.394531 37.890625 C 48.972656 39.429688 49.703125 40.753906 50.578125 41.871094 C 51.238281 42.714844 52.191406 43.359375 53.429688 43.808594 C 53.5 43.835938 53.574219 43.847656 53.648438 43.851562 C 54.125 43.867188 54.539062 43.851562 54.882812 43.808594 C 55.683594 43.707031 55.457031 43.164062 55.332031 42.523438 C 54.90625 40.316406 54.34375 38.632812 53.570312 36.179688 C 53.285156 35.277344 52.773438 34.558594 52.027344 34.015625 C 48.414062 31.382812 46.160156 29.769531 45.265625 29.179688 C 44.898438 28.9375 44.300781 28.695312 43.46875 28.453125 C 43.121094 28.332031 42.769531 28.332031 42.40625 28.464844 C 40.113281 29.242188 38.199219 30.71875 35.992188 31.660156 C 35.210938 31.992188 34.503906 32.5 33.648438 32.839844 C 32.6875 33.222656 31.917969 33.542969 31.347656 33.800781 C 31.117188 33.902344 30.902344 33.925781 30.699219 33.871094 C 30.554688 33.832031 30.46875 33.683594 30.507812 33.539062 C 30.519531 33.492188 30.546875 33.449219 30.582031 33.414062 C 31.570312 32.453125 33.269531 32.207031 34.496094 31.496094 C 35.246094 31.054688 36.160156 30.753906 36.96875 30.289062 C 39.175781 29.023438 40.257812 28.332031 42.164062 27.644531 C 42.234375 27.621094 42.304688 27.601562 42.375 27.59375 C 44.121094 27.445312 45.664062 28.128906 47.132812 29.300781 C 49.140625 30.902344 51.519531 32.363281 53.449219 34.046875 C 53.792969 34.339844 54.089844 34.808594 54.351562 35.449219 C 54.617188 36.097656 54.828125 36.726562 54.984375 37.335938 C 54.988281 37.359375 55.007812 37.371094 55.027344 37.367188 L 55.039062 37.367188 C 55.070312 37.359375 55.085938 37.332031 55.082031 37.304688 C 54.949219 36.507812 54.890625 35.023438 54.414062 34.175781 C 54.03125 33.488281 53.695312 32.988281 53.414062 32.671875 C 52.597656 31.753906 51.878906 30.714844 50.890625 29.824219 C 50.253906 29.25 49.675781 28.726562 49.152344 28.242188 C 48.628906 27.761719 47.894531 27.171875 47.074219 26.855469 C 46.152344 26.496094 45.433594 26.246094 44.921875 26.105469 C 44.851562 26.089844 44.53125 26.105469 43.960938 26.167969 C 43.949219 26.167969 43.929688 26.175781 43.921875 26.183594 C 43.910156 26.1875 43.910156 26.195312 43.925781 26.195312 C 43.941406 26.195312 43.953125 26.199219 43.960938 26.207031 C 43.964844 26.210938 43.960938 26.222656 43.949219 26.226562 C 43.949219 26.226562 43.945312 26.226562 43.945312 26.230469 C 43.003906 26.585938 42.285156 26.886719 41.785156 27.132812 C 36.191406 29.867188 32.644531 31.574219 31.136719 32.242188 C 28.027344 33.621094 25.628906 34.636719 23.203125 36.394531 C 22.664062 36.785156 22.023438 37.558594 21.609375 38.292969 C 21.246094 38.933594 20.761719 39.6875 20.160156 40.554688 C 19.246094 41.859375 18.441406 43.503906 17.519531 44.726562 C 15.328125 47.652344 14.152344 49.210938 13.984375 49.410156 C 12.253906 51.472656 11.054688 52.6875 8.324219 55.511719 C 7.726562 56.132812 6.9375 56.988281 5.96875 58.078125 C 4.878906 59.300781 3.59375 60.46875 2.117188 61.59375 C 1.929688 61.734375 1.738281 61.796875 1.542969 61.78125 C 1.390625 61.765625 1.277344 61.632812 1.292969 61.480469 C 1.296875 61.441406 1.304688 61.402344 1.328125 61.367188 C 1.382812 61.273438 1.480469 61.148438 1.625 60.988281 C 2.15625 60.398438 3.007812 59.539062 4.179688 58.410156 C 5.121094 57.503906 5.902344 56.484375 6.671875 55.675781 C 7.988281 54.289062 9.65625 52.539062 11.671875 50.421875 C 13.492188 48.511719 15.039062 46.226562 16.644531 44.117188 C 16.960938 43.699219 17.5625 42.75 18.445312 41.261719 C 19.105469 40.15625 19.851562 39.257812 20.503906 38.167969 C 21.3125 36.820312 21.964844 36.023438 23.195312 35.207031 C 24.203125 34.539062 26.160156 33.316406 27.917969 32.554688 C 29.480469 31.875 30.652344 31.351562 31.429688 30.984375 C 34.167969 29.6875 37.460938 28.101562 41.308594 26.222656 C 41.660156 26.054688 42.371094 25.765625 43.445312 25.355469 C 44.140625 25.089844 44.917969 25.070312 45.773438 25.296875 C 47.183594 25.671875 48.402344 26.210938 49.652344 27.253906 C 50.449219 27.917969 51.179688 28.554688 51.847656 29.171875 C 52.792969 30.042969 53.542969 31.066406 54.492188 32.238281 C 55.066406 32.949219 55.496094 33.714844 55.777344 34.535156 C 55.804688 34.613281 55.824219 34.691406 55.835938 34.777344 L 56.058594 36.316406 C 56.0625 36.34375 56.085938 36.363281 56.113281 36.355469 C 56.132812 36.351562 56.148438 36.339844 56.152344 36.320312 C 56.382812 34.859375 56.636719 33.851562 57.800781 32.898438 C 60.257812 30.886719 61.769531 29.621094 62.335938 29.089844 C 63.542969 27.960938 64.386719 27.261719 64.863281 26.984375 C 64.96875 26.925781 65.0625 26.855469 65.144531 26.773438 C 65.734375 26.175781 65.972656 25.859375 66.566406 25.476562 C 67.117188 25.121094 67.777344 24.957031 68.546875 24.988281 C 69.273438 25.015625 70.027344 25.148438 70.808594 25.394531 C 73.492188 26.222656 75.273438 26.820312 76.148438 27.191406 C 78 27.972656 79.824219 28.890625 81.566406 29.777344 C 83.082031 30.550781 85.089844 31.007812 86.363281 31.402344 C 87.558594 31.769531 88.492188 32.117188 89.171875 32.449219 C 90.996094 33.339844 92.597656 35.136719 93.835938 36.742188 C 95.644531 39.078125 96.410156 40.082031 97.722656 42.144531 C 98.160156 42.824219 98.535156 43.355469 98.851562 43.726562 C 99.898438 44.957031 100.613281 46.023438 101.722656 47.195312 C 102.523438 48.039062 103.1875 48.964844 104.082031 49.878906 C 104.53125 50.332031 105.515625 51.375 107.042969 53.003906 C 108.417969 54.46875 109.5 55.363281 110.929688 56.703125 C 111.308594 57.058594 111.820312 57.621094 111.785156 58.175781 C 111.777344 58.308594 111.664062 58.414062 111.527344 58.410156 C 111.507812 58.410156 111.492188 58.40625 111.472656 58.402344 C 111.089844 58.300781 110.800781 58.128906 110.605469 57.894531 C 110.410156 57.660156 109.726562 57.027344 108.558594 56.003906 C 106.722656 54.386719 105.542969 53.023438 103.398438 50.792969 C 102.683594 50.050781 102.117188 49.417969 101.695312 48.902344 C 100.878906 47.890625 100.078125 47.183594 99.378906 46.207031 C 98.539062 45.035156 97.582031 44.050781 96.785156 42.789062 C 95.679688 41.050781 94.351562 39.179688 92.796875 37.175781 C 92.269531 36.492188 91.914062 36.0625 91.738281 35.890625 C 91.300781 35.464844 90.679688 34.664062 90.09375 34.210938 C 89.097656 33.433594 87.867188 32.839844 86.402344 32.433594 C 85.6875 32.234375 84.632812 31.917969 83.246094 31.484375 C 81.316406 30.878906 79.890625 30.019531 77.617188 28.917969 C 76.746094 28.496094 75.859375 28.117188 74.960938 27.789062 C 72.972656 27.058594 71.207031 26.480469 69.667969 26.050781 C 68.636719 25.761719 67.714844 25.855469 66.910156 26.332031 C 66.832031 26.375 66.761719 26.433594 66.703125 26.5 C 66.023438 27.25 65.257812 27.898438 64.40625 28.449219 C 64.296875 28.515625 64.199219 28.59375 64.105469 28.679688 Z M 38.109375 42.957031 C 38.09375 42.988281 38.105469 43.023438 38.136719 43.039062 C 38.15625 43.050781 38.183594 43.046875 38.199219 43.03125 L 39.964844 41.75 C 40.007812 41.71875 40.046875 41.683594 40.085938 41.644531 C 40.488281 41.199219 41.113281 39.960938 41.925781 40.003906 C 43.125 40.070312 44.375 39.878906 45.6875 39.429688 C 45.988281 39.328125 46.238281 39.378906 46.433594 39.578125 C 47.226562 40.402344 48.09375 41.152344 49.023438 41.832031 C 49.046875 41.851562 49.085938 41.847656 49.105469 41.820312 C 49.121094 41.800781 49.121094 41.773438 49.105469 41.75 C 48.339844 40.652344 47.769531 39.460938 47.402344 38.175781 C 47.367188 38.046875 47.269531 37.945312 47.148438 37.902344 L 44.386719 36.914062 C 44.28125 36.878906 44.167969 36.898438 44.082031 36.964844 C 43.296875 37.585938 42.519531 38.167969 41.742188 38.710938 C 41.125 39.148438 39.160156 39.949219 38.945312 40.628906 C 38.648438 41.558594 38.371094 42.335938 38.105469 42.957031 Z M 56.96875 66.574219 C 57.804688 64.441406 59.269531 62.753906 61.367188 61.507812 C 62.265625 60.976562 63.410156 60.382812 64.285156 60.023438 C 65.019531 59.71875 66.679688 59.003906 69.253906 57.878906 C 69.796875 57.640625 70.175781 57.460938 70.394531 57.332031 C 71.328125 56.777344 72.207031 56.378906 73.078125 55.695312 C 74.152344 54.847656 75.058594 53.972656 75.792969 53.070312 C 76.351562 52.386719 77.035156 51.460938 77.847656 50.296875 C 78.222656 49.761719 78.53125 49.226562 78.773438 48.683594 C 78.796875 48.632812 78.789062 48.574219 78.75 48.53125 L 77.140625 46.804688 C 77.117188 46.78125 77.097656 46.753906 77.078125 46.726562 C 76.574219 45.9375 76.222656 45.378906 76.019531 45.054688 C 75.878906 44.828125 75.683594 44.652344 75.425781 44.523438 C 73.769531 43.699219 72.320312 42.679688 71.085938 41.46875 C 71.023438 41.40625 70.941406 41.367188 70.855469 41.359375 L 65.523438 40.835938 C 65.476562 40.832031 65.429688 40.84375 65.382812 40.859375 L 64.011719 41.476562 C 63.976562 41.496094 63.941406 41.523438 63.917969 41.5625 C 63.019531 42.984375 61.890625 44.113281 60.527344 44.945312 C 59.390625 45.640625 58.261719 45.828125 57.136719 45.503906 C 56.648438 45.363281 56.277344 45.015625 56.019531 44.464844 C 55.988281 44.398438 55.910156 44.363281 55.839844 44.394531 C 55.703125 44.449219 55.589844 44.546875 55.503906 44.683594 C 55.460938 44.75 55.441406 44.828125 55.449219 44.90625 C 55.53125 45.5 55.449219 46.046875 55.21875 46.546875 C 55.183594 46.617188 55.125 46.675781 55.050781 46.703125 C 54.144531 47.066406 52.804688 46.363281 52.09375 45.800781 C 51.519531 45.34375 51.226562 44.789062 51.214844 44.125 C 51.214844 44.054688 51.183594 43.992188 51.128906 43.949219 C 50.796875 43.671875 50.472656 43.453125 50.160156 43.300781 C 48.609375 42.554688 47.253906 41.582031 46.089844 40.378906 C 46.007812 40.296875 45.882812 40.269531 45.773438 40.3125 C 44.621094 40.785156 43.417969 40.976562 42.164062 40.890625 C 41.933594 40.871094 41.707031 40.976562 41.574219 41.167969 C 41.191406 41.710938 40.886719 42.191406 40.316406 42.625 C 39.597656 43.171875 38.886719 43.640625 38.1875 44.035156 C 37.820312 44.242188 37.539062 44.550781 37.453125 44.890625 C 37.144531 46.132812 36.609375 47.261719 35.847656 48.273438 C 35.769531 48.375 35.757812 48.511719 35.808594 48.625 C 36.753906 50.605469 37.953125 52.726562 39.40625 54.980469 C 40.03125 55.960938 40.65625 56.925781 41.269531 57.886719 C 41.757812 58.648438 42.429688 58.890625 43.304688 59.203125 C 44.820312 59.742188 46.257812 60.441406 47.773438 60.96875 C 50.144531 61.796875 52.3125 62.84375 54.265625 64.101562 C 55.320312 64.78125 56.160156 65.574219 56.863281 66.582031 C 56.882812 66.613281 56.921875 66.621094 56.949219 66.601562 C 56.960938 66.59375 56.964844 66.582031 56.96875 66.574219 Z M 52.21875 44.667969 C 52.410156 45.226562 53.902344 46.0625 54.515625 46.128906 C 54.660156 46.144531 54.792969 46.039062 54.808594 45.890625 L 54.890625 45.070312 C 54.902344 44.949219 54.8125 44.839844 54.6875 44.828125 C 54.667969 44.828125 54.648438 44.828125 54.628906 44.828125 C 53.847656 44.976562 53.078125 44.886719 52.328125 44.566406 C 52.285156 44.550781 52.238281 44.566406 52.21875 44.609375 C 52.210938 44.628906 52.210938 44.648438 52.21875 44.667969 Z M 52.21875 44.667969 " fill-opacity="1" fill-rule="nonzero"/></g></svg>