<svg version="1.2" xmlns="http://www.w3.org/2000/svg" viewBox="0 0 567 158" width="567" height="158">
	<title>orizzontale colore</title>
	<style>
		.s0 { fill: #5f6738 } 
	</style>
	<g>
		<path class="s0" d="m227.2 142.1l3-6.6c3.2 2.3 8 4 12.5 4 5.2 0 7.3-1.7 7.3-4.1 0-7.1-22.1-2.2-22.1-16.3 0-6.5 5.2-11.8 16-11.8 4.8 0 9.7 1.1 13.2 3.4l-2.7 6.7c-3.5-2-7.2-3-10.5-3-5.2 0-7.2 2-7.2 4.3 0 7 22.1 2.2 22.1 16.1 0 6.4-5.3 11.8-16.1 11.8-6-0.1-12.1-1.9-15.5-4.5z"/>
	</g>
	<path fill-rule="evenodd" class="s0" d="m294.3 138.8v7h-29.5v-38h28.8v7.1h-20v8.2h17.6v6.9h-17.6v8.8z"/>
	<g>
		<path class="s0" d="m326.8 126.2h8v15.4c-4.2 3.1-9.9 4.8-15.4 4.8-11.9 0-20.7-8.2-20.7-19.7 0-11.5 8.8-19.7 20.9-19.7 6.7 0 12.2 2.3 15.9 6.6l-5.6 5.2c-2.8-2.9-6-4.3-9.8-4.3-7.4 0-12.4 4.9-12.4 12.2 0 7.1 5 12.2 12.3 12.2 2.4 0 4.6-0.4 6.8-1.6z"/>
	</g>
	<path class="s0" d="m368 137.7h-17.6l-3.4 8.1h-9l16.9-38h8.7l17 38h-9.2zm-2.7-6.7l-6-14.6-6 14.6z"/>
	<g>
		<path class="s0" d="m408.8 145.8l-7.3-10.6h-0.4-7.7v10.6h-8.8v-38h16.5c10.2 0 16.5 5.3 16.5 13.8 0 5.7-2.9 9.9-7.8 12l8.5 12.2zm-8.2-30.8h-7.2v13.2h7.2c5.4 0 8.1-2.5 8.1-6.6 0-4.2-2.8-6.6-8.1-6.6z"/>
	</g>
	<path fill-rule="evenodd" class="s0" d="m453.9 138.8v7h-29.4v-38h28.7v7.1h-20v8.2h17.7v6.9h-17.7v8.8z"/>
	<path fill-rule="evenodd" class="s0" d="m460.9 107.8h8.8v30.9h19.1v7.1h-27.9z"/>
	<path fill-rule="evenodd" class="s0" d="m493.7 107.8h8.8v30.9h19.1v7.1h-27.9z"/>
	<path fill-rule="evenodd" class="s0" d="m526.5 107.8h8.8v38h-8.8z"/>
	<path class="s0" d="m249.3 88.1h-15.8l-3.4 7.6h-3.1l12.9-28.3h3l12.9 28.3h-3.2zm-1.1-2.5l-6.8-15.2-6.8 15.2z"/>
	<g>
		<path class="s0" d="m281.7 81.5h2.9v10.8c-2.7 2.4-6.5 3.6-10.4 3.6-8.6 0-14.9-6.1-14.9-14.4 0-8.3 6.3-14.4 15-14.4 4.3 0 8 1.4 10.5 4.1l-1.9 1.9c-2.4-2.3-5.2-3.3-8.5-3.3-7 0-12.1 5-12.1 11.7 0 6.7 5.1 11.7 12.1 11.7 2.7 0 5.2-0.6 7.4-2.2v-9.5z"/>
		<path class="s0" d="m313.9 95.6l-6.5-9.1c-0.7 0.1-1.5 0.1-2.3 0.1h-7.6v9h-3v-28.3h10.6c7.2 0 11.6 3.6 11.6 9.7 0 4.4-2.3 7.6-6.5 8.9l6.9 9.7zm-0.1-18.6c0-4.5-3-7.1-8.7-7.1h-7.5v14.2h7.5c5.7 0 8.7-2.6 8.7-7.1z"/>
	</g>
	<path fill-rule="evenodd" class="s0" d="m325.4 67.3h3v28.3h-3z"/>
	<path fill-rule="evenodd" class="s0" d="m427.8 67.3h3v28.3h-3z"/>
	<path fill-rule="evenodd" class="s0" d="m344.7 69.9h-10v-2.6h22.9v2.6h-9.9v25.7h-3z"/>
	<g>
		<path class="s0" d="m363.2 83.5v-16.2h3v16.1c0 6.7 3.2 9.8 8.7 9.8 5.5 0 8.7-3.1 8.7-9.8v-16.1h2.9v16.2c0 8.1-4.4 12.3-11.6 12.3-7.3 0.1-11.7-4.2-11.7-12.3z"/>
		<path class="s0" d="m416.3 95.6l-6.5-9.1c-0.7 0.1-1.5 0.1-2.3 0.1h-7.5v9h-3v-28.3h10.6c7.2 0 11.6 3.6 11.6 9.7 0 4.4-2.3 7.6-6.5 8.9l6.9 9.7zm-0.1-18.6c0-4.5-3-7.1-8.7-7.1h-7.5v14.2h7.5c5.7 0 8.7-2.6 8.7-7.1z"/>
		<path class="s0" d="m438.9 92.2l1.2-2.3c2 2 5.6 3.4 9.3 3.4 5.3 0 7.6-2.2 7.6-5 0-7.8-17.4-3-17.4-13.5 0-4.2 3.2-7.8 10.4-7.8 3.2 0 6.5 0.9 8.8 2.5l-1 2.4c-2.4-1.6-5.3-2.3-7.8-2.3-5.2 0-7.5 2.3-7.5 5.1 0 7.8 17.4 3.1 17.4 13.4 0 4.2-3.3 7.7-10.6 7.7-4.1 0.1-8.3-1.4-10.4-3.6z"/>
	</g>
	<path fill-rule="evenodd" class="s0" d="m497.5 67.3v28.3h-2.9v-22.6l-11.1 19h-1.4l-11.2-18.9v22.5h-2.8v-28.3h2.4l12.3 21 12.2-21z"/>
	<g>
		<path class="s0" d="m505.8 81.5c0-8.2 6.3-14.4 14.9-14.4 8.5 0 14.8 6.1 14.8 14.4 0 8.3-6.3 14.4-14.8 14.4-8.6 0-14.9-6.2-14.9-14.4zm26.7 0c0-6.8-5.1-11.7-11.8-11.7-6.8 0-11.9 5-11.9 11.7 0 6.8 5.1 11.7 11.9 11.7 6.7 0 11.8-5 11.8-11.7z"/>
		<path class="s0" d="m194.7 84.1c-4.3 0-6.6-1.8-7.1-2.3-1.1-1-1.4-2.6-0.7-3.8 8.2-15 24.1-15 31.4-12.9 1.1 0.3 1.9 1.2 2.2 2.2 0.3 1.1-0.1 2.2-0.9 3-11.5 11.2-19.7 13.8-24.9 13.8zm-0.2-6.3c2.8 0.1 7.9-1.1 15.7-7.4-4.7 0.1-11 1.5-15.7 7.4z"/>
		<path class="s0" d="m141.7 146.5c-1.7 0-3.1-1.4-3.1-3.1v-22.8c0-4.4-4.9-8-10.8-8h-2.2c-5.8 0-10.8 3.7-10.8 8v22.8c0 1.7-1.4 3.1-3.1 3.1-1.7 0-3.1-1.4-3.1-3.1v-22.8c0-7.9 7.6-14.3 17-14.3h2.2c9.4 0 17 6.4 17 14.3v22.8c0 1.7-1.4 3.1-3.1 3.1z"/>
		<path class="s0" d="m200.2 146.5h-161c-1.7 0-3.1-1.4-3.1-3.1 0-1.7 1.4-3.1 3.1-3.1h161c1.7 0 3.1 1.4 3.1 3.1 0 1.7-1.4 3.1-3.1 3.1z"/>
		<path class="s0" d="m126.7 96.7c-5.6 0-10.2-4.6-10.2-10.2 0-5.6 4.6-10.2 10.2-10.2 5.6 0 10.2 4.6 10.2 10.2 0 5.6-4.6 10.2-10.2 10.2zm0-14.2c-2.2 0-4 1.8-4 4 0 2.2 1.8 4 4 4 2.2 0 4-1.8 4-4 0-2.2-1.8-4-4-4z"/>
		<path class="s0" d="m71.8 143.8c-1.7 0-3.1-1.4-3.1-3.1v-15c0-1.7 1.4-3.1 3.1-3.1 1.7 0 3.1 1.4 3.1 3.1v15c0.1 1.7-1.3 3.1-3.1 3.1z"/>
		<path class="s0" d="m45.9 143.8c-1.7 0-3.1-1.4-3.1-3.1v-29.4c0-1.7 1.4-3.1 3.1-3.1 1.7 0 3.1 1.4 3.1 3.1v29.4c0 1.7-1.4 3.1-3.1 3.1z"/>
		<path class="s0" d="m71.8 128.8c-6.8 0-14.2-7.3-14.2-27.8 0-17.1 5.9-40.3 9.5-52.7 0.6-2.1 2.5-3.5 4.7-3.5 2.2 0 4.1 1.4 4.7 3.5 3.5 12.3 9.5 35.6 9.5 52.7 0 16.9-5.6 27.8-14.2 27.8zm0-74.1c-3.1 11.5-7.9 31.7-7.9 46.3 0 14.2 4 21.6 7.9 21.6 3.8 0 7.9-7.6 7.9-21.6 0.1-14.7-4.8-34.9-7.9-46.3z"/>
		<path class="s0" d="m45.9 114.4c-6.8 0-14.2-7.3-14.2-27.8 0-17.1 5.9-40.3 9.5-52.7 0.6-2.1 2.5-3.5 4.7-3.5 2.2 0 4.1 1.4 4.7 3.5 3.5 12.3 9.5 35.6 9.5 52.7-0.1 16.9-5.6 27.8-14.2 27.8zm0-74.1c-3.1 11.5-7.9 31.7-7.9 46.3 0 14.2 4 21.6 7.9 21.6 3.8 0 7.9-7.6 7.9-21.6 0-14.7-4.8-34.9-7.9-46.3z"/>
		<path class="s0" d="m182.5 74.2c-5.5 0-14.9-4.2-16.7-20.7-0.1-1 0.3-2.1 1.1-2.7 0.8-0.7 1.9-0.9 2.9-0.6 6.5 2 18.3 9.1 16.5 21.3-0.2 1.4-1.3 2.5-2.8 2.6-0.3 0.1-0.6 0.1-1 0.1zm-9.4-15.7c1.7 5.9 4.8 8.1 7 9-0.7-4.2-4-7.2-7-9z"/>
		<path class="s0" d="m185.9 90.8c-1.7 0-3.1-1.4-3.1-3.1 0-64.8 32.4-74.9 33.8-75.3 1.7-0.5 3.4 0.5 3.9 2.1 0.5 1.6-0.5 3.4-2.1 3.9-0.2 0.1-7.4 2.4-14.6 11.8-6.8 8.9-14.8 26.1-14.8 57.5 0 1.7-1.4 3.1-3.1 3.1z"/>
		<path class="s0" d="m202.6 100.6c-0.5 0-1-0.1-1.4-0.4l-74.4-39-44.3 23.2c-1.5 0.8-3.4 0.2-4.2-1.3-0.8-1.5-0.2-3.4 1.3-4.2l45.8-24c0.9-0.5 2-0.5 2.9 0l75.9 39.7c1.5 0.8 2.1 2.7 1.3 4.2-0.7 1.2-1.8 1.8-2.9 1.8z"/>
		<path class="s0" d="m185.9 146.5c-1.7 0-3.1-1.4-3.1-3.1v-55.7c-0.1-1.3-1.5-34.8 16-48.3 7.7-6 17.7-7.1 29.8-3.3 0.9 0.3 1.7 1 2 1.9 0.3 0.9 0.2 1.9-0.3 2.7-0.4 0.7-10.8 16.8-37 17.6-4.9 13.3-4.2 29.1-4.2 29.3v55.9c-0.1 1.6-1.5 3-3.2 3zm29.7-106.4c-5.1 0-9.4 1.4-13 4.2-2.6 2-4.7 4.6-6.4 7.5 13.8-1.2 21.9-7.1 25.8-11-2.2-0.5-4.4-0.7-6.4-0.7z"/>
	</g>
</svg>