<svg xmlns="http://www.w3.org/2000/svg" xmlns:xlink="http://www.w3.org/1999/xlink" width="2048" zoomAndPan="magnify" viewBox="0 0 1536 1535.999932" height="2048" preserveAspectRatio="xMidYMid meet" version="1.0"><path fill="#5f6738" d="M 1175.117188 456.558594 C 1187.886719 447.511719 1197.34375 435.039062 1205.894531 421.582031 C 1207.355469 419.261719 1209.175781 417.238281 1211.285156 415.539062 C 1240.082031 392.351562 1262.832031 376.640625 1299.523438 366.714844 C 1303.160156 365.734375 1306.183594 365.277344 1308.558594 365.34375 C 1311.320312 365.410156 1314.894531 365.210938 1319.316406 364.785156 C 1323.832031 364.363281 1328.382812 364.65625 1332.800781 365.703125 C 1345.152344 368.574219 1356.167969 370.207031 1355.484375 384.578125 C 1353.925781 416.945312 1340.632812 444.085938 1321.230469 468.90625 C 1312.945312 479.488281 1307.417969 487.519531 1304.65625 493.042969 C 1296.304688 509.597656 1289.21875 526.1875 1283.371094 542.75 C 1278.625 556.136719 1278.917969 572.402344 1275.441406 587.949219 C 1270.402344 610.320312 1247.425781 616.199219 1227.925781 622.566406 C 1203.03125 630.734375 1192.632812 650.460938 1179.601562 671.097656 C 1179.4375 671.359375 1179.242188 671.589844 1179.015625 671.816406 L 1166.40625 683.835938 C 1166.082031 684.164062 1166.082031 684.71875 1166.40625 685.046875 C 1166.535156 685.175781 1166.664062 685.242188 1166.828125 685.273438 C 1180.542969 687.527344 1187.433594 688.636719 1187.464844 688.671875 C 1210.28125 692.949219 1215.707031 711.859375 1207.84375 732.007812 C 1201.050781 749.480469 1190.878906 761.957031 1177.390625 769.4375 C 1176.1875 770.121094 1175.472656 771.429688 1175.570312 772.832031 C 1176.578125 787.238281 1171.054688 805.882812 1170.078125 821.628906 C 1169.394531 832.339844 1166.925781 847.003906 1162.601562 865.617188 C 1153.925781 902.949219 1147.652344 926.300781 1143.722656 935.609375 C 1134.328125 957.980469 1129.617188 969.214844 1129.617188 969.246094 C 1124.285156 982.507812 1118.859375 993.382812 1113.367188 1001.90625 C 1090.910156 1036.753906 1072.90625 1061.511719 1059.355469 1076.238281 C 1042.875 1094.105469 1029.550781 1106.351562 1019.347656 1112.980469 C 1016.261719 1114.972656 1001.179688 1123.988281 974.175781 1139.992188 C 956.136719 1150.671875 935.5 1160.890625 912.976562 1167.390625 C 896.859375 1172.03125 886.132812 1175.296875 880.835938 1177.1875 C 879.859375 1177.550781 879.210938 1178.496094 879.242188 1179.542969 C 879.472656 1191.136719 877.75 1204.882812 874.011719 1220.722656 C 871.019531 1233.394531 865.367188 1246.035156 851.8125 1249.007812 C 815.96875 1256.84375 789.414062 1256.84375 740.632812 1257.042969 C 707.617188 1257.171875 674.304688 1254.296875 644.175781 1253.808594 C 611.679688 1253.253906 587.273438 1246.917969 547.523438 1240.15625 C 530.234375 1237.21875 507.746094 1242.769531 509.957031 1215.824219 C 511.257812 1199.527344 511.9375 1186.007812 511.972656 1175.261719 C 511.972656 1173.988281 511.257812 1172.8125 510.117188 1172.257812 C 495.65625 1165.203125 477.230469 1155.730469 454.835938 1143.84375 C 450.058594 1141.296875 440.796875 1135.386719 427.050781 1126.078125 C 407.875 1113.078125 387.597656 1102.464844 370.46875 1084.992188 C 348.792969 1062.847656 322.792969 1038.777344 306.023438 1017.746094 C 303.75 1014.871094 295.785156 1002.984375 282.167969 982.050781 C 274.726562 970.585938 268.195312 957.816406 262.605469 943.804688 C 245.378906 900.5 236.445312 856.050781 235.828125 810.457031 C 235.730469 804.21875 234.558594 794.878906 232.316406 782.402344 C 231.699219 779.136719 229.945312 776.195312 227.375 774.140625 C 218.761719 767.214844 211.289062 760.847656 205.015625 755 C 189.546875 740.632812 172.09375 704.867188 184.964844 685.273438 C 192.765625 673.386719 204.949219 670.183594 218.503906 672.375 C 223.734375 673.222656 227.179688 673.90625 228.773438 674.464844 C 229.554688 674.757812 230.429688 674.332031 230.722656 673.515625 C 230.789062 673.351562 230.820312 673.191406 230.820312 672.992188 C 230.691406 655.847656 231.601562 643.730469 233.550781 636.644531 C 241.839844 606.464844 257.859375 582.953125 281.617188 566.132812 C 293.1875 557.933594 305.277344 555.355469 317.917969 558.425781 C 318.503906 558.589844 319.085938 558.226562 319.21875 557.640625 C 319.285156 557.414062 319.25 557.183594 319.1875 556.988281 C 315.480469 547.320312 310.574219 535.335938 303.035156 526.351562 C 291.59375 512.734375 280.902344 502.445312 270.992188 495.425781 C 268.78125 493.855469 268.226562 490.789062 269.785156 488.566406 C 270.371094 487.71875 271.21875 487.097656 272.191406 486.738281 C 283.207031 482.851562 294.777344 482.164062 306.835938 484.679688 C 310.019531 485.332031 312.75 487.359375 314.3125 490.230469 C 325.296875 510.414062 334.6875 531.644531 342.519531 553.949219 C 342.941406 555.160156 344.242188 555.8125 345.445312 555.386719 C 345.605469 555.320312 345.769531 555.257812 345.933594 555.160156 C 351.488281 551.730469 355.226562 549.3125 357.210938 547.910156 C 372.679688 536.933594 389.644531 532.167969 408.136719 533.601562 C 409.207031 533.699219 410.214844 532.984375 410.441406 531.9375 C 418.570312 498.691406 432.933594 469.363281 464.683594 454.601562 C 466.472656 453.753906 468.390625 453.195312 470.339844 452.933594 C 485.355469 450.941406 499.132812 447.578125 513.691406 451.269531 C 531.210938 455.710938 553.992188 464.398438 567.804688 479.355469 C 583.078125 495.914062 595.589844 511.984375 608.234375 532.199219 C 628.675781 564.824219 640.34375 583.636719 643.269531 588.667969 C 643.820312 589.582031 644.988281 589.90625 645.898438 589.386719 C 645.964844 589.351562 646.03125 589.289062 646.128906 589.222656 C 652.855469 583.996094 660.75 580.144531 669.882812 577.660156 C 670.46875 577.496094 670.828125 576.910156 670.664062 576.320312 C 670.632812 576.191406 670.566406 576.058594 670.5 575.929688 C 653.765625 552.871094 642 535.921875 635.273438 525.046875 C 631.957031 519.660156 623.800781 505.351562 610.800781 482.101562 C 599.976562 462.667969 593.316406 442.386719 590.847656 421.222656 C 589.578125 410.347656 589.449219 395.550781 595.785156 386.179688 C 609.175781 366.355469 633.484375 372.363281 648.042969 388.628906 C 651.328125 392.253906 657.339844 399.113281 666.148438 409.203125 C 666.472656 409.5625 667.023438 409.597656 667.382812 409.269531 C 667.542969 409.140625 667.640625 408.941406 667.675781 408.746094 C 671.085938 386.605469 674.695312 370.566406 678.496094 360.605469 C 690.390625 329.449219 722.597656 302.246094 758.183594 309.203125 C 775.148438 312.53125 789.449219 339.542969 793.640625 352.929688 C 796.664062 362.5 800.171875 378.472656 804.203125 400.875 C 805.082031 405.644531 804.074219 417.824219 805.015625 419.785156 C 805.308594 420.40625 806.054688 420.667969 806.671875 420.375 C 806.867188 420.277344 807.03125 420.144531 807.128906 419.980469 C 821.882812 399.699219 859.160156 390.488281 868.714844 421.972656 C 874.660156 441.601562 877.910156 453.03125 878.398438 456.199219 C 880.347656 468.546875 879.472656 481.378906 873.261719 493.496094 C 861.433594 516.523438 848.46875 530.273438 827.277344 549.671875 C 810.34375 565.121094 790.945312 577.824219 769.070312 587.753906 C 768.195312 588.144531 767.804688 589.191406 768.195312 590.105469 C 768.289062 590.332031 768.421875 590.527344 768.617188 590.660156 C 782.332031 603.199219 797.085938 608.230469 803.585938 626.648438 C 803.941406 627.628906 804.984375 628.21875 805.992188 627.988281 C 817.558594 625.472656 831.566406 624.363281 848.042969 624.59375 C 859.546875 624.757812 868.8125 628.085938 878.984375 632.527344 C 879.566406 632.789062 880.21875 632.527344 880.476562 631.910156 C 880.609375 631.582031 880.609375 631.191406 880.414062 630.863281 C 870.144531 613.816406 863.285156 595.625 859.875 576.257812 C 857.761719 564.269531 858.605469 545.753906 870.664062 539.644531 C 882.039062 533.832031 895.425781 535.757812 908.816406 535.335938 C 909.628906 535.335938 910.25 534.617188 910.25 533.832031 C 910.25 533.699219 910.25 533.601562 910.183594 533.472656 C 906.671875 521.453125 901.050781 505.613281 899.914062 489.90625 C 898.351562 468.1875 895.753906 455.15625 895.394531 432.847656 C 894.90625 401.5625 925.523438 394.539062 948.371094 406.886719 C 948.953125 407.210938 949.703125 407.015625 950.058594 406.429688 C 950.1875 406.167969 950.253906 405.875 950.1875 405.578125 C 948.5 395.160156 948.207031 386.863281 949.34375 380.757812 C 958.605469 330.039062 987.238281 296.625 1035.238281 280.523438 C 1041.1875 278.535156 1049.34375 278.433594 1059.710938 280.296875 C 1088.082031 285.390625 1096.792969 325.824219 1102.773438 349.570312 C 1104.882812 357.894531 1105.792969 368.902344 1105.566406 382.523438 C 1105.210938 403.847656 1105.113281 421.90625 1105.339844 436.636719 C 1105.339844 437.714844 1106.25 438.53125 1107.289062 438.53125 C 1107.519531 438.53125 1107.746094 438.5 1107.941406 438.402344 C 1111.578125 436.996094 1115.21875 435.363281 1118.859375 433.535156 C 1129.78125 428.046875 1137.96875 428.179688 1151.097656 428.34375 C 1166.503906 428.503906 1173.914062 440.523438 1173.003906 455.382812 C 1172.9375 456.136719 1173.492188 456.757812 1174.238281 456.820312 C 1174.5625 456.820312 1174.855469 456.757812 1175.117188 456.558594 Z M 1070.273438 513.746094 L 1099.195312 491.015625 C 1100.074219 490.296875 1101.375 490.460938 1102.089844 491.34375 C 1102.675781 492.09375 1102.675781 493.105469 1102.121094 493.890625 C 1099.78125 497.058594 1096.433594 500.453125 1092.078125 504.113281 C 1085.742188 509.402344 1078.171875 515.835938 1069.296875 523.414062 C 1068.941406 523.742188 1068.910156 524.296875 1069.199219 524.65625 C 1069.394531 524.882812 1069.6875 524.980469 1070.011719 524.949219 C 1078.203125 523.445312 1089.707031 515.28125 1097.148438 510.21875 C 1097.765625 509.828125 1098.613281 510.023438 1098.96875 510.644531 C 1099.261719 511.132812 1099.230469 511.722656 1098.90625 512.179688 C 1084.507812 529.617188 1060.71875 535.855469 1044.339844 545.917969 C 1043.136719 546.667969 1042.03125 547.546875 1041.089844 548.59375 C 1029.878906 560.777344 1022.078125 573.710938 1006.933594 580.046875 C 1005.859375 580.503906 1005.113281 581.417969 1004.851562 582.558594 C 1001.113281 599.933594 994.941406 616.984375 986.359375 633.738281 C 986.359375 633.738281 985.742188 637.230469 984.574219 644.1875 C 984.378906 645.363281 985.09375 646.472656 986.199219 646.800781 C 989.804688 647.945312 992.828125 647.0625 995.265625 644.21875 C 1002.675781 635.46875 1009.144531 624.558594 1014.632812 611.496094 C 1025.390625 585.957031 1044.144531 556.007812 1074.726562 556.824219 C 1082.429688 557.019531 1087.5625 553.722656 1089.609375 546.570312 C 1095.136719 527.300781 1100.855469 510.773438 1106.800781 496.992188 C 1112.976562 482.65625 1123.441406 474.128906 1138.164062 471.453125 C 1149.378906 469.429688 1155.679688 468.285156 1157.144531 468.054688 C 1160.296875 467.5 1162.40625 464.496094 1161.855469 461.359375 C 1161.855469 461.230469 1161.789062 461.066406 1161.757812 460.9375 L 1158.605469 448.65625 C 1157.566406 444.605469 1153.796875 441.863281 1149.636719 442.1875 L 1135.566406 443.265625 C 1134.003906 443.367188 1132.445312 443.691406 1130.949219 444.179688 C 1129.683594 444.574219 1125.132812 446.792969 1117.300781 450.84375 C 1110.765625 454.207031 1106.085938 455.613281 1103.195312 455.023438 C 1097.960938 453.980469 1094.257812 451.203125 1092.144531 446.664062 C 1091.171875 444.605469 1090.746094 439.742188 1090.84375 432.066406 C 1091.203125 406.917969 1093.574219 377.589844 1088.796875 354.792969 C 1087.074219 346.59375 1083.957031 335.132812 1079.375 320.46875 C 1073.75 302.40625 1059.839844 287.582031 1039.140625 294.4375 C 995.363281 308.90625 970.046875 339.640625 963.253906 386.703125 C 962.117188 394.507812 965.65625 408.484375 961.238281 419.132812 C 960.75 420.308594 959.808594 421.191406 958.605469 421.613281 C 955 422.855469 951.292969 422.367188 947.492188 420.113281 C 935.824219 413.285156 914.828125 407.800781 908.394531 423.933594 C 908.039062 424.78125 907.875 425.730469 907.84375 426.644531 C 907.84375 435.953125 907.84375 441.011719 907.90625 441.832031 C 908.492188 456.398438 911.710938 471.257812 912.492188 483.894531 C 913.660156 502.902344 918.992188 516.328125 924.0625 536.414062 C 925.394531 541.671875 923.898438 545.523438 919.609375 547.972656 C 918.46875 548.625 917.136719 548.921875 915.835938 548.757812 C 904.105469 547.417969 888.992188 544.773438 877.78125 548.203125 C 873.847656 549.410156 870.957031 552.707031 870.273438 556.757812 C 867.738281 571.71875 871.054688 582.300781 876.515625 600.261719 C 879.859375 611.136719 884.605469 619.136719 888.34375 629.457031 C 888.570312 630.015625 888.601562 630.632812 888.472656 631.222656 L 887.757812 634.261719 C 887.496094 635.4375 888.113281 636.613281 889.222656 637.101562 C 909.273438 645.65625 924.386719 661.007812 934.558594 683.152344 C 934.816406 683.769531 935.5625 684.066406 936.179688 683.804688 C 936.539062 683.640625 936.800781 683.316406 936.894531 682.921875 C 939.238281 673.289062 944.015625 664.796875 951.226562 657.480469 C 951.941406 656.761719 951.941406 655.554688 951.226562 654.835938 C 951.132812 654.738281 951.035156 654.671875 950.9375 654.605469 L 949.800781 653.886719 C 949.246094 653.53125 948.792969 652.972656 948.5625 652.320312 C 944.371094 640.335938 939.171875 629.101562 932.964844 618.582031 C 923.765625 602.9375 916 584.03125 925.652344 567.894531 C 925.976562 567.339844 926.5625 566.980469 927.210938 566.917969 L 928.347656 566.816406 C 929 566.753906 929.488281 566.199219 929.421875 565.578125 C 929.421875 565.511719 929.421875 565.445312 929.390625 565.378906 L 927.570312 558.128906 C 927.308594 557.214844 927.863281 556.300781 928.738281 556.039062 C 929.226562 555.910156 929.714844 556.007812 930.136719 556.269531 C 931.273438 557.019531 932.445312 558.523438 933.648438 560.808594 C 940.277344 573.382812 945.414062 586.085938 949.085938 598.890625 C 949.148438 599.316406 949.539062 599.574219 949.960938 599.507812 C 950.382812 599.445312 950.644531 599.054688 950.578125 598.660156 L 949.441406 545.035156 C 949.441406 544.707031 949.410156 544.378906 949.410156 544.023438 L 949.410156 537.03125 C 949.441406 535.921875 950.320312 535.039062 951.421875 535.039062 C 952.367188 535.039062 953.210938 535.726562 953.375 536.675781 C 958.703125 564.464844 960.230469 591.902344 957.957031 619.039062 C 957.011719 630.570312 956.65625 641.25 956.882812 651.078125 C 956.882812 651.667969 957.371094 652.15625 957.988281 652.15625 C 958.152344 652.15625 958.3125 652.125 958.476562 652.027344 C 963.417969 649.316406 968.292969 647.878906 973.101562 647.683594 C 973.945312 647.648438 974.660156 647.0625 974.890625 646.246094 L 981.84375 618.84375 C 981.941406 618.550781 981.972656 618.222656 981.972656 617.898438 C 982.332031 594.414062 982.136719 579.882812 981.324219 574.265625 C 978.105469 551.957031 972.386719 529.847656 964.164062 507.933594 C 957.207031 489.480469 953.210938 473.933594 950.15625 457.277344 C 949.960938 456.035156 950.804688 454.859375 952.039062 454.667969 C 952.953125 454.535156 953.828125 454.925781 954.316406 455.679688 C 955.195312 457.113281 955.746094 458.0625 955.910156 458.519531 C 961.011719 472.074219 968.421875 491.441406 978.136719 516.621094 C 978.300781 517.011719 978.753906 517.207031 979.144531 517.046875 C 979.40625 516.945312 979.601562 516.6875 979.632812 516.425781 C 981.8125 500.355469 984.085938 486.707031 986.394531 475.46875 C 987.398438 470.605469 988.539062 466.585938 989.742188 463.386719 C 990.292969 461.851562 991.074219 461.035156 992.046875 460.871094 C 993.21875 460.640625 994.355469 461.457031 994.582031 462.699219 C 994.617188 462.929688 994.617188 463.125 994.582031 463.355469 C 992.761719 485.789062 989.222656 507.703125 983.988281 529.128906 C 983.566406 530.730469 983.5 532.429688 983.792969 534.09375 C 985.386719 543.433594 986.914062 551.339844 988.34375 557.804688 C 991.039062 570.050781 991.136719 580.863281 990.714844 591.671875 C 990.714844 591.996094 991.007812 592.292969 991.332031 592.292969 C 991.59375 592.292969 991.820312 592.128906 991.917969 591.867188 C 1003.652344 550.714844 1011.289062 506.921875 1014.863281 460.445312 C 1014.992188 458.910156 1014.960938 457.410156 1014.730469 455.90625 C 1009.433594 417.792969 1006.25 392.941406 1005.210938 381.378906 C 1004.917969 378.078125 1005.015625 372.722656 1005.503906 365.308594 C 1005.566406 364.460938 1006.316406 363.808594 1007.160156 363.839844 C 1007.613281 363.839844 1008.003906 364.101562 1008.265625 364.460938 C 1012.945312 370.632812 1013.59375 384.839844 1016.292969 403.324219 C 1016.292969 403.421875 1016.390625 403.523438 1016.488281 403.523438 C 1016.585938 403.523438 1016.683594 403.421875 1016.683594 403.324219 L 1020.355469 346.496094 C 1020.417969 345.679688 1021.132812 345.09375 1021.945312 345.160156 C 1022.53125 345.226562 1023.054688 345.617188 1023.214844 346.203125 C 1026.496094 357.796875 1027.730469 370.765625 1026.953125 385.167969 C 1026.953125 385.199219 1026.953125 385.265625 1026.984375 385.296875 C 1027.082031 385.691406 1027.179688 385.949219 1027.210938 386.082031 C 1027.277344 386.308594 1027.472656 386.605469 1027.632812 386.734375 C 1027.796875 386.863281 1027.863281 386.832031 1027.765625 386.605469 C 1027.535156 385.65625 1027.535156 384.9375 1027.765625 384.515625 C 1027.765625 384.449219 1027.828125 384.414062 1027.863281 384.449219 C 1027.925781 384.449219 1027.960938 384.515625 1027.960938 384.546875 C 1029 407.539062 1028.480469 427.984375 1026.433594 445.878906 C 1026.074219 449.179688 1026.238281 452.085938 1026.917969 454.601562 C 1027.015625 454.894531 1027.339844 455.089844 1027.632812 455.023438 C 1027.828125 454.960938 1027.992188 454.796875 1028.023438 454.601562 C 1034.882812 428.503906 1044.988281 404.535156 1058.347656 382.714844 C 1058.898438 381.738281 1060.132812 381.410156 1061.109375 381.964844 C 1061.921875 382.421875 1062.3125 383.402344 1062.019531 384.316406 L 1059.289062 394.441406 C 1059.125 394.964844 1058.933594 395.488281 1058.703125 396.011719 C 1047.035156 422.527344 1036.832031 451.136719 1028.054688 481.839844 C 1027.730469 482.980469 1026.691406 483.765625 1025.488281 483.730469 C 1025.066406 483.730469 1024.839844 483.730469 1024.773438 483.730469 C 1023.671875 483.832031 1022.761719 484.710938 1022.664062 485.824219 C 1019.605469 515.445312 1014.925781 542.910156 1008.65625 568.15625 C 1008.527344 568.679688 1008.851562 569.203125 1009.371094 569.332031 C 1009.664062 569.398438 1009.957031 569.332031 1010.183594 569.167969 C 1012.328125 567.570312 1014.472656 565.511719 1016.585938 562.996094 C 1025.976562 551.925781 1033.257812 542.648438 1038.359375 535.171875 C 1051.75 515.609375 1067.640625 499.050781 1081.648438 478.996094 C 1082.816406 477.332031 1084.507812 475.664062 1086.75 474.035156 C 1087.757812 473.3125 1089.121094 473.542969 1089.835938 474.554688 C 1090.226562 475.109375 1090.359375 475.796875 1090.164062 476.449219 C 1086.394531 489.546875 1076.644531 500.746094 1069.394531 512.964844 C 1069.199219 513.257812 1069.265625 513.617188 1069.527344 513.84375 C 1069.753906 514.007812 1070.046875 514.007812 1070.273438 513.777344 Z M 748.46875 529.554688 C 748.46875 530.238281 748.988281 530.792969 749.667969 530.828125 C 750.125 530.828125 750.546875 530.597656 750.742188 530.207031 C 764.066406 505.320312 781 484.222656 801.503906 466.914062 C 804.820312 464.136719 808.167969 462.632812 811.546875 462.472656 C 814.472656 462.308594 817.007812 464.5625 817.167969 467.5 C 817.203125 468.152344 817.105469 468.839844 816.910156 469.460938 C 812.914062 481.578125 807 493.042969 799.132812 503.914062 C 781.191406 528.671875 766.859375 554.246094 748.921875 580.535156 C 748.53125 581.089844 748.664062 581.839844 749.214844 582.234375 C 749.539062 582.460938 749.960938 582.527344 750.320312 582.363281 C 773.359375 573.875 792.992188 562.734375 809.144531 548.921875 C 830.785156 530.433594 847.101562 513.679688 859.777344 489.414062 C 866.210938 477.070312 867.121094 465.378906 863.382812 453.195312 C 860.230469 442.875 858.476562 436.929688 858.183594 435.363281 C 855.324219 420.636719 849.863281 410.476562 833.257812 416.390625 C 820.386719 420.960938 814.019531 432.523438 804.757812 445.128906 C 804.136719 445.980469 803.226562 446.566406 802.21875 446.761719 C 793.285156 448.492188 791.660156 443.074219 791.527344 435.003906 C 791.238281 417.921875 791.722656 409.042969 788.894531 395.8125 C 784.996094 377.492188 781.453125 354.335938 769.296875 336.4375 C 763.9375 328.566406 760.003906 324.222656 757.503906 323.472656 C 734.460938 316.417969 714.636719 330.820312 700.855469 348.132812 C 696.011719 354.207031 691.851562 363.351562 688.34375 375.597656 C 682.785156 395.03125 680.25 413.546875 680.769531 431.117188 C 680.867188 433.699219 679.992188 435.953125 678.171875 437.910156 C 675.570312 440.753906 671.152344 440.917969 668.355469 438.269531 C 668.0625 437.976562 667.773438 437.683594 667.511719 437.355469 C 664.914062 433.863281 662.636719 429.84375 660.6875 425.238281 C 660.101562 423.902344 659.386719 422.660156 658.542969 421.515625 C 650.058594 410.117188 641.835938 400.417969 633.808594 392.382812 C 628.316406 386.863281 622.144531 384.773438 615.285156 386.113281 C 609.535156 387.191406 603.976562 393.460938 603.324219 399.242188 C 600.238281 426.675781 609.371094 453.652344 622.4375 477.59375 C 638.554688 507.214844 656.300781 535.367188 675.636719 562.082031 C 677.652344 564.859375 680.675781 568.222656 684.703125 572.140625 C 685.191406 572.632812 685.875 572.859375 686.554688 572.796875 L 707.910156 570.34375 C 708.785156 570.246094 709.433594 569.464844 709.339844 568.582031 C 709.339844 568.515625 709.339844 568.453125 709.304688 568.351562 C 702.449219 541.898438 691.820312 516.882812 677.421875 493.335938 C 668.324219 478.472656 662.734375 468.96875 660.621094 464.886719 C 659.320312 462.371094 660.070312 459.238281 662.3125 457.898438 C 663.15625 457.375 664.164062 457.179688 665.140625 457.34375 C 673.328125 458.648438 687.628906 480.664062 691.269531 487.097656 C 706.347656 513.777344 716.941406 534.617188 723.085938 549.640625 C 723.246094 550.0625 723.734375 550.261719 724.15625 550.0625 C 724.449219 549.933594 724.644531 549.671875 724.644531 549.347656 L 728.351562 395.453125 C 728.382812 393.429688 729.746094 391.699219 731.695312 391.207031 L 732.605469 390.980469 C 734.65625 390.457031 736.734375 391.699219 737.289062 393.789062 C 737.289062 393.917969 737.351562 394.019531 737.351562 394.148438 C 740.863281 416.847656 743.722656 436.800781 745.898438 453.980469 C 748.726562 476.285156 749.605469 501.5 748.46875 529.554688 Z M 1138.585938 487.160156 C 1131.792969 486.183594 1123.605469 497.480469 1121.460938 502.707031 C 1115.511719 517.046875 1109.726562 533.667969 1104.074219 552.515625 C 1101.277344 561.757812 1094.8125 568.027344 1084.671875 571.292969 C 1082.980469 571.8125 1076.742188 572.042969 1065.953125 571.945312 C 1064.910156 571.945312 1063.871094 572.238281 1062.992188 572.796875 C 1050.480469 580.566406 1040.957031 591.410156 1034.394531 605.324219 C 1024.9375 625.3125 1013.238281 653.398438 997.152344 659.40625 C 990.78125 661.792969 978.105469 659.996094 969.65625 663.425781 C 957.535156 668.324219 951.488281 680.503906 948.597656 693.765625 C 946.613281 702.746094 944.339844 711.074219 941.738281 718.683594 C 940.992188 720.808594 938.683594 730.703125 934.753906 748.304688 C 934.558594 749.15625 935.078125 750.039062 935.921875 750.234375 C 936.148438 750.300781 936.375 750.300781 936.605469 750.234375 C 949.277344 747.488281 956.785156 746.019531 959.09375 745.855469 C 965.203125 745.398438 972.710938 743.734375 981.648438 740.890625 C 999.523438 735.175781 1006.996094 732.402344 1024.644531 727.863281 C 1042.097656 723.355469 1059.839844 714.699219 1076.21875 710.027344 C 1095.234375 704.609375 1115.902344 697.421875 1138.164062 688.441406 C 1138.714844 688.214844 1139.269531 688.113281 1139.855469 688.082031 L 1144.730469 687.917969 C 1146.0625 687.886719 1147.261719 687.039062 1147.75 685.796875 C 1150.515625 678.871094 1156.625 671.328125 1166.082031 663.164062 C 1167.609375 661.855469 1168.90625 660.289062 1169.882812 658.558594 C 1180.347656 640.496094 1189.480469 626.945312 1205.371094 615.839844 C 1219.347656 606.042969 1252.367188 603.039062 1259.027344 587.914062 C 1261.726562 581.808594 1263.609375 570.050781 1264.683594 552.613281 C 1264.714844 552.121094 1264.8125 551.632812 1264.910156 551.140625 L 1269.65625 531.773438 C 1269.753906 531.347656 1269.980469 530.957031 1270.304688 530.664062 C 1272.027344 529.03125 1273.71875 525.078125 1275.308594 518.808594 C 1275.992188 516.261719 1280.738281 506.203125 1289.609375 488.632812 C 1292.890625 482.132812 1299.101562 472.953125 1308.167969 461.164062 C 1326.140625 437.84375 1340.339844 415.082031 1340.308594 384.773438 C 1340.308594 383.792969 1339.660156 382.914062 1338.714844 382.652344 C 1299.457031 370.796875 1254.609375 400.746094 1225.976562 423.964844 C 1222.5625 426.742188 1219.933594 429.519531 1218.015625 432.230469 C 1206.867188 448.230469 1198.777344 458.09375 1193.769531 461.785156 C 1182.234375 470.308594 1173.425781 476.382812 1167.378906 480.074219 C 1163.515625 482.425781 1155.777344 484.191406 1144.175781 485.332031 C 1142.878906 485.464844 1141.835938 485.824219 1141.089844 486.445312 C 1140.375 487.03125 1139.464844 487.292969 1138.585938 487.160156 Z M 736.671875 457.050781 C 736.671875 457.050781 736.605469 457.113281 736.539062 457.148438 C 736.378906 457.148438 736.246094 457.375 736.246094 457.636719 C 736.378906 491.503906 735.011719 526.910156 732.121094 563.910156 C 731.859375 567.078125 729.128906 569.429688 726.007812 569.203125 C 725.621094 569.203125 725.195312 569.105469 724.839844 568.972656 C 722.859375 568.351562 721.039062 566.261719 719.414062 562.734375 C 719.21875 562.34375 718.730469 562.214844 718.371094 562.410156 C 718.078125 562.570312 717.917969 562.867188 717.949219 563.195312 C 720.617188 579.066406 720.910156 597.160156 718.792969 617.441406 C 718.664062 618.8125 719.640625 620.019531 721.003906 620.183594 C 721.101562 620.183594 721.199219 620.183594 721.265625 620.183594 L 721.363281 620.183594 C 723.019531 620.183594 724.449219 618.976562 724.742188 617.308594 C 727.277344 601.925781 731.210938 590.265625 736.507812 582.363281 C 749.476562 563.0625 760.75 545.65625 770.273438 530.207031 C 776.414062 520.246094 780.574219 513.976562 782.6875 511.328125 C 790.683594 501.433594 801.117188 488.535156 804.332031 477.234375 C 804.464844 476.84375 804.265625 476.417969 803.878906 476.285156 C 803.617188 476.1875 803.292969 476.285156 803.097656 476.449219 C 780.1875 497.351562 762.34375 524.296875 748.761719 552.707031 C 747.6875 554.929688 744.988281 555.875 742.746094 554.765625 C 741.21875 554.015625 740.246094 552.449219 740.246094 550.75 C 740.246094 509.761719 742.164062 488.632812 736.863281 457.148438 C 736.863281 457.082031 736.800781 457.015625 736.734375 457.015625 C 736.734375 457.015625 736.703125 457.015625 736.671875 457.015625 Z M 688.375 767.152344 C 689.125 767.214844 689.742188 766.660156 689.804688 765.910156 C 689.804688 765.910156 689.804688 765.910156 689.804688 765.878906 C 691.074219 737.203125 681.746094 710.519531 670.402344 682.496094 C 661.5625 660.582031 650.289062 635.566406 636.539062 607.414062 C 629.8125 593.632812 621.65625 579.554688 612.066406 565.21875 C 608.203125 559.4375 599.621094 545.65625 586.394531 523.9375 C 583.4375 519.070312 573.265625 506.527344 555.8125 486.246094 C 554.089844 484.253906 552.074219 482.523438 549.863281 481.085938 C 534.394531 471.257812 521.003906 465.378906 509.664062 463.484375 C 486.132812 459.597656 466.796875 464.496094 451.621094 478.214844 C 427.117188 500.355469 415.644531 555.355469 415.449219 588.765625 C 415.15625 636.773438 419.21875 685.46875 427.570312 734.882812 C 427.734375 735.929688 428.546875 736.710938 429.585938 736.875 L 480.738281 744.878906 C 481.78125 745.042969 482.753906 744.320312 482.949219 743.277344 C 482.949219 743.242188 482.949219 743.179688 482.949219 743.144531 C 484.378906 727.042969 484.769531 720.152344 495.105469 706.667969 C 510.574219 686.515625 530.722656 673.417969 553.863281 665.089844 C 577.847656 656.46875 605.144531 667.703125 621.558594 685.796875 C 635.011719 700.65625 648.402344 725.117188 647.394531 745.660156 C 647.199219 750.136719 646.515625 755.425781 645.347656 761.597656 C 645.121094 762.9375 645.996094 764.210938 647.328125 764.441406 C 647.425781 764.441406 647.523438 764.441406 647.589844 764.472656 Z M 285.355469 494.21875 C 298.417969 507.214844 315.546875 521.84375 320.972656 538.4375 C 325.164062 551.273438 329.457031 561.757812 333.84375 569.921875 C 336.996094 575.800781 338.816406 583.507812 340.148438 588.929688 C 340.539062 590.367188 342 591.246094 343.429688 590.890625 C 344.503906 590.628906 345.316406 589.679688 345.414062 588.570312 C 345.640625 586.285156 345.28125 584.03125 344.40625 581.839844 C 338.621094 567.472656 326.140625 539.515625 307 498.003906 C 305.570312 494.902344 302.480469 492.910156 299.070312 492.910156 L 285.875 492.910156 C 285.453125 492.910156 285.128906 493.234375 285.09375 493.628906 C 285.09375 493.855469 285.191406 494.054688 285.355469 494.21875 Z M 328.9375 588.40625 L 325.101562 573.382812 C 324.839844 572.371094 324.027344 571.585938 322.988281 571.390625 C 304.367188 567.894531 287.628906 573.839844 272.777344 589.253906 C 257.015625 605.585938 247.621094 624.332031 244.601562 645.527344 C 242.878906 657.773438 245.769531 671.785156 245.542969 682.628906 C 245.542969 683.769531 246.09375 684.816406 247.039062 685.40625 C 253.765625 689.617188 259.582031 692.558594 264.523438 694.289062 C 314.214844 711.726562 348.726562 718.683594 416.359375 734.949219 C 417.59375 735.242188 418.828125 734.460938 419.121094 733.21875 C 419.21875 732.824219 419.1875 732.402344 419.089844 732.007812 C 414.734375 718.261719 411.550781 702.875 409.53125 685.894531 C 406.640625 661.660156 404.691406 640.726562 403.683594 623.121094 C 402.316406 599.738281 402.96875 574.265625 405.667969 546.699219 C 405.765625 545.851562 405.148438 545.066406 404.300781 544.96875 C 404.269531 544.96875 404.203125 544.96875 404.171875 544.96875 C 381.714844 544.640625 368.390625 554.113281 350.253906 566.363281 C 348.988281 567.210938 348.46875 568.808594 348.957031 570.246094 L 353.894531 584.390625 C 354.285156 585.53125 355.519531 586.152344 356.65625 585.761719 C 356.820312 585.695312 356.984375 585.628906 357.113281 585.53125 L 374.628906 574.230469 C 375.375 573.742188 376.351562 573.96875 376.839844 574.722656 C 377.035156 575.046875 377.132812 575.441406 377.066406 575.800781 C 376.515625 579.457031 375.214844 582.332031 373.199219 584.390625 C 359.160156 598.988281 332.800781 605.421875 316.035156 591.671875 C 314.703125 590.5625 314.507812 588.601562 315.609375 587.261719 C 316.519531 586.152344 318.113281 585.792969 319.414062 586.414062 L 326.921875 590.070312 C 327.636719 590.429688 328.480469 590.136719 328.839844 589.417969 C 329 589.089844 329.035156 588.734375 328.9375 588.40625 Z M 946.355469 618.257812 L 930.105469 568.941406 C 930.105469 568.941406 930.039062 568.875 930.007812 568.875 L 929.714844 568.972656 C 927.308594 569.824219 928.933594 581.316406 933.324219 594.644531 L 933.648438 595.6875 C 938.035156 609.046875 943.589844 619.238281 945.996094 618.453125 L 946.289062 618.355469 C 946.289062 618.355469 946.355469 618.289062 946.355469 618.257812 Z M 722.566406 766.433594 C 715.839844 742.625 718.113281 720.1875 729.390625 699.121094 C 745.085938 669.824219 766.144531 647.878906 792.535156 633.347656 C 793.511719 632.824219 793.867188 631.613281 793.347656 630.632812 C 793.347656 630.632812 793.347656 630.632812 793.347656 630.601562 C 788.734375 622.535156 785.027344 617.570312 782.234375 615.710938 C 771.867188 608.820312 762.574219 601.570312 754.285156 593.992188 C 753.503906 593.273438 752.496094 592.847656 751.425781 592.78125 C 747.75 592.554688 744.242188 593.566406 740.960938 595.851562 C 739.53125 596.832031 738.457031 598.300781 737.9375 600 L 716.519531 668.945312 C 715.675781 671.589844 713.855469 673.8125 711.386719 675.117188 L 710.28125 675.703125 C 709.402344 676.160156 708.332031 675.804688 707.875 674.921875 C 707.679688 674.527344 707.648438 674.070312 707.746094 673.648438 C 711.15625 661.269531 712.945312 649.316406 713.109375 637.722656 C 713.304688 623.777344 712.914062 606.304688 711.96875 585.335938 C 711.90625 583.800781 710.769531 582.527344 709.242188 582.265625 C 705.566406 581.710938 702.316406 581.679688 699.457031 582.265625 C 682.070312 585.597656 666.765625 586.644531 650.449219 597.878906 C 649.050781 598.824219 648.5625 600.683594 649.34375 602.1875 C 659.257812 621.71875 668.292969 641.574219 676.382812 661.757812 C 691.300781 698.957031 703.03125 729.65625 702.546875 765.941406 C 702.546875 767.214844 703.554688 768.230469 704.820312 768.261719 C 704.820312 768.261719 704.820312 768.261719 704.851562 768.261719 L 721.234375 768.261719 C 722.011719 768.261719 722.664062 767.609375 722.628906 766.792969 C 722.628906 766.660156 722.628906 766.5625 722.597656 766.464844 Z M 823.570312 763.949219 L 831.828125 763.003906 C 832.804688 762.871094 833.519531 762.054688 833.519531 761.109375 L 833.519531 754.445312 C 833.484375 751.832031 835.597656 749.710938 838.195312 749.710938 C 839.660156 749.710938 841.023438 750.363281 841.902344 751.507812 L 847.980469 759.3125 C 848.757812 760.324219 850.027344 760.847656 851.292969 760.71875 L 922.011719 752.683594 C 923.246094 752.554688 924.253906 751.570312 924.417969 750.332031 L 930.332031 705.621094 C 930.398438 705.195312 930.332031 704.738281 930.234375 704.347656 C 925.878906 690.988281 919.25 678.644531 910.378906 667.277344 C 900.5625 654.707031 885.808594 648.5 871.507812 642.554688 C 862.960938 638.996094 854.933594 636.90625 847.394531 636.285156 C 814.277344 633.574219 786.621094 644.613281 764.457031 669.433594 C 739.007812 697.945312 721.816406 726.71875 731.4375 766.59375 C 731.601562 767.214844 732.121094 767.609375 732.738281 767.609375 L 785.125 766.007812 C 786.230469 765.976562 787.238281 765.289062 787.726562 764.277344 C 794.128906 750.460938 805.082031 744.355469 820.582031 745.890625 C 821.65625 746.019531 822.53125 746.738281 822.855469 747.785156 C 824.351562 752.8125 824.125 757.613281 822.207031 762.152344 C 821.949219 762.808594 822.238281 763.589844 822.921875 763.851562 C 823.117188 763.949219 823.34375 763.984375 823.570312 763.949219 Z M 634.914062 762.449219 C 638.003906 748.566406 637.871094 736.84375 634.492188 727.339844 C 624.644531 699.742188 605.339844 676.226562 574.140625 672.175781 C 568.066406 671.359375 560.621094 672.765625 551.816406 676.390625 C 530.789062 685.011719 513.953125 697.71875 501.277344 714.503906 C 494.386719 723.617188 491.5625 733.773438 492.761719 745.007812 C 492.894531 746.25 493.835938 747.261719 495.070312 747.488281 C 542.550781 756.046875 588.441406 761.566406 632.800781 764.046875 C 633.808594 764.113281 634.6875 763.425781 634.914062 762.449219 Z M 1024.191406 748.339844 C 1017.269531 748.601562 1010.863281 750.59375 1004.984375 754.316406 C 1004.234375 754.804688 1003.421875 755.164062 1002.546875 755.394531 C 977.910156 762.511719 952.140625 767.871094 925.230469 771.496094 C 921.230469 772.050781 897.898438 774.859375 855.257812 779.988281 C 827.894531 783.285156 804.496094 784.949219 785.0625 784.984375 C 754.738281 785.082031 724.773438 788.117188 690.457031 785.601562 C 689.253906 785.507812 661.695312 784.003906 607.777344 781.097656 C 588.898438 780.085938 568.875 777.242188 552.953125 775.382812 C 537.96875 773.652344 524.351562 771.753906 512.101562 769.632812 C 457.597656 760.226562 418.339844 755.132812 371.183594 743.34375 C 346.257812 737.136719 325.847656 731.976562 309.957031 727.894531 C 297.3125 724.660156 286.65625 720.773438 271.996094 716.234375 C 251.847656 709.964844 238.164062 701.699219 223.117188 691.445312 C 216 686.582031 208.625 686.582031 200.953125 691.382812 C 199.71875 692.164062 198.808594 693.339844 198.355469 694.746094 C 193.15625 710.945312 208.558594 734.261719 219.609375 744.746094 C 232.707031 757.191406 248.304688 769.925781 267.542969 777.960938 C 297.28125 790.371094 313.757812 798.699219 342.976562 807.679688 C 363.417969 813.953125 379.863281 818.492188 392.375 821.269531 C 465.496094 837.5 532.21875 848.636719 601.929688 848.148438 C 684.703125 847.558594 761.109375 845.957031 831.078125 843.34375 C 879.566406 841.550781 926.660156 833.777344 976.675781 825.773438 C 1001.863281 821.757812 1025.554688 814.933594 1055.355469 801.574219 C 1078.039062 791.417969 1108.621094 784.589844 1128.738281 773.976562 C 1147.359375 764.179688 1162.148438 755.914062 1173.101562 749.15625 C 1174.074219 748.535156 1174.984375 747.847656 1175.796875 747.066406 C 1181.777344 741.351562 1186.816406 732.988281 1190.878906 721.984375 C 1193.996094 713.621094 1191.917969 708.496094 1184.605469 706.601562 C 1173.328125 703.691406 1162.996094 702.910156 1153.570312 704.183594 C 1146.546875 705.164062 1136.246094 708.496094 1122.664062 714.144531 C 1101.441406 723.027344 1080.542969 727.828125 1058.25 736.90625 C 1049.734375 740.335938 1039.398438 743.605469 1027.210938 746.640625 C 1026.496094 746.835938 1025.847656 747.261719 1025.230469 747.882812 C 1024.96875 748.175781 1024.578125 748.339844 1024.191406 748.339844 Z M 815.675781 755.6875 C 814.765625 754.121094 810.378906 754.9375 805.828125 757.515625 C 801.277344 760.128906 798.355469 763.492188 799.230469 765.09375 C 800.140625 766.660156 804.527344 765.84375 809.078125 763.265625 C 813.628906 760.652344 816.550781 757.289062 815.675781 755.6875 Z M 863.351562 1164.746094 C 864.75 1164.648438 865.59375 1164.550781 865.917969 1164.417969 C 878.074219 1159.554688 891.722656 1154.980469 906.867188 1150.703125 C 940.699219 1141.066406 967.1875 1123.824219 1002.382812 1102.988281 C 1016.261719 1094.789062 1030.722656 1082.117188 1045.800781 1065.003906 C 1065.5625 1042.566406 1083.890625 1016.996094 1100.789062 988.320312 C 1109.824219 972.96875 1113.953125 960.460938 1121.558594 944.457031 C 1125.261719 936.652344 1129.421875 925.253906 1134.003906 910.296875 C 1140.570312 888.871094 1145.769531 866.664062 1149.605469 843.640625 C 1151.78125 830.445312 1152.949219 820.582031 1153.113281 814.050781 C 1153.277344 806.441406 1154.707031 796.578125 1157.402344 784.394531 C 1157.632812 783.253906 1156.917969 782.140625 1155.808594 781.914062 C 1155.289062 781.816406 1154.738281 781.914062 1154.285156 782.175781 C 1134.949219 794.550781 1111.09375 802.226562 1088.375 809.152344 C 1079.535156 811.863281 1068.160156 816.335938 1054.285156 822.640625 C 1035.984375 830.933594 1014.925781 837.304688 991.136719 841.746094 C 935.726562 852.097656 886.425781 858.367188 843.265625 860.621094 C 827.082031 861.472656 780.542969 862.417969 703.652344 863.464844 C 640.40625 864.3125 569.625 868.523438 507.90625 860.066406 C 458.023438 853.207031 418.375 846.023438 388.929688 838.480469 C 348.859375 828.191406 321.851562 820.058594 307.910156 814.050781 C 274.273438 799.546875 254.933594 791.1875 249.898438 789 C 249.378906 788.769531 248.792969 789 248.566406 789.523438 C 248.46875 789.71875 248.46875 789.945312 248.53125 790.144531 C 249.929688 796.085938 250.777344 802.585938 251.035156 809.609375 C 252.628906 853.40625 262.148438 896.417969 279.601562 938.644531 C 284.640625 950.792969 290.617188 962.324219 297.605469 973.199219 C 309.921875 992.371094 317.136719 1003.3125 319.25 1005.957031 C 339.042969 1030.84375 366.632812 1055.207031 390.621094 1079.734375 C 401.277344 1090.644531 425.359375 1103.25 440.765625 1113.960938 C 452.171875 1121.898438 460.136719 1126.992188 464.71875 1129.246094 C 485.355469 1139.371094 503.652344 1150.929688 522.207031 1157.921875 C 544.761719 1166.378906 564.617188 1172.746094 581.8125 1177.027344 C 582.234375 1177.125 582.65625 1177.15625 583.078125 1177.15625 C 586.261719 1177.15625 592.535156 1178.105469 601.863281 1179.964844 C 684.898438 1196.6875 769.625 1192.574219 856.070312 1167.621094 C 857.113281 1167.324219 858.640625 1166.609375 860.621094 1165.53125 C 861.46875 1165.070312 862.375 1164.777344 863.351562 1164.746094 Z M 525.101562 1178.984375 L 525.101562 1219.515625 C 525.101562 1221.183594 526.402344 1222.554688 528.058594 1222.617188 C 536.734375 1222.976562 543.429688 1223.566406 548.207031 1224.351562 C 565.691406 1227.222656 583.761719 1230.261719 602.417969 1233.460938 C 616.035156 1235.78125 632.574219 1237.121094 652.042969 1237.445312 C 667.609375 1237.707031 686.363281 1238.492188 708.332031 1239.765625 C 714.863281 1240.125 739.855469 1240.253906 783.308594 1240.125 C 804.007812 1240.058594 827.375 1237.675781 847.949219 1232.546875 C 850.578125 1231.894531 852.789062 1230.066406 853.925781 1227.582031 C 859.160156 1216.183594 860.394531 1203.578125 862.441406 1186.953125 C 862.570312 1185.910156 861.824219 1184.929688 860.785156 1184.800781 C 860.523438 1184.765625 860.261719 1184.800781 860.003906 1184.863281 C 777.683594 1208.738281 694.777344 1213.605469 611.289062 1199.464844 C 577.261719 1193.683594 554.21875 1189.242188 526.824219 1177.8125 C 526.207031 1177.550781 525.457031 1177.84375 525.199219 1178.496094 C 525.132812 1178.660156 525.101562 1178.824219 525.101562 1178.984375 Z M 525.101562 1178.984375 " fill-opacity="1" fill-rule="nonzero"/><path fill="#5f6738" d="M 1080.1875 660.746094 C 1081.160156 660.320312 1087.691406 657.25 1099.8125 651.503906 C 1110.441406 646.441406 1123.898438 641.707031 1140.144531 637.265625 C 1141.21875 636.9375 1142.324219 637.589844 1142.648438 638.667969 C 1142.683594 638.765625 1142.714844 638.894531 1142.714844 639.027344 L 1142.8125 639.875 C 1142.910156 640.628906 1142.488281 641.378906 1141.804688 641.707031 L 1057.207031 680.277344 C 1056.589844 680.570312 1056.039062 680.929688 1055.550781 681.417969 L 1028.933594 707.089844 C 1028.542969 707.515625 1028.542969 708.167969 1028.933594 708.558594 C 1029.195312 708.820312 1029.585938 708.917969 1029.941406 708.820312 L 1059.027344 698.566406 C 1060.199219 698.140625 1061.464844 698.761719 1061.886719 699.9375 C 1061.886719 700.003906 1061.953125 700.101562 1061.953125 700.199219 L 1062.277344 701.636719 C 1062.472656 702.519531 1061.984375 703.433594 1061.140625 703.757812 L 1014.148438 721.882812 C 1013.628906 722.082031 1013.140625 722.34375 1012.652344 722.667969 L 1000.203125 730.964844 C 997.117188 733.023438 993.183594 733.347656 989.773438 731.8125 L 988.441406 731.191406 C 986.523438 730.34375 985.679688 728.089844 986.523438 726.195312 C 986.914062 725.347656 987.597656 724.660156 988.441406 724.269531 L 997.054688 720.351562 C 998.253906 719.792969 999.230469 718.8125 999.75 717.574219 C 1008.851562 695.625 1019.183594 675.410156 1030.789062 656.890625 C 1031.339844 655.976562 1032.476562 655.585938 1033.484375 655.976562 L 1033.582031 655.976562 C 1034.523438 656.402344 1034.980469 657.511719 1034.589844 658.460938 C 1034.589844 658.460938 1034.589844 658.460938 1034.589844 658.492188 L 1012.457031 709.148438 C 1012.199219 709.703125 1012.457031 710.355469 1013.042969 710.617188 C 1013.464844 710.8125 1013.984375 710.714844 1014.34375 710.355469 L 1048.792969 672.796875 C 1048.792969 672.796875 1048.953125 672.699219 1049.019531 672.765625 C 1049.050781 672.765625 1049.082031 672.828125 1049.082031 672.863281 C 1049.34375 673.484375 1049.214844 672.144531 1048.695312 668.78125 C 1048.5 667.539062 1048.464844 666.332031 1048.597656 665.15625 C 1051.425781 640.628906 1059.222656 618.09375 1072.0625 597.550781 C 1073.457031 595.363281 1075.570312 593.171875 1078.398438 591.050781 C 1079.308594 590.398438 1080.542969 590.59375 1081.226562 591.476562 C 1081.648438 592.0625 1081.746094 592.847656 1081.421875 593.53125 C 1069.71875 617.832031 1061.238281 641.476562 1055.972656 664.5 C 1055.777344 665.515625 1056.394531 666.492188 1057.402344 666.691406 C 1058.023438 666.820312 1058.671875 666.625 1059.125 666.167969 L 1107.941406 612.898438 C 1109.144531 611.59375 1110.085938 610.058594 1110.703125 608.394531 C 1121.851562 578.3125 1135.5 549.964844 1151.585938 523.414062 C 1152.105469 522.597656 1153.113281 522.238281 1153.992188 522.566406 L 1154.902344 522.890625 C 1155.582031 523.152344 1155.941406 523.902344 1155.714844 524.589844 C 1155.648438 524.785156 1155.519531 524.980469 1155.355469 525.109375 C 1155.355469 525.109375 1153.570312 530.109375 1150.027344 540.035156 C 1148.140625 545.425781 1146.125 550.128906 1143.980469 554.179688 C 1137.675781 566.035156 1131.761719 578.347656 1126.269531 591.082031 C 1126.140625 591.246094 1126.203125 591.476562 1126.367188 591.605469 C 1126.527344 591.738281 1126.757812 591.671875 1126.886719 591.507812 C 1135.238281 583.703125 1141.609375 577.234375 1146.0625 572.109375 C 1154.738281 562.050781 1168.191406 547.546875 1186.425781 528.605469 C 1193.707031 521.0625 1201.503906 509.828125 1209.890625 502.085938 C 1222.140625 490.753906 1236.050781 477.855469 1251.554688 463.417969 C 1262.148438 453.554688 1270.664062 447.121094 1277.066406 444.148438 C 1277.84375 443.789062 1278.59375 443.722656 1279.273438 443.953125 C 1280.25 444.277344 1280.769531 445.324219 1280.445312 446.304688 C 1280.347656 446.566406 1280.21875 446.792969 1280.054688 446.992188 C 1258.019531 470.605469 1238.390625 490.394531 1221.132812 506.300781 C 1214.441406 512.472656 1207.386719 520.082031 1199.945312 529.128906 C 1189.449219 541.933594 1172.808594 556.695312 1160.589844 571.128906 C 1157.597656 574.6875 1151.652344 581.15625 1142.746094 590.59375 C 1142.421875 590.984375 1142.453125 591.539062 1142.84375 591.902344 C 1143.105469 592.128906 1143.429688 592.195312 1143.722656 592.0625 L 1200.367188 572.140625 C 1200.691406 572.042969 1201.050781 572.011719 1201.375 572.074219 L 1202.21875 572.238281 C 1202.902344 572.695312 1203.066406 573.609375 1202.609375 574.296875 C 1202.511719 574.460938 1202.351562 574.589844 1202.1875 574.6875 C 1185.972656 585.5 1167.21875 593.566406 1145.867188 598.855469 C 1140.179688 600.261719 1133.027344 603.691406 1124.480469 609.210938 C 1124.253906 609.339844 1124.09375 609.503906 1123.929688 609.667969 L 1079.601562 659.832031 C 1079.40625 660.09375 1079.4375 660.453125 1079.699219 660.648438 C 1079.859375 660.777344 1080.054688 660.8125 1080.25 660.746094 Z M 1080.1875 660.746094 " fill-opacity="1" fill-rule="nonzero"/><path fill="#5f6738" d="M 826.953125 740.140625 C 825.425781 741.085938 823.246094 740.433594 822.078125 738.636719 C 812.75 724.464844 803.226562 711.726562 804.691406 695.460938 C 805.144531 690.433594 808.460938 686.480469 812.589844 686.089844 C 839.269531 683.476562 835.824219 718.585938 830.753906 734.457031 C 829.878906 737.234375 828.609375 739.128906 826.953125 740.140625 Z M 825.066406 724.59375 C 827.636719 715.253906 826.953125 706.566406 822.988281 698.53125 C 821.523438 695.59375 818.113281 693.960938 815.351562 694.84375 C 813.789062 695.332031 812.71875 696.574219 812.425781 698.203125 C 811.253906 704.574219 819.023438 718.847656 822.855469 724.921875 C 823.183594 725.507812 823.929688 725.671875 824.515625 725.3125 C 824.773438 725.148438 824.96875 724.886719 825.066406 724.59375 Z M 825.066406 724.59375 " fill-opacity="1" fill-rule="nonzero"/><path fill="#5f6738" d="M 844.957031 746.476562 C 843.429688 746.410156 842.257812 745.105469 842.355469 743.570312 C 842.355469 743.503906 842.355469 743.441406 842.355469 743.375 C 844.5 725.445312 856.300781 708.59375 876.023438 707.90625 C 881.226562 707.742188 884.832031 709.375 886.878906 712.839844 C 893.121094 723.386719 878.789062 731.847656 870.988281 735.40625 C 857.4375 741.578125 850.253906 745.171875 849.507812 746.117188 C 849.214844 746.507812 847.71875 746.640625 844.957031 746.476562 Z M 857.792969 731.683594 L 879.242188 719.5 C 879.242188 719.5 879.339844 719.371094 879.308594 719.273438 L 879.308594 719.207031 C 877.683594 716.363281 871.734375 716.722656 866.015625 719.992188 L 865.042969 720.546875 C 859.320312 723.8125 855.972656 728.710938 857.535156 731.550781 L 857.597656 731.648438 C 857.597656 731.648438 857.730469 731.714844 857.792969 731.648438 Z M 857.792969 731.683594 " fill-opacity="1" fill-rule="nonzero"/><path fill="#5f6738" d="M 311.226562 740.5 C 310.414062 740.171875 309.988281 739.257812 310.347656 738.410156 C 310.476562 738.050781 310.769531 737.753906 311.09375 737.558594 L 311.972656 737.101562 C 313.53125 736.285156 315.351562 736.125 317.007812 736.644531 C 334.527344 742.164062 347.492188 747.585938 366.179688 752.027344 C 409.503906 762.316406 443.953125 769.109375 469.496094 772.441406 C 480.675781 773.910156 486.332031 774.660156 486.460938 774.695312 C 510.019531 778.515625 538.71875 781.945312 572.550781 784.949219 C 584.347656 786.027344 601.277344 786.417969 623.28125 786.125 C 639.398438 785.929688 656.300781 786.746094 673.980469 788.574219 C 693.835938 790.597656 715.21875 790.566406 733.386719 790.46875 C 745.476562 790.402344 773.621094 793.539062 793.738281 792.066406 C 802.09375 791.449219 810.25 790.925781 818.179688 790.4375 C 836.3125 789.292969 851.101562 788.574219 862.570312 788.246094 C 873.070312 787.953125 887.757812 786.355469 906.707031 783.414062 C 926.757812 780.3125 952.074219 777.109375 982.625 773.84375 C 984.378906 773.648438 986.199219 773.191406 988.117188 772.507812 C 990.519531 771.621094 992.339844 771.328125 993.542969 771.558594 C 994.648438 771.785156 995.363281 772.898438 995.101562 774.007812 C 994.972656 774.660156 994.484375 775.214844 993.867188 775.476562 C 983.628906 779.558594 972.0625 782.761719 959.160156 785.015625 C 917.398438 792.296875 880.738281 798.242188 844.699219 798.796875 C 831.894531 798.992188 816.292969 799.710938 797.929688 800.953125 C 781.976562 802.03125 769.070312 802.09375 759.289062 801.117188 C 727.667969 797.949219 695.65625 800.855469 666.015625 797.292969 C 630.625 793.015625 587.5 796.410156 557.277344 792.429688 C 544.957031 790.828125 536.476562 789.78125 531.859375 789.292969 C 507.550781 786.777344 493.542969 783.96875 464.621094 779.820312 C 425.980469 774.300781 387.957031 766.203125 350.515625 755.523438 C 344.503906 753.792969 331.40625 748.792969 311.226562 740.5 Z M 311.226562 740.5 " fill-opacity="1" fill-rule="nonzero"/></svg>